<svg width="47" height="48" viewBox="0 0 47 48" fill="none" xmlns="http://www.w3.org/2000/svg">
<g clip-path="url(#clip0)">
<path d="M23.5 21.7588C29.3209 21.7588 34.0566 17.0426 34.0566 11.2456C34.0566 5.44864 29.3209 0.732422 23.5 0.732422C17.6791 0.732422 12.9434 5.44864 12.9434 11.2456C12.9434 17.0426 17.6791 21.7588 23.5 21.7588Z" fill="white"/>
<path d="M25.7949 24.3032C25.0492 24.4329 24.2825 24.5011 23.5 24.5011C22.7175 24.5011 21.9508 24.4329 21.2051 24.3032V28.1578H22.0256L21.2477 38.6939L23.5 40.937L25.7524 38.6939L24.9745 28.1578H25.7949V24.3032Z" fill="white"/>
<path d="M34.9022 22.4477C33.7755 21.3036 31.9874 21.5727 30.6315 22.4329C30.4961 22.5188 30.3591 22.6023 30.2205 22.6834C29.246 23.2534 28.5488 24.2473 28.5488 25.3762V27.7665C28.5488 27.9828 28.3735 28.1581 28.1573 28.1581C27.9297 28.1581 27.7501 28.3515 27.7668 28.5784L28.456 37.9131C28.5419 39.0763 28.1159 40.2189 27.2895 41.0419L26.3226 42.0048C24.7618 43.5592 22.2382 43.5592 20.6774 42.0049L19.7105 41.0419C18.8841 40.2189 18.4581 39.0763 18.544 37.9131L19.2332 28.5784C19.2499 28.3515 19.0703 28.1581 18.8427 28.1581C18.6265 28.1581 18.4512 27.9828 18.4512 27.7665V25.3763C18.4512 24.2473 17.754 23.2534 16.7795 22.6834C16.6409 22.6023 16.5038 22.5188 16.3685 22.4329C15.0126 21.5727 13.2245 21.3036 12.0978 22.4477C10.0668 24.5101 8.8125 27.3335 8.8125 30.4436V43.5389C8.8125 45.7481 10.6034 47.5389 12.8125 47.5389H34.1875C36.3966 47.5389 38.1875 45.7481 38.1875 43.5389V30.4436C38.1875 27.3335 36.9332 24.5101 34.9022 22.4477Z" fill="white"/>
</g>
<defs>
<clipPath id="clip0">
<rect width="47" height="46.8066" fill="white" transform="translate(0 0.732422)"/>
</clipPath>
</defs>
</svg>
