<svg width="50" height="49" viewBox="0 0 50 49" fill="none" xmlns="http://www.w3.org/2000/svg">
<path fill-rule="evenodd" clip-rule="evenodd" d="M39.3663 5.48951L33.1298 11.1631C33.2105 11.382 33.2546 11.6187 33.2546 11.8657C33.2546 12.9884 32.3444 13.8987 31.2217 13.8987C30.099 13.8987 29.1888 12.9885 29.1888 11.8657C29.1888 11.8519 29.1891 11.8383 29.1893 11.8245L23.6257 9.432C23.2586 9.79433 22.7543 10.0182 22.1977 10.0182C21.8175 10.0182 21.4618 9.91367 21.1574 9.73203L15.1359 14.3041C15.1819 14.474 15.2066 14.6527 15.2066 14.8372C15.2066 15.9599 14.2965 16.8701 13.1737 16.8701C12.0705 16.8701 11.1725 15.9913 11.1416 14.8956L5.65017 12.8542C5.27846 13.2607 4.74386 13.5156 4.14973 13.5156C3.02695 13.5156 2.11681 12.6055 2.11681 11.4827C2.11681 10.36 3.02695 9.4498 4.14973 9.4498C5.2529 9.4498 6.15089 10.3285 6.1818 11.4243L11.6732 13.4657C12.045 13.0592 12.5796 12.8043 13.1737 12.8043C13.5539 12.8043 13.9097 12.9088 14.2141 13.0904L20.2356 8.51822C20.1896 8.34835 20.1649 8.16967 20.1649 7.98525C20.1649 6.86246 21.075 5.95233 22.1977 5.95233C23.3205 5.95233 24.2306 6.86246 24.2306 7.98525C24.2306 7.99903 24.2304 8.01282 24.2302 8.0265L29.7938 10.419C30.1608 10.0567 30.6651 9.8328 31.2218 9.8328C31.5368 9.8328 31.8351 9.90448 32.1013 10.0324L38.3378 4.35887C38.2571 4.1399 38.213 3.90323 38.213 3.65622C38.213 2.53343 39.1231 1.62329 40.2459 1.62329C41.3687 1.62329 42.2788 2.53343 42.2788 3.65622C42.2788 4.77891 41.3687 5.68914 40.2459 5.68914C39.9306 5.68905 39.6324 5.61737 39.3663 5.48951ZM36.6421 34.5903H26.7186C26.7186 40.071 31.1615 44.5138 36.6421 44.5138V34.5903ZM36.6421 33.6332V23.7098C31.1615 23.7098 26.7186 28.1527 26.7186 33.6332H36.6421ZM37.5992 23.7098V33.6332L46.5727 37.8742C47.1816 36.5881 47.5227 35.1506 47.5227 33.6332C47.5227 28.1527 43.0798 23.7098 37.5992 23.7098ZM38.9947 37.4532L47.9688 41.6945C46.3785 45.0535 42.9579 47.3767 38.9947 47.3767V37.4532ZM5.5024 18.8215H2.79688C2.37521 18.8215 2.03125 19.1655 2.03125 19.5872V30.7378C2.03125 31.1595 2.37521 31.5034 2.79688 31.5034H5.5024C5.92407 31.5034 6.26803 31.1595 6.26803 30.7378V19.5872C6.26803 19.1655 5.92407 18.8215 5.5024 18.8215ZM29.8689 19.1168H32.5745C32.9962 19.1168 33.3401 19.4607 33.3401 19.8824V22.6626C31.7563 23.1387 30.3168 23.9483 29.1033 25.01V19.8824C29.1033 19.4607 29.4471 19.1168 29.8689 19.1168ZM38.8929 10.6697C38.4713 10.6697 38.1273 11.0137 38.1273 11.4354V22.2743C39.6543 22.4721 41.087 22.9705 42.3641 23.7084V11.4353C42.3641 11.0136 42.0201 10.6696 41.5985 10.6696L38.8929 10.6697ZM20.8449 16.2273C20.4232 16.2273 20.0792 16.5713 20.0792 16.9929V30.7378C20.0792 31.1595 20.4232 31.5034 20.8449 31.5034H23.5504C23.9721 31.5034 24.316 31.1595 24.316 30.7378V16.9929C24.316 16.5713 23.9721 16.2273 23.5504 16.2273H20.8449ZM11.8208 23.3754H14.5263C14.948 23.3754 15.292 23.7193 15.292 24.141V30.7378C15.292 31.1595 14.948 31.5034 14.5263 31.5034H11.8208C11.3992 31.5034 11.0552 31.1595 11.0552 30.7378V24.141C11.0553 23.7193 11.3992 23.3754 11.8208 23.3754Z" fill="white"/>
</svg>
