<svg width="42" height="42" viewBox="0 0 42 42" fill="none" xmlns="http://www.w3.org/2000/svg">
<path d="M31.5 9.84375C31.5 8.58375 31.29 7.37625 30.8963 6.2475C33.5869 7.67812 35.4375 10.5262 35.4375 13.7812C35.4375 18.48 31.605 22.3125 26.9062 22.3125C25.1475 22.3125 23.4938 21.7744 22.1419 20.8556C23.4413 20.6456 24.675 20.2125 25.7775 19.5825C29.1244 17.7056 31.4081 14.1619 31.5 10.08V9.84375ZM19.7138 18.3487C19.9237 18.3619 20.1338 18.375 20.3438 18.375C21.1969 18.375 22.0238 18.2437 22.7981 18.0206C26.3025 16.9575 28.875 13.6894 28.875 9.84375C28.875 9.26625 28.8225 8.715 28.7044 8.16375C28.4944 7.11375 28.1006 6.1425 27.5362 5.27625C26.0269 2.90062 23.3625 1.3125 20.3438 1.3125C15.645 1.3125 11.8125 5.145 11.8125 9.84375C11.8125 14.3325 15.3038 18.0206 19.7138 18.3487ZM8.99062 22.4831C8.63625 22.365 8.25562 22.3125 7.875 22.3125H5.25C3.08438 22.3125 1.3125 24.0844 1.3125 26.25V36.7237C1.3125 38.8894 3.08438 40.6612 5.25 40.6612H7.875C8.2425 40.6612 8.61 40.6087 8.95125 40.5037C7.49438 39.2962 6.5625 37.4719 6.5625 35.4375V27.5625C6.5625 25.515 7.5075 23.6775 8.99062 22.4831ZM39.6165 25.1567C39.4551 24.9322 39.2739 24.7209 39.0613 24.5372C38.7988 24.3075 38.4996 24.1106 38.1675 23.9531C37.59 23.6906 36.96 23.5987 36.3379 23.6578C36.12 23.6788 35.9087 23.7405 35.6961 23.7969C35.2997 23.9019 34.9125 24.0463 34.5581 24.2681L29.4499 27.6321L27.5625 28.875L24.948 30.618C24.0857 31.1929 23.0724 31.5 22.0356 31.5H18.375C17.6531 31.5 17.0625 30.9094 17.0625 30.1875C17.0625 29.4656 17.6531 28.875 18.375 28.875H22.3125C23.7563 28.875 24.9375 27.6937 24.9375 26.25C24.9375 24.8286 23.7904 23.667 22.3768 23.6316C22.3545 23.6316 22.3348 23.625 22.3125 23.625H13.125C13.0935 23.625 13.0646 23.6355 13.0331 23.6368C12.7549 23.6434 12.4845 23.6801 12.2233 23.7405C12.1039 23.7681 11.9923 23.8101 11.8781 23.8481C11.7141 23.9032 11.5553 23.9649 11.4017 24.0411C11.3361 24.0726 11.2599 24.0883 11.1969 24.1237C11.1129 24.1723 11.0342 24.2301 10.9541 24.2839C10.9371 24.2957 10.92 24.3062 10.9042 24.3167C10.7074 24.4532 10.521 24.6028 10.353 24.7721C10.3386 24.7866 10.3267 24.8023 10.3123 24.8181C10.1706 24.9637 10.0433 25.1212 9.92513 25.2866C9.88969 25.3365 9.85556 25.3851 9.82275 25.4362C9.70331 25.6213 9.59437 25.8142 9.50644 26.019C9.49725 26.0413 9.49069 26.0649 9.4815 26.0872C9.40406 26.2776 9.345 26.4757 9.29775 26.6792C9.28463 26.7382 9.2715 26.7973 9.261 26.8564C9.219 27.0861 9.19012 27.3197 9.19012 27.5612V35.4388V35.4441C9.19012 35.6842 9.219 35.9166 9.261 36.1449C9.2715 36.204 9.28331 36.2617 9.29644 36.3195C9.34631 36.54 9.40931 36.7552 9.49594 36.96C9.49725 36.9639 9.49856 36.9692 9.49988 36.9731C9.59044 37.1884 9.70463 37.3892 9.83062 37.5834C9.85556 37.6228 9.88181 37.6596 9.90938 37.6976C10.0367 37.8787 10.1745 38.0494 10.3294 38.2056C10.3359 38.2121 10.3412 38.2187 10.3477 38.2252C10.5066 38.3827 10.6811 38.5232 10.8649 38.6518C10.9174 38.6886 10.9712 38.7214 11.025 38.7555C11.0788 38.7896 11.13 38.829 11.1851 38.8605C11.2271 38.8841 11.277 38.8933 11.3203 38.9156C11.5185 39.0193 11.7259 39.1033 11.9424 39.1729C12.0278 39.1991 12.1078 39.2306 12.1944 39.2516C12.495 39.3251 12.8048 39.375 13.1289 39.375H26.5978C27.006 39.375 27.4037 39.3002 27.7869 39.1794C28.098 39.081 28.3959 38.9484 28.6742 38.7752C28.8409 38.6715 29.0049 38.5612 29.1572 38.4326L36.4101 32.2363L39.3802 29.7006L39.5771 29.4906C40.0103 28.9131 40.3121 28.0074 40.3121 27.2856C40.3121 26.4941 40.0601 25.7631 39.6217 25.1554L39.6165 25.1567Z" fill="white"/>
</svg>
