<svg width="44" height="43" viewBox="0 0 44 43" fill="none" xmlns="http://www.w3.org/2000/svg">
<g clip-path="url(#clip0_245_10060)">
<path d="M28.255 22.7598C27.6697 25.6313 25.0412 27.7988 21.9996 27.7988C18.9581 27.7988 16.4136 25.6313 15.8283 22.7598H13.3086C13.9265 27.022 17.569 30.3184 21.9996 30.3184C26.4302 30.3184 30.1568 27.022 30.7747 22.7598H28.255Z" fill="white"/>
<path d="M33.2946 22.7598C32.6585 28.4132 27.8207 32.8379 22 32.8379C16.1793 32.8379 11.4254 28.4132 10.7894 22.7598H0.5V24.0195C0.5 24.5621 0.848199 25.0443 1.36244 25.2153L6.54578 26.9069C6.76355 27.5245 6.99359 28.0867 7.23966 28.6058L4.84804 33.4112C4.60692 33.8958 4.70283 34.4802 5.08546 34.8628L8.63716 38.4145C9.02223 38.7996 9.60533 38.8906 10.0888 38.652L14.8942 36.2603C15.4134 36.5064 15.9755 36.7364 16.5931 36.9542L18.2847 42.1376C18.4557 42.6518 18.9379 43 19.4805 43H24.6035C25.1461 43 25.6283 42.6518 25.7993 42.1376L27.4909 36.9542C28.1085 36.7364 28.6707 36.5064 29.1898 36.2603L33.9952 38.652C34.4786 38.8918 35.063 38.7996 35.4468 38.4145L38.9985 34.8628C39.3812 34.4802 39.4771 33.8958 39.2359 33.4112L36.8443 28.6058C37.0904 28.0866 37.3204 27.5245 37.5382 26.9069L42.6376 25.2153C43.1518 25.0443 43.5 24.5621 43.5 24.0195V22.7598H33.2946Z" fill="white"/>
<path d="M18.4531 22.7598C18.9749 24.2229 20.3602 25.2793 22.0004 25.2793C23.6406 25.2793 25.1098 24.2229 25.6316 22.7598H18.4531Z" fill="white"/>
<path d="M22 0C19.2209 0 16.9609 2.25994 16.9609 5.03906C16.9609 7.81819 19.2209 10.0781 22 10.0781C24.7791 10.0781 27.123 7.81819 27.123 5.03906C27.123 2.25994 24.7791 0 22 0Z" fill="white"/>
<path d="M34.6816 0C31.9025 0 29.6426 2.25994 29.6426 5.03906C29.6426 7.81819 31.9025 10.0781 34.6816 10.0781C37.4608 10.0781 39.7207 7.81819 39.7207 5.03906C39.7207 2.25994 37.4608 0 34.6816 0Z" fill="white"/>
<path d="M9.40234 0C6.62322 0 4.36328 2.25994 4.36328 5.03906C4.36328 7.81819 6.62322 10.0781 9.40234 10.0781C12.1815 10.0781 14.4414 7.81819 14.4414 5.03906C14.4414 2.25994 12.1815 0 9.40234 0Z" fill="white"/>
<path d="M38.9784 11.2441C37.7565 12.0931 36.2788 12.5977 34.6813 12.5977C33.0905 12.5977 31.6174 12.0985 30.3984 11.256C29.8458 11.5732 29.3148 11.9299 28.834 12.36C31.2839 14.1913 32.9848 17.0515 33.3446 20.2403H43.4997V18.9805C43.4997 15.6864 41.662 12.758 38.9784 11.2441Z" fill="white"/>
<path d="M22.0001 12.5977C17.565 12.5977 13.8842 15.9726 13.2715 20.2402H30.8125C30.2 15.9726 26.4351 12.5977 22.0001 12.5977Z" fill="white"/>
<path d="M13.6853 11.256C12.4663 12.0985 10.9932 12.5977 9.40234 12.5977C7.80488 12.5977 6.32717 12.0931 5.10528 11.2441C2.42165 12.758 0.5 15.6864 0.5 18.9805V20.2403H10.739C11.0988 17.0515 12.7998 14.1913 15.2497 12.36C14.7688 11.9299 14.2378 11.5732 13.6853 11.256Z" fill="white"/>
</g>
<defs>
<clipPath id="clip0_245_10060">
<rect width="43" height="43" fill="white" transform="translate(0.5)"/>
</clipPath>
</defs>
</svg>
