<svg width="45" height="45" viewBox="0 0 45 45" fill="none" xmlns="http://www.w3.org/2000/svg">
<path d="M43.0233 30.1363L40.6369 29.7954C40.5005 29.3863 40.296 28.9773 40.1596 28.5682L41.5914 26.5909C41.796 26.3182 41.796 25.9091 41.5233 25.7045L39.2051 23.3863C38.9324 23.1818 38.5914 23.1136 38.3187 23.3182L36.3414 24.75C35.9324 24.5454 35.5233 24.4091 35.1142 24.2727L34.7733 21.8863C34.7051 21.5454 34.4324 21.2727 34.0914 21.2727H30.7505C30.4096 21.2727 30.1369 21.5454 30.0687 21.8863L29.7278 24.2727C29.3187 24.4091 28.9096 24.6136 28.5005 24.75L26.5233 23.3182C26.2505 23.1136 25.8414 23.1136 25.6369 23.3863L23.3187 25.7045C23.1142 25.9773 23.046 26.3182 23.2505 26.5909L24.6824 28.5682C24.4778 28.9773 24.3414 29.3863 24.2051 29.7954L21.8187 30.1363C21.4778 30.2045 21.2051 30.4773 21.2051 30.8182V34.0909C21.2051 34.4318 21.4778 34.7045 21.8187 34.7727L24.2051 35.1136C24.3414 35.5227 24.546 35.9318 24.6824 36.3409L23.2505 38.3182C23.046 38.5909 23.046 38.9318 23.3187 39.2045L25.6369 41.5227C25.9096 41.7954 26.2505 41.7954 26.5233 41.5909L28.5005 40.0909C28.9096 40.2954 29.3187 40.4318 29.7278 40.5682L30.0687 42.9545C30.1369 43.2954 30.4096 43.5682 30.7505 43.5682H34.0914C34.4324 43.5682 34.7051 43.2954 34.7733 42.9545L35.1142 40.5682C35.5233 40.4318 35.9324 40.2272 36.3414 40.0909L38.3187 41.5909C38.5914 41.7954 38.9324 41.7954 39.2051 41.5227L41.5233 39.2045C41.796 38.9318 41.796 38.5909 41.5914 38.3182L40.0914 36.3409C40.296 35.9318 40.4324 35.5227 40.5687 35.1136L42.9551 34.7727C43.296 34.7045 43.5687 34.4318 43.5687 34.0909V30.75C43.6369 30.4772 43.3642 30.1363 43.0233 30.1363ZM32.4551 35.7273C30.6824 35.7273 29.1824 34.2954 29.1824 32.4545C29.1824 30.6136 30.6142 29.1818 32.4551 29.1818C34.296 29.1818 35.7278 30.6136 35.7278 32.4545C35.7278 34.2954 34.2278 35.7273 32.4551 35.7273Z" fill="white"/>
<path d="M23.1138 36.3409C22.5002 37.1591 22.2275 37.5 22.1593 37.5682C21.682 37.6364 20.7956 37.7045 20.3184 37.7045V35.25C20.6593 35.7273 21.1365 36.0682 21.682 36.1364L23.1138 36.3409Z" fill="white"/>
<path d="M1.70419 23.0453C1.70419 23.1816 1.77237 23.2498 1.77237 23.3862C1.84055 23.7271 1.90874 24.068 2.0451 24.4089C2.0451 24.4771 2.0451 24.5453 2.11328 24.6135C2.24964 24.9544 2.31783 25.3635 2.45419 25.7044C2.45419 25.7726 2.52237 25.7726 2.52237 25.8407C2.65874 26.2498 2.7951 26.5907 2.99965 26.9316C2.99965 26.9998 3.06783 26.9998 3.06783 27.068C3.20419 27.4089 3.40874 27.7498 3.61328 28.0907C3.68146 28.1589 3.68146 28.2271 3.74965 28.3635C3.88601 28.6362 4.09055 28.9089 4.22692 29.1816C4.43146 29.5226 4.70419 29.8635 4.90874 30.2044C6.47692 29.5907 8.24965 29.0453 10.1587 28.7044C9.40874 26.1135 8.99965 23.1816 8.93146 20.1816H1.36328C1.36328 20.6589 1.43146 21.1362 1.49964 21.6135C1.49964 21.7498 1.56783 21.8862 1.56783 21.9544C1.56783 22.3635 1.63601 22.7044 1.70419 23.0453Z" fill="white"/>
<path d="M10.0906 10.3635C8.31783 10.0226 6.47692 9.54534 4.84055 8.86353C2.7951 11.7272 1.49964 15.1363 1.36328 18.8863H8.86328C8.93146 15.8863 9.34055 12.9544 10.0906 10.3635Z" fill="white"/>
<path d="M10.4993 30.0681C8.79474 30.409 7.15838 30.8181 5.72656 31.3636C8.04474 34.0908 11.2493 36.1363 14.7947 37.0908C13.0902 35.5908 11.5902 33.1363 10.4993 30.0681Z" fill="white"/>
<path d="M14.7947 1.97705C11.1811 2.9316 8.04474 4.97705 5.72656 7.70432C7.0902 8.24978 8.72656 8.65887 10.4993 8.99978C11.5902 5.9316 13.0902 3.54523 14.7947 1.97705Z" fill="white"/>
<path d="M11.8633 9.27255C14.0451 9.61346 16.4315 9.818 18.886 9.818V1.43164C16.1587 1.84073 13.4996 4.70437 11.8633 9.27255Z" fill="white"/>
<path d="M10.2266 18.8863H18.9538V11.1818C17.3857 11.1818 14.522 11.0454 11.4538 10.5681C10.7038 13.0908 10.2947 15.9545 10.2266 18.8863Z" fill="white"/>
<path d="M11.4538 28.5C13.9084 28.0909 16.4311 27.8864 18.9538 27.8864V20.25H10.2266C10.2947 23.1136 10.7038 25.9773 11.4538 28.5Z" fill="white"/>
<path d="M18.9544 37.7045V29.25C16.6362 29.3182 14.1816 29.4545 11.9316 29.7955C13.4998 34.3636 16.1589 37.2955 18.9544 37.7045Z" fill="white"/>
<path d="M20.3184 1.36353V9.81807C22.7729 9.81807 25.1593 9.61353 27.3411 9.27262C25.7047 4.70443 23.1138 1.8408 20.3184 1.36353Z" fill="white"/>
<path d="M28.9773 20.25C28.9773 20.5909 28.5682 23.0455 28.5682 23.1136L27.4091 22.2273C27.0682 21.9545 26.6591 21.8182 26.1818 21.8182C25.6364 21.8182 25.0909 22.0227 24.75 22.4318L22.4318 24.75C21.75 25.4318 21.6136 26.5909 22.2273 27.4091L22.6364 27.9545C21.9545 27.8864 21.1364 27.8864 20.25 27.8864V20.25H28.9773Z" fill="white"/>
<path d="M27.75 10.5681C24.6818 11.0454 21.8864 11.1818 20.25 11.1818V18.8181H28.9773C28.9091 15.9545 28.5 13.0908 27.75 10.5681Z" fill="white"/>
<path d="M28.7037 9.06814C30.4764 8.72723 32.1127 8.24996 33.4764 7.77268C31.1582 5.04541 28.0218 2.99996 24.4082 2.04541C26.1809 3.54541 27.6127 5.93177 28.7037 9.06814Z" fill="white"/>
<path d="M37.8407 20.25C37.8407 20.8636 37.7726 21.4773 37.7044 22.0909C37.6362 22.0909 37.568 22.1591 37.4998 22.2273L36.3407 23.1136L36.1362 21.6818C36.068 21.0682 35.7271 20.5227 35.1816 20.25H37.8407Z" fill="white"/>
<path d="M30.3406 18.8863H37.8406C37.7042 15.1363 36.4087 11.7272 34.3633 8.86353C32.7269 9.54534 30.886 10.0226 29.1133 10.3635C29.8633 12.9544 30.2724 15.8863 30.3406 18.8863Z" fill="white"/>
</svg>
