<svg width="50" height="49" viewBox="0 0 50 49" fill="none" xmlns="http://www.w3.org/2000/svg">
<g clip-path="url(#clip0)">
<path d="M28.3461 4.54264C28.3461 3.83793 27.7779 3.2666 27.0771 3.2666H16.0533C13.3275 3.2666 11.1098 5.49644 11.1098 8.23729V9.02792C11.1098 9.58021 11.5575 10.0279 12.1098 10.0279H27.3461C27.8984 10.0279 28.3461 9.58021 28.3461 9.02792V4.54264Z" fill="white"/>
<path d="M19.7278 25.4792C24.4799 25.4792 28.346 21.592 28.346 16.8139V14.5801C28.346 13.4755 27.4506 12.5801 26.346 12.5801H13.1097C12.0052 12.5801 11.1097 13.4755 11.1097 14.5801V16.8139C11.1097 21.592 14.9757 25.4792 19.7278 25.4792Z" fill="white"/>
<path d="M46.0763 30.9709C45.8351 30.6793 45.4776 30.5107 45.1005 30.5107H28.1788C27.5672 30.5107 27.0426 30.9494 26.931 31.554L24.0971 46.822H42.5621C43.1738 46.822 43.6983 46.3833 43.8098 45.7787L46.3483 32.0195C46.417 31.6467 46.3173 31.2624 46.0763 30.9709ZM35.3708 39.9424C34.6699 39.9424 34.1017 39.3711 34.1017 38.6664C34.1017 37.9616 34.6699 37.3903 35.3708 37.3903C36.0716 37.3903 36.6399 37.9616 36.6399 38.6664C36.6399 39.3711 36.0716 39.9424 35.3708 39.9424Z" fill="white"/>
<path d="M19.728 33.4774C16.3653 33.4774 14.1303 31.9973 12.8476 30.7556C12.4302 30.3515 12.0857 29.9488 11.8065 29.58C11.5417 29.2304 11.0953 29.057 10.6731 29.1758L6.423 30.3708C4.5324 30.9024 3.05138 32.865 3.05138 34.839V45.5463C3.05138 46.2511 3.61959 46.8224 4.32046 46.8224H20.6449C21.1259 46.8224 21.5387 46.48 21.6277 46.0073L23.8043 34.442C23.9568 33.6317 23.0982 32.9621 22.299 33.165C21.5284 33.3606 20.6727 33.4774 19.728 33.4774Z" fill="white"/>
<path d="M13.9058 26.3789V28.1471C14.8199 29.3156 16.6392 30.9253 19.728 30.9253C22.81 30.9253 24.634 29.31 25.55 28.1421V26.379C23.8541 27.4265 21.86 28.0314 19.7279 28.0314C17.5959 28.0314 15.6017 27.4265 13.9058 26.3789Z" fill="white"/>
<path d="M8.48704 20.2363C8.51547 20.2363 8.54339 20.234 8.57173 20.2334V7.47771C8.54347 7.47703 8.51547 7.47559 8.48704 7.47559C6.38772 7.47559 4.67978 9.19288 4.67978 11.3037V16.4081C4.67978 18.519 6.38763 20.2363 8.48704 20.2363Z" fill="white"/>
<path d="M34.6917 16.4081V11.3037C34.6917 9.19288 32.9837 7.47559 30.8844 7.47559H30.8843V20.2363H30.8844C32.9837 20.2363 34.6917 18.519 34.6917 16.4081Z" fill="white"/>
</g>
<defs>
<clipPath id="clip0">
<rect x="3.05138" y="3.2666" width="43.3182" height="43.5556" rx="4" fill="white"/>
</clipPath>
</defs>
</svg>
