<svg width="45" height="45" viewBox="0 0 45 45" fill="none" xmlns="http://www.w3.org/2000/svg">
<path d="M41.9555 23.3119L36.682 17.1596C36.1559 16.5458 35.2063 16.5458 34.6801 17.1596L29.4066 23.3119C28.6736 24.1671 29.2812 25.4883 30.4076 25.4883H32.1654V39.1113C32.1654 39.8394 32.7557 40.4297 33.4838 40.4297H37.8783C38.6064 40.4297 39.1967 39.8394 39.1967 39.1113V25.4883H40.9545C42.0808 25.4883 42.6885 24.1671 41.9555 23.3119Z" fill="white"/>
<path d="M26.0009 5.35078C25.8161 3.0963 23.9224 1.31836 21.6211 1.31836C21.0538 1.31836 20.4963 1.43033 19.9767 1.64355C19.0743 0.616113 17.7606 0 16.3477 0C14.9347 0 13.621 0.616113 12.7186 1.64355C12.199 1.43033 11.6416 1.31836 11.0742 1.31836C8.77289 1.31836 6.87911 3.0963 6.69445 5.35078C4.43997 5.75939 2.72461 7.73692 2.72461 10.1074C2.72461 12.7729 4.89313 14.9414 7.55859 14.9414C8.31208 14.9414 9.04632 14.7641 9.7106 14.4297C9.72536 14.4434 9.74092 14.4561 9.75586 14.4696V43.6816C9.75586 44.4097 10.3461 45 11.0742 45C11.8023 45 12.3926 44.4097 12.3926 43.6816V42.3633H20.3027V43.6816C20.3027 44.4097 20.893 45 21.6211 45C22.3492 45 22.9395 44.4097 22.9395 43.6816V14.4697C22.9544 14.4562 22.9699 14.4434 22.9848 14.4298C23.6489 14.7641 24.3833 14.9414 25.1367 14.9414C27.8022 14.9414 29.9707 12.7729 29.9707 10.1074C29.9707 7.73692 28.2553 5.75939 26.0009 5.35078ZM20.3027 39.7266H12.3926V37.0898H20.3027V39.7266ZM20.3027 34.4531H12.3926V31.8164H20.3027V34.4531ZM20.3027 29.1797H12.3926V26.543H20.3027V29.1797ZM20.3027 23.9062H12.3926V21.2695H20.3027V23.9062ZM20.3027 18.6328H12.3926V15.7455C12.6802 15.794 12.9737 15.8203 13.2715 15.8203C14.3899 15.8203 15.4592 15.4639 16.3477 14.8151C17.2361 15.4639 18.3054 15.8203 19.4238 15.8203C19.7216 15.8203 20.0152 15.794 20.3027 15.7455V18.6328Z" fill="white"/>
</svg>
