<svg width="50" height="49" viewBox="0 0 50 49" fill="none" xmlns="http://www.w3.org/2000/svg">
<g clip-path="url(#clip0)">
<g clip-path="url(#clip1)">
<path d="M21.0692 21.9653H23.531L23.8563 20.4536H21.3945L21.0692 21.9653Z" fill="white"/>
<path d="M35.0463 7.85596H9.85095C4.94215 7.85596 0.948608 11.8119 0.948608 16.6743V39.3501C0.948608 40.3433 2.04796 40.946 2.88537 40.4125L12.0659 34.563H35.0463C39.9551 34.563 43.9486 30.6071 43.9486 25.7446V16.6743C43.9486 11.8119 39.9551 7.85596 35.0463 7.85596ZM11.6575 27.0447C11.5846 27.7482 10.96 28.2434 10.2801 28.1743C9.58338 28.1035 9.08115 27.4789 9.15052 26.7961C9.22703 26.0663 9.89513 25.5438 10.6496 25.6851C11.3188 25.8239 11.7202 26.4343 11.6575 27.0447ZM11.6986 22.8892C11.6986 23.5849 11.1346 24.1489 10.4388 24.1489C9.74312 24.1489 9.17908 23.5849 9.17908 22.8892V15.4985C9.17908 14.8028 9.74312 14.2388 10.4388 14.2388C11.1346 14.2388 11.6986 14.8028 11.6986 15.4985V22.8892ZM33.2893 15.375C33.313 15.082 33.4691 14.7486 33.7437 14.5242C34.2954 14.0746 35.0917 14.1771 35.5166 14.6998C36.2269 15.5702 35.5266 16.8643 34.4181 16.7516C33.7383 16.6949 33.2183 16.0669 33.2893 15.375ZM28.4955 20.4536H26.4336L26.1082 21.9653H27.1517C27.8475 21.9653 28.4115 22.5294 28.4115 23.2251C28.4115 23.9208 27.8475 24.4849 27.1517 24.4849H25.566L24.9835 27.1917C24.8564 27.7825 24.3341 28.1866 23.7532 28.1866C22.9499 28.1866 22.3516 27.4459 22.5204 26.6616L22.9889 24.4849H20.527L19.9445 27.1917C19.8174 27.7825 19.2951 28.1866 18.7142 28.1866C17.9109 28.1866 17.3126 27.4459 17.4814 26.6616L17.9499 24.4849H16.4017C15.706 24.4849 15.142 23.9208 15.142 23.2251C15.142 22.5294 15.706 21.9653 16.4017 21.9653H18.4919L18.8173 20.4536H17.7455C17.0498 20.4536 16.4857 19.8896 16.4857 19.1938C16.4857 18.4981 17.0498 17.9341 17.7455 17.9341H19.3595L19.942 15.2273C20.0884 14.5471 20.7586 14.1139 21.4386 14.2608C22.1188 14.4072 22.5515 15.0772 22.4051 15.7574L21.9366 17.9341H24.3985L24.981 15.2273C25.1274 14.5471 25.7977 14.1139 26.4776 14.2608C27.1578 14.4072 27.5905 15.0772 27.4441 15.7574L26.9756 17.9341H28.4955C29.1912 17.9341 29.7552 18.4981 29.7552 19.1938C29.7552 19.8896 29.1912 20.4536 28.4955 20.4536ZM38.4648 24.4503C38.3571 26.5269 36.6226 28.1802 34.5329 28.1802C32.3699 28.1803 30.5951 26.4293 30.5951 24.2426C30.5951 23.5468 31.1591 22.9828 31.8549 22.9828C32.5506 22.9828 33.1146 23.5468 33.1146 24.2426C33.1146 25.0452 33.7729 25.6779 34.5626 25.6603C35.7878 25.6357 36.4076 24.1587 35.561 23.2668C35.2902 22.9815 34.9251 22.8245 34.5327 22.8245C33.837 22.8245 33.2729 22.2605 33.2729 21.5647V19.5298C33.2729 18.8341 33.837 18.27 34.5327 18.27C35.2284 18.27 35.7925 18.8341 35.7925 19.5298V20.5136C37.4176 21.0645 38.5596 22.625 38.4648 24.4503Z" fill="white"/>
</g>
</g>
<defs>
<clipPath id="clip0">
<rect x="1" y="2" width="43.3182" height="43.5556" rx="4" fill="white"/>
</clipPath>
<clipPath id="clip1">
<rect width="43" height="43" fill="white" transform="translate(0.948608 2.7334)"/>
</clipPath>
</defs>
</svg>
