<svg width="43" height="44" viewBox="0 0 43 44" fill="none" xmlns="http://www.w3.org/2000/svg">
<g clip-path="url(#clip0)">
<path d="M21.5 0.52832C13.859 0.52832 7.64258 6.88154 7.64258 14.5866C7.64258 22.4182 10.1867 27.7243 10.295 27.9426C10.509 28.3731 10.9445 28.6448 11.4219 28.6448H14.9049C12.7886 26.7805 11.4219 23.9878 11.4219 20.9382V19.6169C11.4219 17.6221 12.9683 15.9511 14.9428 15.8147C18.1587 15.5964 22.0844 14.656 23.4746 12.6724C25.2323 10.1602 29.1026 10.6649 30.1289 13.6103C30.9064 15.8569 31.5781 17.7946 31.5781 20.6367C31.5781 23.8547 30.2175 26.7401 28.083 28.6448H31.5781C32.0555 28.6448 32.491 28.3731 32.705 27.9426C32.8133 27.7243 35.3574 22.4182 35.3574 14.5866C35.3574 6.88154 29.141 0.52832 21.5 0.52832V0.52832Z" fill="white"/>
<path d="M9.33569 35.0313C17.3443 36.6803 25.6303 36.6709 33.646 35.0223C32.6561 34.5269 31.6094 34.2054 30.6235 33.9085C28.6217 33.3059 26.3433 32.7119 25.0494 30.5049C23.946 30.9254 22.7608 31.1854 21.5 31.1854C20.2607 31.1854 19.0865 30.9282 17.989 30.5137C16.7125 32.6936 14.4063 33.2982 12.3753 33.9097C11.3839 34.208 10.3307 34.5307 9.33569 35.0313Z" fill="white"/>
<path d="M6.42445 43.8884L36.5755 43.8883C37.2874 43.8883 37.8821 43.2877 37.8377 42.5715C37.6804 40.0342 37.0602 38.3138 36.186 37.1041C31.3713 38.2624 26.4408 38.8432 21.5111 38.8432C16.5812 38.8432 11.6635 38.2099 6.8537 37.0562C5.95935 38.2685 5.3219 39.9976 5.16225 42.5715C5.11782 43.2877 5.7126 43.8884 6.42445 43.8884Z" fill="white"/>
<path d="M29.0586 20.6364C29.0586 18.226 28.4816 16.5599 27.7508 14.451C27.4185 13.496 26.1356 13.2764 25.5327 14.1372C23.2075 17.4569 17.4734 18.1888 15.1163 18.3488C14.4544 18.3947 13.9415 18.948 13.9415 19.6167V20.9379C13.9415 25.1409 17.332 28.6445 21.5001 28.6445C25.9539 28.6445 29.0586 24.8334 29.0586 20.6364Z" fill="white"/>
</g>
<defs>
<clipPath id="clip0">
<rect width="43" height="43.3603" fill="white" transform="translate(0 0.52832)"/>
</clipPath>
</defs>
</svg>
