<svg width="42" height="43" viewBox="0 0 42 43" fill="none" xmlns="http://www.w3.org/2000/svg">
<path d="M27.9577 24.478L23.9074 28.6238C23.5364 29.0046 23.5364 29.6249 23.9083 30.0057C24.2802 30.3884 24.8862 30.3865 25.2581 30.0057L29.3074 25.8599C29.6793 25.4781 29.6793 24.8588 29.3074 24.477C28.9364 24.0971 28.3286 24.0962 27.9577 24.478Z" fill="white"/>
<path d="M40.3706 20.4044L22.3983 2.00417C21.1361 0.711974 19.4582 0 17.6731 0H3.81821C1.71237 0 0 1.75314 0 3.90912V18.0939C0 19.9215 0.695417 21.6394 1.95757 22.9316L19.9298 41.3318C20.9655 42.3921 22.3992 43 23.8636 43C25.328 43 26.7617 42.3921 27.7973 41.3318L40.3705 28.4593C41.4062 27.399 41.9999 25.9311 41.9999 24.4319C41.9999 22.9326 41.4062 21.4647 40.3706 20.4044ZM7.63634 11.7273C5.53058 11.7273 3.81812 9.97414 3.81812 7.81816C3.81812 5.66217 5.53049 3.90903 7.63634 3.90903C9.74219 3.90903 11.4546 5.66226 11.4546 7.81816C11.4546 9.97405 9.74219 11.7273 7.63634 11.7273ZM11.7585 20.3309C11.2178 19.7773 10.9195 19.0406 10.9195 18.258C10.9195 17.4745 11.2178 16.7377 11.7585 16.1842C12.1314 15.8043 12.7363 15.8034 13.1092 16.1851C13.4811 16.5678 13.4811 17.1862 13.1083 17.568C12.9274 17.7513 12.8287 17.9965 12.8287 18.258C12.8287 18.5186 12.9284 18.7638 13.1083 18.949C13.4709 19.3174 14.0983 19.3193 14.4572 18.949L15.133 18.258C15.5049 17.8762 15.5049 17.2569 15.133 16.8751C14.0172 15.7327 14.0172 13.8736 15.1321 12.7293L15.8089 12.0374C16.8884 10.9332 18.777 10.9304 19.8583 12.0383C20.3989 12.5919 20.6972 13.3286 20.6972 14.1112C20.6972 14.8947 20.3989 15.6315 19.8583 16.185C19.4854 16.5649 18.8804 16.5658 18.5075 16.1841C18.1356 15.8014 18.1356 15.183 18.5084 14.8012C18.6893 14.617 18.7881 14.3727 18.7881 14.1112C18.7881 13.8507 18.6883 13.6054 18.5084 13.4202C18.1458 13.0509 17.5166 13.0509 17.1595 13.4202L16.4827 14.1121C16.1108 14.492 16.1108 15.1123 16.4827 15.4931C17.5995 16.6364 17.5995 18.4965 16.4827 19.6398L15.8078 20.3308C15.2681 20.8844 14.5484 21.1897 13.7831 21.1897C13.0187 21.1898 12.2991 20.8845 11.7585 20.3309ZM19.8581 25.8596C20.231 26.2413 20.231 26.8598 19.8581 27.2415C19.6717 27.4323 19.4274 27.5278 19.1832 27.5278C18.9389 27.5278 18.6947 27.4323 18.5082 27.2415L15.8086 24.4767C15.4357 24.0949 15.4357 23.4765 15.8086 23.0948L22.5576 16.1851C22.9305 15.8033 23.5345 15.8033 23.9074 16.1851L26.6079 18.949C26.9808 19.3308 26.9808 19.9492 26.6079 20.3309C26.235 20.7127 25.6309 20.7127 25.2581 20.3309L23.2325 18.258L21.2078 20.3309L22.5576 21.7128C22.9305 22.0946 22.9305 22.713 22.5576 23.0947C22.3712 23.2855 22.1269 23.381 21.8827 23.381C21.6385 23.381 21.3942 23.2855 21.2077 23.0947L19.858 21.7128L17.8333 23.7857L19.8581 25.8596ZM30.6573 27.2415L26.6079 31.3872C26.0495 31.9589 25.3159 32.2453 24.5824 32.2453C23.8496 32.2453 23.1161 31.9589 22.5577 31.3872C21.4428 30.2439 21.4428 28.3848 22.5568 27.2415L26.608 23.0948C26.608 23.0948 26.608 23.0948 26.608 23.0939C27.7248 21.9525 29.5407 21.9525 30.6574 23.0939C31.7741 24.2381 31.7741 26.0981 30.6573 27.2415Z" fill="white"/>
</svg>
