<svg width="35" height="35" viewBox="0 0 35 35" fill="none" xmlns="http://www.w3.org/2000/svg">
<g clip-path="url(#clip0_309_4116)">
<path d="M35 2.90501C35 1.3031 33.6969 0 32.0953 0H2.90501C1.30337 0 0.000267029 1.3031 0.000267029 2.90501V11.4275C0.000267029 12.1458 0.262489 12.8043 0.696144 13.3119C0.262222 13.819 0 14.4764 0 15.1939V23.7239C0 25.3237 1.30363 26.6246 2.90527 26.6246H8.59673L12.3682 20.484H5.38998C4.82414 20.484 4.36459 20.0248 4.36459 19.4587C4.36459 18.8926 4.82414 18.4333 5.38998 18.4333H13.6273L15.1504 16.1587C16.2196 14.4871 18.6605 14.485 19.7332 16.1539L26.2519 26.6249H32.095C33.6966 26.6249 34.9997 25.3239 34.9997 23.7242V15.1939C34.9997 14.4764 34.7375 13.819 34.3041 13.3119C34.7378 12.8043 35 12.1461 35 11.4275V2.90501ZM22.0333 8.45814H5.35152C4.78542 8.45814 4.32613 7.99885 4.32613 7.43248C4.32613 6.86638 4.78542 6.40709 5.35152 6.40709H22.0333C22.5997 6.40709 23.0587 6.86638 23.0587 7.43248C23.0587 7.99885 22.5997 8.45814 22.0333 8.45814ZM25.9047 6.40709H29.6487C30.2151 6.40709 30.6741 6.86638 30.6741 7.43248C30.6741 7.99885 30.2151 8.45814 29.6487 8.45814H25.9047C25.3386 8.45814 24.8793 7.99885 24.8793 7.43248C24.8793 6.86638 25.3386 6.40709 25.9047 6.40709ZM29.6875 20.484H25.9435C25.3776 20.484 24.9181 20.0248 24.9181 19.4587C24.9181 18.8926 25.3776 18.4333 25.9435 18.4333H29.6875C30.2536 18.4333 30.7129 18.8926 30.7129 19.4587C30.7129 20.0248 30.2536 20.484 29.6875 20.484Z" fill="white"/>
<path d="M18.7545 18.2607C18.1692 17.2487 16.7056 17.2487 16.1203 18.2607L7.75483 32.723C7.1695 33.7348 7.90116 35 9.07208 35H25.803C26.9737 35 27.7056 33.7348 27.12 32.723L18.7545 18.2607ZM18.463 30.8228C18.463 31.3892 18.0037 31.8482 17.4376 31.8482C16.8712 31.8482 16.4122 31.3892 16.4122 30.8228V30.1406C16.4122 29.5742 16.8712 29.1149 17.4376 29.1149C18.0037 29.1149 18.463 29.5742 18.463 30.1406V30.8228ZM18.463 27.3304C18.463 27.8967 18.0037 28.356 17.4376 28.356C16.8712 28.356 16.4122 27.8967 16.4122 27.3304V24.024C16.4122 23.4577 16.8712 22.9986 17.4376 22.9986C18.0037 22.9986 18.463 23.4577 18.463 24.024V27.3304Z" fill="white"/>
</g>
<defs>
<clipPath id="clip0_309_4116">
<rect width="35" height="35" fill="white"/>
</clipPath>
</defs>
</svg>
