<svg width="355" height="228" viewBox="0 0 355 228" fill="none" xmlns="http://www.w3.org/2000/svg">
<g clip-path="url(#clip0_748_9546)">
<mask id="mask0_748_9546" style="mask-type:luminance" maskUnits="userSpaceOnUse" x="0" y="0" width="355" height="228">
<path d="M355 0H0V228H355V0Z" fill="white"/>
</mask>
<g mask="url(#mask0_748_9546)">
<mask id="mask1_748_9546" style="mask-type:luminance" maskUnits="userSpaceOnUse" x="0" y="0" width="355" height="198">
<path d="M355 0H0V198H355V0Z" fill="white"/>
</mask>
<g mask="url(#mask1_748_9546)">
<path d="M5 185H0V198H5V185Z" fill="#1D66FD" fill-opacity="0.57"/>
<path d="M10 182H15V198H10V182Z" fill="url(#paint0_linear_748_9546)"/>
<path d="M25 192H20V198H25V192Z" fill="#1D66FD" fill-opacity="0.57"/>
<path d="M35 185H30V198H35V185Z" fill="#1D66FD" fill-opacity="0.57"/>
<path d="M45 188H40V198H45V188Z" fill="#1D66FD" fill-opacity="0.57"/>
<path d="M55 185H50V198H55V185Z" fill="#1D66FD" fill-opacity="0.57"/>
<path d="M65 181H60V198H65V181Z" fill="#1D66FD" fill-opacity="0.57"/>
<path d="M75 184H70V198H75V184Z" fill="#1D66FD" fill-opacity="0.57"/>
<path d="M85 181H80V198H85V181Z" fill="#1D66FD" fill-opacity="0.57"/>
<path d="M95 181H90V198H95V181Z" fill="#1D66FD" fill-opacity="0.57"/>
<path d="M105 182H100V198H105V182Z" fill="#1D66FD" fill-opacity="0.57"/>
<path d="M115 185H110V198H115V185Z" fill="#1D66FD" fill-opacity="0.57"/>
<path d="M125 185H120V198H125V185Z" fill="#1D66FD" fill-opacity="0.57"/>
<path d="M135 185H130V198H135V185Z" fill="#1D66FD" fill-opacity="0.57"/>
<path d="M145 180H140V198H145V180Z" fill="#1D66FD" fill-opacity="0.57"/>
<path d="M155 175H150V198H155V175Z" fill="#1D66FD" fill-opacity="0.57"/>
<path d="M165 178H160V198H165V178Z" fill="#1D66FD" fill-opacity="0.57"/>
<path d="M175 175H170V198H175V175Z" fill="#1D66FD" fill-opacity="0.57"/>
<path d="M185 175H180V198H185V175Z" fill="#1D66FD" fill-opacity="0.57"/>
<path d="M195 165H190V198H195V165Z" fill="#1D66FD" fill-opacity="0.57"/>
<path d="M205 159H200V198H205V159Z" fill="#1D66FD" fill-opacity="0.57"/>
<path d="M215 165H210V198H215V165Z" fill="#1D66FD" fill-opacity="0.57"/>
<path d="M225 159H220V198H225V159Z" fill="#1D66FD" fill-opacity="0.57"/>
<path d="M235 152H230V198H235V152Z" fill="#1D66FD" fill-opacity="0.57"/>
<path d="M245 159H240V198H245V159Z" fill="#1D66FD" fill-opacity="0.57"/>
<path d="M255 140H250V198H255V140Z" fill="#1D66FD" fill-opacity="0.57"/>
<path d="M265 136H260V198H265V136Z" fill="#1D66FD" fill-opacity="0.57"/>
<path d="M275 125H270V198H275V125Z" fill="#1D66FD" fill-opacity="0.57"/>
<path d="M285 116H280V198H285V116Z" fill="#1D66FD" fill-opacity="0.57"/>
<path d="M295 120H290V198H295V120Z" fill="#1D66FD" fill-opacity="0.57"/>
<path d="M305 113H300V198H305V113Z" fill="#1D66FD" fill-opacity="0.57"/>
<path d="M315 107H310V198H315V107Z" fill="#1D66FD" fill-opacity="0.57"/>
<path d="M325 54H320V198H325V54Z" fill="#1D66FD" fill-opacity="0.57"/>
<path d="M335 60H330V198H335V60Z" fill="#1D66FD" fill-opacity="0.57"/>
<path d="M345 29H340V198H345V29Z" fill="#1D66FD" fill-opacity="0.57"/>
<path d="M345 29H340V58H345V29Z" fill="url(#paint1_linear_748_9546)"/>
<path d="M355 0H350V198H355V0Z" fill="#1D66FD" fill-opacity="0.57"/>
<path d="M34.0029 158.5L16 176.5" stroke="white" stroke-opacity="0.23"/>
<foreignObject x="-36.9543" y="32" width="243" height="198"><div xmlns="http://www.w3.org/1999/xhtml" style="backdrop-filter:blur(35px);clip-path:url(#bgblur_1_748_9546_clip_path);height:100%;width:100%"></div></foreignObject><path data-figma-bg-blur-radius="70" d="M33.0457 160H125.947L136.046 149.331V102H43.1445L33.0457 112.669V160Z" fill="white" fill-opacity="0.11"/>
<mask id="mask2_748_9546" style="mask-type:luminance" maskUnits="userSpaceOnUse" x="33" y="102" width="104" height="58">
<path d="M33.0457 160H125.947L136.046 149.331V102H43.1445L33.0457 112.669V160Z" fill="white"/>
</mask>
<g mask="url(#mask2_748_9546)">
<g clip-path="url(#paint2_angular_748_9546_clip_path)" data-figma-skip-parse="true"><g transform="matrix(0.00445091 -0.0286564 -0.122468 -0.0190217 63.5457 131)"><foreignObject x="-1520.87" y="-1520.87" width="3041.75" height="3041.75"><div xmlns="http://www.w3.org/1999/xhtml" style="background:conic-gradient(from 90deg,rgba(255, 255, 255, 0.06) 0deg,rgba(255, 255, 255, 0.27) 157.412deg,rgba(255, 255, 255, 0) 360deg);height:100%;width:100%;opacity:1"></div></foreignObject></g></g><path d="M33.0457 160V160.5H32.5457V160H33.0457ZM142.947 160L143.31 160.344L143.162 160.5H142.947V160ZM153.046 102V101.5H153.546V102H153.046ZM33.0457 112.669H32.5457V112.47L32.6825 112.325L33.0457 112.669ZM153.046 149.331H153.546V149.53L153.409 149.675L153.046 149.331ZM43.1445 102L42.7814 101.656L42.9293 101.5H43.1445V102ZM33.0457 160V159.5H142.947V160V160.5H33.0457V160ZM33.0457 112.669H33.5457V160H33.0457H32.5457V112.669H33.0457ZM142.947 160L142.584 159.656L152.683 148.987L153.046 149.331L153.409 149.675L143.31 160.344L142.947 160ZM153.046 149.331H152.546V102H153.046H153.546V149.331H153.046ZM153.046 102V102.5H43.1445V102V101.5H153.046V102ZM43.1445 102L43.5077 102.344L33.4088 113.013L33.0457 112.669L32.6825 112.325L42.7814 101.656L43.1445 102Z" data-figma-gradient-fill="{&#34;type&#34;:&#34;GRADIENT_ANGULAR&#34;,&#34;stops&#34;:[{&#34;color&#34;:{&#34;r&#34;:1.0,&#34;g&#34;:1.0,&#34;b&#34;:1.0,&#34;a&#34;:0.059999998658895493},&#34;position&#34;:0.0},{&#34;color&#34;:{&#34;r&#34;:1.0,&#34;g&#34;:1.0,&#34;b&#34;:1.0,&#34;a&#34;:0.27000001072883606},&#34;position&#34;:0.43725594878196716},{&#34;color&#34;:{&#34;r&#34;:1.0,&#34;g&#34;:1.0,&#34;b&#34;:1.0,&#34;a&#34;:0.0},&#34;position&#34;:1.0}],&#34;stopsVar&#34;:[{&#34;color&#34;:{&#34;r&#34;:1.0,&#34;g&#34;:1.0,&#34;b&#34;:1.0,&#34;a&#34;:0.059999998658895493},&#34;position&#34;:0.0},{&#34;color&#34;:{&#34;r&#34;:1.0,&#34;g&#34;:1.0,&#34;b&#34;:1.0,&#34;a&#34;:0.27000001072883606},&#34;position&#34;:0.43725594878196716},{&#34;color&#34;:{&#34;r&#34;:1.0,&#34;g&#34;:1.0,&#34;b&#34;:1.0,&#34;a&#34;:0.0},&#34;position&#34;:1.0}],&#34;transform&#34;:{&#34;m00&#34;:8.9018192291259766,&#34;m01&#34;:-244.93547058105469,&#34;m02&#34;:181.56248474121094,&#34;m10&#34;:-57.312801361083984,&#34;m11&#34;:-38.043346405029297,&#34;m12&#34;:178.67807006835938},&#34;opacity&#34;:1.0,&#34;blendMode&#34;:&#34;NORMAL&#34;,&#34;visible&#34;:true}"/>
<path d="M47.9106 145.201C47.9106 144.583 48.1603 144.084 48.6597 143.703C49.159 143.322 49.8171 143.132 50.6338 143.132C51.4209 143.132 52.0599 143.326 52.5508 143.716C53.0459 144.101 53.304 144.604 53.3252 145.227H51.8525C51.8271 144.935 51.7044 144.706 51.4844 144.541C51.2643 144.376 50.9702 144.293 50.6021 144.293C50.255 144.293 49.9757 144.37 49.7642 144.522C49.5526 144.67 49.4468 144.867 49.4468 145.112C49.4468 145.485 49.7684 145.749 50.4116 145.906L51.6113 146.172C52.2842 146.329 52.7645 146.549 53.0522 146.833C53.34 147.116 53.4839 147.507 53.4839 148.007C53.4839 148.642 53.2173 149.156 52.6841 149.549C52.1509 149.939 51.459 150.133 50.6084 150.133C49.7705 150.133 49.0955 149.943 48.5835 149.562C48.0757 149.177 47.7943 148.663 47.7393 148.02H49.2944C49.341 148.328 49.4806 148.565 49.7134 148.73C49.9504 148.896 50.2677 148.978 50.6655 148.978C51.0506 148.978 51.3532 148.906 51.5732 148.762C51.7975 148.614 51.9097 148.415 51.9097 148.166C51.9097 147.971 51.8398 147.816 51.7002 147.702C51.5648 147.584 51.3341 147.482 51.0083 147.397L49.7832 147.112C48.5348 146.82 47.9106 146.183 47.9106 145.201ZM56.9497 148.915C57.4025 148.915 57.7834 148.781 58.0923 148.515C58.4054 148.244 58.562 147.907 58.562 147.505V146.991L57.0068 147.086C56.626 147.112 56.3298 147.207 56.1182 147.372C55.9108 147.533 55.8071 147.747 55.8071 148.013C55.8071 148.288 55.9108 148.508 56.1182 148.673C56.3298 148.834 56.6069 148.915 56.9497 148.915ZM56.4736 150.108C55.8177 150.108 55.2782 149.92 54.855 149.543C54.436 149.166 54.2266 148.678 54.2266 148.077C54.2266 147.48 54.4466 147.008 54.8867 146.661C55.3311 146.314 55.9637 146.115 56.7847 146.064L58.562 145.963V145.48C58.562 145.129 58.4499 144.856 58.2256 144.662C58.0055 144.467 57.6987 144.37 57.3052 144.37C56.937 144.37 56.6366 144.452 56.4038 144.617C56.1711 144.782 56.0293 145.007 55.9785 145.29H54.5122C54.5461 144.651 54.819 144.133 55.3311 143.735C55.8473 143.333 56.5265 143.132 57.3687 143.132C58.2023 143.132 58.8688 143.335 59.3682 143.741C59.8717 144.147 60.1235 144.689 60.1235 145.366V150H58.6001V148.927H58.5684C58.3779 149.287 58.0902 149.575 57.7051 149.791C57.32 150.002 56.9095 150.108 56.4736 150.108ZM61.4438 150V140.84H63.0244V150H61.4438ZM67.271 144.357C66.8309 144.357 66.4627 144.509 66.1665 144.814C65.8745 145.114 65.7116 145.502 65.6777 145.976H68.8198C68.8029 145.497 68.6527 145.108 68.3691 144.808C68.0856 144.507 67.7196 144.357 67.271 144.357ZM68.8262 147.988H70.3052C70.2036 148.627 69.8799 149.145 69.334 149.543C68.7881 149.937 68.1195 150.133 67.3281 150.133C66.321 150.133 65.5296 149.824 64.9541 149.207C64.3786 148.584 64.0908 147.736 64.0908 146.661C64.0908 145.595 64.3765 144.74 64.9478 144.097C65.5233 143.453 66.2956 143.132 67.2646 143.132C68.2168 143.132 68.9722 143.439 69.5308 144.052C70.0894 144.662 70.3687 145.478 70.3687 146.502V147.017H65.665V147.112C65.665 147.653 65.8174 148.089 66.1221 148.419C66.431 148.75 66.8436 148.915 67.3599 148.915C67.7238 148.915 68.0369 148.832 68.2993 148.667C68.5659 148.498 68.7415 148.271 68.8262 147.988ZM71.27 145.201C71.27 144.583 71.5197 144.084 72.019 143.703C72.5184 143.322 73.1764 143.132 73.9932 143.132C74.7803 143.132 75.4193 143.326 75.9102 143.716C76.4053 144.101 76.6634 144.604 76.6846 145.227H75.2119C75.1865 144.935 75.0638 144.706 74.8438 144.541C74.6237 144.376 74.3296 144.293 73.9614 144.293C73.6144 144.293 73.3351 144.37 73.1235 144.522C72.9119 144.67 72.8062 144.867 72.8062 145.112C72.8062 145.485 73.1278 145.749 73.771 145.906L74.9707 146.172C75.6436 146.329 76.1239 146.549 76.4116 146.833C76.6994 147.116 76.8433 147.507 76.8433 148.007C76.8433 148.642 76.5767 149.156 76.0435 149.549C75.5103 149.939 74.8184 150.133 73.9678 150.133C73.1299 150.133 72.4549 149.943 71.9429 149.562C71.4351 149.177 71.1536 148.663 71.0986 148.02H72.6538C72.7004 148.328 72.84 148.565 73.0728 148.73C73.3097 148.896 73.6271 148.978 74.0249 148.978C74.41 148.978 74.7126 148.906 74.9326 148.762C75.1569 148.614 75.269 148.415 75.269 148.166C75.269 147.971 75.1992 147.816 75.0596 147.702C74.9242 147.584 74.6935 147.482 74.3677 147.397L73.1426 147.112C71.8942 146.82 71.27 146.183 71.27 145.201ZM84.1494 143.157C85.0042 143.157 85.6834 143.468 86.187 144.09C86.6906 144.712 86.9424 145.561 86.9424 146.636C86.9424 147.706 86.6927 148.553 86.1934 149.175C85.694 149.797 85.0212 150.108 84.1748 150.108C83.6924 150.108 83.2671 150 82.8989 149.784C82.5308 149.564 82.2536 149.264 82.0674 148.883H82.0356V152.215H80.4551V143.271H81.9976V144.433H82.0293C82.224 144.035 82.5054 143.724 82.8735 143.5C83.2417 143.271 83.667 143.157 84.1494 143.157ZM83.667 148.813C84.179 148.813 84.5832 148.618 84.8794 148.229C85.1756 147.835 85.3237 147.304 85.3237 146.636C85.3237 145.971 85.1735 145.442 84.873 145.049C84.5768 144.655 84.1748 144.458 83.667 144.458C83.1761 144.458 82.7804 144.657 82.48 145.055C82.1795 145.453 82.0272 145.98 82.0229 146.636C82.0272 147.296 82.1795 147.825 82.48 148.223C82.7804 148.616 83.1761 148.813 83.667 148.813ZM90.8589 144.357C90.4188 144.357 90.0506 144.509 89.7544 144.814C89.4624 145.114 89.2995 145.502 89.2656 145.976H92.4077C92.3908 145.497 92.2406 145.108 91.957 144.808C91.6735 144.507 91.3075 144.357 90.8589 144.357ZM92.4141 147.988H93.8931C93.7915 148.627 93.4678 149.145 92.9219 149.543C92.376 149.937 91.7074 150.133 90.916 150.133C89.9089 150.133 89.1175 149.824 88.542 149.207C87.9665 148.584 87.6787 147.736 87.6787 146.661C87.6787 145.595 87.9644 144.74 88.5356 144.097C89.1112 143.453 89.8835 143.132 90.8525 143.132C91.8047 143.132 92.5601 143.439 93.1187 144.052C93.6772 144.662 93.9565 145.478 93.9565 146.502V147.017H89.2529V147.112C89.2529 147.653 89.4053 148.089 89.71 148.419C90.0189 148.75 90.4315 148.915 90.9478 148.915C91.3117 148.915 91.6248 148.832 91.8872 148.667C92.1538 148.498 92.3294 148.271 92.4141 147.988ZM94.9785 150V143.271H96.4956V144.446H96.5273C96.6416 144.035 96.8384 143.718 97.1177 143.494C97.4012 143.269 97.7419 143.157 98.1396 143.157C98.2793 143.157 98.4443 143.178 98.6348 143.221V144.649C98.4782 144.59 98.2645 144.56 97.9937 144.56C97.5451 144.56 97.1938 144.695 96.9399 144.966C96.686 145.237 96.5591 145.61 96.5591 146.083V150H94.9785ZM104.563 150.108C103.713 150.108 103.034 149.795 102.526 149.168C102.022 148.542 101.771 147.696 101.771 146.629C101.771 145.567 102.022 144.723 102.526 144.097C103.034 143.47 103.713 143.157 104.563 143.157C105.037 143.157 105.456 143.269 105.82 143.494C106.188 143.718 106.464 144.021 106.646 144.401H106.684V140.84H108.264V150H106.715V148.851H106.69C106.504 149.236 106.222 149.543 105.846 149.771C105.473 149.996 105.046 150.108 104.563 150.108ZM105.04 144.458C104.532 144.458 104.13 144.655 103.833 145.049C103.537 145.438 103.389 145.967 103.389 146.636C103.389 147.309 103.535 147.84 103.827 148.229C104.123 148.618 104.528 148.813 105.04 148.813C105.539 148.813 105.939 148.616 106.239 148.223C106.54 147.829 106.69 147.3 106.69 146.636C106.69 145.976 106.54 145.449 106.239 145.055C105.939 144.657 105.539 144.458 105.04 144.458ZM112.047 148.915C112.5 148.915 112.881 148.781 113.19 148.515C113.503 148.244 113.66 147.907 113.66 147.505V146.991L112.104 147.086C111.724 147.112 111.427 147.207 111.216 147.372C111.008 147.533 110.905 147.747 110.905 148.013C110.905 148.288 111.008 148.508 111.216 148.673C111.427 148.834 111.705 148.915 112.047 148.915ZM111.571 150.108C110.915 150.108 110.376 149.92 109.953 149.543C109.534 149.166 109.324 148.678 109.324 148.077C109.324 147.48 109.544 147.008 109.984 146.661C110.429 146.314 111.061 146.115 111.882 146.064L113.66 145.963V145.48C113.66 145.129 113.548 144.856 113.323 144.662C113.103 144.467 112.796 144.37 112.403 144.37C112.035 144.37 111.734 144.452 111.501 144.617C111.269 144.782 111.127 145.007 111.076 145.29H109.61C109.644 144.651 109.917 144.133 110.429 143.735C110.945 143.333 111.624 143.132 112.466 143.132C113.3 143.132 113.966 143.335 114.466 143.741C114.969 144.147 115.221 144.689 115.221 145.366V150H113.698V148.927H113.666C113.476 149.287 113.188 149.575 112.803 149.791C112.418 150.002 112.007 150.108 111.571 150.108ZM117.221 152.501C116.878 152.501 116.671 152.493 116.599 152.476V151.225C116.671 151.242 116.823 151.25 117.056 151.25C117.382 151.25 117.635 151.183 117.817 151.047C117.999 150.912 118.135 150.69 118.224 150.381C118.224 150.377 118.238 150.315 118.268 150.197C118.302 150.078 118.317 150.015 118.312 150.006L115.919 143.271H117.646L119.233 148.654H119.258L120.845 143.271H122.508L120.077 150.267C119.789 151.1 119.434 151.68 119.011 152.006C118.588 152.336 117.991 152.501 117.221 152.501Z" fill="url(#paint3_linear_748_9546)" fill-opacity="0.98"/>
</g>
<path d="M67.9102 121.429C70.0029 121.429 71.6797 119.77 71.6797 117.715C71.6797 115.659 70.0029 114 67.9102 114C65.8175 114 64.1282 115.659 64.1282 117.715C64.1282 119.77 65.8175 121.429 67.9102 121.429ZM57.8247 121.429C59.9175 121.429 61.5942 119.77 61.5942 117.715C61.5942 115.659 59.9175 114 57.8247 114C55.732 114 54.0427 115.659 54.0427 117.715C54.0427 119.77 55.732 121.429 57.8247 121.429ZM57.8247 123.906C54.8873 123.906 49 125.354 49 128.239V131.335H66.6495V128.239C66.6495 125.354 60.7621 123.906 57.8247 123.906ZM67.9102 123.906C67.5446 123.906 67.1286 123.93 66.6873 123.968C68.1497 125.008 69.1709 126.407 69.1709 128.239V131.335H76.7349V128.239C76.7349 125.354 70.8476 123.906 67.9102 123.906Z" fill="url(#paint4_linear_748_9546)"/>
<path d="M87.849 131.662V116.161H87.786L83 119.563V116.77L87.824 113.343H90.63V131.662H87.849ZM106.632 129.44C105.405 131.15 103.7 132.005 101.516 132.005C99.332 132.005 97.619 131.154 96.374 129.453C95.139 127.743 94.521 125.42 94.521 122.483C94.521 119.572 95.143 117.266 96.387 115.564C97.631 113.855 99.341 113 101.516 113C103.691 113 105.397 113.85 106.632 115.552C107.868 117.244 108.486 119.551 108.486 122.471C108.486 125.407 107.868 127.731 106.632 129.44ZM98.482 127.726C99.201 128.988 100.213 129.618 101.516 129.618C102.819 129.618 103.827 128.988 104.538 127.726C105.257 126.457 105.617 124.709 105.617 122.483C105.617 120.283 105.253 118.552 104.525 117.291C103.805 116.021 102.803 115.387 101.516 115.387C100.23 115.387 99.222 116.021 98.495 117.291C97.767 118.56 97.403 120.291 97.403 122.483C97.403 124.709 97.762 126.457 98.482 127.726Z" fill="url(#paint5_linear_748_9546)"/>
<g filter="url(#filter1_d_748_9546)">
<path d="M17.9543 179.516C17.9543 176.479 15.4919 174.016 12.4543 174.016C9.41678 174.016 6.95435 176.479 6.95435 179.516C6.95435 182.554 9.41678 185.016 12.4543 185.016C15.4919 185.016 17.9543 182.554 17.9543 179.516Z" fill="#0D0058" fill-opacity="0.15"/>
</g>
<path d="M14.9543 179.516C14.9543 178.135 13.8351 177.016 12.4543 177.016C11.0736 177.016 9.95435 178.135 9.95435 179.516C9.95435 180.897 11.0736 182.016 12.4543 182.016C13.8351 182.016 14.9543 180.897 14.9543 179.516Z" fill="white"/>
<path d="M310.672 55.5L338.5 32" stroke="#FFEA29" stroke-width="1.09352"/>
<foreignObject x="125" y="-15" width="256" height="198"><div xmlns="http://www.w3.org/1999/xhtml" style="backdrop-filter:blur(35px);clip-path:url(#bgblur_2_748_9546_clip_path);height:100%;width:100%"></div></foreignObject><path data-figma-bg-blur-radius="70" d="M311 55H205.099L195 65.6691C195 65.6691 195 94.5161 195 113H300.901L311 102.331V55Z" fill="#FFEA29"/>
<mask id="mask3_748_9546" style="mask-type:luminance" maskUnits="userSpaceOnUse" x="200" y="55" width="111" height="58">
<path d="M311 55H210.099L200 65.6691V113H300.901L311 102.331V55Z" fill="white"/>
</mask>
<g mask="url(#mask3_748_9546)">
<g clip-path="url(#paint6_angular_748_9546_clip_path)" data-figma-skip-parse="true"><g transform="matrix(-0.00445091 0.0286564 0.122468 0.0190217 261.5 84)"><foreignObject x="-1467.95" y="-1467.95" width="2935.9" height="2935.9"><div xmlns="http://www.w3.org/1999/xhtml" style="background:conic-gradient(from 90deg,rgba(255, 255, 255, 0.06) 0deg,rgba(255, 255, 255, 0.27) 157.412deg,rgba(255, 255, 255, 0) 360deg);height:100%;width:100%;opacity:1"></div></foreignObject></g></g><path d="M311 55V54.5H311.5V55H311ZM192.099 55L191.736 54.6563L191.884 54.5H192.099V55ZM182 113V113.5H181.5V113H182ZM311 102.331H311.5V102.53L311.363 102.675L311 102.331ZM182 65.6691H181.5V65.47L181.637 65.3254L182 65.6691ZM300.901 113L301.264 113.344L301.116 113.5H300.901V113ZM311 55V55.5H192.099V55V54.5H311V55ZM311 102.331H310.5V55H311H311.5V102.331H311ZM192.099 55L192.462 55.3437L182.363 66.0128L182 65.6691L181.637 65.3254L191.736 54.6563L192.099 55ZM182 65.6691H182.5V113H182H181.5V65.6691H182ZM182 113V112.5H300.901V113V113.5H182V113ZM300.901 113L300.538 112.656L310.637 101.987L311 102.331L311.363 102.675L301.264 113.344L300.901 113Z" data-figma-gradient-fill="{&#34;type&#34;:&#34;GRADIENT_ANGULAR&#34;,&#34;stops&#34;:[{&#34;color&#34;:{&#34;r&#34;:1.0,&#34;g&#34;:1.0,&#34;b&#34;:1.0,&#34;a&#34;:0.059999998658895493},&#34;position&#34;:0.0},{&#34;color&#34;:{&#34;r&#34;:1.0,&#34;g&#34;:1.0,&#34;b&#34;:1.0,&#34;a&#34;:0.27000001072883606},&#34;position&#34;:0.43725594878196716},{&#34;color&#34;:{&#34;r&#34;:1.0,&#34;g&#34;:1.0,&#34;b&#34;:1.0,&#34;a&#34;:0.0},&#34;position&#34;:1.0}],&#34;stopsVar&#34;:[{&#34;color&#34;:{&#34;r&#34;:1.0,&#34;g&#34;:1.0,&#34;b&#34;:1.0,&#34;a&#34;:0.059999998658895493},&#34;position&#34;:0.0},{&#34;color&#34;:{&#34;r&#34;:1.0,&#34;g&#34;:1.0,&#34;b&#34;:1.0,&#34;a&#34;:0.27000001072883606},&#34;position&#34;:0.43725594878196716},{&#34;color&#34;:{&#34;r&#34;:1.0,&#34;g&#34;:1.0,&#34;b&#34;:1.0,&#34;a&#34;:0.0},&#34;position&#34;:1.0}],&#34;transform&#34;:{&#34;m00&#34;:-8.9018201828002930,&#34;m01&#34;:244.93547058105469,&#34;m02&#34;:143.48318481445312,&#34;m10&#34;:57.312801361083984,&#34;m11&#34;:38.043350219726562,&#34;m12&#34;:36.321926116943359},&#34;opacity&#34;:1.0,&#34;blendMode&#34;:&#34;NORMAL&#34;,&#34;visible&#34;:true}"/>
</g>
<path d="M209.911 97.2012C209.911 96.5833 210.16 96.084 210.66 95.7031C211.159 95.3223 211.817 95.1318 212.634 95.1318C213.421 95.1318 214.06 95.3265 214.551 95.7158C215.046 96.1009 215.304 96.6045 215.325 97.2266H213.853C213.827 96.9346 213.704 96.7061 213.484 96.541C213.264 96.376 212.97 96.2935 212.602 96.2935C212.255 96.2935 211.976 96.3696 211.764 96.522C211.553 96.6701 211.447 96.8669 211.447 97.1123C211.447 97.4847 211.768 97.7492 212.412 97.9058L213.611 98.1724C214.284 98.3289 214.764 98.549 215.052 98.8325C215.34 99.116 215.484 99.5075 215.484 100.007C215.484 100.642 215.217 101.156 214.684 101.549C214.151 101.939 213.459 102.133 212.608 102.133C211.771 102.133 211.096 101.943 210.583 101.562C210.076 101.177 209.794 100.663 209.739 100.02H211.294C211.341 100.328 211.481 100.565 211.713 100.73C211.95 100.896 212.268 100.978 212.666 100.978C213.051 100.978 213.353 100.906 213.573 100.762C213.798 100.614 213.91 100.415 213.91 100.166C213.91 99.9709 213.84 99.8164 213.7 99.7021C213.565 99.5837 213.334 99.4821 213.008 99.3975L211.783 99.1118C210.535 98.8198 209.911 98.1829 209.911 97.2012ZM218.95 100.915C219.403 100.915 219.783 100.781 220.092 100.515C220.405 100.244 220.562 99.9074 220.562 99.5054V98.9912L219.007 99.0864C218.626 99.1118 218.33 99.207 218.118 99.3721C217.911 99.5329 217.807 99.7466 217.807 100.013C217.807 100.288 217.911 100.508 218.118 100.673C218.33 100.834 218.607 100.915 218.95 100.915ZM218.474 102.108C217.818 102.108 217.278 101.92 216.855 101.543C216.436 101.166 216.227 100.678 216.227 100.077C216.227 99.48 216.447 99.0081 216.887 98.6611C217.331 98.3141 217.964 98.1152 218.785 98.0645L220.562 97.9629V97.4805C220.562 97.1292 220.45 96.8563 220.226 96.6616C220.006 96.467 219.699 96.3696 219.305 96.3696C218.937 96.3696 218.637 96.4521 218.404 96.6172C218.171 96.7822 218.029 97.0065 217.979 97.29H216.512C216.546 96.651 216.819 96.1326 217.331 95.7349C217.847 95.3328 218.527 95.1318 219.369 95.1318C220.202 95.1318 220.869 95.335 221.368 95.7412C221.872 96.1475 222.124 96.6891 222.124 97.3662V102H220.6V100.927H220.568C220.378 101.287 220.09 101.575 219.705 101.791C219.32 102.002 218.91 102.108 218.474 102.108ZM223.444 102V92.8403H225.024V102H223.444ZM229.271 96.3569C228.831 96.3569 228.463 96.5093 228.167 96.814C227.875 97.1144 227.712 97.5016 227.678 97.9756H230.82C230.803 97.4974 230.653 97.1081 230.369 96.8076C230.086 96.5072 229.72 96.3569 229.271 96.3569ZM230.826 99.9878H232.305C232.204 100.627 231.88 101.145 231.334 101.543C230.788 101.937 230.119 102.133 229.328 102.133C228.321 102.133 227.53 101.824 226.954 101.207C226.379 100.584 226.091 99.736 226.091 98.6611C226.091 97.5947 226.376 96.7399 226.948 96.0967C227.523 95.4535 228.296 95.1318 229.265 95.1318C230.217 95.1318 230.972 95.4386 231.531 96.0522C232.089 96.6616 232.369 97.4784 232.369 98.5024V99.0166H227.665V99.1118C227.665 99.6535 227.817 100.089 228.122 100.419C228.431 100.75 228.844 100.915 229.36 100.915C229.724 100.915 230.037 100.832 230.299 100.667C230.566 100.498 230.742 100.271 230.826 99.9878ZM233.27 97.2012C233.27 96.5833 233.52 96.084 234.019 95.7031C234.518 95.3223 235.176 95.1318 235.993 95.1318C236.78 95.1318 237.419 95.3265 237.91 95.7158C238.405 96.1009 238.663 96.6045 238.685 97.2266H237.212C237.187 96.9346 237.064 96.7061 236.844 96.541C236.624 96.376 236.33 96.2935 235.961 96.2935C235.614 96.2935 235.335 96.3696 235.124 96.522C234.912 96.6701 234.806 96.8669 234.806 97.1123C234.806 97.4847 235.128 97.7492 235.771 97.9058L236.971 98.1724C237.644 98.3289 238.124 98.549 238.412 98.8325C238.699 99.116 238.843 99.5075 238.843 100.007C238.843 100.642 238.577 101.156 238.043 101.549C237.51 101.939 236.818 102.133 235.968 102.133C235.13 102.133 234.455 101.943 233.943 101.562C233.435 101.177 233.154 100.663 233.099 100.02H234.654C234.7 100.328 234.84 100.565 235.073 100.73C235.31 100.896 235.627 100.978 236.025 100.978C236.41 100.978 236.713 100.906 236.933 100.762C237.157 100.614 237.269 100.415 237.269 100.166C237.269 99.9709 237.199 99.8164 237.06 99.7021C236.924 99.5837 236.694 99.4821 236.368 99.3975L235.143 99.1118C233.894 98.8198 233.27 98.1829 233.27 97.2012ZM246.149 95.1572C247.004 95.1572 247.683 95.4683 248.187 96.0903C248.691 96.7124 248.942 97.5609 248.942 98.6357C248.942 99.7064 248.693 100.553 248.193 101.175C247.694 101.797 247.021 102.108 246.175 102.108C245.692 102.108 245.267 102 244.899 101.784C244.531 101.564 244.254 101.264 244.067 100.883H244.036V104.215H242.455V95.2715H243.998V96.4331H244.029C244.224 96.0353 244.505 95.7243 244.874 95.5C245.242 95.2715 245.667 95.1572 246.149 95.1572ZM245.667 100.813C246.179 100.813 246.583 100.618 246.879 100.229C247.176 99.8354 247.324 99.3044 247.324 98.6357C247.324 97.9714 247.174 97.4424 246.873 97.0488C246.577 96.6553 246.175 96.4585 245.667 96.4585C245.176 96.4585 244.78 96.6574 244.48 97.0552C244.18 97.453 244.027 97.9798 244.023 98.6357C244.027 99.2959 244.18 99.8249 244.48 100.223C244.78 100.616 245.176 100.813 245.667 100.813ZM252.859 96.3569C252.419 96.3569 252.051 96.5093 251.754 96.814C251.462 97.1144 251.299 97.5016 251.266 97.9756H254.408C254.391 97.4974 254.241 97.1081 253.957 96.8076C253.674 96.5072 253.307 96.3569 252.859 96.3569ZM254.414 99.9878H255.893C255.792 100.627 255.468 101.145 254.922 101.543C254.376 101.937 253.707 102.133 252.916 102.133C251.909 102.133 251.118 101.824 250.542 101.207C249.966 100.584 249.679 99.736 249.679 98.6611C249.679 97.5947 249.964 96.7399 250.536 96.0967C251.111 95.4535 251.883 95.1318 252.853 95.1318C253.805 95.1318 254.56 95.4386 255.119 96.0522C255.677 96.6616 255.957 97.4784 255.957 98.5024V99.0166H251.253V99.1118C251.253 99.6535 251.405 100.089 251.71 100.419C252.019 100.75 252.431 100.915 252.948 100.915C253.312 100.915 253.625 100.832 253.887 100.667C254.154 100.498 254.329 100.271 254.414 99.9878ZM256.979 102V95.2715H258.496V96.4458H258.527C258.642 96.0353 258.838 95.7179 259.118 95.4937C259.401 95.2694 259.742 95.1572 260.14 95.1572C260.279 95.1572 260.444 95.1784 260.635 95.2207V96.6489C260.478 96.5897 260.264 96.5601 259.994 96.5601C259.545 96.5601 259.194 96.6955 258.94 96.9663C258.686 97.2371 258.559 97.6095 258.559 98.0835V102H256.979ZM266.563 102.108C265.713 102.108 265.034 101.795 264.526 101.168C264.022 100.542 263.771 99.6958 263.771 98.6294C263.771 97.5672 264.022 96.723 264.526 96.0967C265.034 95.4704 265.713 95.1572 266.563 95.1572C267.037 95.1572 267.456 95.2694 267.82 95.4937C268.188 95.7179 268.464 96.0205 268.646 96.4014H268.684V92.8403H270.264V102H268.715V100.851H268.69C268.504 101.236 268.222 101.543 267.846 101.771C267.473 101.996 267.046 102.108 266.563 102.108ZM267.04 96.4585C266.532 96.4585 266.13 96.6553 265.833 97.0488C265.537 97.4382 265.389 97.9671 265.389 98.6357C265.389 99.3086 265.535 99.8397 265.827 100.229C266.123 100.618 266.528 100.813 267.04 100.813C267.539 100.813 267.939 100.616 268.239 100.223C268.54 99.8291 268.69 99.3001 268.69 98.6357C268.69 97.9756 268.54 97.4487 268.239 97.0552C267.939 96.6574 267.539 96.4585 267.04 96.4585ZM274.047 100.915C274.5 100.915 274.881 100.781 275.19 100.515C275.503 100.244 275.66 99.9074 275.66 99.5054V98.9912L274.104 99.0864C273.724 99.1118 273.427 99.207 273.216 99.3721C273.008 99.5329 272.905 99.7466 272.905 100.013C272.905 100.288 273.008 100.508 273.216 100.673C273.427 100.834 273.705 100.915 274.047 100.915ZM273.571 102.108C272.915 102.108 272.376 101.92 271.953 101.543C271.534 101.166 271.324 100.678 271.324 100.077C271.324 99.48 271.544 99.0081 271.984 98.6611C272.429 98.3141 273.061 98.1152 273.882 98.0645L275.66 97.9629V97.4805C275.66 97.1292 275.548 96.8563 275.323 96.6616C275.103 96.467 274.796 96.3696 274.403 96.3696C274.035 96.3696 273.734 96.4521 273.501 96.6172C273.269 96.7822 273.127 97.0065 273.076 97.29H271.61C271.644 96.651 271.917 96.1326 272.429 95.7349C272.945 95.3328 273.624 95.1318 274.466 95.1318C275.3 95.1318 275.966 95.335 276.466 95.7412C276.969 96.1475 277.221 96.6891 277.221 97.3662V102H275.698V100.927H275.666C275.476 101.287 275.188 101.575 274.803 101.791C274.418 102.002 274.007 102.108 273.571 102.108ZM279.221 104.501C278.878 104.501 278.671 104.493 278.599 104.476V103.225C278.671 103.242 278.823 103.25 279.056 103.25C279.382 103.25 279.635 103.183 279.817 103.047C279.999 102.912 280.135 102.69 280.224 102.381C280.224 102.377 280.238 102.315 280.268 102.197C280.302 102.078 280.317 102.015 280.312 102.006L277.919 95.2715H279.646L281.233 100.654H281.258L282.845 95.2715H284.508L282.077 102.267C281.789 103.1 281.434 103.68 281.011 104.006C280.588 104.336 279.991 104.501 279.221 104.501Z" fill="#134BAD"/>
<path d="M230.519 74.1282C232.611 74.1282 234.288 72.4691 234.288 70.4137C234.288 68.3584 232.611 66.6992 230.519 66.6992C228.426 66.6992 226.737 68.3584 226.737 70.4137C226.737 72.4691 228.426 74.1282 230.519 74.1282ZM220.433 74.1282C222.526 74.1282 224.203 72.4691 224.203 70.4137C224.203 68.3584 222.526 66.6992 220.433 66.6992C218.34 66.6992 216.651 68.3584 216.651 70.4137C216.651 72.4691 218.34 74.1282 220.433 74.1282ZM220.433 76.6046C217.496 76.6046 211.608 78.0533 211.608 80.9382V84.0336H229.258V80.9382C229.258 78.0533 223.371 76.6046 220.433 76.6046ZM230.519 76.6046C230.153 76.6046 229.737 76.6294 229.296 76.6665C230.758 77.7066 231.779 79.1057 231.779 80.9382V84.0336H239.343V80.9382C239.343 78.0533 233.456 76.6046 230.519 76.6046Z" fill="#134BAD"/>
<path d="M251.77 71.5508C251.77 69.9004 252.362 68.5378 253.547 67.4629C254.74 66.3796 256.247 65.8379 258.066 65.8379C259.81 65.8379 261.261 66.3288 262.421 67.3105C263.58 68.2923 264.16 69.5111 264.16 70.9668C264.16 71.9909 263.877 72.9642 263.31 73.8867C262.743 74.8008 261.752 75.9814 260.339 77.4287L255.756 82.0371V82.1006H264.452V84.5H251.922V82.5703L258.536 75.8291C259.653 74.6611 260.402 73.764 260.783 73.1377C261.164 72.5029 261.354 71.8258 261.354 71.1064C261.354 70.2939 261.029 69.6042 260.377 69.0371C259.725 68.4701 258.925 68.1865 257.978 68.1865C256.979 68.1865 256.141 68.5081 255.464 69.1514C254.795 69.7861 254.461 70.5817 254.461 71.5381V71.5762H251.77V71.5508ZM270.705 76.21V73.9756H272.914C273.896 73.9756 274.695 73.6963 275.313 73.1377C275.94 72.5791 276.253 71.8682 276.253 71.0049C276.253 70.1331 275.961 69.4434 275.377 68.9355C274.801 68.4277 273.98 68.1738 272.914 68.1738C271.924 68.1738 271.12 68.4404 270.502 68.9736C269.884 69.4984 269.533 70.2135 269.448 71.1191H266.769C266.879 69.5111 267.497 68.2288 268.623 67.2725C269.757 66.3161 271.23 65.8379 273.041 65.8379C274.784 65.8379 276.219 66.2865 277.344 67.1836C278.47 68.0723 279.033 69.2191 279.033 70.624C279.033 71.7581 278.69 72.7145 278.005 73.4932C277.319 74.2633 276.405 74.75 275.262 74.9531V75.0039C276.65 75.097 277.751 75.5413 278.563 76.3369C279.384 77.1325 279.795 78.1693 279.795 79.4473C279.795 81.0299 279.156 82.3249 277.878 83.332C276.6 84.3392 274.996 84.8428 273.066 84.8428C271.111 84.8428 269.533 84.3561 268.331 83.3828C267.137 82.401 266.494 81.1104 266.401 79.5107H269.131C269.224 80.3994 269.617 81.1146 270.311 81.6562C271.014 82.1979 271.932 82.4688 273.066 82.4688C274.183 82.4688 275.102 82.1852 275.821 81.6182C276.54 81.0426 276.9 80.3063 276.9 79.4092C276.9 78.4189 276.549 77.6403 275.846 77.0732C275.152 76.4977 274.2 76.21 272.99 76.21H270.705ZM293.995 82.2783C292.767 83.988 291.062 84.8428 288.878 84.8428C286.695 84.8428 284.981 83.9922 283.737 82.291C282.501 80.5814 281.883 78.2581 281.883 75.3213C281.883 72.4098 282.505 70.1035 283.75 68.4023C284.994 66.6927 286.703 65.8379 288.878 65.8379C291.054 65.8379 292.759 66.6885 293.995 68.3896C295.23 70.0824 295.848 72.3887 295.848 75.3086C295.848 78.2454 295.23 80.5687 293.995 82.2783ZM285.844 80.5645C286.564 81.8255 287.575 82.4561 288.878 82.4561C290.182 82.4561 291.189 81.8255 291.9 80.5645C292.619 79.2949 292.979 77.5472 292.979 75.3213C292.979 73.1208 292.615 71.39 291.887 70.1289C291.168 68.8594 290.165 68.2246 288.878 68.2246C287.592 68.2246 286.585 68.8594 285.857 70.1289C285.129 71.3984 284.765 73.1292 284.765 75.3213C284.765 77.5472 285.125 79.2949 285.844 80.5645Z" fill="#134BAD"/>
<g filter="url(#filter3_d_748_9546)">
<path d="M347.672 29.5C347.672 26.4624 345.21 24 342.172 24C339.134 24 336.672 26.4624 336.672 29.5C336.672 32.5376 339.134 35 342.172 35C345.21 35 347.672 32.5376 347.672 29.5Z" fill="#FFEA29"/>
<path d="M347.125 29.5001C347.125 26.7645 344.908 24.5469 342.172 24.5469C339.437 24.5469 337.219 26.7645 337.219 29.5001C337.219 32.2357 339.437 34.4534 342.172 34.4534C344.908 34.4534 347.125 32.2357 347.125 29.5001Z" stroke="#FFEA29" stroke-width="1.09352"/>
</g>
<path d="M344.672 29.5C344.672 28.1193 343.553 27 342.172 27C340.791 27 339.672 28.1193 339.672 29.5C339.672 30.8807 340.791 32 342.172 32C343.553 32 344.672 30.8807 344.672 29.5Z" fill="#3779FD"/>
</g>
<path d="M5 198H0V450H5V198Z" fill="#1D66FD" fill-opacity="0.57"/>
<path d="M15 198H10V450H15V198Z" fill="#2457FF" fill-opacity="0.57"/>
<path d="M25 198H20V450H25V198Z" fill="#1D66FD" fill-opacity="0.57"/>
<path d="M35 198H30V450H35V198Z" fill="#1D66FD" fill-opacity="0.57"/>
<path d="M45 198H40V450H45V198Z" fill="#1D66FD" fill-opacity="0.57"/>
<path d="M55 198H50V450H55V198Z" fill="#1D66FD" fill-opacity="0.57"/>
<path d="M65 198H60V450H65V198Z" fill="#1D66FD" fill-opacity="0.57"/>
<path d="M75 198H70V450H75V198Z" fill="#1D66FD" fill-opacity="0.57"/>
<path d="M85 198H80V450H85V198Z" fill="#1D66FD" fill-opacity="0.57"/>
<path d="M95 198H90V450H95V198Z" fill="#1D66FD" fill-opacity="0.57"/>
<path d="M105 198H100V450H105V198Z" fill="#1D66FD" fill-opacity="0.57"/>
<path d="M115 198H110V450H115V198Z" fill="#1D66FD" fill-opacity="0.57"/>
<path d="M125 198H120V450H125V198Z" fill="#1D66FD" fill-opacity="0.57"/>
<path d="M135 198H130V450H135V198Z" fill="#1D66FD" fill-opacity="0.57"/>
<path d="M145 198H140V450H145V198Z" fill="#1D66FD" fill-opacity="0.57"/>
<path d="M155 198H150V450H155V198Z" fill="#1D66FD" fill-opacity="0.57"/>
<path d="M165 198H160V450H165V198Z" fill="#1D66FD" fill-opacity="0.57"/>
<path d="M175 198H170V450H175V198Z" fill="#1D66FD" fill-opacity="0.57"/>
<path d="M185 198H180V450H185V198Z" fill="#1D66FD" fill-opacity="0.57"/>
<path d="M195 198H190V450H195V198Z" fill="#1D66FD" fill-opacity="0.57"/>
<path d="M205 198H200V450H205V198Z" fill="#1D66FD" fill-opacity="0.57"/>
<path d="M215 198H210V450H215V198Z" fill="#1D66FD" fill-opacity="0.57"/>
<path d="M225 198H220V450H225V198Z" fill="#1D66FD" fill-opacity="0.57"/>
<path d="M235 198H230V450H235V198Z" fill="#1D66FD" fill-opacity="0.57"/>
<path d="M245 198H240V450H245V198Z" fill="#1D66FD" fill-opacity="0.57"/>
<path d="M255 198H250V450H255V198Z" fill="#1D66FD" fill-opacity="0.57"/>
<path d="M265 198H260V450H265V198Z" fill="#1D66FD" fill-opacity="0.57"/>
<path d="M275 198H270V450H275V198Z" fill="#1D66FD" fill-opacity="0.57"/>
<path d="M285 198H280V450H285V198Z" fill="#1D66FD" fill-opacity="0.57"/>
<path d="M295 198H290V450H295V198Z" fill="#1D66FD" fill-opacity="0.57"/>
<path d="M305 198H300V450H305V198Z" fill="#1D66FD" fill-opacity="0.57"/>
<path d="M315 198H310V450H315V198Z" fill="#1D66FD" fill-opacity="0.57"/>
<path d="M325 198H320V450H325V198Z" fill="#1D66FD" fill-opacity="0.57"/>
<path d="M335 198H330V450H335V198Z" fill="#1D66FD" fill-opacity="0.57"/>
<path d="M345 198H340V450H345V198Z" fill="#1D66FD" fill-opacity="0.57"/>
<path d="M355 198H350V450H355V198Z" fill="#1D66FD" fill-opacity="0.57"/>
</g>
</g>
<defs>
<clipPath id="bgblur_1_748_9546_clip_path" transform="translate(36.9543 -32)"><path d="M33.0457 160H125.947L136.046 149.331V102H43.1445L33.0457 112.669V160Z"/>
</clipPath><clipPath id="paint2_angular_748_9546_clip_path"><path d="M33.0457 160V160.5H32.5457V160H33.0457ZM142.947 160L143.31 160.344L143.162 160.5H142.947V160ZM153.046 102V101.5H153.546V102H153.046ZM33.0457 112.669H32.5457V112.47L32.6825 112.325L33.0457 112.669ZM153.046 149.331H153.546V149.53L153.409 149.675L153.046 149.331ZM43.1445 102L42.7814 101.656L42.9293 101.5H43.1445V102ZM33.0457 160V159.5H142.947V160V160.5H33.0457V160ZM33.0457 112.669H33.5457V160H33.0457H32.5457V112.669H33.0457ZM142.947 160L142.584 159.656L152.683 148.987L153.046 149.331L153.409 149.675L143.31 160.344L142.947 160ZM153.046 149.331H152.546V102H153.046H153.546V149.331H153.046ZM153.046 102V102.5H43.1445V102V101.5H153.046V102ZM43.1445 102L43.5077 102.344L33.4088 113.013L33.0457 112.669L32.6825 112.325L42.7814 101.656L43.1445 102Z"/></clipPath><filter id="filter1_d_748_9546" x="-29.0457" y="138.016" width="83" height="83" filterUnits="userSpaceOnUse" color-interpolation-filters="sRGB">
<feFlood flood-opacity="0" result="BackgroundImageFix"/>
<feColorMatrix in="SourceAlpha" type="matrix" values="0 0 0 0 0 0 0 0 0 0 0 0 0 0 0 0 0 0 127 0" result="hardAlpha"/>
<feOffset dy="4"/>
<feGaussianBlur stdDeviation="4.5"/>
<feComposite in2="hardAlpha" operator="out"/>
<feColorMatrix type="matrix" values="0 0 0 0 1 0 0 0 0 1 0 0 0 0 1 0 0 0 1 0"/>
<feBlend mode="normal" in2="BackgroundImageFix" result="effect1_dropShadow_748_9546"/>
<feBlend mode="normal" in="SourceGraphic" in2="effect1_dropShadow_748_9546" result="shape"/>
</filter>
<clipPath id="bgblur_2_748_9546_clip_path" transform="translate(-125 15)"><path d="M311 55H205.099L195 65.6691C195 65.6691 195 94.5161 195 113H300.901L311 102.331V55Z"/>
</clipPath><clipPath id="paint6_angular_748_9546_clip_path"><path d="M311 55V54.5H311.5V55H311ZM192.099 55L191.736 54.6563L191.884 54.5H192.099V55ZM182 113V113.5H181.5V113H182ZM311 102.331H311.5V102.53L311.363 102.675L311 102.331ZM182 65.6691H181.5V65.47L181.637 65.3254L182 65.6691ZM300.901 113L301.264 113.344L301.116 113.5H300.901V113ZM311 55V55.5H192.099V55V54.5H311V55ZM311 102.331H310.5V55H311H311.5V102.331H311ZM192.099 55L192.462 55.3437L182.363 66.0128L182 65.6691L181.637 65.3254L191.736 54.6563L192.099 55ZM182 65.6691H182.5V113H182H181.5V65.6691H182ZM182 113V112.5H300.901V113V113.5H182V113ZM300.901 113L300.538 112.656L310.637 101.987L311 102.331L311.363 102.675L301.264 113.344L300.901 113Z"/></clipPath><filter id="filter3_d_748_9546" x="322.672" y="14" width="39.0002" height="39" filterUnits="userSpaceOnUse" color-interpolation-filters="sRGB">
<feFlood flood-opacity="0" result="BackgroundImageFix"/>
<feColorMatrix in="SourceAlpha" type="matrix" values="0 0 0 0 0 0 0 0 0 0 0 0 0 0 0 0 0 0 127 0" result="hardAlpha"/>
<feOffset dy="4"/>
<feGaussianBlur stdDeviation="7"/>
<feComposite in2="hardAlpha" operator="out"/>
<feColorMatrix type="matrix" values="0 0 0 0 1 0 0 0 0 1 0 0 0 0 1 0 0 0 1 0"/>
<feBlend mode="normal" in2="BackgroundImageFix" result="effect1_dropShadow_748_9546"/>
<feBlend mode="normal" in="SourceGraphic" in2="effect1_dropShadow_748_9546" result="shape"/>
</filter>
<linearGradient id="paint0_linear_748_9546" x1="12.5" y1="186.522" x2="12.5" y2="193" gradientUnits="userSpaceOnUse">
<stop stop-color="white"/>
<stop offset="1" stop-color="#2457FF" stop-opacity="0.57"/>
</linearGradient>
<linearGradient id="paint1_linear_748_9546" x1="342.5" y1="29" x2="342.5" y2="58" gradientUnits="userSpaceOnUse">
<stop stop-color="#FFEA29"/>
<stop offset="1" stop-color="#FFEA29" stop-opacity="0"/>
</linearGradient>
<linearGradient id="paint3_linear_748_9546" x1="80.7778" y1="141" x2="102.957" y2="174.18" gradientUnits="userSpaceOnUse">
<stop stop-color="#B3D8FF"/>
<stop offset="1" stop-color="white" stop-opacity="0.28"/>
</linearGradient>
<linearGradient id="paint4_linear_748_9546" x1="76.3919" y1="107.801" x2="62.8675" y2="131.335" gradientUnits="userSpaceOnUse">
<stop stop-color="white"/>
<stop offset="1" stop-color="#B9D9FF"/>
</linearGradient>
<linearGradient id="paint5_linear_748_9546" x1="86.651" y1="105.662" x2="128.405" y2="114.123" gradientUnits="userSpaceOnUse">
<stop stop-color="#EAF4FF"/>
<stop offset="1" stop-color="#C1DEFF"/>
</linearGradient>
<clipPath id="clip0_748_9546">
<rect width="355" height="228" fill="white"/>
</clipPath>
</defs>
</svg>
