<svg width="184" height="132" viewBox="0 0 184 132" fill="none" xmlns="http://www.w3.org/2000/svg">
<path d="M119.814 56.5L137.817 74.5" stroke="white" stroke-opacity="0.23"/>
<foreignObject x="-70" y="-70" width="261" height="198"><div xmlns="http://www.w3.org/1999/xhtml" style="backdrop-filter:blur(35px);clip-path:url(#bgblur_0_7438_713_clip_path);height:100%;width:100%"></div></foreignObject><path data-figma-bg-blur-radius="70" d="M0 0H110.901L121 10.6691V58H10.0989L0 47.3309V0Z" fill="white" fill-opacity="0.11"/>
<mask id="path-3-inside-1_7438_713" fill="white">
<path d="M0 0H110.901L121 10.6691V58H10.0989L0 47.3309V0Z"/>
</mask>
<g clip-path="url(#paint0_angular_7438_713_clip_path)" data-figma-skip-parse="true" mask="url(#path-3-inside-1_7438_713)"><g transform="matrix(0.00445091 0.0286564 -0.122468 0.0190217 31.5 29)"><foreignObject x="-1481.5" y="-1481.5" width="2963.01" height="2963.01"><div xmlns="http://www.w3.org/1999/xhtml" style="background:conic-gradient(from 90deg,rgba(255, 255, 255, 0.06) 0deg,rgba(255, 255, 255, 0.27) 157.412deg,rgba(255, 255, 255, 0) 360deg);height:100%;width:100%;opacity:1"></div></foreignObject></g></g><path d="M0 0V-0.5H-0.5V0H0ZM110.901 0L111.264 -0.343717L111.116 -0.5H110.901V0ZM121 58V58.5H121.5V58H121ZM0 47.3309H-0.5V47.53L-0.363124 47.6746L0 47.3309ZM121 10.6691H121.5V10.47L121.363 10.3254L121 10.6691ZM10.0989 58L9.73576 58.3437L9.88369 58.5H10.0989V58ZM0 0V0.5H110.901V0V-0.5H0V0ZM0 47.3309H0.5V0H0H-0.5V47.3309H0ZM110.901 0L110.538 0.343717L120.637 11.0128L121 10.6691L121.363 10.3254L111.264 -0.343717L110.901 0ZM121 10.6691H120.5V58H121H121.5V10.6691H121ZM121 58V57.5H10.0989V58V58.5H121V58ZM10.0989 58L10.462 57.6563L0.363124 46.9872L0 47.3309L-0.363124 47.6746L9.73576 58.3437L10.0989 58Z" data-figma-gradient-fill="{&#34;type&#34;:&#34;GRADIENT_ANGULAR&#34;,&#34;stops&#34;:[{&#34;color&#34;:{&#34;r&#34;:1.0,&#34;g&#34;:1.0,&#34;b&#34;:1.0,&#34;a&#34;:0.059999998658895493},&#34;position&#34;:0.0},{&#34;color&#34;:{&#34;r&#34;:1.0,&#34;g&#34;:1.0,&#34;b&#34;:1.0,&#34;a&#34;:0.27000001072883606},&#34;position&#34;:0.43725594878196716},{&#34;color&#34;:{&#34;r&#34;:1.0,&#34;g&#34;:1.0,&#34;b&#34;:1.0,&#34;a&#34;:0.0},&#34;position&#34;:1.0}],&#34;stopsVar&#34;:[{&#34;color&#34;:{&#34;r&#34;:1.0,&#34;g&#34;:1.0,&#34;b&#34;:1.0,&#34;a&#34;:0.059999998658895493},&#34;position&#34;:0.0},{&#34;color&#34;:{&#34;r&#34;:1.0,&#34;g&#34;:1.0,&#34;b&#34;:1.0,&#34;a&#34;:0.27000001072883606},&#34;position&#34;:0.43725594878196716},{&#34;color&#34;:{&#34;r&#34;:1.0,&#34;g&#34;:1.0,&#34;b&#34;:1.0,&#34;a&#34;:0.0},&#34;position&#34;:1.0}],&#34;transform&#34;:{&#34;m00&#34;:8.9018201828002930,&#34;m01&#34;:-244.93545532226562,&#34;m02&#34;:149.51679992675781,&#34;m10&#34;:57.312805175781250,&#34;m11&#34;:38.043354034423828,&#34;m12&#34;:-18.678075790405273},&#34;opacity&#34;:1.0,&#34;blendMode&#34;:&#34;NORMAL&#34;,&#34;visible&#34;:true}" mask="url(#path-3-inside-1_7438_713)"/>
<path d="M35.0187 19.1282C37.1114 19.1282 38.7881 17.4691 38.7881 15.4137C38.7881 13.3584 37.1114 11.6992 35.0187 11.6992C32.9259 11.6992 31.2366 13.3584 31.2366 15.4137C31.2366 17.4691 32.9259 19.1282 35.0187 19.1282ZM24.9332 19.1282C27.0259 19.1282 28.7026 17.4691 28.7026 15.4137C28.7026 13.3584 27.0259 11.6992 24.9332 11.6992C22.8405 11.6992 21.1511 13.3584 21.1511 15.4137C21.1511 17.4691 22.8405 19.1282 24.9332 19.1282ZM24.9332 21.6046C21.9958 21.6046 16.1084 23.0533 16.1084 25.9382V29.0336H33.758V25.9382C33.758 23.0533 27.8706 21.6046 24.9332 21.6046ZM35.0187 21.6046C34.6531 21.6046 34.237 21.6294 33.7958 21.6665C35.2582 22.7066 36.2793 24.1057 36.2793 25.9382V29.0336H43.8434V25.9382C43.8434 23.0533 37.9561 21.6046 35.0187 21.6046Z" fill="url(#paint1_linear_7438_713)"/>
<path d="M61.0557 29.5V13.999H60.9922L56.2061 17.4014V14.6084L61.0303 11.1807H63.8359V29.5H61.0557ZM79.8386 27.2783C78.6114 28.988 76.906 29.8428 74.7224 29.8428C72.5388 29.8428 70.825 28.9922 69.5808 27.291C68.3451 25.5814 67.7273 23.2581 67.7273 20.3213C67.7273 17.4098 68.3494 15.1035 69.5935 13.4023C70.8377 11.6927 72.5473 10.8379 74.7224 10.8379C76.8976 10.8379 78.603 11.6885 79.8386 13.3896C81.0743 15.0824 81.6921 17.3887 81.6921 20.3086C81.6921 23.2454 81.0743 25.5687 79.8386 27.2783ZM71.6882 25.5645C72.4076 26.8255 73.419 27.4561 74.7224 27.4561C76.0258 27.4561 77.033 26.8255 77.7439 25.5645C78.4633 24.2949 78.823 22.5472 78.823 20.3213C78.823 18.1208 78.4591 16.39 77.7312 15.1289C77.0118 13.8594 76.0089 13.2246 74.7224 13.2246C73.436 13.2246 72.4288 13.8594 71.7009 15.1289C70.9731 16.3984 70.6091 18.1292 70.6091 20.3213C70.6091 22.5472 70.9688 24.2949 71.6882 25.5645Z" fill="url(#paint2_linear_7438_713)"/>
<path d="M16.5181 48V42.4902H13.7378V48H12.1636V41.2715H18.0986V48H16.5181ZM23.2148 41.1572C24.0697 41.1572 24.7489 41.4683 25.2524 42.0903C25.756 42.7124 26.0078 43.5609 26.0078 44.6357C26.0078 45.7064 25.7581 46.5527 25.2588 47.1748C24.7594 47.7969 24.0866 48.1079 23.2402 48.1079C22.7578 48.1079 22.3325 48 21.9644 47.7842C21.5962 47.5641 21.319 47.2637 21.1328 46.8828H21.1011V50.2153H19.5205V41.2715H21.063V42.4331H21.0947C21.2894 42.0353 21.5708 41.7243 21.939 41.5C22.3071 41.2715 22.7324 41.1572 23.2148 41.1572ZM22.7324 46.813C23.2445 46.813 23.6486 46.6183 23.9448 46.229C24.241 45.8354 24.3892 45.3044 24.3892 44.6357C24.3892 43.9714 24.2389 43.4424 23.9385 43.0488C23.6423 42.6553 23.2402 42.4585 22.7324 42.4585C22.2415 42.4585 21.8459 42.6574 21.5454 43.0552C21.245 43.453 21.0926 43.9798 21.0884 44.6357C21.0926 45.2959 21.245 45.8249 21.5454 46.2227C21.8459 46.6162 22.2415 46.813 22.7324 46.813ZM32.5142 47.2002C31.9259 47.8223 31.1346 48.1333 30.1401 48.1333C29.1457 48.1333 28.3543 47.8223 27.7661 47.2002C27.1779 46.5739 26.8838 45.7191 26.8838 44.6357C26.8838 43.5566 27.18 42.7039 27.7725 42.0776C28.3649 41.4471 29.1541 41.1318 30.1401 41.1318C31.1304 41.1318 31.9196 41.4471 32.5078 42.0776C33.1003 42.7039 33.3965 43.5566 33.3965 44.6357C33.3965 45.7191 33.1024 46.5739 32.5142 47.2002ZM28.9341 46.2925C29.2303 46.686 29.6323 46.8828 30.1401 46.8828C30.6479 46.8828 31.05 46.686 31.3462 46.2925C31.6424 45.8989 31.7905 45.3467 31.7905 44.6357C31.7905 43.929 31.6424 43.3789 31.3462 42.9854C31.05 42.5876 30.6479 42.3887 30.1401 42.3887C29.6366 42.3887 29.2345 42.5876 28.9341 42.9854C28.6379 43.3789 28.4897 43.929 28.4897 44.6357C28.4897 45.3467 28.6379 45.8989 28.9341 46.2925ZM38.9062 46.7812V42.4839H36.71L36.5386 44.8643C36.4836 45.6979 36.3122 46.32 36.0244 46.7305V46.7812H38.9062ZM35.2817 49.7583H33.8345V46.7812H34.3677C34.7993 46.5273 35.0532 45.8608 35.1294 44.7817L35.3643 41.2715H40.4805V46.7812H41.5024V49.7583H40.0552V48H35.2817V49.7583ZM44.854 46.9146C45.3068 46.9146 45.6877 46.7812 45.9966 46.5146C46.3097 46.2438 46.4663 45.9074 46.4663 45.5054V44.9912L44.9111 45.0864C44.5303 45.1118 44.234 45.207 44.0225 45.3721C43.8151 45.5329 43.7114 45.7466 43.7114 46.0132C43.7114 46.2882 43.8151 46.5083 44.0225 46.6733C44.234 46.8341 44.5112 46.9146 44.854 46.9146ZM44.3779 48.1079C43.722 48.1079 43.1825 47.9196 42.7593 47.543C42.3403 47.1663 42.1309 46.6776 42.1309 46.0767C42.1309 45.48 42.3509 45.0081 42.791 44.6611C43.2354 44.3141 43.868 44.1152 44.689 44.0645L46.4663 43.9629V43.4805C46.4663 43.1292 46.3542 42.8563 46.1299 42.6616C45.9098 42.467 45.603 42.3696 45.2095 42.3696C44.8413 42.3696 44.5409 42.4521 44.3081 42.6172C44.0754 42.7822 43.9336 43.0065 43.8828 43.29H42.4165C42.4504 42.651 42.7233 42.1326 43.2354 41.7349C43.7516 41.3328 44.4308 41.1318 45.2729 41.1318C46.1066 41.1318 46.7731 41.335 47.2725 41.7412C47.776 42.1475 48.0278 42.6891 48.0278 43.3662V48H46.5044V46.9272H46.4727C46.2822 47.2869 45.9945 47.5747 45.6094 47.7905C45.2243 48.0021 44.8138 48.1079 44.3779 48.1079ZM56.1021 44.4199L58.8506 48H56.9399L54.6484 44.9912H54.5977V48H53.0361V44.9912H52.9917L50.6938 48H48.8022L51.5317 44.439L48.8848 41.2715H50.7319L52.9917 44.0771H53.0361V41.2715H54.5977V44.0771H54.6484L56.9019 41.2715H58.73L56.1021 44.4199ZM59.7012 48V41.2715H61.2817V48H59.7012ZM61.1104 40.1416C60.9411 40.3066 60.7337 40.3892 60.4883 40.3892C60.2428 40.3892 60.0355 40.3066 59.8662 40.1416C59.6969 39.9723 59.6123 39.7692 59.6123 39.5322C59.6123 39.291 59.6969 39.0879 59.8662 38.9229C60.0355 38.7536 60.2428 38.6689 60.4883 38.6689C60.7337 38.6689 60.9411 38.7536 61.1104 38.9229C61.2839 39.0879 61.3706 39.291 61.3706 39.5322C61.3706 39.7692 61.2839 39.9723 61.1104 40.1416ZM65.5537 42.3442H64.2778V44.02H65.4331C66.1779 44.02 66.5503 43.7365 66.5503 43.1694C66.5503 42.9071 66.4635 42.7039 66.29 42.5601C66.1208 42.4162 65.8753 42.3442 65.5537 42.3442ZM65.5283 45.0229H64.2778V46.9272H65.6553C66.0319 46.9272 66.3197 46.8468 66.5186 46.686C66.7174 46.521 66.8169 46.284 66.8169 45.9751C66.8169 45.3403 66.3874 45.0229 65.5283 45.0229ZM62.729 48V41.2715H65.9219C66.599 41.2715 67.13 41.4238 67.5151 41.7285C67.9002 42.029 68.0928 42.4458 68.0928 42.979C68.0928 43.3302 67.9785 43.6455 67.75 43.9248C67.5257 44.1999 67.2464 44.367 66.9121 44.4263V44.4771C67.3564 44.5363 67.714 44.7098 67.9849 44.9976C68.2557 45.2853 68.3911 45.6387 68.3911 46.0576C68.3911 46.6543 68.1732 47.1283 67.7373 47.4795C67.3057 47.8265 66.7174 48 65.9727 48H62.729ZM76.5796 48V45.1436H73.7358V48H72.1616V41.2715H73.7358V43.9248H76.5796V41.2715H78.1538V48H76.5796ZM82.0386 46.9146C82.4914 46.9146 82.8722 46.7812 83.1812 46.5146C83.4943 46.2438 83.6509 45.9074 83.6509 45.5054V44.9912L82.0957 45.0864C81.7148 45.1118 81.4186 45.207 81.207 45.3721C80.9997 45.5329 80.896 45.7466 80.896 46.0132C80.896 46.2882 80.9997 46.5083 81.207 46.6733C81.4186 46.8341 81.6958 46.9146 82.0386 46.9146ZM81.5625 48.1079C80.9066 48.1079 80.367 47.9196 79.9438 47.543C79.5249 47.1663 79.3154 46.6776 79.3154 46.0767C79.3154 45.48 79.5355 45.0081 79.9756 44.6611C80.4199 44.3141 81.0526 44.1152 81.8735 44.0645L83.6509 43.9629V43.4805C83.6509 43.1292 83.5387 42.8563 83.3145 42.6616C83.0944 42.467 82.7876 42.3696 82.394 42.3696C82.0259 42.3696 81.7254 42.4521 81.4927 42.6172C81.2599 42.7822 81.1182 43.0065 81.0674 43.29H79.6011C79.6349 42.651 79.9079 42.1326 80.4199 41.7349C80.9362 41.3328 81.6154 41.1318 82.4575 41.1318C83.2912 41.1318 83.9577 41.335 84.457 41.7412C84.9606 42.1475 85.2124 42.6891 85.2124 43.3662V48H83.689V46.9272H83.6572C83.4668 47.2869 83.179 47.5747 82.7939 47.7905C82.4089 48.0021 81.9984 48.1079 81.5625 48.1079ZM93.6865 46.7812V42.4839H91.4902L91.3188 44.8643C91.2638 45.6979 91.0924 46.32 90.8047 46.7305V46.7812H93.6865ZM90.062 49.7583H88.6147V46.7812H89.1479C89.5796 46.5273 89.8335 45.8608 89.9097 44.7817L90.1445 41.2715H95.2607V46.7812H96.2827V49.7583H94.8354V48H90.062V49.7583ZM100.053 42.3569C99.6131 42.3569 99.245 42.5093 98.9487 42.814C98.6567 43.1144 98.4938 43.5016 98.46 43.9756H101.602C101.585 43.4974 101.435 43.1081 101.151 42.8076C100.868 42.5072 100.502 42.3569 100.053 42.3569ZM101.608 45.9878H103.087C102.986 46.6268 102.662 47.1452 102.116 47.543C101.57 47.9365 100.902 48.1333 100.11 48.1333C99.1032 48.1333 98.3118 47.8244 97.7363 47.2065C97.1608 46.5845 96.873 45.736 96.873 44.6611C96.873 43.5947 97.1587 42.7399 97.73 42.0967C98.3055 41.4535 99.0778 41.1318 100.047 41.1318C100.999 41.1318 101.754 41.4386 102.313 42.0522C102.872 42.6616 103.151 43.4784 103.151 44.5024V45.0166H98.4473V45.1118C98.4473 45.6535 98.5996 46.0894 98.9043 46.4194C99.2132 46.7495 99.6258 46.9146 100.142 46.9146C100.506 46.9146 100.819 46.832 101.082 46.667C101.348 46.4977 101.524 46.2713 101.608 45.9878ZM108.699 48V45.1436H105.855V48H104.281V41.2715H105.855V43.9248H108.699V41.2715H110.273V48H108.699ZM114.367 44.4897H113.269V46.7876H114.367C114.735 46.7876 115.029 46.6818 115.25 46.4702C115.47 46.2586 115.58 45.9814 115.58 45.6387C115.58 45.2917 115.467 45.0145 115.243 44.8071C115.023 44.5955 114.731 44.4897 114.367 44.4897ZM111.695 48V41.2715H113.269V43.29H114.57C115.357 43.29 115.984 43.5037 116.449 43.9312C116.915 44.3543 117.147 44.9256 117.147 45.645C117.147 46.3644 116.915 46.9378 116.449 47.3652C115.984 47.7884 115.357 48 114.57 48H111.695Z" fill="url(#paint3_linear_7438_713)" fill-opacity="0.98"/>
<foreignObject x="131.909" y="80" width="52" height="52"><div xmlns="http://www.w3.org/1999/xhtml" style="backdrop-filter:blur(3px);clip-path:url(#bgblur_1_7438_713_clip_path);height:100%;width:100%"></div></foreignObject><g filter="url(#filter1_d_7438_713)" data-figma-bg-blur-radius="6">
<rect x="147.909" y="90" width="20" height="20" rx="10" fill="#2572F2" fill-opacity="0.04" shape-rendering="crispEdges"/>
</g>
<rect x="153.172" y="95.2632" width="9.47368" height="9.47368" rx="4.73684" fill="white"/>
<defs>
<clipPath id="bgblur_0_7438_713_clip_path" transform="translate(70 70)"><path d="M0 0H110.901L121 10.6691V58H10.0989L0 47.3309V0Z"/>
</clipPath><clipPath id="paint0_angular_7438_713_clip_path"><path d="M0 0V-0.5H-0.5V0H0ZM110.901 0L111.264 -0.343717L111.116 -0.5H110.901V0ZM121 58V58.5H121.5V58H121ZM0 47.3309H-0.5V47.53L-0.363124 47.6746L0 47.3309ZM121 10.6691H121.5V10.47L121.363 10.3254L121 10.6691ZM10.0989 58L9.73576 58.3437L9.88369 58.5H10.0989V58ZM0 0V0.5H110.901V0V-0.5H0V0ZM0 47.3309H0.5V0H0H-0.5V47.3309H0ZM110.901 0L110.538 0.343717L120.637 11.0128L121 10.6691L121.363 10.3254L111.264 -0.343717L110.901 0ZM121 10.6691H120.5V58H121H121.5V10.6691H121ZM121 58V57.5H10.0989V58V58.5H121V58ZM10.0989 58L10.462 57.6563L0.363124 46.9872L0 47.3309L-0.363124 47.6746L9.73576 58.3437L10.0989 58Z" mask="url(#path-3-inside-1_7438_713)"/></clipPath><filter id="filter1_d_7438_713" x="131.909" y="80" width="52" height="52" filterUnits="userSpaceOnUse" color-interpolation-filters="sRGB">
<feFlood flood-opacity="0" result="BackgroundImageFix"/>
<feColorMatrix in="SourceAlpha" type="matrix" values="0 0 0 0 0 0 0 0 0 0 0 0 0 0 0 0 0 0 127 0" result="hardAlpha"/>
<feOffset dy="6"/>
<feGaussianBlur stdDeviation="8"/>
<feComposite in2="hardAlpha" operator="out"/>
<feColorMatrix type="matrix" values="0 0 0 0 1 0 0 0 0 1 0 0 0 0 1 0 0 0 1 0"/>
<feBlend mode="normal" in2="BackgroundImageFix" result="effect1_dropShadow_7438_713"/>
<feBlend mode="normal" in="SourceGraphic" in2="effect1_dropShadow_7438_713" result="shape"/>
</filter>
<clipPath id="bgblur_1_7438_713_clip_path" transform="translate(-131.909 -80)"><rect x="147.909" y="90" width="20" height="20" rx="10"/>
</clipPath><linearGradient id="paint1_linear_7438_713" x1="43.5" y1="5.5" x2="29.9759" y2="29.0336" gradientUnits="userSpaceOnUse">
<stop stop-color="white"/>
<stop offset="1" stop-color="#B9D9FF"/>
</linearGradient>
<linearGradient id="paint2_linear_7438_713" x1="59.8571" y1="3.50001" x2="101.611" y2="11.9612" gradientUnits="userSpaceOnUse">
<stop stop-color="#EAF4FF"/>
<stop offset="1" stop-color="#C1DEFF"/>
</linearGradient>
<linearGradient id="paint3_linear_7438_713" x1="58.5556" y1="39" x2="77.1557" y2="78.1754" gradientUnits="userSpaceOnUse">
<stop stop-color="#B3D8FF"/>
<stop offset="1" stop-color="white" stop-opacity="0.28"/>
</linearGradient>
</defs>
</svg>
