<svg width="287" height="30" viewBox="0 0 287 30" fill="none" xmlns="http://www.w3.org/2000/svg">
<path fill-rule="evenodd" clip-rule="evenodd" d="M158.627 6.37262C158.627 2.85302 161.483 0 165.007 0H280.62C284.143 0 287 2.85302 287 6.37262V23.4479C287 26.9675 284.143 29.8205 280.62 29.8205H165.007C161.483 29.8205 158.627 26.9675 158.627 23.4479V6.37262ZM181.521 15.2191C181.315 15.0018 181.282 14.5181 181.462 14.2795C181.624 14.0585 181.704 13.8127 181.704 13.5418C181.704 13.2141 181.589 12.9291 181.357 12.6868C181.125 12.4374 180.806 12.2487 180.4 12.1204C180.001 11.992 179.545 11.928 179.033 11.928C178.457 11.928 177.868 12.0326 177.267 12.2421C176.964 12.3479 176.82 12.6847 176.924 12.9882C177.041 13.3237 177.415 13.4884 177.757 13.3897C178.168 13.2702 178.559 13.2106 178.927 13.2106C179.285 13.2106 179.559 13.2605 179.747 13.3602C179.943 13.4599 180.042 13.6025 180.042 13.7876C180.042 13.9659 179.966 14.1012 179.811 14.1939C179.656 14.2865 179.436 14.3328 179.147 14.3328H178.658C178.371 14.3328 178.138 14.5649 178.138 14.8512C178.138 15.1375 178.371 15.3697 178.658 15.3697H179.296C179.589 15.3697 179.814 15.4195 179.969 15.5192C180.124 15.6118 180.2 15.7509 180.2 15.936C180.2 16.1498 180.089 16.3173 179.864 16.4385C179.647 16.5524 179.344 16.6094 178.959 16.6094C178.486 16.6094 178.039 16.5467 177.619 16.4211C177.267 16.3155 176.868 16.4686 176.738 16.8126C176.624 17.1105 176.753 17.4498 177.053 17.5591C177.269 17.6377 177.493 17.7023 177.728 17.7532C178.155 17.8457 178.591 17.8921 179.033 17.8921C179.572 17.8921 180.057 17.8172 180.484 17.6676C180.912 17.518 181.248 17.3077 181.494 17.037C181.739 16.759 181.862 16.4385 181.862 16.0751C181.862 15.7686 181.768 15.5051 181.578 15.2841C181.559 15.262 181.54 15.2403 181.521 15.2191ZM187.274 12.5906C186.805 12.1631 186.132 11.9493 185.255 11.9493C184.798 11.9493 184.353 12.0098 183.918 12.1311C183.685 12.1969 183.471 12.2775 183.274 12.3728C182.996 12.5066 182.916 12.8464 183.055 13.1207C183.234 13.4751 183.704 13.5748 184.079 13.4445C184.098 13.4376 184.119 13.4309 184.14 13.4243C184.433 13.3245 184.731 13.2746 185.033 13.2746C185.468 13.2746 185.794 13.3744 186.012 13.574C186.393 13.9122 185.924 14.4077 185.412 14.4077H185.033C184.207 14.4077 183.593 14.5608 183.192 14.8673C182.8 15.1737 182.604 15.5941 182.604 16.1285C182.604 16.4633 182.688 16.7627 182.856 17.0264C183.025 17.2899 183.266 17.4967 183.581 17.6463C183.904 17.7959 184.283 17.8707 184.719 17.8707C185.296 17.8707 185.747 17.7447 186.074 17.4927C186.197 17.3982 186.443 17.4791 186.443 17.634C186.443 17.7175 186.511 17.7852 186.594 17.7852H187.212C187.636 17.7852 187.979 17.4417 187.979 17.0181V14.5038C187.979 13.6487 187.744 13.011 187.274 12.5906ZM185.875 16.5561C185.658 16.6843 185.409 16.7484 185.129 16.7484C184.84 16.7484 184.613 16.6878 184.444 16.5667C184.283 16.4385 184.202 16.2674 184.202 16.0536C184.202 15.6048 184.538 15.3803 185.213 15.3803H185.835C186.113 15.3803 186.338 15.6048 186.338 15.8818C186.338 15.9389 186.33 15.9961 186.306 16.0486C186.213 16.266 186.07 16.4352 185.875 16.5561ZM191.606 15.6048C191.789 15.6048 191.96 15.6945 192.065 15.8449L193.177 17.4463C193.325 17.6585 193.567 17.7852 193.826 17.7852C194.465 17.7852 194.839 17.0646 194.47 16.5425L193.757 15.5339C193.445 15.09 193.446 14.4963 193.762 14.0547L194.411 13.151C194.746 12.6842 194.411 12.0349 193.837 12.0349C193.604 12.0349 193.386 12.1492 193.255 12.3409L192.102 14.0179C191.993 14.1748 191.815 14.2688 191.625 14.2688C191.304 14.2688 191.046 14.0097 191.046 13.6905V12.8544C191.046 12.4018 190.679 12.0349 190.224 12.0349C189.771 12.0349 189.405 12.4018 189.405 12.8544V16.9655C189.405 17.4183 189.771 17.7852 190.224 17.7852C190.679 17.7852 191.046 17.4183 191.046 16.9655V16.1635C191.046 15.8549 191.296 15.6048 191.606 15.6048ZM200.269 12.5906C199.799 12.1631 199.126 11.9493 198.25 11.9493C197.794 11.9493 197.349 12.0098 196.914 12.1311C196.681 12.1969 196.465 12.2775 196.269 12.3728C195.992 12.5066 195.912 12.8464 196.051 13.1207C196.229 13.4751 196.698 13.5748 197.075 13.4445C197.094 13.4376 197.115 13.4309 197.135 13.4243C197.429 13.3245 197.727 13.2746 198.029 13.2746C198.464 13.2746 198.789 13.3744 199.008 13.574C199.389 13.9122 198.919 14.4077 198.408 14.4077H198.029C197.201 14.4077 196.588 14.5608 196.188 14.8673C195.796 15.1737 195.599 15.5941 195.599 16.1285C195.599 16.4633 195.682 16.7627 195.851 17.0264C196.019 17.2899 196.261 17.4967 196.577 17.6463C196.899 17.7959 197.279 17.8707 197.713 17.8707C198.292 17.8707 198.743 17.7447 199.07 17.4927C199.193 17.3982 199.438 17.4791 199.438 17.634C199.438 17.7175 199.506 17.7852 199.59 17.7852H200.206C200.63 17.7852 200.974 17.4417 200.974 17.0181V14.5038C200.974 13.6487 200.74 13.011 200.269 12.5906ZM198.871 16.5561C198.654 16.6843 198.403 16.7484 198.124 16.7484C197.836 16.7484 197.607 16.6878 197.44 16.5667C197.279 16.4385 197.198 16.2674 197.198 16.0536C197.198 15.6048 197.534 15.3803 198.207 15.3803H198.831C199.108 15.3803 199.333 15.6048 199.333 15.8818C199.333 15.9389 199.324 15.9961 199.301 16.0486C199.209 16.266 199.065 16.4352 198.871 16.5561ZM206.74 15.2191C206.536 15.0018 206.503 14.5181 206.683 14.2795C206.844 14.0585 206.925 13.8127 206.925 13.5418C206.925 13.2141 206.809 12.9291 206.578 12.6868C206.346 12.4374 206.027 12.2487 205.621 12.1204C205.22 11.992 204.764 11.928 204.252 11.928C203.676 11.928 203.088 12.0326 202.488 12.2421C202.183 12.3479 202.04 12.6847 202.145 12.9882C202.262 13.3237 202.635 13.4884 202.976 13.3897C203.389 13.2702 203.78 13.2106 204.147 13.2106C204.506 13.2106 204.778 13.2605 204.968 13.3602C205.164 13.4599 205.262 13.6025 205.262 13.7876C205.262 13.9659 205.185 14.1012 205.03 14.1939C204.877 14.2865 204.656 14.3328 204.368 14.3328H203.877C203.59 14.3328 203.359 14.5649 203.359 14.8512C203.359 15.1375 203.59 15.3697 203.877 15.3697H204.515C204.81 15.3697 205.035 15.4195 205.188 15.5192C205.343 15.6118 205.42 15.7509 205.42 15.936C205.42 16.1498 205.308 16.3173 205.083 16.4385C204.866 16.5524 204.565 16.6094 204.179 16.6094C203.705 16.6094 203.258 16.5467 202.841 16.4211C202.486 16.3155 202.088 16.4686 201.959 16.8126C201.845 17.1105 201.975 17.4498 202.273 17.5591C202.488 17.6377 202.713 17.7023 202.947 17.7532C203.376 17.8457 203.81 17.8921 204.252 17.8921C204.793 17.8921 205.276 17.8172 205.704 17.6676C206.133 17.518 206.469 17.3077 206.715 17.037C206.96 16.759 207.081 16.4385 207.081 16.0751C207.081 15.7686 206.987 15.5051 206.798 15.2841C206.78 15.262 206.761 15.2403 206.74 15.2191ZM212.495 12.5906C212.024 12.1631 211.351 11.9493 210.474 11.9493C210.019 11.9493 209.573 12.0098 209.139 12.1311C208.906 12.1969 208.691 12.2775 208.493 12.3728C208.217 12.5066 208.136 12.8464 208.275 13.1207C208.455 13.4751 208.924 13.5748 209.299 13.4445C209.319 13.4376 209.338 13.4309 209.359 13.4243C209.654 13.3245 209.952 13.2746 210.254 13.2746C210.688 13.2746 211.015 13.3744 211.232 13.574C211.614 13.9122 211.144 14.4077 210.634 14.4077H210.254C209.426 14.4077 208.812 14.5608 208.413 14.8673C208.019 15.1737 207.823 15.5941 207.823 16.1285C207.823 16.4633 207.908 16.7627 208.077 17.0264C208.244 17.2899 208.487 17.4967 208.803 17.6463C209.125 17.7959 209.503 17.8707 209.938 17.8707C210.515 17.8707 210.968 17.7447 211.295 17.4927C211.417 17.3982 211.664 17.4791 211.664 17.634C211.664 17.7175 211.731 17.7852 211.815 17.7852H212.431C212.855 17.7852 213.2 17.4417 213.2 17.0181V14.5038C213.2 13.6487 212.964 13.011 212.495 12.5906ZM211.096 16.5561C210.878 16.6843 210.629 16.7484 210.348 16.7484C210.061 16.7484 209.833 16.6878 209.665 16.5667C209.503 16.4385 209.423 16.2674 209.423 16.0536C209.423 15.6048 209.759 15.3803 210.433 15.3803H211.056C211.334 15.3803 211.559 15.6048 211.559 15.8818C211.559 15.9389 211.549 15.9961 211.527 16.0486C211.433 16.266 211.289 16.4352 211.096 16.5561ZM218.694 13.4029C219.072 13.4029 219.38 13.0967 219.38 12.719C219.38 12.3411 219.072 12.0349 218.694 12.0349H214.605C214.227 12.0349 213.921 12.3411 213.921 12.719C213.921 13.0967 214.227 13.4029 214.605 13.4029H214.878C215.406 13.4029 215.835 13.831 215.835 14.3591V16.9708C215.835 17.4205 216.2 17.7852 216.65 17.7852C217.099 17.7852 217.465 17.4205 217.465 16.9708V14.3591C217.465 13.831 217.894 13.4029 218.422 13.4029H218.694ZM225.009 14.3862C224.617 14.0513 224.052 13.8804 223.315 13.8732H222.805C222.297 13.8732 221.884 13.4617 221.884 12.9541V12.8491C221.884 12.3994 221.521 12.0349 221.069 12.0349C220.62 12.0349 220.254 12.3994 220.254 12.8491V16.1981C220.254 17.0756 220.966 17.7879 221.843 17.7911L223.095 17.7959C223.888 17.7959 224.502 17.6213 224.935 17.2722C225.377 16.9158 225.599 16.4207 225.599 15.7864C225.599 15.1807 225.403 14.7141 225.009 14.3862ZM223.674 16.4063C223.505 16.5489 223.262 16.6166 222.948 16.6094H222.715C222.257 16.6094 221.884 16.2381 221.884 15.7799C221.884 15.3185 222.262 14.9459 222.723 14.9505L222.948 14.9527C223.27 14.9599 223.513 15.0276 223.674 15.1559C223.841 15.2841 223.926 15.4872 223.926 15.7651C223.926 16.0501 223.841 16.2639 223.674 16.4063ZM233.995 15.2191C233.791 15.0018 233.757 14.5181 233.937 14.2795C234.098 14.0585 234.178 13.8127 234.178 13.5418C234.178 13.2141 234.063 12.9291 233.832 12.6868C233.601 12.4374 233.282 12.2487 232.875 12.1204C232.475 11.992 232.019 11.928 231.507 11.928C230.931 11.928 230.342 12.0326 229.741 12.2421C229.438 12.3479 229.295 12.6847 229.4 12.9882C229.516 13.3237 229.889 13.4884 230.231 13.3897C230.644 13.2702 231.033 13.2106 231.401 13.2106C231.759 13.2106 232.033 13.2605 232.223 13.3602C232.419 13.4599 232.516 13.6025 232.516 13.7876C232.516 13.9659 232.44 14.1012 232.285 14.1939C232.13 14.2865 231.91 14.3328 231.623 14.3328H231.132C230.845 14.3328 230.614 14.5649 230.614 14.8512C230.614 15.1375 230.845 15.3697 231.132 15.3697H231.77C232.065 15.3697 232.288 15.4195 232.443 15.5192C232.598 15.6118 232.674 15.7509 232.674 15.936C232.674 16.1498 232.563 16.3173 232.338 16.4385C232.121 16.5524 231.819 16.6094 231.433 16.6094C230.96 16.6094 230.513 16.5467 230.094 16.4211C229.741 16.3155 229.342 16.4686 229.213 16.8126C229.1 17.1105 229.228 17.4498 229.527 17.5591C229.743 17.6377 229.968 17.7023 230.202 17.7532C230.631 17.8457 231.065 17.8921 231.507 17.8921C232.047 17.8921 232.531 17.8172 232.958 17.6676C233.387 17.518 233.724 17.3077 233.968 17.037C234.213 16.759 234.336 16.4385 234.336 16.0751C234.336 15.7686 234.242 15.5051 234.052 15.2841C234.035 15.262 234.016 15.2403 233.995 15.2191ZM240.526 15.2005C240.335 14.9862 240.306 14.5203 240.464 14.2795C240.611 14.0585 240.684 13.8055 240.684 13.5205C240.684 13.0502 240.485 12.6868 240.086 12.4303C239.686 12.1666 239.132 12.0349 238.422 12.0349H237.126C236.244 12.0349 235.531 12.7481 235.531 13.628V16.192C235.531 17.0719 236.244 17.7852 237.126 17.7852H238.55C239.314 17.7852 239.888 17.6426 240.274 17.3576C240.66 17.0726 240.853 16.67 240.853 16.1498C240.853 15.759 240.745 15.4425 240.526 15.2005ZM237.65 14.397C237.311 14.397 237.035 14.1217 237.035 13.7824C237.035 13.4429 237.311 13.1677 237.65 13.1677H238.276C238.851 13.1677 239.139 13.3709 239.139 13.777C239.139 14.1904 238.851 14.397 238.276 14.397H237.65ZM239.317 16.0216C239.317 16.442 239.016 16.6521 238.413 16.6521H237.671C237.32 16.6521 237.035 16.3674 237.035 16.0163C237.035 15.665 237.32 15.3803 237.671 15.3803H238.445C238.746 15.3803 238.966 15.4337 239.107 15.5406C239.247 15.6403 239.317 15.8008 239.317 16.0216ZM243.116 17.4967C243.593 17.746 244.129 17.8707 244.726 17.8707C245.321 17.8707 245.855 17.746 246.324 17.4967C246.794 17.24 247.163 16.8873 247.429 16.4385C247.696 15.9895 247.828 15.4801 247.828 14.91C247.828 14.34 247.696 13.8305 247.429 13.3816C247.163 12.9326 246.794 12.5835 246.324 12.334C245.855 12.0776 245.321 11.9493 244.726 11.9493C244.129 11.9493 243.593 12.0776 243.116 12.334C242.646 12.5835 242.277 12.9326 242.011 13.3816C241.745 13.8305 241.611 14.34 241.611 14.91C241.611 15.4801 241.745 15.9895 242.011 16.4385C242.277 16.8873 242.646 17.24 243.116 17.4967ZM245.756 16.0751C245.49 16.3601 245.145 16.5025 244.726 16.5025C244.305 16.5025 243.957 16.3601 243.684 16.0751C243.41 15.7829 243.273 15.3945 243.273 14.91C243.273 14.4254 243.41 14.0406 243.684 13.7556C243.957 13.4634 244.305 13.3175 244.726 13.3175C245.145 13.3175 245.49 13.4634 245.756 13.7556C246.03 14.0406 246.166 14.4254 246.166 14.91C246.166 15.3945 246.03 15.7829 245.756 16.0751ZM249.772 12.0349C249.322 12.0349 248.957 12.3994 248.957 12.8491V16.9708C248.957 17.4205 249.322 17.7852 249.772 17.7852C250.222 17.7852 250.587 17.4205 250.587 16.9708V16.7109C250.587 16.1178 251.069 15.6368 251.664 15.6368H251.973C252.568 15.6368 253.05 16.1178 253.05 16.7109V16.9655C253.05 17.4183 253.417 17.7852 253.87 17.7852C254.323 17.7852 254.691 17.4183 254.691 16.9655V12.8544C254.691 12.4018 254.323 12.0349 253.87 12.0349C253.417 12.0349 253.05 12.4018 253.05 12.8544V13.1571C253.05 13.777 252.546 14.2795 251.925 14.2795H251.712C251.091 14.2795 250.587 13.777 250.587 13.1571V12.8491C250.587 12.3994 250.222 12.0349 249.772 12.0349ZM257.302 17.4967C257.779 17.746 258.316 17.8707 258.913 17.8707C259.508 17.8707 260.04 17.746 260.511 17.4967C260.981 17.24 261.348 16.8873 261.616 16.4385C261.883 15.9895 262.015 15.4801 262.015 14.91C262.015 14.34 261.883 13.8305 261.616 13.3816C261.348 12.9326 260.981 12.5835 260.511 12.334C260.04 12.0776 259.508 11.9493 258.913 11.9493C258.316 11.9493 257.779 12.0776 257.302 12.334C256.833 12.5835 256.465 12.9326 256.198 13.3816C255.932 13.8305 255.798 14.34 255.798 14.91C255.798 15.4801 255.932 15.9895 256.198 16.4385C256.465 16.8873 256.833 17.24 257.302 17.4967ZM259.943 16.0751C259.677 16.3601 259.332 16.5025 258.913 16.5025C258.492 16.5025 258.144 16.3601 257.871 16.0751C257.597 15.7829 257.46 15.3945 257.46 14.91C257.46 14.4254 257.597 14.0406 257.871 13.7556C258.144 13.4634 258.492 13.3175 258.913 13.3175C259.332 13.3175 259.677 13.4634 259.943 13.7556C260.216 14.0406 260.353 14.4254 260.353 14.91C260.353 15.3945 260.216 15.7829 259.943 16.0751ZM265.344 15.6048C265.527 15.6048 265.699 15.6945 265.805 15.8449L266.916 17.4463C267.065 17.6585 267.306 17.7852 267.565 17.7852C268.205 17.7852 268.578 17.0646 268.21 16.5425L267.497 15.5339C267.183 15.09 267.186 14.4963 267.502 14.0547L268.151 13.151C268.486 12.6842 268.151 12.0349 267.577 12.0349C267.344 12.0349 267.125 12.1492 266.994 12.3409L265.841 14.0179C265.733 14.1748 265.554 14.2688 265.364 14.2688C265.044 14.2688 264.785 14.0097 264.785 13.6905V12.8544C264.785 12.4018 264.417 12.0349 263.964 12.0349C263.511 12.0349 263.144 12.4018 263.144 12.8544V16.9655C263.144 17.4183 263.511 17.7852 263.964 17.7852C264.417 17.7852 264.785 17.4183 264.785 16.9655V16.1635C264.785 15.8549 265.036 15.6048 265.344 15.6048Z" fill="black"/>
<path d="M28.5161 20.6368C27.6979 20.6368 26.969 20.4348 26.3294 20.0308C25.6898 19.6267 25.1874 19.0443 24.8205 18.2832C24.4633 17.5128 24.2831 16.5969 24.2831 15.5352C24.2831 14.4735 24.4633 13.5622 24.8205 12.8012C25.1874 12.0307 25.6898 11.4435 26.3294 11.0395C26.969 10.6356 27.6979 10.4336 28.5161 10.4336C29.3343 10.4336 30.0632 10.6356 30.7028 11.0395C31.3423 11.4435 31.8415 12.0307 32.1988 12.8012C32.5657 13.5622 32.7491 14.4735 32.7491 15.5352C32.7491 16.5969 32.5657 17.5128 32.1988 18.2832C31.8415 19.0443 31.3423 19.6267 30.7028 20.0308C30.0632 20.4348 29.3343 20.6368 28.5161 20.6368ZM28.5161 18.7061C29.119 18.7061 29.5895 18.4476 29.9276 17.931C30.2753 17.4142 30.4492 16.6157 30.4492 15.5352C30.4492 14.4547 30.2753 13.6561 29.9276 13.1394C29.5895 12.6226 29.119 12.3643 28.5161 12.3643C27.9244 12.3643 27.4538 12.6226 27.1061 13.1394C26.7664 13.6561 26.5973 14.4547 26.5973 15.5352C26.5973 16.6157 26.7664 17.4142 27.1061 17.931C27.4538 18.4476 27.9244 18.7061 28.5161 18.7061ZM45.4736 14.4359C45.2073 14.8919 45.236 15.6136 45.5709 16.0229C45.6268 16.0925 45.6794 16.1648 45.7272 16.2399C45.992 16.6345 46.1228 17.0901 46.1228 17.6068C46.1228 18.2174 45.949 18.7531 45.6013 19.2133C45.2536 19.6643 44.7639 20.0167 44.1339 20.2704C43.5039 20.5146 42.775 20.6368 41.9472 20.6368C41.1194 20.6368 40.3905 20.5146 39.7605 20.2704C39.1385 20.0167 38.6552 19.6643 38.3059 19.2133C37.9678 18.7531 37.7987 18.2174 37.7987 17.6068C37.7987 17.0901 37.9263 16.6345 38.1799 16.2399C38.2309 16.1629 38.2868 16.089 38.3458 16.0179C38.6855 15.6115 38.7142 14.8932 38.4479 14.4359C38.2501 14.0883 38.1512 13.6937 38.1512 13.2521C38.1512 12.679 38.3107 12.1811 38.6313 11.7583C38.9503 11.3355 39.3985 11.0113 39.9711 10.7858C40.5452 10.551 41.2039 10.4336 41.9472 10.4336C42.7 10.4336 43.3619 10.551 43.9361 10.7858C44.5199 11.0113 44.9712 11.3355 45.2902 11.7583C45.6108 12.1811 45.7703 12.679 45.7703 13.2521C45.7703 13.6937 45.6714 14.0883 45.4736 14.4359ZM41.9472 12.1105C41.4862 12.1105 41.1146 12.2233 40.8323 12.4488C40.5596 12.665 40.4224 12.9656 40.4224 13.3508C40.4224 13.7266 40.5596 14.0225 40.8323 14.2387C41.105 14.4547 41.4767 14.5627 41.9472 14.5627C42.4177 14.5627 42.7925 14.4547 43.0748 14.2387C43.3571 14.0225 43.4991 13.7266 43.4991 13.3508C43.4991 12.9656 43.3571 12.665 43.0748 12.4488C42.7925 12.2233 42.4177 12.1105 41.9472 12.1105ZM41.9472 18.9597C42.5198 18.9597 42.9727 18.8329 43.3013 18.5792C43.6394 18.3162 43.8085 17.9686 43.8085 17.5364C43.8085 17.1041 43.6394 16.7613 43.3013 16.5075C42.9727 16.2539 42.5198 16.1271 41.9472 16.1271C41.3826 16.1271 40.936 16.2539 40.6058 16.5075C40.2773 16.7613 40.113 17.1041 40.113 17.5364C40.113 17.978 40.2773 18.3256 40.6058 18.5792C40.936 18.8329 41.3826 18.9597 41.9472 18.9597ZM51.4021 20.6368C50.5839 20.6368 49.855 20.4348 49.2154 20.0308C48.5758 19.6267 48.0718 19.0443 47.705 18.2832C47.3477 17.5128 47.1691 16.5969 47.1691 15.5352C47.1691 14.4735 47.3477 13.5622 47.705 12.8012C48.0718 12.0307 48.5758 11.4435 49.2154 11.0395C49.855 10.6356 50.5839 10.4336 51.4021 10.4336C52.2203 10.4336 52.9492 10.6356 53.5888 11.0395C54.2284 11.4435 54.7276 12.0307 55.0848 12.8012C55.4517 13.5622 55.6351 14.4735 55.6351 15.5352C55.6351 16.5969 55.4517 17.5128 55.0848 18.2832C54.7276 19.0443 54.2284 19.6267 53.5888 20.0308C52.9492 20.4348 52.2203 20.6368 51.4021 20.6368ZM51.4021 18.7061C52.0034 18.7061 52.4739 18.4476 52.812 17.931C53.1613 17.4142 53.3352 16.6157 53.3352 15.5352C53.3352 14.4547 53.1613 13.6561 52.812 13.1394C52.4739 12.6226 52.0034 12.3643 51.4021 12.3643C50.8088 12.3643 50.3382 12.6226 49.9905 13.1394C49.6524 13.6561 49.4834 14.4547 49.4834 15.5352C49.4834 16.6157 49.6524 17.4142 49.9905 17.931C50.3382 18.4476 50.8088 18.7061 51.4021 18.7061ZM60.9782 20.6368C60.16 20.6368 59.4311 20.4348 58.7915 20.0308C58.1519 19.6267 57.6479 19.0443 57.2811 18.2832C56.9238 17.5128 56.7452 16.5969 56.7452 15.5352C56.7452 14.4735 56.9238 13.5622 57.2811 12.8012C57.6479 12.0307 58.1519 11.4435 58.7915 11.0395C59.4311 10.6356 60.16 10.4336 60.9782 10.4336C61.7964 10.4336 62.5253 10.6356 63.1649 11.0395C63.8045 11.4435 64.3021 12.0307 64.6594 12.8012C65.0262 13.5622 65.2096 14.4735 65.2096 15.5352C65.2096 16.5969 65.0262 17.5128 64.6594 18.2832C64.3021 19.0443 63.8045 19.6267 63.1649 20.0308C62.5253 20.4348 61.7964 20.6368 60.9782 20.6368ZM60.9782 18.7061C61.5795 18.7061 62.05 18.4476 62.3881 17.931C62.7359 17.4142 62.9113 16.6157 62.9113 15.5352C62.9113 14.4547 62.7359 13.6561 62.3881 13.1394C62.05 12.6226 61.5795 12.3643 60.9782 12.3643C60.3849 12.3643 59.9144 12.6226 59.5667 13.1394C59.2285 13.6561 59.0595 14.4547 59.0595 15.5352C59.0595 16.6157 59.2285 17.4142 59.5667 17.931C59.9144 18.4476 60.3849 18.7061 60.9782 18.7061ZM79.3601 17.5928C79.3601 18.0363 78.9996 18.396 78.5562 18.396C78.1112 18.396 77.7523 18.7556 77.7523 19.1993V19.4319C77.7523 20.0038 77.2882 20.4676 76.714 20.4676H76.5593C75.9868 20.4676 75.5226 20.0038 75.5226 19.4319C75.5226 18.8598 75.0585 18.396 74.4859 18.396H71.3598C70.7202 18.396 70.2034 17.8792 70.2034 17.2418C70.2034 16.9937 70.2832 16.7524 70.4315 16.5534L74.5672 10.9947C74.7506 10.7481 75.0409 10.6026 75.3488 10.6026C76.1431 10.6026 76.6024 11.5032 76.1351 12.1454L73.5576 15.688C73.3008 16.0409 73.5528 16.5357 73.9898 16.5357H74.6693C75.1797 16.5357 75.5928 16.1224 75.5928 15.6126C75.5928 15.1028 76.0075 14.6896 76.5179 14.6896H76.8273C77.3377 14.6896 77.7523 15.1028 77.7523 15.6126V15.7324C77.7523 16.1761 78.1112 16.5357 78.5562 16.5357C78.9996 16.5357 79.3601 16.8954 79.3601 17.339V17.5928ZM83.4017 14.3091C84.7941 14.3091 85.8196 14.5863 86.4784 15.1406C87.1467 15.6948 87.48 16.4371 87.48 17.3672C87.48 17.9686 87.3301 18.5181 87.0286 19.0161C86.7272 19.5047 86.2662 19.8992 85.6458 20.2C85.0349 20.4912 84.2773 20.6368 83.3746 20.6368C82.6776 20.6368 81.9917 20.5476 81.3139 20.369C80.955 20.2678 80.6233 20.1448 80.3218 20.0002C79.8912 19.7942 79.7684 19.2664 79.9885 18.8429C80.2612 18.3143 80.9487 18.1628 81.5021 18.3838C81.601 18.4236 81.7031 18.4605 81.8083 18.4946C82.2964 18.645 82.8004 18.7201 83.3172 18.7201C83.8914 18.7201 84.3427 18.6074 84.6728 18.3818C85.0014 18.1564 85.1657 17.8416 85.1657 17.4377C85.1657 17.0149 84.9919 16.6955 84.6442 16.4793C84.306 16.2633 83.7127 16.1553 82.8658 16.1553C81.5101 16.1553 80.4478 14.9918 80.5706 13.6429L80.6185 13.1263C80.7493 11.6968 81.9487 10.6026 83.3858 10.6026H85.9568C86.4624 10.6026 86.8739 11.0127 86.8739 11.5187C86.8739 12.0247 86.4624 12.4348 85.9568 12.4348H83.617C83.1289 12.4348 82.7222 12.8087 82.6824 13.2946L82.6648 13.5085C82.6282 13.9395 82.9694 14.3091 83.4017 14.3091ZM91.7242 14.3091C93.1166 14.3091 94.1421 14.5863 94.7992 15.1406C95.4675 15.6948 95.8025 16.4371 95.8025 17.3672C95.8025 17.9686 95.6509 18.5181 95.3495 19.0161C95.0496 19.5047 94.5887 19.8992 93.9683 20.2C93.3558 20.4912 92.5998 20.6368 91.6955 20.6368C91.0001 20.6368 90.3142 20.5476 89.6363 20.369C89.2759 20.2678 88.9458 20.1448 88.6427 20.0002C88.2137 19.7942 88.0908 19.2664 88.3093 18.8429C88.5837 18.3143 89.2711 18.1628 89.8246 18.3838C89.9235 18.4236 90.0256 18.4605 90.1308 18.4946C90.6189 18.645 91.1229 18.7201 91.6396 18.7201C92.2138 18.7201 92.6652 18.6074 92.9937 18.3818C93.3239 18.1564 93.4882 17.8416 93.4882 17.4377C93.4882 17.0149 93.3143 16.6955 92.9666 16.4793C92.6269 16.2633 92.0352 16.1553 91.1883 16.1553C89.8326 16.1553 88.7687 14.9919 88.8931 13.643L88.9394 13.1263C89.0702 11.6968 90.2712 10.6026 91.7082 10.6026H94.2777C94.7849 10.6026 95.1948 11.0127 95.1948 11.5187C95.1948 12.0247 94.7849 12.4348 94.2777 12.4348H91.9395C91.4514 12.4348 91.0447 12.8087 91.0048 13.2946L90.9857 13.5085C90.9506 13.9395 91.2919 14.3091 91.7242 14.3091ZM109.768 17.5928C109.768 18.0363 109.407 18.396 108.964 18.396C108.521 18.396 108.16 18.7556 108.16 19.1993V19.4319C108.16 20.0038 107.696 20.4676 107.123 20.4676H106.967C106.395 20.4676 105.93 20.0038 105.93 19.4319C105.93 18.8598 105.466 18.396 104.894 18.396H101.768C101.13 18.396 100.611 17.8792 100.611 17.2418C100.611 16.9937 100.691 16.7524 100.839 16.5534L104.975 10.9947C105.16 10.7481 105.449 10.6026 105.757 10.6026C106.551 10.6026 107.01 11.5032 106.543 12.1454L103.965 15.688C103.709 16.0409 103.961 16.5357 104.398 16.5357H105.077C105.587 16.5357 106.001 16.1224 106.001 15.6126C106.001 15.1028 106.415 14.6896 106.926 14.6896H107.235C107.746 14.6896 108.16 15.1028 108.16 15.6126V15.7324C108.16 16.1761 108.521 16.5357 108.964 16.5357C109.407 16.5357 109.768 16.8954 109.768 17.339V17.5928ZM119.496 17.5928C119.496 18.0363 119.135 18.396 118.692 18.396C118.247 18.396 117.888 18.7556 117.888 19.1993V19.4319C117.888 20.0038 117.424 20.4676 116.849 20.4676H116.695C116.122 20.4676 115.658 20.0038 115.658 19.4319C115.658 18.8598 115.194 18.396 114.621 18.396H111.495C110.856 18.396 110.339 17.8792 110.339 17.2418C110.339 16.9937 110.419 16.7524 110.567 16.5534L114.703 10.9947C114.886 10.7481 115.176 10.6026 115.484 10.6026C116.279 10.6026 116.738 11.5032 116.271 12.1454L113.693 15.688C113.436 16.0409 113.688 16.5357 114.125 16.5357H114.805C115.315 16.5357 115.728 16.1224 115.728 15.6126C115.728 15.1028 116.143 14.6896 116.653 14.6896H116.963C117.473 14.6896 117.888 15.1028 117.888 15.6126V15.7324C117.888 16.1761 118.247 16.5357 118.692 16.5357C119.135 16.5357 119.496 16.8954 119.496 17.339V17.5928ZM130.681 10.6026C131.359 10.6026 131.906 11.1507 131.906 11.8266C131.906 11.9954 131.872 12.1622 131.804 12.3167L128.536 19.7885C128.355 20.2011 127.947 20.4676 127.496 20.4676C126.676 20.4676 126.127 19.6258 126.459 18.877L128.848 13.4753C129.059 12.9986 128.71 12.463 128.188 12.463H126.828C126.384 12.463 126.024 12.8225 126.024 13.2662C126.024 13.7099 125.663 14.0695 125.22 14.0695H125.008C124.446 14.0695 123.992 13.6153 123.992 13.0548V12.3361C123.992 11.3788 124.768 10.6026 125.727 10.6026H130.681ZM139.431 10.6026C140.107 10.6026 140.656 11.1507 140.656 11.8266C140.656 11.9954 140.621 12.1622 140.554 12.3167L137.284 19.7885C137.104 20.2011 136.695 20.4676 136.246 20.4676C135.426 20.4676 134.877 19.6258 135.207 18.877L137.598 13.4753C137.809 12.9986 137.46 12.463 136.938 12.463H135.577C135.132 12.463 134.772 12.8225 134.772 13.2662C134.772 13.7099 134.413 14.0695 133.968 14.0695H133.756C133.196 14.0695 132.74 13.6153 132.74 13.0548V12.3361C132.74 11.3788 133.518 10.6026 134.477 10.6026H139.431Z" fill="black"/>
<path d="M8.7216 11.5062C9.35001 11.6284 9.9274 11.9346 10.3804 12.386C10.8317 12.8372 11.1395 13.4128 11.2623 14.039L8.7216 11.5062ZM8.7216 8.94141C10.0263 9.08591 11.2432 9.66868 12.1731 10.5938C13.1029 11.519 13.6883 12.7315 13.835 14.0325L8.7216 8.94141ZM13.1923 19.1494V21.073C13.1923 21.2516 13.1556 21.4284 13.0838 21.592C13.012 21.7556 12.9067 21.9025 12.7744 22.0231C12.6436 22.1439 12.4873 22.2358 12.3182 22.293C12.1476 22.3502 11.9673 22.3716 11.7903 22.3555C9.81092 22.141 7.90977 21.4668 6.23985 20.387C4.68477 19.4024 3.36731 18.089 2.38003 16.5396C1.29387 14.8668 0.616003 12.9624 0.405469 10.9805C0.38952 10.8032 0.410256 10.6244 0.467675 10.4557C0.525093 10.287 0.616016 10.1318 0.737232 10.0004C0.856854 9.86895 1.00361 9.76379 1.1663 9.69194C1.33058 9.61993 1.5076 9.58282 1.68623 9.58266H3.61456C3.92717 9.57947 4.23021 9.68971 4.46626 9.89268C4.70231 10.0955 4.85699 10.3773 4.90165 10.6854C4.98299 11.301 5.13453 11.9055 5.35145 12.4873C5.43757 12.7167 5.45671 12.9662 5.40567 13.206C5.35463 13.4457 5.23502 13.6659 5.06276 13.8402L4.24455 14.6545C5.16165 16.2599 6.49346 17.5891 8.10436 18.5018L8.92097 17.6875C9.09641 17.515 9.3165 17.3963 9.55733 17.3451C9.79817 17.294 10.0486 17.3126 10.2782 17.3988C10.862 17.616 11.4681 17.7665 12.0854 17.8478C12.398 17.8918 12.6835 18.0485 12.8876 18.2886C13.0918 18.5285 13.2002 18.8349 13.1923 19.1494Z" fill="black"/>
</svg>
