<svg width="185" height="123" viewBox="0 0 185 123" fill="none" xmlns="http://www.w3.org/2000/svg">
<foreignObject x="-70" y="-70" width="269" height="198"><div xmlns="http://www.w3.org/1999/xhtml" style="backdrop-filter:blur(35px);clip-path:url(#bgblur_0_188_7329_clip_path);height:100%;width:100%"></div></foreignObject><path data-figma-bg-blur-radius="70" d="M0 0H118.901L129 10.6691V58H10.0989L0 47.3309V0Z" fill="#FFEA29"/>
<mask id="path-2-inside-1_188_7329" fill="white">
<path d="M0 0H118.901L129 10.6691V58H10.0989L0 47.3309V0Z"/>
</mask>
<g clip-path="url(#paint0_angular_188_7329_clip_path)" data-figma-skip-parse="true" mask="url(#path-2-inside-1_188_7329)"><g transform="matrix(0.00445091 0.0286564 -0.122468 0.0190217 49.5 29)"><foreignObject x="-1428.58" y="-1428.58" width="2857.16" height="2857.16"><div xmlns="http://www.w3.org/1999/xhtml" style="background:conic-gradient(from 90deg,rgba(255, 255, 255, 0.06) 0deg,rgba(255, 255, 255, 0.27) 157.412deg,rgba(255, 255, 255, 0) 360deg);height:100%;width:100%;opacity:1"></div></foreignObject></g></g><path d="M0 0V-0.5H-0.5V0H0ZM118.901 0L119.264 -0.343717L119.116 -0.5H118.901V0ZM129 58V58.5H129.5V58H129ZM0 47.3309H-0.5V47.53L-0.363124 47.6746L0 47.3309ZM129 10.6691H129.5V10.47L129.363 10.3254L129 10.6691ZM10.0989 58L9.73576 58.3437L9.88369 58.5H10.0989V58ZM0 0V0.5H118.901V0V-0.5H0V0ZM0 47.3309H0.5V0H0H-0.5V47.3309H0ZM118.901 0L118.538 0.343717L128.637 11.0128L129 10.6691L129.363 10.3254L119.264 -0.343717L118.901 0ZM129 10.6691H128.5V58H129H129.5V10.6691H129ZM129 58V57.5H10.0989V58V58.5H129V58ZM10.0989 58L10.462 57.6563L0.363124 46.9872L0 47.3309L-0.363124 47.6746L9.73576 58.3437L10.0989 58Z" data-figma-gradient-fill="{&#34;type&#34;:&#34;GRADIENT_ANGULAR&#34;,&#34;stops&#34;:[{&#34;color&#34;:{&#34;r&#34;:1.0,&#34;g&#34;:1.0,&#34;b&#34;:1.0,&#34;a&#34;:0.059999998658895493},&#34;position&#34;:0.0},{&#34;color&#34;:{&#34;r&#34;:1.0,&#34;g&#34;:1.0,&#34;b&#34;:1.0,&#34;a&#34;:0.27000001072883606},&#34;position&#34;:0.43725594878196716},{&#34;color&#34;:{&#34;r&#34;:1.0,&#34;g&#34;:1.0,&#34;b&#34;:1.0,&#34;a&#34;:0.0},&#34;position&#34;:1.0}],&#34;stopsVar&#34;:[{&#34;color&#34;:{&#34;r&#34;:1.0,&#34;g&#34;:1.0,&#34;b&#34;:1.0,&#34;a&#34;:0.059999998658895493},&#34;position&#34;:0.0},{&#34;color&#34;:{&#34;r&#34;:1.0,&#34;g&#34;:1.0,&#34;b&#34;:1.0,&#34;a&#34;:0.27000001072883606},&#34;position&#34;:0.43725594878196716},{&#34;color&#34;:{&#34;r&#34;:1.0,&#34;g&#34;:1.0,&#34;b&#34;:1.0,&#34;a&#34;:0.0},&#34;position&#34;:1.0}],&#34;transform&#34;:{&#34;m00&#34;:8.9018201828002930,&#34;m01&#34;:-244.93547058105469,&#34;m02&#34;:167.51681518554688,&#34;m10&#34;:57.312805175781250,&#34;m11&#34;:38.043350219726562,&#34;m12&#34;:-18.678075790405273},&#34;opacity&#34;:1.0,&#34;blendMode&#34;:&#34;NORMAL&#34;,&#34;visible&#34;:true}" mask="url(#path-2-inside-1_188_7329)"/>
<path d="M48.5187 19.1282C50.6114 19.1282 52.2881 17.4691 52.2881 15.4137C52.2881 13.3584 50.6114 11.6992 48.5187 11.6992C46.4259 11.6992 44.7366 13.3584 44.7366 15.4137C44.7366 17.4691 46.4259 19.1282 48.5187 19.1282ZM38.4332 19.1282C40.5259 19.1282 42.2026 17.4691 42.2026 15.4137C42.2026 13.3584 40.5259 11.6992 38.4332 11.6992C36.3405 11.6992 34.6511 13.3584 34.6511 15.4137C34.6511 17.4691 36.3405 19.1282 38.4332 19.1282ZM38.4332 21.6046C35.4958 21.6046 29.6084 23.0533 29.6084 25.9382V29.0336H47.258V25.9382C47.258 23.0533 41.3706 21.6046 38.4332 21.6046ZM48.5187 21.6046C48.1531 21.6046 47.737 21.6294 47.2958 21.6665C48.7582 22.7066 49.7793 24.1057 49.7793 25.9382V29.0336H57.3434V25.9382C57.3434 23.0533 51.4561 21.6046 48.5187 21.6046Z" fill="#134BAD"/>
<path d="M69.7695 16.5508C69.7695 14.9004 70.362 13.5378 71.5469 12.4629C72.7402 11.3796 74.2467 10.8379 76.0664 10.8379C77.8099 10.8379 79.2614 11.3288 80.4209 12.3105C81.5804 13.2923 82.1602 14.5111 82.1602 15.9668C82.1602 16.9909 81.8766 17.9642 81.3096 18.8867C80.7425 19.8008 79.7523 20.9814 78.3389 22.4287L73.7559 27.0371V27.1006H82.4521V29.5H69.9219V27.5703L76.5361 20.8291C77.6533 19.6611 78.4023 18.764 78.7832 18.1377C79.1641 17.5029 79.3545 16.8258 79.3545 16.1064C79.3545 15.2939 79.0286 14.6042 78.377 14.0371C77.7253 13.4701 76.9255 13.1865 75.9775 13.1865C74.9788 13.1865 74.141 13.5081 73.4639 14.1514C72.7952 14.7861 72.4609 15.5817 72.4609 16.5381V16.5762H69.7695V16.5508ZM88.7048 21.21V18.9756H90.9138C91.8956 18.9756 92.6954 18.6963 93.3132 18.1377C93.9395 17.5791 94.2527 16.8682 94.2527 16.0049C94.2527 15.1331 93.9607 14.4434 93.3767 13.9355C92.8012 13.4277 91.9802 13.1738 90.9138 13.1738C89.9236 13.1738 89.1196 13.4404 88.5017 13.9736C87.8839 14.4984 87.5326 15.2135 87.448 16.1191H84.7693C84.8793 14.5111 85.4972 13.2288 86.6228 12.2725C87.7569 11.3161 89.2296 10.8379 91.0408 10.8379C92.7843 10.8379 94.2188 11.2865 95.3445 12.1836C96.4701 13.0723 97.033 14.2191 97.033 15.624C97.033 16.7581 96.6902 17.7145 96.0046 18.4932C95.3191 19.2633 94.405 19.75 93.2625 19.9531V20.0039C94.6505 20.097 95.7507 20.5413 96.5632 21.3369C97.3842 22.1325 97.7947 23.1693 97.7947 24.4473C97.7947 26.0299 97.1557 27.3249 95.8777 28.332C94.5997 29.3392 92.9959 29.8428 91.0662 29.8428C89.1111 29.8428 87.5326 29.3561 86.3308 28.3828C85.1375 27.401 84.4942 26.1104 84.4011 24.5107H87.1306C87.2237 25.3994 87.6173 26.1146 88.3113 26.6562C89.0138 27.1979 89.9321 27.4688 91.0662 27.4688C92.1834 27.4688 93.1017 27.1852 93.8211 26.6182C94.5405 26.0426 94.9002 25.3063 94.9002 24.4092C94.9002 23.4189 94.5489 22.6403 93.8464 22.0732C93.1524 21.4977 92.2003 21.21 90.99 21.21H88.7048ZM111.995 27.2783C110.767 28.988 109.062 29.8428 106.878 29.8428C104.695 29.8428 102.981 28.9922 101.737 27.291C100.501 25.5814 99.8833 23.2581 99.8833 20.3213C99.8833 17.4098 100.505 15.1035 101.75 13.4023C102.994 11.6927 104.703 10.8379 106.878 10.8379C109.054 10.8379 110.759 11.6885 111.995 13.3896C113.23 15.0824 113.848 17.3887 113.848 20.3086C113.848 23.2454 113.23 25.5687 111.995 27.2783ZM103.844 25.5645C104.564 26.8255 105.575 27.4561 106.878 27.4561C108.182 27.4561 109.189 26.8255 109.9 25.5645C110.619 24.2949 110.979 22.5472 110.979 20.3213C110.979 18.1208 110.615 16.39 109.887 15.1289C109.168 13.8594 108.165 13.2246 106.878 13.2246C105.592 13.2246 104.585 13.8594 103.857 15.1289C103.129 16.3984 102.765 18.1292 102.765 20.3213C102.765 22.5472 103.125 24.2949 103.844 25.5645Z" fill="#134BAD"/>
<path d="M24.4692 48V42.4902H21.689V48H20.1147V41.2715H26.0498V48H24.4692ZM31.166 41.1572C32.0208 41.1572 32.7 41.4683 33.2036 42.0903C33.7072 42.7124 33.959 43.5609 33.959 44.6357C33.959 45.7064 33.7093 46.5527 33.21 47.1748C32.7106 47.7969 32.0378 48.1079 31.1914 48.1079C30.709 48.1079 30.2837 48 29.9155 47.7842C29.5474 47.5641 29.2702 47.2637 29.084 46.8828H29.0522V50.2153H27.4717V41.2715H29.0142V42.4331H29.0459C29.2406 42.0353 29.522 41.7243 29.8901 41.5C30.2583 41.2715 30.6836 41.1572 31.166 41.1572ZM30.6836 46.813C31.1956 46.813 31.5998 46.6183 31.896 46.229C32.1922 45.8354 32.3403 45.3044 32.3403 44.6357C32.3403 43.9714 32.1901 43.4424 31.8896 43.0488C31.5934 42.6553 31.1914 42.4585 30.6836 42.4585C30.1927 42.4585 29.797 42.6574 29.4966 43.0552C29.1961 43.453 29.0438 43.9798 29.0396 44.6357C29.0438 45.2959 29.1961 45.8249 29.4966 46.2227C29.797 46.6162 30.1927 46.813 30.6836 46.813ZM40.4653 47.2002C39.8771 47.8223 39.0858 48.1333 38.0913 48.1333C37.0968 48.1333 36.3055 47.8223 35.7173 47.2002C35.1291 46.5739 34.835 45.7191 34.835 44.6357C34.835 43.5566 35.1312 42.7039 35.7236 42.0776C36.3161 41.4471 37.1053 41.1318 38.0913 41.1318C39.0815 41.1318 39.8708 41.4471 40.459 42.0776C41.0514 42.7039 41.3477 43.5566 41.3477 44.6357C41.3477 45.7191 41.0535 46.5739 40.4653 47.2002ZM36.8853 46.2925C37.1815 46.686 37.5835 46.8828 38.0913 46.8828C38.5991 46.8828 39.0011 46.686 39.2974 46.2925C39.5936 45.8989 39.7417 45.3467 39.7417 44.6357C39.7417 43.929 39.5936 43.3789 39.2974 42.9854C39.0011 42.5876 38.5991 42.3887 38.0913 42.3887C37.5877 42.3887 37.1857 42.5876 36.8853 42.9854C36.589 43.3789 36.4409 43.929 36.4409 44.6357C36.4409 45.3467 36.589 45.8989 36.8853 46.2925ZM46.8574 46.7812V42.4839H44.6611L44.4897 44.8643C44.4347 45.6979 44.2633 46.32 43.9756 46.7305V46.7812H46.8574ZM43.2329 49.7583H41.7856V46.7812H42.3188C42.7505 46.5273 43.0044 45.8608 43.0806 44.7817L43.3154 41.2715H48.4316V46.7812H49.4536V49.7583H48.0063V48H43.2329V49.7583ZM52.8052 46.9146C53.258 46.9146 53.6388 46.7812 53.9478 46.5146C54.2609 46.2438 54.4175 45.9074 54.4175 45.5054V44.9912L52.8623 45.0864C52.4814 45.1118 52.1852 45.207 51.9736 45.3721C51.7663 45.5329 51.6626 45.7466 51.6626 46.0132C51.6626 46.2882 51.7663 46.5083 51.9736 46.6733C52.1852 46.8341 52.4624 46.9146 52.8052 46.9146ZM52.3291 48.1079C51.6732 48.1079 51.1336 47.9196 50.7104 47.543C50.2915 47.1663 50.082 46.6776 50.082 46.0767C50.082 45.48 50.3021 45.0081 50.7422 44.6611C51.1865 44.3141 51.8192 44.1152 52.6401 44.0645L54.4175 43.9629V43.4805C54.4175 43.1292 54.3053 42.8563 54.0811 42.6616C53.861 42.467 53.5542 42.3696 53.1606 42.3696C52.7925 42.3696 52.492 42.4521 52.2593 42.6172C52.0265 42.7822 51.8848 43.0065 51.834 43.29H50.3677C50.4015 42.651 50.6745 42.1326 51.1865 41.7349C51.7028 41.3328 52.382 41.1318 53.2241 41.1318C54.0578 41.1318 54.7243 41.335 55.2236 41.7412C55.7272 42.1475 55.979 42.6891 55.979 43.3662V48H54.4556V46.9272H54.4238C54.2334 47.2869 53.9456 47.5747 53.5605 47.7905C53.1755 48.0021 52.765 48.1079 52.3291 48.1079ZM64.0532 44.4199L66.8018 48H64.8911L62.5996 44.9912H62.5488V48H60.9873V44.9912H60.9429L58.645 48H56.7534L59.4829 44.439L56.8359 41.2715H58.6831L60.9429 44.0771H60.9873V41.2715H62.5488V44.0771H62.5996L64.853 41.2715H66.6812L64.0532 44.4199ZM74.6284 48V45.1436H71.7847V48H70.2104V41.2715H71.7847V43.9248H74.6284V41.2715H76.2026V48H74.6284ZM80.0874 46.9146C80.5402 46.9146 80.9211 46.7812 81.23 46.5146C81.5431 46.2438 81.6997 45.9074 81.6997 45.5054V44.9912L80.1445 45.0864C79.7637 45.1118 79.4674 45.207 79.2559 45.3721C79.0485 45.5329 78.9448 45.7466 78.9448 46.0132C78.9448 46.2882 79.0485 46.5083 79.2559 46.6733C79.4674 46.8341 79.7446 46.9146 80.0874 46.9146ZM79.6113 48.1079C78.9554 48.1079 78.4159 47.9196 77.9927 47.543C77.5737 47.1663 77.3643 46.6776 77.3643 46.0767C77.3643 45.48 77.5843 45.0081 78.0244 44.6611C78.4688 44.3141 79.1014 44.1152 79.9224 44.0645L81.6997 43.9629V43.4805C81.6997 43.1292 81.5876 42.8563 81.3633 42.6616C81.1432 42.467 80.8364 42.3696 80.4429 42.3696C80.0747 42.3696 79.7743 42.4521 79.5415 42.6172C79.3088 42.7822 79.167 43.0065 79.1162 43.29H77.6499C77.6838 42.651 77.9567 42.1326 78.4688 41.7349C78.985 41.3328 79.6642 41.1318 80.5063 41.1318C81.34 41.1318 82.0065 41.335 82.5059 41.7412C83.0094 42.1475 83.2612 42.6891 83.2612 43.3662V48H81.7378V46.9272H81.7061C81.5156 47.2869 81.2279 47.5747 80.8428 47.7905C80.4577 48.0021 80.0472 48.1079 79.6113 48.1079ZM91.7354 46.7812V42.4839H89.5391L89.3677 44.8643C89.3127 45.6979 89.1413 46.32 88.8535 46.7305V46.7812H91.7354ZM88.1108 49.7583H86.6636V46.7812H87.1968C87.6284 46.5273 87.8823 45.8608 87.9585 44.7817L88.1934 41.2715H93.3096V46.7812H94.3315V49.7583H92.8843V48H88.1108V49.7583ZM98.1021 42.3569C97.6619 42.3569 97.2938 42.5093 96.9976 42.814C96.7056 43.1144 96.5426 43.5016 96.5088 43.9756H99.6509C99.634 43.4974 99.4837 43.1081 99.2002 42.8076C98.9167 42.5072 98.5506 42.3569 98.1021 42.3569ZM99.6572 45.9878H101.136C101.035 46.6268 100.711 47.1452 100.165 47.543C99.6191 47.9365 98.9505 48.1333 98.1592 48.1333C97.152 48.1333 96.3607 47.8244 95.7852 47.2065C95.2096 46.5845 94.9219 45.736 94.9219 44.6611C94.9219 43.5947 95.2075 42.7399 95.7788 42.0967C96.3543 41.4535 97.1266 41.1318 98.0957 41.1318C99.0479 41.1318 99.8032 41.4386 100.362 42.0522C100.92 42.6616 101.2 43.4784 101.2 44.5024V45.0166H96.4961V45.1118C96.4961 45.6535 96.6484 46.0894 96.9531 46.4194C97.262 46.7495 97.6746 46.9146 98.1909 46.9146C98.5549 46.9146 98.868 46.832 99.1304 46.667C99.397 46.4977 99.5726 46.2713 99.6572 45.9878ZM106.748 48V45.1436H103.904V48H102.33V41.2715H103.904V43.9248H106.748V41.2715H108.322V48H106.748ZM112.416 44.4897H111.318V46.7876H112.416C112.784 46.7876 113.078 46.6818 113.298 46.4702C113.518 46.2586 113.628 45.9814 113.628 45.6387C113.628 45.2917 113.516 45.0145 113.292 44.8071C113.072 44.5955 112.78 44.4897 112.416 44.4897ZM109.744 48V41.2715H111.318V43.29H112.619C113.406 43.29 114.033 43.5037 114.498 43.9312C114.964 44.3543 115.196 44.9256 115.196 45.645C115.196 46.3644 114.964 46.9378 114.498 47.3652C114.033 47.7884 113.406 48 112.619 48H109.744Z" fill="#134BAD"/>
<path d="M127 56L144.5 73.5" stroke="#FFEA29"/>
<foreignObject x="133" y="71" width="52" height="52"><div xmlns="http://www.w3.org/1999/xhtml" style="backdrop-filter:blur(3px);clip-path:url(#bgblur_1_188_7329_clip_path);height:100%;width:100%"></div></foreignObject><g filter="url(#filter1_d_188_7329)" data-figma-bg-blur-radius="6">
<rect x="149" y="81" width="20" height="20" rx="10" fill="#FFEA29"/>
</g>
<rect x="154.263" y="86.2627" width="9.47368" height="9.47368" rx="4.73684" fill="#3779FD"/>
<defs>
<clipPath id="bgblur_0_188_7329_clip_path" transform="translate(70 70)"><path d="M0 0H118.901L129 10.6691V58H10.0989L0 47.3309V0Z"/>
</clipPath><clipPath id="paint0_angular_188_7329_clip_path"><path d="M0 0V-0.5H-0.5V0H0ZM118.901 0L119.264 -0.343717L119.116 -0.5H118.901V0ZM129 58V58.5H129.5V58H129ZM0 47.3309H-0.5V47.53L-0.363124 47.6746L0 47.3309ZM129 10.6691H129.5V10.47L129.363 10.3254L129 10.6691ZM10.0989 58L9.73576 58.3437L9.88369 58.5H10.0989V58ZM0 0V0.5H118.901V0V-0.5H0V0ZM0 47.3309H0.5V0H0H-0.5V47.3309H0ZM118.901 0L118.538 0.343717L128.637 11.0128L129 10.6691L129.363 10.3254L119.264 -0.343717L118.901 0ZM129 10.6691H128.5V58H129H129.5V10.6691H129ZM129 58V57.5H10.0989V58V58.5H129V58ZM10.0989 58L10.462 57.6563L0.363124 46.9872L0 47.3309L-0.363124 47.6746L9.73576 58.3437L10.0989 58Z" mask="url(#path-2-inside-1_188_7329)"/></clipPath><filter id="filter1_d_188_7329" x="133" y="71" width="52" height="52" filterUnits="userSpaceOnUse" color-interpolation-filters="sRGB">
<feFlood flood-opacity="0" result="BackgroundImageFix"/>
<feColorMatrix in="SourceAlpha" type="matrix" values="0 0 0 0 0 0 0 0 0 0 0 0 0 0 0 0 0 0 127 0" result="hardAlpha"/>
<feOffset dy="6"/>
<feGaussianBlur stdDeviation="8"/>
<feComposite in2="hardAlpha" operator="out"/>
<feColorMatrix type="matrix" values="0 0 0 0 1 0 0 0 0 0.97494 0 0 0 0 0.744622 0 0 0 1 0"/>
<feBlend mode="normal" in2="BackgroundImageFix" result="effect1_dropShadow_188_7329"/>
<feBlend mode="normal" in="SourceGraphic" in2="effect1_dropShadow_188_7329" result="shape"/>
</filter>
<clipPath id="bgblur_1_188_7329_clip_path" transform="translate(-133 -71)"><rect x="149" y="81" width="20" height="20" rx="10"/>
</clipPath></defs>
</svg>
