<svg  viewBox="0 0 1440 573" fill="none" xmlns="http://www.w3.org/2000/svg" preserveAspectRatio="none">
<g clip-path="url(#clip0_188_6863)">
<g clip-path="url(#clip1_188_6863)">
<rect x="0.224243" y="498.245" width="6.97705" height="74.7541" fill="#1D66FD" fill-opacity="0.57"/>
<rect x="16.0513" y="498.245" width="6.97705" height="74.7541" fill="#1D66FD" fill-opacity="0.57"/>
<rect x="31.8784" y="498.245" width="6.97705" height="74.7541" fill="#1D66FD" fill-opacity="0.57"/>
<rect x="47.7054" y="498.245" width="6.97705" height="74.7541" fill="#1D66FD" fill-opacity="0.57"/>
<rect x="63.5325" y="481.301" width="6.97705" height="91.6984" fill="#1D66FD" fill-opacity="0.57"/>
<rect x="79.3595" y="471.334" width="6.97705" height="101.666" fill="#1D66FD" fill-opacity="0.57"/>
<rect x="95.1865" y="471.334" width="6.97705" height="101.666" fill="#1D66FD" fill-opacity="0.57"/>
<rect x="111.014" y="471.334" width="6.97705" height="101.666" fill="#1D66FD" fill-opacity="0.57"/>
<rect x="126.841" y="488.278" width="6.97705" height="84.7213" fill="#1D66FD" fill-opacity="0.57"/>
<rect x="142.668" y="488.278" width="6.97705" height="84.7213" fill="#1D66FD" fill-opacity="0.57"/>
<rect x="158.495" y="488.278" width="6.97705" height="84.7213" fill="#1D66FD" fill-opacity="0.57"/>
<rect x="174.322" y="488.278" width="6.97705" height="84.7213" fill="#1D66FD" fill-opacity="0.57"/>
<rect x="190.149" y="459.373" width="6.97705" height="113.626" fill="#1D66FD" fill-opacity="0.57"/>
<rect x="206.018" y="435" width="7" height="138" fill="#1D66FD" fill-opacity="0.57"/>
<rect x="205.976" y="436" width="7" height="137" fill="url(#paint0_linear_188_6863)" fill-opacity="0.57"/>
<rect x="221.868" y="449.406" width="6.97705" height="123.593" fill="#1D66FD" fill-opacity="0.57"/>
<rect x="237.695" y="441.433" width="6.97705" height="131.567" fill="#1D66FD" fill-opacity="0.57"/>
<rect x="253.522" y="441.433" width="6.97705" height="131.567" fill="#1D66FD" fill-opacity="0.57"/>
<rect x="269.349" y="441.433" width="6.97705" height="131.567" fill="#1D66FD" fill-opacity="0.57"/>
<rect x="285.176" y="441.433" width="6.97705" height="131.567" fill="#1D66FD" fill-opacity="0.57"/>
<rect x="301.003" y="441.433" width="6.97705" height="131.567" fill="#1D66FD" fill-opacity="0.57"/>
<rect x="316.83" y="459.373" width="6.97705" height="113.626" fill="#1D66FD" fill-opacity="0.57"/>
<rect x="332.657" y="459.373" width="6.97705" height="113.626" fill="#1D66FD" fill-opacity="0.57"/>
<rect x="348.484" y="459.373" width="6.97705" height="113.626" fill="#1D66FD" fill-opacity="0.57"/>
<rect x="364.311" y="459.373" width="6.97705" height="113.626" fill="#1D66FD" fill-opacity="0.57"/>
<rect x="380.138" y="476.317" width="6.97705" height="96.682" fill="#1D66FD" fill-opacity="0.57"/>
<rect x="395.965" y="476.317" width="6.97705" height="96.682" fill="#1D66FD" fill-opacity="0.57"/>
<rect x="411.792" y="476.317" width="6.97705" height="96.682" fill="#1D66FD" fill-opacity="0.57"/>
<rect x="427.62" y="476.317" width="6.97705" height="96.682" fill="#1D66FD" fill-opacity="0.57"/>
<rect x="443.447" y="459.373" width="6.97705" height="113.626" fill="#1D66FD" fill-opacity="0.57"/>
<rect x="459.274" y="459.373" width="6.97705" height="113.626" fill="#1D66FD" fill-opacity="0.57"/>
<rect x="475.101" y="505.223" width="6.97705" height="67.777" fill="#1D66FD" fill-opacity="0.57"/>
<rect x="490.928" y="475.321" width="6.97705" height="97.6787" fill="#1D66FD" fill-opacity="0.57"/>
<rect x="506.755" y="509.209" width="6.97705" height="63.7902" fill="#1D66FD" fill-opacity="0.57"/>
<rect x="522.582" y="508.213" width="6.97705" height="64.7869" fill="#1D66FD" fill-opacity="0.57"/>
<rect x="538.409" y="514.193" width="6.97705" height="58.8066" fill="#1D66FD" fill-opacity="0.57"/>
<rect x="554.236" y="501.235" width="6.97705" height="71.7639" fill="#1D66FD" fill-opacity="0.57"/>
<rect x="570.063" y="489.275" width="6.97705" height="83.7246" fill="#1D66FD" fill-opacity="0.57"/>
<rect x="585.89" y="471.334" width="6.97705" height="101.666" fill="#1D66FD" fill-opacity="0.57"/>
<rect x="601.717" y="481.301" width="6.97705" height="91.6984" fill="#1D66FD" fill-opacity="0.57"/>
<rect x="617.544" y="454.39" width="6.97705" height="118.61" fill="#1D66FD" fill-opacity="0.57"/>
<rect x="633.371" y="454.39" width="6.97705" height="118.61" fill="#1D66FD" fill-opacity="0.57"/>
<rect x="649.198" y="446.416" width="6.97705" height="126.584" fill="#1D66FD" fill-opacity="0.57"/>
<rect x="665.025" y="443.426" width="6.97705" height="129.574" fill="#1D66FD" fill-opacity="0.57"/>
<rect x="680.852" y="446.416" width="6.97705" height="126.584" fill="#1D66FD" fill-opacity="0.57"/>
<rect x="696.679" y="423.592" width="6.97705" height="149.407" fill="#1D66FD" fill-opacity="0.57"/>
<rect x="712.506" y="429.195" width="6.97705" height="143.805" fill="#1D66FD" fill-opacity="0.57"/>
<rect x="728.333" y="412.387" width="6.97705" height="160.613" fill="#1D66FD" fill-opacity="0.57"/>
<rect x="744.16" y="412.387" width="6.97705" height="160.613" fill="#1D66FD" fill-opacity="0.57"/>
<rect x="759.987" y="423.592" width="6.97705" height="149.407" fill="#1D66FD" fill-opacity="0.57"/>
<rect x="775.814" y="423.592" width="6.97705" height="149.407" fill="#1D66FD" fill-opacity="0.57"/>
<rect x="791.641" y="393.711" width="6.97705" height="179.289" fill="#1D66FD" fill-opacity="0.57"/>
<rect x="807.468" y="393.711" width="6.97705" height="179.289" fill="#1D66FD" fill-opacity="0.57"/>
<rect x="823.295" y="403.049" width="6.97705" height="169.951" fill="#1D66FD" fill-opacity="0.57"/>
<rect x="839.122" y="393.711" width="6.97705" height="179.289" fill="#1D66FD" fill-opacity="0.57"/>
<rect x="854.949" y="393.711" width="6.97705" height="179.289" fill="#1D66FD" fill-opacity="0.57"/>
<rect x="870.776" y="403.049" width="6.97705" height="169.951" fill="#1D66FD" fill-opacity="0.57"/>
<rect x="886.603" y="412.387" width="6.97705" height="160.613" fill="#1D66FD" fill-opacity="0.57"/>
<rect x="902.43" y="384.373" width="6.97705" height="188.627" fill="#1D66FD" fill-opacity="0.57"/>
<rect x="918.258" y="384.373" width="6.97705" height="188.627" fill="#1D66FD" fill-opacity="0.57"/>
<rect x="934.085" y="384.373" width="6.97705" height="188.627" fill="#1D66FD" fill-opacity="0.57"/>
<rect x="949.912" y="354.491" width="6.97705" height="218.508" fill="#1D66FD" fill-opacity="0.57"/>
<rect x="965.739" y="363.829" width="6.97705" height="209.17" fill="#1D66FD" fill-opacity="0.57"/>
<rect x="981.566" y="375.035" width="6.97705" height="197.965" fill="#1D66FD" fill-opacity="0.57"/>
<rect x="997.393" y="375.035" width="6.97705" height="197.965" fill="#1D66FD" fill-opacity="0.57"/>
<rect x="1013.22" y="328.345" width="6.97705" height="244.654" fill="#1D66FD" fill-opacity="0.57"/>
<rect x="1029.05" y="352.624" width="6.97705" height="220.376" fill="#1D66FD" fill-opacity="0.57"/>
<rect x="1044.87" y="352.624" width="6.97705" height="220.376" fill="#1D66FD" fill-opacity="0.57"/>
<rect x="1060.7" y="339.551" width="6.97705" height="233.449" fill="#1D66FD" fill-opacity="0.57"/>
<rect x="1076.53" y="339.551" width="6.97705" height="233.449" fill="#1D66FD" fill-opacity="0.57"/>
<rect x="1092.35" y="313.404" width="6.97705" height="259.595" fill="#1D66FD" fill-opacity="0.57"/>
<rect x="1108.18" y="287.258" width="6.97705" height="285.741" fill="#1D66FD" fill-opacity="0.57"/>
<rect x="1124.01" y="287.258" width="6.97705" height="285.741" fill="#1D66FD" fill-opacity="0.57"/>
<rect x="1139.84" y="268.582" width="6.97705" height="304.417" fill="#1D66FD" fill-opacity="0.57"/>
<rect x="1155.66" y="268.582" width="6.97705" height="304.417" fill="#1D66FD" fill-opacity="0.57"/>
<rect x="1171.49" y="242.436" width="6.97705" height="330.564" fill="#1D66FD" fill-opacity="0.57"/>
<rect x="1187.32" y="205.084" width="6.97705" height="367.916" fill="#1D66FD" fill-opacity="0.57"/>
<rect x="1203.14" y="216.289" width="6.97705" height="356.71" fill="#1D66FD" fill-opacity="0.57"/>
<rect x="1218.97" y="162.13" width="6.97705" height="410.87" fill="#1D66FD" fill-opacity="0.57"/>
<rect x="1234.8" y="147.188" width="6.97705" height="425.811" fill="#1D66FD" fill-opacity="0.57"/>
<rect x="1250.63" y="126.646" width="6.97705" height="446.354" fill="#1D66FD" fill-opacity="0.57"/>
<rect x="1266.45" y="102.366" width="6.97705" height="470.633" fill="#1D66FD" fill-opacity="0.57"/>
<rect x="1282.28" y="109.837" width="6.97705" height="463.163" fill="#1D66FD" fill-opacity="0.57"/>
<rect x="1298.11" y="59.6885" width="6.97705" height="513.311" fill="#1D66FD" fill-opacity="0.57"/>
<rect x="1313.93" y="48.7246" width="6.97705" height="524.275" fill="#1D66FD" fill-opacity="0.57"/>
<rect x="1329.76" y="59.6885" width="6.97705" height="513.311" fill="#1D66FD" fill-opacity="0.57"/>
<rect x="1345.59" y="42.7441" width="6.97705" height="530.256" fill="#1D66FD" fill-opacity="0.57"/>
<rect x="1361.41" y="42.7441" width="6.97705" height="530.256" fill="#1D66FD" fill-opacity="0.57"/>
<rect x="1377.24" y="19" width="6.97705" height="554" fill="#1D66FD" fill-opacity="0.57"/>
<rect x="1377.24" y="19" width="6.97705" height="109.582" fill="url(#paint1_linear_188_6863)" fill-opacity="0.6"/>
<rect x="1393.07" y="17.8262" width="6.97705" height="555.174" fill="#1D66FD" fill-opacity="0.57"/>
<rect x="1408.9" y="-0.115234" width="6.97705" height="573.115" fill="#1D66FD" fill-opacity="0.57"/>
<rect x="1424.72" y="13" width="7" height="560" fill="#1D66FD" fill-opacity="0.57"/>
</g>
</g>
<defs>
<linearGradient id="paint0_linear_188_6863" x1="209.476" y1="436" x2="209.476" y2="573" gradientUnits="userSpaceOnUse">
<stop stop-color="white"/>
<stop offset="1" stop-color="#1D66FD"/>
</linearGradient>
<linearGradient id="paint1_linear_188_6863" x1="1380.73" y1="19" x2="1380.73" y2="128.582" gradientUnits="userSpaceOnUse">
<stop stop-color="#FFEA29"/>
<stop offset="1" stop-color="#FFEA29" stop-opacity="0"/>
</linearGradient>
<clipPath id="clip0_188_6863">
<rect width="1440" height="573" fill="white"/>
</clipPath>
<clipPath id="clip1_188_6863">
<rect width="1440" height="776" fill="white" transform="translate(0 -203)"/>
</clipPath>
</defs>
</svg>
