<svg width="541" height="64" viewBox="0 0 541 64" fill="none" xmlns="http://www.w3.org/2000/svg">
<path d="M541 29.3525V29.9355H64.3398L58.4082 38.9756H26.6367L0.84375 64H0L26.3936 38.3916H58.085L64.0166 29.3525H541Z" fill="#000" fill-opacity="0.05"/>
<path d="M541 30.5186V31.1025H64.9326L59.001 40.1416H27.2305L2.64062 64H1.79492L26.9863 39.5586H58.6787L64.6094 30.5186H541Z" fill="#000" fill-opacity="0.05"/>
<path d="M541 31.6855V32.2686H65.5254L59.5947 41.3076H27.8232L4.43457 64H3.59082L27.5801 40.7246H59.2715L65.2021 31.6855H541Z" fill="#000" fill-opacity="0.05"/>
<path d="M541 32.8516V33.4346H66.1191L60.1875 42.4746H28.416L6.22949 64H5.38574L28.1729 41.8906H59.8643L65.7959 32.8516H541Z" fill="#000" fill-opacity="0.05"/>
<path d="M541 34.0186V34.6016H66.7119L60.7803 43.6406H29.0098L8.02637 64H7.18066L28.7656 43.0576H60.458L66.3887 34.0186H541Z" fill="#000" fill-opacity="0.05"/>
<path d="M541 35.1846V35.7676H67.3047L61.374 44.8066H29.6025L9.82031 64H8.97656L29.3594 44.2236H61.0508L66.9814 35.1846H541Z" fill="#000" fill-opacity="0.05"/>
<path d="M541 36.3506V36.9336H67.8984L61.9668 45.9736H30.1953L11.6152 64H10.7715L29.9521 45.3896H61.6436L67.5752 36.3506H541Z" fill="#000" fill-opacity="0.05"/>
<path d="M541 37.5176V38.1006H68.4912L62.5605 47.1396H30.7891L13.4111 64H12.5664L30.5449 46.5566H62.2373L68.168 37.5176H541Z" fill="#000" fill-opacity="0.05"/>
<path d="M541 38.6836V39.2666H69.084L63.1533 48.3057H31.3818L15.2061 64H14.3613L31.1387 47.7227H62.8301L68.7607 38.6836H541Z" fill="#000" fill-opacity="0.05"/>
<path d="M541 39.8496V40.4326H69.6777L63.7461 49.4727H31.9746L17.001 64H16.1572L31.7314 48.8896H63.4229L69.3545 39.8496H541Z" fill="#000" fill-opacity="0.05"/>
<path d="M541 41.0166V41.5996H70.2705L64.3398 50.6387H32.5684L18.7969 64H17.9521L32.3242 50.0557H64.0166L69.9473 41.0166H541Z" fill="#000" fill-opacity="0.05"/>
<path d="M541 42.1826V42.7656H70.8633L64.9326 51.8047H33.1611L20.5918 64H19.7471L32.918 51.2217H64.6094L70.54 42.1826H541Z" fill="#000" fill-opacity="0.05"/>
<path d="M541 43.3486V43.9326H71.457L65.5254 52.9717H33.7539L22.3877 64H21.543L33.5107 52.3887H65.2021L71.1338 43.3486H541Z" fill="#000" fill-opacity="0.05"/>
<path d="M541 44.5156V45.0986H72.0498L66.1191 54.1377H34.3477L24.1826 64H23.3389L34.1045 53.5547H65.7959L71.7266 44.5156H541Z" fill="#000" fill-opacity="0.05"/>
<path d="M541 45.6816V46.2646H72.6426L66.7119 55.3047H34.9404L25.9785 64H25.1328L34.6973 54.7207H66.3887L72.3193 45.6816H541Z" fill="#000" fill-opacity="0.05"/>
<path d="M541 46.8477V47.4316H73.2363L67.3047 56.4707H35.5332L27.7734 64H26.9287L35.29 55.8877H66.9814L72.9131 46.8477H541Z" fill="#000" fill-opacity="0.05"/>
<path d="M541 48.0146V48.5977H73.8291L67.8984 57.6367H36.127L29.5684 64H28.7246L35.8838 57.0537H67.5752L73.5059 48.0146H541Z" fill="#000" fill-opacity="0.05"/>
<path d="M26.6367 19.1465H61.332L70.8223 28.1865H541V28.7695H70.582L61.0918 19.7305H26.3936L6.05762 0H6.90234L26.6367 19.1465Z" fill="#000" fill-opacity="0.05"/>
<path d="M17.4434 6.75879H25.1543L35.5332 16.8145H62.5186L72.0088 25.8535H541V26.4365H71.7686L62.2783 17.3975H35.29L24.9111 7.34277H23.9756L34.9404 17.9805H61.9258L71.415 27.0195H541V27.6035H71.1748L61.6855 18.5635H34.6973L23.1318 7.34277H15.4209L7.85352 0H8.69824L15.6641 6.75879H16.5996L9.63672 0H10.4805L17.4434 6.75879Z" fill="#000" fill-opacity="0.05"/>
<path fill-rule="evenodd" clip-rule="evenodd" d="M22.1885 4.42676H33.458L43.8369 14.4814H63.7051L73.1943 23.5205H541V24.1035H72.9541L63.4648 15.0645H36.4766L27.2832 6.17578H26.3486L36.127 15.6475H63.1113L72.6016 24.6875H541V25.2705H72.3613L62.8711 16.2314H35.8838L25.5039 6.17578H17.793L11.4307 0H12.2754L18.0371 5.59277H18.9727L13.2139 0H14.0693L18.6299 4.42676H19.5654L15.0049 0H15.8486L20.4092 4.42676H21.3447L16.7842 0H17.6279L22.1885 4.42676ZM28.1299 6.17578L36.7197 14.4814H37.6533L29.0625 6.17578H28.1299ZM19.2158 5.00977L19.8164 5.59277H29.3057L38.499 14.4814H39.4336L29.6562 5.00977H19.2158ZM30.501 5.00977L40.2783 14.4814H41.2129L31.4355 5.00977H30.501ZM32.2803 5.00977L42.0576 14.4814H42.9922L33.2148 5.00977H32.2803Z" fill="#000" fill-opacity="0.05"/>
<path d="M73.79 22.3545H541V22.9375H73.5459L50.04 0H50.8809L73.79 22.3545Z" fill="#000" fill-opacity="0.05"/>
<path d="M74.3828 21.1885H541V21.7715H74.1387L51.8271 0H52.6689L74.3828 21.1885Z" fill="#000" fill-opacity="0.05"/>
<path d="M74.9756 20.0215H541V20.6045H74.7314L53.6104 0H54.4531L74.9756 20.0215Z" fill="#000" fill-opacity="0.05"/>
<path d="M75.5693 18.8555H541V19.4385H75.3252L55.4023 0H56.2441L75.5693 18.8555Z" fill="#000" fill-opacity="0.05"/>
<path d="M76.1621 17.6895H541V18.2725H75.918L57.1924 0H58.0342L76.1621 17.6895Z" fill="#000" fill-opacity="0.05"/>
<path d="M76.7549 16.5225H541V17.1055H76.5107L58.9775 0H59.8193L76.7549 16.5225Z" fill="#000" fill-opacity="0.05"/>
<path d="M77.3486 15.3564H541V15.9395H77.1045L60.7656 0H61.6074L77.3486 15.3564Z" fill="#000" fill-opacity="0.05"/>
</svg>
