<svg width="17" height="17" viewBox="0 0 17 17" fill="none" xmlns="http://www.w3.org/2000/svg">
<path fill-rule="evenodd" clip-rule="evenodd" d="M5.66825 3.22531C7.57819 3.08138 9.49661 3.09086 11.405 3.25364L12.5547 3.35139C12.9768 3.38733 13.3746 3.56418 13.6841 3.8535C13.9936 4.14281 14.1968 4.5278 14.261 4.94656L14.3333 5.42044C14.5795 7.02684 14.5566 8.66304 14.2653 10.2619C14.1956 10.6442 13.9941 10.9899 13.6957 11.2388C13.3974 11.4877 13.0211 11.624 12.6326 11.624H6.27458C6.12795 11.624 5.98416 11.6601 5.85525 11.7296L3.08495 13.2185C3.004 13.262 2.91315 13.2837 2.82127 13.2816C2.7294 13.2795 2.63964 13.2536 2.56078 13.2064C2.48191 13.1592 2.41663 13.0924 2.37132 13.0125C2.326 12.9325 2.3022 12.8422 2.30225 12.7503V6.71739C2.30243 5.83685 2.63526 4.98888 3.23407 4.3433C3.83289 3.69772 4.65349 3.3022 5.53154 3.23594L5.66825 3.22531ZM5.66683 6.72943C5.432 6.72943 5.20679 6.82272 5.04075 6.98877C4.8747 7.15482 4.78141 7.38002 4.78141 7.61485C4.78141 7.84968 4.8747 8.07489 5.04075 8.24094C5.20679 8.40698 5.432 8.50027 5.66683 8.50027C5.90166 8.50027 6.12687 8.40698 6.29291 8.24094C6.45896 8.07489 6.55225 7.84968 6.55225 7.61485C6.55225 7.38002 6.45896 7.15482 6.29291 6.98877C6.12687 6.82272 5.90166 6.72943 5.66683 6.72943ZM8.50016 6.72943C8.26534 6.72943 8.04013 6.82272 7.87408 6.98877C7.70803 7.15482 7.61475 7.38002 7.61475 7.61485C7.61475 7.84968 7.70803 8.07489 7.87408 8.24094C8.04013 8.40698 8.26534 8.50027 8.50016 8.50027C8.73499 8.50027 8.9602 8.40698 9.12625 8.24094C9.29229 8.07489 9.38558 7.84968 9.38558 7.61485C9.38558 7.38002 9.29229 7.15482 9.12625 6.98877C8.9602 6.82272 8.73499 6.72943 8.50016 6.72943ZM10.4481 7.61485C10.4481 7.38002 10.5414 7.15482 10.7074 6.98877C10.8735 6.82272 11.0987 6.72943 11.3335 6.72943C11.5683 6.72943 11.7935 6.82272 11.9596 6.98877C12.1256 7.15482 12.2189 7.38002 12.2189 7.61485C12.2189 7.84968 12.1256 8.07489 11.9596 8.24094C11.7935 8.40698 11.5683 8.50027 11.3335 8.50027C11.0987 8.50027 10.8735 8.40698 10.7074 8.24094C10.5414 8.07489 10.4481 7.84968 10.4481 7.61485Z" fill="#EAED4F"/>
</svg>
