<svg width="18" height="18" viewBox="0 0 18 18" fill="none" xmlns="http://www.w3.org/2000/svg">
<path d="M16.4625 8.24247C15.12 8.21997 13.6875 6.77997 14.4525 5.07747C12.2175 5.82747 10.125 3.88497 10.56 1.65747C5.2125 0.532474 1.5 4.93497 1.5 8.99997C1.5 13.14 4.86 16.5 9 16.5C13.4175 16.5 16.905 12.69 16.4625 8.24247ZM6.375 11.25C5.7525 11.25 5.25 10.7475 5.25 10.125C5.25 9.50247 5.7525 8.99997 6.375 8.99997C6.9975 8.99997 7.5 9.50247 7.5 10.125C7.5 10.7475 6.9975 11.25 6.375 11.25ZM7.875 7.49997C7.2525 7.49997 6.75 6.99747 6.75 6.37497C6.75 5.75247 7.2525 5.24997 7.875 5.24997C8.4975 5.24997 9 5.75247 9 6.37497C9 6.99747 8.4975 7.49997 7.875 7.49997ZM11.25 12C10.8375 12 10.5 11.6625 10.5 11.25C10.5 10.8375 10.8375 10.5 11.25 10.5C11.6625 10.5 12 10.8375 12 11.25C12 11.6625 11.6625 12 11.25 12Z" fill="#EAED4D"/>
</svg>
