<svg width="46" height="46" viewBox="0 0 46 46" fill="none" xmlns="http://www.w3.org/2000/svg">
<path d="M43.4544 0C44.1532 0 44.7522 0.249566 45.2513 0.748698C45.7504 1.24783 46 1.84679 46 2.54557V43.4544C46 44.1532 45.7504 44.7522 45.2513 45.2513C44.7522 45.7504 44.1532 46 43.4544 46H31.7448V28.181H37.7044L38.6029 21.2331H31.7448V16.8008C31.7448 15.6827 31.9794 14.8442 32.4486 14.2852C32.9178 13.7261 33.8312 13.4466 35.1888 13.4466L38.8424 13.4167V7.21745C37.5846 7.03776 35.8077 6.94792 33.5117 6.94792C30.7964 6.94792 28.6252 7.74653 26.998 9.34375C25.3709 10.941 24.5573 13.197 24.5573 16.112V21.2331H18.5677V28.181H24.5573V46H2.54557C1.84679 46 1.24783 45.7504 0.748698 45.2513C0.249566 44.7522 0 44.1532 0 43.4544V2.54557C0 1.84679 0.249566 1.24783 0.748698 0.748698C1.24783 0.249566 1.84679 0 2.54557 0H43.4544Z" fill="black"/>
</svg>
