<svg width="2000" height="51" viewBox="0 0 2000 51" fill="none" xmlns="http://www.w3.org/2000/svg">
<path d="M1908.67 50L1919.92 40.9336H1966.25L1976.5 33H2000V0H0V33H23.5L33.75 40.9336H80.083L91.333 50H1908.67Z" fill="#000C1C"/>
<path d="M27.6699 23.0586L37.8457 30.9336H84.1963L84.2773 31.0127L93.4463 40H1905.56L1915.73 31.0029L1915.81 30.9336H1962.15L1971.32 23.0674L1971.4 23H2000V23.5566H1971.6L1962.43 31.4229L1962.35 31.4902H1916.02L1905.85 40.4863L1905.77 40.5566H93.2188L93.1377 40.4766L83.9697 31.4902H37.6553L37.5801 31.4316L27.4062 23.5566H0V23H27.5947L27.6699 23.0586Z" fill="url(#paint0_linear_2007_404)" fill-opacity="0.14"/>
<path d="M25.6602 27.6074C27.8659 29.1628 29.3369 30.3775 30.8018 31.5869C32.2491 32.7818 33.691 33.9718 35.8389 35.4902H82.1885L82.2666 35.5596L92.4375 44.5566H1907.5L1917.67 35.5596L1917.75 35.4902H1964.08L1973.26 27.624L1973.33 27.5566H1999.94V28.1133H1973.54L1964.37 35.9795L1964.29 36.0469H1917.96L1907.79 45.043L1907.71 45.1133H92.2275L92.1484 45.043L81.9775 36.0469H35.6621L35.5898 35.9951C33.3841 34.4396 31.9132 33.2251 30.4482 32.0156C29.001 30.8208 27.5589 29.6316 25.4111 28.1133H0V27.5566H25.5879L25.6602 27.6074Z" fill="url(#paint1_linear_2007_404)" fill-opacity="0.3"/>
<path d="M33.9209 40.0469H80.2588L80.3965 40.1572L91.5098 49.1133H1908.5L1919.61 40.1572L1919.75 40.0469H1966.09L1976.34 32.1133H2000.01V33.1133H1976.68L1966.43 41.0469H1920.1L1908.99 50.0029L1908.85 50.1133H91.1562L91.0186 50.0029L79.9062 41.0469H33.5791L23.3291 33.1133H0V32.1133H23.6709L33.9209 40.0469Z" fill="url(#paint2_linear_2007_404)" fill-opacity="0.5"/>
<defs>
<linearGradient id="paint0_linear_2007_404" x1="180" y1="23.2783" x2="180" y2="40.2782" gradientUnits="userSpaceOnUse">
<stop stop-color="#00EAFF"/>
<stop offset="0.322115" stop-color="#00FBFF"/>
<stop offset="0.692308" stop-color="#0051FF"/>
<stop offset="0.865385" stop-color="#2572F2"/>
</linearGradient>
<linearGradient id="paint1_linear_2007_404" x1="180" y1="27.835" x2="180" y2="44.8349" gradientUnits="userSpaceOnUse">
<stop stop-color="#00EAFF"/>
<stop offset="0.322115" stop-color="#00FBFF"/>
<stop offset="0.692308" stop-color="#0051FF"/>
<stop offset="0.865385" stop-color="#2572F2"/>
</linearGradient>
<linearGradient id="paint2_linear_2007_404" x1="1000" y1="32.1133" x2="1000" y2="50.1133" gradientUnits="userSpaceOnUse">
<stop stop-color="#00EAFF"/>
<stop offset="0.322115" stop-color="#00FBFF"/>
<stop offset="0.692308" stop-color="#0051FF"/>
<stop offset="0.865385" stop-color="#2572F2"/>
</linearGradient>
</defs>
</svg>
