<svg width="2000" height="52" viewBox="0 0 2000 52" fill="none" xmlns="http://www.w3.org/2000/svg">
<path d="M2000 27.0254H1966.31L1951.61 38.4463H1885.19L1869.06 51.498H130.937L114.808 38.4463H48.3838L33.6895 27.0254H0V0H2000V27.0254Z" fill="#000C1C"/>
<path d="M2000 8.07983H1965.48L1950.92 19.3953L1950.79 19.4998H1885.37L1869.24 32.5525L621.028 32.9988V33.0525H130.762L130.624 32.9412L114.633 19.9998H49.2139L49.0791 19.8953L34.5195 8.57983H0V7.57983H34.8623L34.9971 7.6853L49.5566 18.9998H114.987L115.124 19.1111L131.115 32.0525H621V31.9998L1868.88 31.5525L1885.01 18.4998H1950.44L1965.14 7.07983H2000V8.07983Z" fill="url(#paint0_linear_2013_467)" fill-opacity="0.14"/>
<path d="M34.9971 16.658L49.5566 27.9725H114.987L131.116 41.0252L819 41.0242L1868.88 41.0252L1885.01 27.9725H1950.44L1965 16.658L1965.14 16.5526H2000V17.5526H1965.48L1950.92 28.868L1950.79 28.9725H1885.37L1869.24 42.0252L1820.68 42.0242H179.324L130.762 42.0252L114.633 28.9725H49.2139L49.0791 28.868L34.5195 17.5526H0V16.5526H34.8623L34.9971 16.658Z" fill="url(#paint1_linear_2013_467)" fill-opacity="0.5"/>
<path d="M2000 26.0272V27.0272H1966.48L1951.92 38.3427L1951.79 38.4471H1885.37L1869.24 51.4999L1820.68 51.4989L621 51.4999V51.4979L179.324 51.4969L130.762 51.4979L114.633 38.4452H48.2139L48.0791 38.3407L33.5195 27.0253H0V26.0253H33.8623L33.9971 26.1307L48.5566 37.4452H114.987L131.116 50.4979H621V50.4999H1868.88L1885.01 37.4471H1951.44L1966 26.1327L1966.14 26.0272H2000Z" fill="url(#paint2_linear_2013_467)" fill-opacity="0.5"/>
<defs>
<linearGradient id="paint0_linear_2013_467" x1="718.971" y1="7.57989" x2="718.971" y2="32.0532" gradientUnits="userSpaceOnUse">
<stop stop-color="#00EAFF"/>
<stop offset="0.322115" stop-color="#00FBFF"/>
<stop offset="0.692308" stop-color="#0051FF"/>
<stop offset="0.865385" stop-color="#2572F2"/>
</linearGradient>
<linearGradient id="paint1_linear_2013_467" x1="1000" y1="16.5526" x2="1000" y2="42.0252" gradientUnits="userSpaceOnUse">
<stop stop-color="#00EAFF"/>
<stop offset="0.322115" stop-color="#00FBFF"/>
<stop offset="0.692308" stop-color="#0051FF"/>
<stop offset="0.865385" stop-color="#2572F2"/>
</linearGradient>
<linearGradient id="paint2_linear_2013_467" x1="1000" y1="26.0253" x2="1000" y2="51.4999" gradientUnits="userSpaceOnUse">
<stop stop-color="#00EAFF"/>
<stop offset="0.322115" stop-color="#00FBFF"/>
<stop offset="0.692308" stop-color="#0051FF"/>
<stop offset="0.865385" stop-color="#2572F2"/>
</linearGradient>
</defs>
</svg>
