<svg width="20" height="24" viewBox="0 0 20 24" fill="none" xmlns="http://www.w3.org/2000/svg">
<path fill-rule="evenodd" clip-rule="evenodd" d="M9.70203 0.0315673C9.60275 0.0618214 9.19751 0.409206 8.77584 0.82553C8.3635 1.23259 7.81137 1.73322 7.54876 1.93806C5.87828 3.24102 3.82973 4.1847 1.75895 4.60521C1.33445 4.69137 0.877651 4.79008 0.743909 4.82452C0.402268 4.91242 0.177451 5.16922 0.0821767 5.58034C-0.0260642 6.04754 -0.0278548 8.93963 0.0796451 9.77837C0.584913 13.7218 1.86713 16.8127 4.12266 19.5243C5.44625 21.1155 7.51949 22.8044 9.35965 23.7904C9.86467 24.061 10.086 24.067 10.5645 23.8234C11.0861 23.558 12.5671 22.5933 13.182 22.1185C13.8567 21.5975 15.3835 20.1193 15.9231 19.4645C17.7421 17.2573 19.0361 14.5009 19.6282 11.5721C19.9222 10.1178 20.0013 9.26585 20 7.56611C19.9981 5.04922 19.9459 4.93675 18.6692 4.69711C15.6823 4.13657 13.08 2.77352 11.1265 0.746187C10.8385 0.447353 10.5476 0.165319 10.4801 0.119579C10.3174 0.00920549 9.92191 -0.0355181 9.70203 0.0315673ZM14.0527 7.58226C14.3007 7.74268 14.4784 8.0558 14.4785 8.33251C14.4786 8.46871 13.8951 9.72408 12.6168 12.3385C11.5927 14.4327 10.7041 16.2168 10.6421 16.3032C10.5013 16.4993 10.1723 16.6543 9.89678 16.6543C9.77224 16.6543 9.57477 16.5856 9.41214 16.4856C9.0432 16.2589 5.70187 12.9384 5.59647 12.6938C5.42544 12.2968 5.65075 11.7598 6.05753 11.5952C6.30415 11.4954 6.65696 11.4879 6.84164 11.5784C6.9158 11.6148 7.57963 12.2255 8.31676 12.9356L9.65702 14.2265L9.96025 13.6019C11.16 11.13 12.6604 8.09311 12.7827 7.88874C13.043 7.45406 13.6341 7.3114 14.0527 7.58226Z" fill="#2572F2"/>
</svg>
