<svg width="20" height="16" viewBox="0 0 20 16" fill="none" xmlns="http://www.w3.org/2000/svg">
<path d="M0 16V0H20V16H0ZM6 13H8V12H9C9.28333 12 9.521 11.904 9.713 11.712C9.905 11.52 10.0007 11.2827 10 11V8C10 7.71667 9.904 7.47933 9.712 7.288C9.52 7.09667 9.28267 7.00067 9 7H6V6H10V4H8V3H6V4H5C4.71667 4 4.47933 4.096 4.288 4.288C4.09667 4.48 4.00067 4.71733 4 5V8C4 8.28333 4.096 8.521 4.288 8.713C4.48 8.905 4.71733 9.00067 5 9H8V10H4V12H6V13ZM14 12.25L16 10.25H12L14 12.25ZM12 6H16L14 4L12 6Z" fill="#2572F2"/>
</svg>
