<svg width="17" height="17" viewBox="0 0 17 17" fill="none" xmlns="http://www.w3.org/2000/svg">
<path d="M14 7C14 7.91925 13.8189 8.8295 13.4672 9.67878C13.1154 10.5281 12.5998 11.2997 11.9497 11.9497C11.2997 12.5998 10.5281 13.1154 9.67878 13.4672C8.8295 13.8189 7.91925 14 7 14C6.08075 14 5.17049 13.8189 4.32122 13.4672C3.47194 13.1154 2.70026 12.5998 2.05025 11.9497C1.40024 11.2997 0.884626 10.5281 0.532843 9.67878C0.18106 8.8295 -1.36979e-08 7.91925 0 7C2.76642e-08 5.14348 0.737498 3.36301 2.05025 2.05025C3.36301 0.737498 5.14348 0 7 0C8.85652 0 10.637 0.737498 11.9497 2.05025C13.2625 3.36301 14 5.14348 14 7Z" fill="#2572F2"/>
<path d="M16 16L14 14" stroke="#2572F2" stroke-width="2" stroke-linecap="round"/>
</svg>
