<svg width="31" height="34" viewBox="0 0 31 34" fill="none" xmlns="http://www.w3.org/2000/svg">
<g clip-path="url(#clip0_2651_6468)">
<path d="M21.0733 22.7029C23.2405 22.7029 24.9769 20.8045 24.9769 18.4529C24.9769 16.1012 23.2405 14.2029 21.0733 14.2029C18.9061 14.2029 17.1567 16.1012 17.1567 18.4529C17.1567 20.8045 18.9061 22.7029 21.0733 22.7029ZM10.6289 22.7029C12.7961 22.7029 14.5325 20.8045 14.5325 18.4529C14.5325 16.1012 12.7961 14.2029 10.6289 14.2029C8.46166 14.2029 6.71221 16.1012 6.71221 18.4529C6.71221 20.8045 8.46166 22.7029 10.6289 22.7029ZM10.6289 25.5362C7.58693 25.5362 1.48999 27.1937 1.48999 30.4945V34.0362H19.7678V30.4945C19.7678 27.1937 13.6708 25.5362 10.6289 25.5362ZM21.0733 25.5362C20.6947 25.5362 20.2639 25.5645 19.8069 25.607C21.3214 26.797 22.3789 28.3979 22.3789 30.4945V34.0362H30.2122V30.4945C30.2122 27.1937 24.1153 25.5362 21.0733 25.5362Z" fill="black"/>
</g>
<defs>
<clipPath id="clip0_2651_6468">
<rect width="31" height="34" fill="white"/>
</clipPath>
</defs>
</svg>
