<svg width="14" height="17" viewBox="0 0 14 17" fill="none" xmlns="http://www.w3.org/2000/svg">
<path d="M12.4688 7.4856H3.19141V3.1106C3.19141 2.50708 3.65713 2.01685 4.23047 2.01685H8.83203C9.40537 2.01685 9.87109 2.50708 9.87109 3.1106V4.43872C9.87109 4.52466 9.93789 4.59497 10.0195 4.59497H11.0586C11.1402 4.59497 11.207 4.52466 11.207 4.43872V3.1106C11.207 1.72974 10.1438 0.610596 8.83203 0.610596H4.23047C2.91865 0.610596 1.85547 1.72974 1.85547 3.1106V7.4856H0.59375C0.265332 7.4856 0 7.76489 0 8.1106V15.6106C0 15.9563 0.265332 16.2356 0.59375 16.2356H12.4688C12.7972 16.2356 13.0625 15.9563 13.0625 15.6106V8.1106C13.0625 7.76489 12.7972 7.4856 12.4688 7.4856ZM7.05078 12.1145V13.1497C7.05078 13.2356 6.98398 13.3059 6.90234 13.3059H6.16016C6.07852 13.3059 6.01172 13.2356 6.01172 13.1497V12.1145C5.85856 11.9987 5.74423 11.8348 5.68521 11.6463C5.62619 11.4578 5.62551 11.2545 5.68327 11.0655C5.74102 10.8766 5.85425 10.7118 6.00663 10.595C6.15901 10.4781 6.3427 10.4151 6.53125 10.4151C6.7198 10.4151 6.90349 10.4781 7.05587 10.595C7.20825 10.7118 7.32148 10.8766 7.37923 11.0655C7.43699 11.2545 7.43631 11.4578 7.37729 11.6463C7.31827 11.8348 7.20394 11.9987 7.05078 12.1145Z" fill="#FFEA29"/>
</svg>
