<svg width="18" height="14" viewBox="0 0 18 14" fill="none" xmlns="http://www.w3.org/2000/svg">
<path fill-rule="evenodd" clip-rule="evenodd" d="M6.92357 4.69335L8.72871 3.10663C9.14387 2.74242 9.63557 2.47031 10.1697 2.30915C10.7039 2.14799 11.2677 2.10165 11.8221 2.17334L14.211 2.48069L17.5256 0.740292C17.5745 0.714533 17.6296 0.701581 17.6852 0.702704C17.7409 0.703828 17.7953 0.718988 17.8432 0.7467C17.891 0.774412 17.9306 0.813725 17.9581 0.860786C17.9856 0.907847 18 0.961042 18 1.01516V6.93474C18 7.13338 17.9512 7.32914 17.8577 7.50579C17.7643 7.68244 17.6288 7.83489 17.4626 7.9505L15.2306 9.50098L12.8134 7.53195C13.2849 7.36723 13.7102 7.09768 14.0554 6.74484C14.1288 6.67101 14.1865 6.58386 14.2252 6.48836C14.2639 6.39287 14.2828 6.2909 14.281 6.18829C14.2791 6.08567 14.2565 5.98441 14.2144 5.8903C14.1723 5.79618 14.1115 5.71104 14.0355 5.63976C13.9595 5.56847 13.8698 5.51242 13.7716 5.47481C13.6733 5.4372 13.5684 5.41877 13.4628 5.42057C13.3572 5.42237 13.253 5.44436 13.1561 5.48529C13.0593 5.52622 12.9716 5.58529 12.8983 5.65912C12.6604 5.90025 12.384 6.05518 12.06 6.1164C11.7784 6.17012 11.4197 6.16138 10.9684 6.02644L10.395 5.55792L8.79429 6.81855C8.50228 7.04326 8.13202 7.14928 7.76127 7.11433C7.39053 7.07938 7.04815 6.90619 6.80602 6.63113C6.5639 6.35607 6.44088 6.00055 6.4628 5.63921C6.48472 5.27788 6.64987 4.93886 6.92357 4.69335ZM5.84614 3.53392L7.14214 2.39573C6.58497 2.248 6.00119 2.22113 5.43214 2.31702L3.07286 2.71432L0.483429 1.35999C0.433433 1.3338 0.377292 1.32068 0.320508 1.32191C0.263724 1.32315 0.208245 1.3387 0.159506 1.36704C0.110768 1.39539 0.0704423 1.43554 0.0424808 1.48359C0.0145194 1.53163 -0.000118773 1.58591 7.2582e-07 1.6411V6.9335C7.2582e-07 7.35579 0.214715 7.75059 0.573429 7.98798L7.587 12.6344C8.03035 12.928 8.55559 13.0827 9.09207 13.0775C9.62855 13.0724 10.1505 12.9077 10.5879 12.6057L13.8099 10.383L10.377 7.58443L9.80486 8.0317C9.18757 8.5138 8.40137 8.74342 7.61286 8.67192C6.82434 8.60041 6.09544 8.2334 5.5806 7.64864C5.06576 7.06388 4.80543 6.30732 4.85475 5.53925C4.90408 4.77118 5.26048 4.05194 5.84614 3.53392Z" fill="#2572F2"/>
</svg>
