<svg width="18" height="18" viewBox="0 0 18 18" fill="none" xmlns="http://www.w3.org/2000/svg">
<path d="M14.4643 3.18327H12.6429V1.66541C12.6429 1.16243 12.2351 0.7547 11.7321 0.7547H1.41071C0.907734 0.7547 0.5 1.16243 0.5 1.66541V16.844C0.5 17.347 0.907734 17.7547 1.41071 17.7547H11.7321C12.2351 17.7547 12.6429 17.347 12.6429 16.844V15.2461L15.7016 13.8809C16.794 13.3933 17.5 12.3051 17.5 11.1088V6.21899C17.5 4.54509 16.1382 3.18327 14.4643 3.18327ZM15.0714 11.1088C15.0713 11.226 15.0373 11.3408 14.9735 11.4391C14.9097 11.5375 14.8188 11.6153 14.7117 11.6632L12.6429 12.5866V5.61184H14.4643C14.799 5.61184 15.0714 5.88422 15.0714 6.21899V11.1088ZM8.39286 14.1118C8.05756 14.1118 7.78571 13.84 7.78571 13.5047V5.0047C7.78571 4.6694 8.05756 4.39756 8.39286 4.39756C8.72815 4.39756 9 4.6694 9 5.0047V13.5047C9 13.84 8.72815 14.1118 8.39286 14.1118ZM4.75 14.1118C4.41471 14.1118 4.14286 13.84 4.14286 13.5047V5.0047C4.14286 4.6694 4.41471 4.39756 4.75 4.39756C5.08529 4.39756 5.35714 4.6694 5.35714 5.0047V13.5047C5.35714 13.84 5.08529 14.1118 4.75 14.1118Z" fill="#2572F2"/>
</svg>
