<svg width="2000" height="18" viewBox="0 0 2000 18" fill="none" xmlns="http://www.w3.org/2000/svg">
<path d="M25.6602 17.5059C27.8659 15.9504 29.3369 14.7358 30.8018 13.5264C32.2491 12.3315 33.691 11.1415 35.8389 9.62305H82.1885L82.2666 9.55371L92.4375 0.556641H1907.56L1917.73 9.55371L1917.81 9.62305H1964.15L1973.32 17.4893L1973.4 17.5566H2000V17H1973.6L1964.43 9.13379L1964.35 9.06641H1918.02L1907.85 0.0703125L1907.77 0H92.2275L92.1484 0.0703125L81.9775 9.06641H35.6621L35.5898 9.11816C33.3841 10.6736 31.9132 11.8882 30.4482 13.0977C29.001 14.2925 27.5589 15.4816 25.4111 17H0V17.5566H25.5879L25.6602 17.5059Z" fill="url(#paint0_linear_2007_426)" fill-opacity="0.5"/>
<defs>
<linearGradient id="paint0_linear_2007_426" x1="179.5" y1="17.208" x2="179.5" y2="0.208106" gradientUnits="userSpaceOnUse">
<stop stop-color="#00EAFF"/>
<stop offset="0.322115" stop-color="#00FBFF"/>
<stop offset="0.692308" stop-color="#0051FF"/>
<stop offset="0.865385" stop-color="#2572F2"/>
</linearGradient>
</defs>
</svg>
