<svg width="46" height="46" viewBox="0 0 46 46" fill="none" xmlns="http://www.w3.org/2000/svg">
<path d="M0 0V46H46V0H0ZM11.281 9.04333C13.103 9.06384 14.8978 10.3208 14.9758 12.4967C15.0148 14.4316 13.3286 15.9053 11.2333 15.9501H11.1828C9.3789 15.9293 7.61729 14.6408 7.53564 12.4967C7.56137 10.5834 9.16968 9.08872 11.281 9.04333Z" fill="black"/>
<path d="M7.92383 20.6736C7.92383 19.569 8.81926 18.6736 9.92383 18.6736H12.5358C13.6403 18.6736 14.5358 19.569 14.5358 20.6736V36.6582C14.5358 37.7628 13.6403 38.6582 12.5358 38.6582H9.92383C8.81926 38.6582 7.92383 37.7628 7.92383 36.6582V20.6736Z" fill="white"/>
<path d="M30.8255 18.1851C32.8286 18.1975 34.7191 18.7917 36.2723 20.375C37.8864 22.1752 38.4046 24.6573 38.4623 27.1807V36.6582C38.4623 37.7628 37.5668 38.6582 36.4623 38.6582H33.8475C32.7429 38.6582 31.8475 37.7628 31.8475 36.6582V27.9612C31.8328 25.9563 31.146 23.5192 28.4924 23.4381C26.9372 23.4547 25.8405 24.3584 25.0896 25.8695C24.8846 26.3559 24.855 26.915 24.8453 27.4726V36.6582C24.8453 37.7628 23.9499 38.6582 22.8453 38.6582H20.2425C19.1344 38.6582 18.2375 37.7572 18.2428 36.6492C18.2441 36.383 18.2453 36.1168 18.2466 35.8506C18.269 31.1946 18.2914 26.5388 18.2811 21.8827C18.2811 21.4877 18.2802 21.1248 18.2782 20.794C18.2716 19.6433 19.2038 18.6736 20.3545 18.6736H24.1678C24.542 18.6736 24.8453 18.9769 24.8453 19.351C24.8453 20.0127 25.7401 20.3104 26.2236 19.8587C26.4232 19.6721 26.6356 19.4944 26.8639 19.3277C27.9965 18.5195 29.357 18.2096 30.8255 18.1851Z" fill="white"/>
</svg>
