<svg width="18" height="19" viewBox="0 0 18 19" fill="none" xmlns="http://www.w3.org/2000/svg">
<path d="M0 0.741211V18.7412H18V0.741211H0ZM4.4143 4.27991C5.12725 4.28793 5.82956 4.77978 5.86011 5.63123C5.87535 6.38835 5.21554 6.96504 4.39563 6.98255H4.37586C3.67 6.9744 2.98068 6.47021 2.94873 5.63123C2.95879 4.88253 3.58813 4.29767 4.4143 4.27991ZM12.063 7.85706C12.8468 7.86192 13.5866 8.09445 14.1943 8.71401C14.8259 9.41841 15.0287 10.3897 15.0513 11.3771V15.8683H12.4629V11.6825C12.4571 10.898 12.1884 9.94434 11.15 9.9126C10.5415 9.91908 10.1123 10.2727 9.81847 10.864C9.73825 11.0543 9.7267 11.2731 9.72289 11.4913V15.8683H7.13562C7.14552 13.6801 7.15912 11.4921 7.15429 9.30396C7.15429 8.68239 7.14831 8.26386 7.13562 8.04822H9.72289V9.15125C9.94251 8.8389 10.1861 8.54268 10.5128 8.3042C10.956 7.98792 11.4883 7.86668 12.063 7.85706ZM3.10144 8.04822H5.68872V15.8683H3.10144V8.04822Z" fill="#2572F2"/>
</svg>
