<svg width="700" height="134" viewBox="0 0 700 134" fill="none" xmlns="http://www.w3.org/2000/svg">
<g clip-path="url(#clip0_1423_3745)">
<path fill-rule="evenodd" clip-rule="evenodd" d="M684.258 0H588.087L623.212 51.3084L573.747 116.386C568.632 123.113 573.966 132.26 583 132.26H700L644.899 51.7766L634.455 36.5195L620.69 16.4118H649.739L640.983 27.9326L651.709 42.6237L684.258 0ZM633.66 66.5649L667.399 115.848H596.197L633.66 66.5649ZM31.6819 16.9221C31.6671 16.9102 31.6514 16.8987 31.6352 16.8881C31.5435 16.8286 31.4309 16.7938 31.3091 16.7938H2.34423C2.03549 16.7938 1.78502 16.5682 1.78502 16.2903V3.27914C1.78502 3.00127 2.03549 2.77566 2.34423 2.77566H82.2651C82.5738 2.77566 82.8244 3.00127 82.8244 3.27914V9.83273C82.8244 13.6769 79.6342 16.7938 75.6997 16.7938H53.2116C53.0593 16.7938 52.9214 16.8486 52.8206 16.9374C52.7171 17.0287 52.6526 17.1562 52.6526 17.2972V62.0336H32.4271C32.1184 62.0336 31.868 61.8081 31.868 61.5302V17.2972C31.868 17.1481 31.7962 17.0143 31.6819 16.9221ZM181.694 2.77566C182.002 2.77566 182.253 3.00127 182.253 3.27914V15.7329C182.253 16.0107 182.002 16.2363 181.694 16.2363H105.863C105.554 16.2363 105.304 16.4615 105.304 16.7394V24.4942C105.304 24.7719 105.554 24.9976 105.863 24.9976H178.867C180.101 24.9976 181.102 25.8987 181.102 27.0109V36.5237C181.102 37.6361 180.101 38.5377 178.867 38.5377H105.863C105.682 38.5377 105.522 38.6146 105.419 38.7344C105.402 38.7547 105.386 38.7768 105.372 38.7998C105.348 38.8398 105.33 38.8826 105.318 38.9277C105.313 38.9468 105.309 38.9663 105.307 38.9863C105.305 39.0041 105.304 39.0224 105.304 39.0412V47.7513C105.304 48.0293 105.554 48.2544 105.863 48.2544H182.579C182.887 48.2544 183.138 48.48 183.138 48.7579V51.9652C183.138 57.5259 178.131 62.0336 171.957 62.0336H101.733C92.4698 62.0336 84.9617 55.2715 84.9617 46.931V17.8784C84.9617 9.53744 92.4698 2.77566 101.733 2.77566H181.694ZM191.682 3.27914C191.682 3.00127 191.934 2.77566 192.242 2.77566H220.628C220.831 2.77566 221.018 2.87508 221.118 3.03484L243.199 38.861C243.413 39.2065 243.963 39.2068 244.177 38.8619L266.347 3.03399C266.445 2.87467 266.632 2.77566 266.835 2.77566H294.16C294.235 2.77566 294.305 2.78884 294.37 2.81263C294.458 2.84407 294.533 2.89463 294.591 2.95835C294.671 3.04545 294.72 3.1572 294.72 3.27914V51.9652C294.72 57.5259 289.714 62.0336 283.539 62.0336H274.936C274.738 62.0336 274.564 61.9407 274.464 61.8005C274.409 61.7223 274.377 61.6297 274.377 61.5302V22.9178C274.377 22.4011 273.616 22.2198 273.333 22.6688L248.625 61.7792C248.525 61.9369 248.34 62.0336 248.138 62.0336H237.733C237.533 62.0336 237.346 61.9369 237.248 61.7792L212.54 22.6688C212.255 22.2198 211.494 22.4011 211.494 22.9178V61.5302C211.494 61.8081 211.243 62.0336 210.935 62.0336H192.242C191.934 62.0336 191.682 61.8081 191.682 61.5302V3.27914ZM325.995 42.2812C325.687 42.2812 325.436 42.5064 325.436 42.7843V51.9652C325.436 57.5259 320.431 62.0336 314.255 62.0336H305.389C305.079 62.0336 304.83 61.8081 304.83 61.5302V3.27914C304.83 3.00127 305.079 2.77566 305.389 2.77566H354.18C360.076 2.77566 365.001 3.27999 368.952 4.28904C372.902 5.24457 376.055 6.59863 378.413 8.35121C380.773 10.1034 382.423 12.1474 383.367 14.4837C384.369 16.8201 384.87 19.3425 384.87 22.0507V22.8468C384.87 25.5019 384.369 28.0239 383.367 30.4133C382.364 32.7496 380.684 34.7942 378.326 36.5463C375.968 38.2984 372.813 39.7056 368.863 40.7678C364.971 41.7769 360.076 42.2812 354.18 42.2812H325.995ZM325.436 28.4764C325.436 28.7541 325.687 28.9798 325.995 28.9798H353.826C357.069 28.9798 359.458 28.4487 360.992 27.387C362.582 26.3249 363.378 24.7851 363.378 22.7675V22.5282C363.378 20.5105 362.612 18.9707 361.079 17.909C359.547 16.7938 357.128 16.2363 353.826 16.2363H325.995C325.924 16.2363 325.854 16.2486 325.792 16.2712C325.735 16.2911 325.682 16.3192 325.635 16.354C325.514 16.4462 325.436 16.5847 325.436 16.7394V28.4764ZM518.308 63.0691C512.587 63.0691 507.635 62.7242 503.45 62.0336C499.321 61.3433 495.842 60.4404 493.014 59.3256C490.183 58.1572 487.88 56.8562 486.112 55.4228C484.4 53.9362 483.073 52.4232 482.134 50.8831C481.189 49.2897 480.571 47.7233 480.275 46.1835C479.981 44.6439 479.833 43.2103 479.833 41.8827V41.0066H501.326C501.38 41.9095 501.619 42.9181 502.032 44.0329C502.502 45.095 503.416 46.1042 504.777 47.0601C506.189 48.0157 508.163 48.8119 510.703 49.4491C513.234 50.0864 516.625 50.4051 520.871 50.4051H522.109C526.409 50.4051 529.834 50.2458 532.369 49.9272C534.96 49.5553 536.907 49.0774 538.206 48.4936C539.561 47.8563 540.416 47.1659 540.772 46.4228C540.836 46.3064 540.897 46.1891 540.95 46.0715C540.984 46.0001 541.014 45.9282 541.043 45.856C541.077 45.7744 541.107 45.6928 541.136 45.6105C541.155 45.5551 541.173 45.5 541.189 45.4443C541.237 45.2892 541.276 45.1329 541.307 44.9753C541.342 44.796 541.365 44.615 541.38 44.4327C541.387 44.3265 541.39 44.2198 541.39 44.1128C541.39 43.263 541.182 42.4937 540.772 41.8031C540.416 41.1128 539.65 40.5023 538.471 39.9712C537.292 39.44 535.555 39.042 533.254 38.7765C530.956 38.4578 527.916 38.2453 524.145 38.1392L512.824 37.9004C506.688 37.741 501.556 37.1836 497.433 36.2277C493.304 35.2721 490.002 34.0243 487.53 32.4846C485.05 30.8914 483.281 29.086 482.222 27.0683C481.217 25.0507 480.718 22.8736 480.718 20.5373V19.8205C480.718 17.5904 481.156 15.4129 482.045 13.289C482.988 11.112 484.756 9.17418 487.353 7.47471C490.002 5.77566 493.66 4.39525 498.316 3.33308C502.974 2.27135 509.048 1.74026 516.539 1.74026H522.642C530.424 1.74026 536.791 2.29768 541.743 3.41296C546.695 4.52783 550.587 5.98809 553.42 7.79335C556.251 9.54593 558.196 11.5369 559.257 13.767C560.317 15.9971 560.85 18.2273 560.85 20.4574C560.85 20.6698 560.757 20.8628 560.606 21.006C560.443 21.1588 560.216 21.254 559.961 21.254H539.445C539.322 20.6698 539.057 19.9794 538.647 19.1832C538.295 18.3865 537.468 17.6166 536.173 16.8732C534.932 16.1301 533.078 15.4928 530.598 14.9617C528.126 14.4307 524.729 14.1655 520.43 14.1655H519.012C515.002 14.1655 511.85 14.3244 509.552 14.6431C507.308 14.9086 505.628 15.2804 504.509 15.7584C503.387 16.2363 502.678 16.7938 502.388 17.4311C502.352 17.5011 502.319 17.5718 502.286 17.6422C502.274 17.6723 502.26 17.703 502.247 17.7336C502.233 17.7672 502.221 17.8008 502.208 17.8347C502.128 18.0437 502.066 18.2562 502.023 18.472C501.971 18.7308 501.946 18.9942 501.946 19.2626C501.946 19.9 502.089 20.5105 502.388 21.0947C502.741 21.6789 503.45 22.2095 504.509 22.6876C505.571 23.1655 507.103 23.5636 509.108 23.8823C511.112 24.1478 513.795 24.3071 517.157 24.3602L528.211 24.5196C534.405 24.6257 539.679 25.0507 544.046 25.7941C548.465 26.5372 552.056 27.6258 554.833 29.0592C557.663 30.4932 559.727 32.2985 561.022 34.4754C562.321 36.6525 562.967 39.2013 562.967 42.1218V43.2371C562.967 45.6792 562.492 48.095 561.555 50.4846C560.67 52.8209 558.842 54.9452 556.071 56.8562C553.358 58.7146 549.468 60.228 544.397 61.3964C539.322 62.5117 532.663 63.0691 524.41 63.0691H518.308ZM431.188 62.9974C425.388 62.9974 420.372 62.4619 416.138 61.391C411.905 60.2633 408.28 58.798 405.264 56.9944C402.306 55.1904 399.871 53.1331 397.956 50.8218C396.1 48.4546 394.622 46.0591 393.519 43.6353C392.476 41.1549 391.751 38.7029 391.345 36.279C390.997 33.8552 390.823 31.6569 390.823 29.6838V2.61039H411.18V28.5002C411.18 30.5297 411.47 32.6151 412.049 34.7572C412.63 36.8989 413.702 38.872 415.267 40.6756C416.833 42.423 419.008 43.8605 421.792 44.988C424.576 46.1151 428.172 46.679 432.58 46.679C436.93 46.679 440.467 46.1151 443.193 44.988C445.977 43.8605 448.151 42.423 449.717 40.6756C451.283 38.872 452.355 36.8989 452.936 34.7572C453.516 32.6151 453.805 30.5297 453.805 28.5002V2.61039H474.075V29.6838C474.075 31.6569 473.843 33.8552 473.378 36.279C472.974 38.7029 472.219 41.1549 471.118 43.6353C470.015 46.0591 468.507 48.4546 466.594 50.8218C464.738 53.1331 462.331 55.1904 459.373 56.9944C456.416 58.798 452.879 60.2633 448.761 61.391C444.643 62.4619 439.83 62.9974 434.319 62.9974H431.188ZM125.111 132.608C119.733 132.608 115.02 132.157 110.974 131.255C106.927 130.301 103.44 129.055 100.511 127.516C97.5829 125.978 95.1599 124.201 93.2436 122.186C91.3263 120.171 89.7826 118.076 88.6109 115.901C87.4931 113.674 86.6942 111.446 86.2149 109.219C85.7358 106.938 85.4962 104.817 85.4962 102.854V100.627C85.4962 98.7173 85.6823 96.6758 86.0553 94.5013C86.481 92.2736 87.2264 90.0725 88.2914 87.8979C89.4094 85.7235 90.9004 83.6553 92.7639 81.6928C94.6808 79.6776 97.1303 77.9008 100.112 76.3624C103.093 74.8244 106.687 73.6046 110.894 72.703C115.1 71.8014 120.052 71.3507 125.749 71.3507H146.995C152.533 71.3507 157.351 71.722 161.451 72.4642C165.551 73.207 169.039 74.1883 171.914 75.4077C174.789 76.628 177.159 78.0334 179.022 79.6245C180.887 81.1626 182.351 82.7537 183.414 84.3976C184.479 86.0418 185.226 87.6859 185.651 89.3298C186.077 90.974 186.318 92.459 186.371 93.785V93.8644H166.563C166.5 93.6778 166.374 93.3907 166.183 93.0028C166.048 92.7301 165.882 92.4076 165.684 92.0349C165.205 91.0803 164.22 90.1256 162.729 89.1709C161.292 88.1631 159.189 87.2883 156.42 86.5456C153.704 85.803 150.03 85.4316 145.398 85.4316C123.06 85.4316 119.333 85.8829 116.405 86.7845C113.476 87.6859 111.16 88.8794 109.456 90.3644C107.806 91.8493 106.634 93.5466 105.942 95.4555C105.303 97.3649 104.984 99.3537 104.984 101.422V102.298C104.984 104.207 105.383 106.116 106.182 108.025C106.981 109.935 108.258 111.658 110.015 113.196C111.826 114.681 114.142 115.901 116.964 116.856C119.839 117.758 123.326 118.209 145.238 118.209C149.658 118.209 153.332 117.863 156.26 117.174C159.242 116.432 161.611 115.583 163.368 114.629C165.125 113.674 166.377 112.746 167.122 111.844C167.581 111.256 167.899 110.768 168.075 110.382C168.185 110.14 168.24 109.938 168.24 109.776V109.616H156.4C150.059 109.616 144.919 104.594 144.919 98.3995H177.863C182.782 98.3995 186.77 102.295 186.77 107.101V131.574H175.588C175.535 131.043 175.428 130.38 175.268 129.585C175.109 128.789 174.922 127.967 174.709 127.118C174.591 126.616 174.464 126.13 174.329 125.66C174.221 125.287 174.109 124.925 173.991 124.573L173.912 124.327L173.874 124.209L173.783 123.935C173.677 123.617 173.57 123.316 173.464 123.032C173.373 122.791 173.283 122.562 173.192 122.345C172.553 123.088 171.568 124.042 170.236 125.209C168.906 126.376 167.095 127.516 164.806 128.63C162.57 129.691 159.774 130.619 156.42 131.415C153.118 132.21 149.178 132.608 144.599 132.608H125.111ZM23.7357 120.754H59.7561L65.1 131.096C65.2514 131.389 65.5588 131.574 65.8949 131.574H82.4648C83.1344 131.574 83.5645 130.878 83.2532 130.299L53.6065 72.3847H29.4862L0.0938558 130.317C-0.199673 130.895 0.230835 131.574 0.891816 131.574H17.826C18.1678 131.574 18.4791 131.382 18.6278 131.082L23.7357 120.754ZM41.3866 85.1929L30.365 107.389H52.8876L41.3866 85.1929ZM292.721 72.731C292.721 72.4489 292.466 72.2208 292.155 72.2208H211.14C201.755 72.2208 194.148 79.0718 194.148 87.5229V116.958C194.148 125.408 201.755 132.26 211.14 132.26H282.289C288.544 132.26 293.617 127.692 293.617 122.058V118.809C293.617 118.527 293.362 118.299 293.051 118.299H215.324C215.01 118.299 214.758 118.07 214.758 117.789V108.964C214.758 108.895 214.772 108.83 214.8 108.77C214.818 108.73 214.841 108.693 214.87 108.658C214.904 108.618 214.945 108.581 214.991 108.551C215.023 108.53 215.059 108.511 215.096 108.496C215.165 108.469 215.242 108.454 215.324 108.454H289.291C290.541 108.454 291.556 107.541 291.556 106.414V96.7757C291.556 95.6489 290.541 94.7354 289.291 94.7354H215.324C215.206 94.7354 215.099 94.7039 215.009 94.6496C214.857 94.5577 214.758 94.4018 214.758 94.2251V86.3689C214.758 86.2278 214.822 86.0999 214.923 86.0078C215.026 85.9156 215.167 85.8587 215.324 85.8587H292.155C292.466 85.8587 292.721 85.63 292.721 85.3484V72.731ZM327.776 75.9719C325.436 73.6755 322.256 72.3847 318.94 72.3847H303.356V131.574H321.726V94.0934L365.621 131.574H383.99V72.3847H374.805H365.621V107.876L327.776 75.9719ZM415.545 131.176C419.752 132.131 424.731 132.608 430.48 132.608H442.662C448.305 132.608 453.205 132.184 457.357 131.335C461.564 130.486 465.131 129.399 468.06 128.073C471.041 126.694 473.464 125.156 475.327 123.459C477.192 121.709 478.656 119.959 479.719 118.209C480.784 116.405 481.504 114.655 481.876 112.958C482.302 111.261 482.516 109.802 482.516 108.582V107.707H462.787C462.682 108.025 462.388 108.768 461.909 109.935C461.483 111.048 460.525 112.242 459.034 113.515C457.544 114.734 455.387 115.822 452.565 116.776C449.744 117.731 445.936 118.209 441.144 118.209C436.83 118.209 424.332 117.705 421.455 116.697C418.634 115.636 416.372 114.31 414.667 112.719C413.016 111.128 411.846 109.378 411.153 107.469C410.513 105.559 410.195 103.729 410.195 101.979V101.025C410.195 99.1685 410.487 97.3385 411.073 95.5354C411.712 93.6792 412.831 92.0349 414.428 90.6031C416.078 89.1178 418.315 87.9244 421.136 87.0227C423.958 86.1211 436.511 85.6704 440.984 85.6704C445.724 85.6704 449.477 86.1211 452.246 87.0227C455.068 87.8716 457.225 88.8794 458.716 90.0461C460.26 91.1597 461.27 92.2736 461.751 93.3872C462.281 94.4482 462.602 95.164 462.709 95.5354H482.435V94.6602C482.435 93.4935 482.248 92.1144 481.876 90.5233C481.504 88.9321 480.784 87.2883 479.719 85.591C478.709 83.8405 477.27 82.1173 475.407 80.4198C473.597 78.7226 471.228 77.2113 468.298 75.8852C465.37 74.5061 461.802 73.4193 457.597 72.6235C453.39 71.7751 448.411 71.3507 442.662 71.3507H430.48C424.624 71.3507 419.565 71.8282 415.307 72.7829C411.099 73.7371 407.505 75.0101 404.523 76.6012C401.595 78.1392 399.226 79.9423 397.417 82.011C395.605 84.0262 394.194 86.1211 393.183 88.2957C392.224 90.4175 391.558 92.5651 391.186 94.7396C390.867 96.8609 390.707 98.8234 390.707 100.627V102.934C390.707 104.684 390.894 106.647 391.266 108.821C391.638 110.942 392.331 113.117 393.343 115.344C394.408 117.519 395.846 119.64 397.655 121.709C399.518 123.777 401.916 125.634 404.844 127.278C407.826 128.869 411.393 130.168 415.545 131.176ZM479.22 72.3847L512.788 108.662V131.574H531.398V108.662L564.088 72.3847H543.082L522.531 94.183L502.301 72.3847H479.22Z" fill="white"/>
</g>
<defs>
<clipPath id="clip0_1423_3745">
<rect width="700" height="134" fill="white"/>
</clipPath>
</defs>
</svg>
