<svg width="379" height="1585" viewBox="0 0 379 1585" fill="none" xmlns="http://www.w3.org/2000/svg">
<path d="M162.306 285.175L162.306 1584.94L163.776 1584.94L163.776 285.175L162.306 285.175Z" fill="black" fill-opacity="0.21"/>
<path d="M165.247 285.175L165.247 1584.94L166.718 1584.94L166.718 285.175L165.247 285.175Z" fill="black" fill-opacity="0.21"/>
<path d="M168.189 285.175L168.189 1584.94L169.66 1584.94L169.66 285.175L168.189 285.175Z" fill="black" fill-opacity="0.21"/>
<path d="M171.13 285.175L171.13 1584.94L172.601 1584.94L172.601 285.175L171.13 285.175Z" fill="black" fill-opacity="0.21"/>
<path d="M174.072 285.175L174.072 1584.94L175.543 1584.94L175.543 285.175L174.072 285.175Z" fill="black" fill-opacity="0.21"/>
<path d="M177.013 285.175L177.013 1584.94L178.484 1584.94L178.484 285.175L177.013 285.175Z" fill="black" fill-opacity="0.21"/>
<path d="M179.955 285.175L179.955 1584.94L181.426 1584.94L181.426 285.175L179.955 285.175Z" fill="black" fill-opacity="0.21"/>
<path d="M182.897 285.175L182.897 1584.94L184.367 1584.94L184.367 285.175L182.897 285.175Z" fill="black" fill-opacity="0.21"/>
<path d="M185.838 285.175L185.838 1584.94L187.309 1584.94L187.309 285.175L185.838 285.175Z" fill="black" fill-opacity="0.21"/>
<path d="M188.78 285.175L188.78 1584.94L190.25 1584.94L190.25 285.175L188.78 285.175Z" fill="black" fill-opacity="0.21"/>
<path d="M191.721 285.175L191.721 1584.94L193.192 1584.94L193.192 285.175L191.721 285.175Z" fill="black" fill-opacity="0.21"/>
<path d="M194.663 285.175L194.663 1584.94L196.134 1584.94L196.134 285.175L194.663 285.175Z" fill="black" fill-opacity="0.21"/>
<path d="M197.604 285.175L197.604 1584.94L199.075 1584.94L199.075 285.175L197.604 285.175Z" fill="black" fill-opacity="0.21"/>
<path d="M200.546 285.175L200.546 1584.94L202.017 1584.94L202.017 285.175L200.546 285.175Z" fill="black" fill-opacity="0.21"/>
<path d="M203.487 285.175L203.487 1584.94L204.958 1584.94L204.958 285.175L203.487 285.175Z" fill="black" fill-opacity="0.21"/>
<path d="M206.429 285.175L206.429 1584.94L207.9 1584.94L207.9 285.175L206.429 285.175Z" fill="black" fill-opacity="0.21"/>
<path d="M209.371 285.175L209.371 1584.94L210.841 1584.94L210.841 285.175L209.371 285.175Z" fill="black" fill-opacity="0.21"/>
<path d="M212.312 285.175L212.312 1584.94L213.783 1584.94L213.783 285.175L212.312 285.175Z" fill="black" fill-opacity="0.21"/>
<path d="M215.254 285.175L215.254 1584.94L216.725 1584.94L216.725 285.175L215.254 285.175Z" fill="black" fill-opacity="0.21"/>
<path d="M218.195 285.175L218.195 1584.94L219.666 1584.94L219.666 285.175L218.195 285.175Z" fill="black" fill-opacity="0.21"/>
<path d="M221.137 285.175L221.137 1584.94L222.608 1584.94L222.608 285.175L221.137 285.175Z" fill="black" fill-opacity="0.21"/>
<path d="M224.078 285.175L224.078 1584.94L225.549 1584.94L225.549 285.175L224.078 285.175Z" fill="black" fill-opacity="0.21"/>
<path d="M227.02 285.175L227.02 1584.94L228.491 1584.94L228.491 285.175L227.02 285.175Z" fill="black" fill-opacity="0.21"/>
<path d="M229.962 285.175L229.962 1584.94L231.432 1584.94L231.432 285.175L229.962 285.175Z" fill="black" fill-opacity="0.21"/>
<path d="M232.903 285.175L232.903 1584.94L234.374 1584.94L234.374 285.175L232.903 285.175Z" fill="black" fill-opacity="0.21"/>
<path d="M235.845 285.175L235.845 1584.94L237.315 1584.94L237.315 285.175L235.845 285.175Z" fill="black" fill-opacity="0.21"/>
<path d="M238.786 285.175L238.786 1584.94L240.257 1584.94L240.257 285.175L238.786 285.175Z" fill="black" fill-opacity="0.21"/>
<path d="M241.728 285.175L241.728 1584.94L243.199 1584.94L243.199 285.175L241.728 285.175Z" fill="black" fill-opacity="0.21"/>
<path d="M244.669 285.175L244.669 1584.94L246.14 1584.94L246.14 285.175L244.669 285.175Z" fill="black" fill-opacity="0.21"/>
<path fill-rule="evenodd" clip-rule="evenodd" d="M6.86468 0L77.736 70.8713V145.883L172.601 241.483V285.173H171.13V242.089L76.2652 146.489V71.4805L5.82468 1.04L6.86468 0ZM2.45234 1.47078L73.3236 72.3421V145.883L169.66 242.954V285.173H168.189V243.56L73.3236 147.971V150.295L166.718 244.425V285.173H165.247V245.031L71.8528 150.901V72.9513L1.41234 2.51078L2.45234 1.47078ZM15.6894 1.47078L82.1483 67.9297V141.47L178.484 238.542V285.173H177.014V239.148L82.1483 143.558V145.883L175.543 240.013V285.173H174.072V240.618L80.6775 146.489V68.5389L14.6494 2.51078L15.6894 1.47078ZM21.6309 3L85.0899 66.4589V140L181.426 237.071V285.173H179.955V237.677L83.6191 140.606V67.0682L20.5909 4.04L21.6309 3ZM1.04 4.47078L70.3821 73.8128V151.766L163.777 245.896V285.173H162.306V246.502L68.9113 152.372V74.4221L0 5.51078L1.04 4.47078ZM171.866 120.749L62.5047 9.91964L63.5516 8.8866L173.337 120.145V206.19L196.134 229.722V285.173H194.663V230.318L171.866 206.785V120.749ZM330.187 8.8866L331.234 9.91964L221.872 120.749V199.534L199.075 214.242V285.173H197.605V213.441L220.402 198.733V120.145L330.187 8.8866ZM333.128 10.3574L334.175 11.3904L224.814 122.22V201.005L202.017 215.713V285.173H200.546V214.912L223.343 200.204V121.616L333.128 10.3574ZM336.07 11.8282L337.117 12.8612L227.756 123.69V202.476L204.958 217.184V285.173H203.488V216.382L226.285 201.675V123.087L336.07 11.8282ZM339.011 13.2989L340.058 14.332L230.697 125.161V203.947L207.9 218.655V285.173H206.429V217.853L229.226 203.145V124.558L339.011 13.2989ZM140.624 93.5393L63.917 15.8028L64.964 14.7697L142.095 92.9358V112.056L170.395 140.736V207.661L193.192 231.193V285.173H191.721V231.789L168.924 208.256V141.34L142.095 114.15V116.469L167.454 142.207V209.131L190.251 232.664V285.173H188.78V233.259L165.983 209.727V142.81L140.624 117.071V97.9518L60.9756 17.2737L62.0223 16.2404L140.624 95.8583V93.5393ZM341.953 14.7697L343 15.8028L233.639 126.632V205.418L210.842 220.125V285.173H209.371V219.324L232.168 204.616V126.028L341.953 14.7697ZM344.895 16.2405L345.941 17.2735L236.58 128.103V206.888L213.783 221.596V285.173H212.312V220.795L235.109 206.087V127.499L344.895 16.2405ZM137.682 99.4226L58.034 18.7445L59.0807 17.7112L139.153 98.8189V117.939L164.512 143.678V210.602L187.309 234.135V285.173H185.838V234.73L163.041 211.198V144.281L139.153 120.035V122.352L161.57 145.149V212.073L184.368 235.605V285.173H182.897V236.201L160.1 212.669V163.401L134.741 137.662V109.718L55.0925 29.0399L56.1391 28.0066L134.741 107.625V105.306L55.0925 24.6276L56.1391 23.5943L134.741 103.212V100.893L55.0926 20.2154L56.139 19.1818L137.682 101.742V99.4226ZM137.682 103.835L136.212 102.346V128.235L160.1 152.481V150.164L137.682 127.367V103.835ZM160.1 148.066V145.751L139.153 124.45V126.765L160.1 148.066ZM160.1 154.576L136.212 130.331V132.647L160.1 156.893V154.576ZM160.1 158.989L136.212 134.743V137.06L160.1 161.305V158.989ZM347.836 17.7113L348.883 18.7443L239.522 129.573V208.359L216.725 223.067V285.173H215.254V222.266L238.051 207.558V128.97L347.836 17.7113ZM350.778 19.1821L351.824 20.2151L242.463 131.044V209.83L219.666 224.538V285.173H218.195V223.736L240.993 209.029V130.441L350.778 19.1821ZM353.719 20.6528L354.766 21.6859L245.405 132.515V211.301L222.608 226.008V285.173H221.137V225.207L243.934 210.499V131.912L353.719 20.6528ZM356.661 22.1236L357.708 23.1567L248.346 133.986V212.771L225.549 227.479V285.173H224.079V226.678L246.876 211.97V133.382L356.661 22.1236ZM359.602 23.5944L360.649 24.6274L251.288 135.457V214.242L228.491 228.95V285.173H227.02V228.149L249.817 213.441V134.853L359.602 23.5944ZM362.544 25.0652L363.591 26.0982L254.23 136.927V215.713L231.432 230.421V285.173H229.962V229.619L252.759 214.912V136.324L362.544 25.0652ZM365.485 26.536L366.532 27.569L257.171 138.398V217.184L234.374 231.892V285.173H232.903V231.09L255.7 216.382V137.795L365.485 26.536ZM368.427 28.0067L369.474 29.0398L260.113 139.869V218.655L237.316 233.362V285.173H235.845V232.561L258.642 217.853V139.265L368.427 28.0067ZM371.369 29.4775L372.415 30.5106L263.054 141.34V220.125L240.257 234.833V285.173H238.786V234.032L261.583 219.324V140.736L371.369 29.4775ZM374.31 30.9483L375.357 31.9813L265.996 142.81V221.596L243.199 236.304V285.173H241.728V235.503L264.525 220.795V142.207L374.31 30.9483ZM377.252 32.4191L378.299 33.4521L268.937 144.281V223.067L246.14 237.775V285.173H244.669V236.973L267.467 222.266V143.678L377.252 32.4191Z" fill="black" fill-opacity="0.21"/>
</svg>
