<svg viewBox="0 0 770 84" fill="none" xmlns="http://www.w3.org/2000/svg">
<path d="M1 71L1 74L4 77L7 77" stroke="white" stroke-opacity="0.5" stroke-width="0.5" vector-effect="non-scaling-stroke" />
<path d="M3 78L3 80L6 83L11 83" stroke="white" stroke-opacity="0.15" stroke-width="0.5" vector-effect="non-scaling-stroke" />
<path d="M2 75L2 77L5 80L9 80" stroke="white" stroke-opacity="0.3" stroke-width="0.5" vector-effect="non-scaling-stroke" />
<path d="M3 13L3 10L6 7L11 7" stroke="white" stroke-opacity="0.15" stroke-width="0.5" vector-effect="non-scaling-stroke" />
<path d="M2 10L2 7L5 4L9 4" stroke="white" stroke-opacity="0.29" stroke-width="0.5" vector-effect="non-scaling-stroke" />
<path d="M1 7L1 4L4 1L7 1" stroke="white" stroke-opacity="0.5" stroke-width="0.5" vector-effect="non-scaling-stroke" />
<path d="M769 71L769 74L766 77L763 77" stroke="white" stroke-opacity="0.5" stroke-width="0.5" vector-effect="non-scaling-stroke" />
<path d="M767 78L767 80L764 83L759 83" stroke="white" stroke-opacity="0.15" stroke-width="0.5" vector-effect="non-scaling-stroke" />
<path d="M768 75L768 77L765 80L761 80" stroke="white" stroke-opacity="0.3" stroke-width="0.5" vector-effect="non-scaling-stroke" />
<path d="M767 13L767 10L764 7L759 7" stroke="white" stroke-opacity="0.15" stroke-width="0.5" vector-effect="non-scaling-stroke" />
<path d="M768 10L768 7L765 4L761 4" stroke="white" stroke-opacity="0.29" stroke-width="0.5" vector-effect="non-scaling-stroke" />
<path d="M769 7L769 4L766 1L763 1" stroke="white" stroke-opacity="0.5" stroke-width="0.5" vector-effect="non-scaling-stroke" />
<path d="M17 83H37.0625L47.0938 76H57.125H88.407L98.4383 68H108.47H118.501M755 83H734.938L724.906 76H714.875H683.593L673.562 68H663.531H653.499M118.501 68H128.532H598.5H643.468H653.499M118.501 68H653.499" stroke="white" stroke-opacity="0.15" stroke-width="0.5" vector-effect="non-scaling-stroke" />
<path d="M15 80H35.0625L45.0938 73H55.125H86.407L96.4383 65H106.47H116.501M756 80H735.938L725.906 73H715.875H684.593L674.562 65H664.531H654.499M116.501 65H126.532H597.5H644.468H654.499M116.501 65H654.499" stroke="white" stroke-opacity="0.3" stroke-width="0.5" vector-effect="non-scaling-stroke" />
<path d="M13 77H33.0625L43.0938 70H53.125H84.407L94.4383 62H104.47H114.501M757.062 77H737L726.406 70H716.375H685.093L675.062 62H665.031H654.999M114.501 62H124.532H596H644.968H654.999M114.501 62H654.999" stroke="white" stroke-opacity="0.5" stroke-width="0.5" vector-effect="non-scaling-stroke" />
<path d="M17 7H37.0625L47.0938 14H57.125H88.407L98.4383 22H108.47H118.501M755.062 7H735L725.406 14H715.375H684.093L674.062 22H664.031H653.999M118.501 22H128.532H599H643.968H653.999M118.501 22H653.999" stroke="white" stroke-opacity="0.15" stroke-width="0.5" vector-effect="non-scaling-stroke" />
<path d="M15 4H35.0625L45.0938 11H55.125H86.407L96.4383 19H106.47H116.501M756 4H735.938L725.906 11H715.875H684.593L674.562 19H664.531H654.499M116.501 19H126.532H597.5H644.468H654.499M116.501 19H654.499" stroke="white" stroke-opacity="0.3" stroke-width="0.5" vector-effect="non-scaling-stroke" />
<path d="M13 1H33.0625L43.0938 8H53.125H84.407L94.4383 16H104.47H114.501M757 1H736.938L726.906 8H716.875H685.593L675.562 16H665.531H655.499M114.501 16H124.532H596.5H645.468H655.499M114.501 16H655.499" stroke="white" stroke-opacity="0.5" stroke-width="0.5" vector-effect="non-scaling-stroke" />
</svg>
