<svg width="61" height="60" viewBox="0 0 61 60" fill="none" xmlns="http://www.w3.org/2000/svg">
<path fill-rule="evenodd" clip-rule="evenodd" d="M6.0611 24.1196V29.0106H6.18878C6.31363 29.0106 6.31647 29.0125 6.31647 29.0955V29.1803H6.55907H6.80167V29.2612C6.80167 29.3361 6.81056 29.3436 6.92016 29.3602C6.98531 29.3701 7.09448 29.3782 7.16276 29.3782C7.28363 29.3782 7.28687 29.3804 7.28687 29.463V29.5478H7.60608H7.9253V29.6326C7.9253 29.7152 7.92854 29.7174 8.04941 29.7174C8.11769 29.7174 8.22623 29.7254 8.29063 29.7352C8.39306 29.7508 8.40871 29.7623 8.41551 29.8271C8.42322 29.9008 8.42475 29.9013 8.67225 29.9093L8.92124 29.9174V30.0012C8.92124 30.0826 8.92482 30.085 9.04535 30.085C9.11364 30.085 9.22281 30.0931 9.28795 30.103C9.38859 30.1182 9.40644 30.1304 9.40644 30.1839C9.40644 30.2375 9.42429 30.2496 9.52494 30.2649C9.59008 30.2748 9.69925 30.2829 9.76754 30.2829C9.8884 30.2829 9.89165 30.2851 9.89165 30.3677V30.4525H10.1342H10.3768V30.5373C10.3768 30.6196 10.3805 30.6222 10.4981 30.6224C10.5649 30.6225 10.6798 30.6307 10.7535 30.6405C10.8702 30.656 10.8876 30.6664 10.8876 30.7212C10.8876 30.7746 10.9055 30.7868 11.0061 30.8021C11.0712 30.812 11.1804 30.8201 11.2487 30.8201C11.3695 30.8201 11.3728 30.8223 11.3728 30.9049V30.9897H11.6154H11.858V31.0706C11.858 31.147 11.8653 31.1524 11.9921 31.1693C12.0658 31.1791 12.1807 31.1872 12.2474 31.1873C12.3651 31.1876 12.3687 31.1901 12.3687 31.2724V31.3572H12.6113H12.8539V31.441V31.5247L13.0902 31.5329C13.3239 31.5409 13.3264 31.5418 13.3341 31.6151C13.3409 31.6799 13.3566 31.6915 13.459 31.707C13.5234 31.7168 13.6664 31.7248 13.7768 31.7248H13.9776V31.8096C13.9776 31.8922 13.9808 31.8944 14.1017 31.8944C14.17 31.8944 14.2791 31.9025 14.3443 31.9124C14.4459 31.9278 14.4628 31.9395 14.4628 31.9949C14.4628 32.0536 14.4781 32.0613 14.6288 32.0792L14.7948 32.0989V36.4353V40.7718H26.4907H38.1866V40.687C38.1866 40.6116 38.1951 40.6022 38.2633 40.6022C38.3338 40.6022 38.3399 40.5943 38.3399 40.5032C38.3399 40.409 38.3441 40.4043 38.4292 40.4043C38.5115 40.4043 38.5186 40.3976 38.5186 40.3195C38.5186 40.2441 38.5271 40.2346 38.5952 40.2346C38.6658 40.2346 38.6718 40.2268 38.6718 40.1357C38.6718 40.0446 38.6779 40.0367 38.7485 40.0367C38.8166 40.0367 38.8251 40.0273 38.8251 39.9519C38.8251 39.8738 38.8322 39.8671 38.9144 39.8671C38.9996 39.8671 39.0038 39.8624 39.0038 39.7682C39.0038 39.6771 39.0099 39.6692 39.0804 39.6692C39.1485 39.6692 39.1571 39.6598 39.1571 39.5844C39.1571 39.5094 39.1657 39.4996 39.2321 39.4996C39.298 39.4996 39.308 39.4885 39.315 39.4077C39.322 39.3275 39.3333 39.3147 39.4037 39.3071C39.482 39.2987 39.4849 39.2935 39.502 39.1304C39.519 38.9683 39.5222 38.9624 39.5937 38.9624C39.659 38.9624 39.6678 38.9523 39.6678 38.8776C39.6678 38.8022 39.6763 38.7928 39.7444 38.7928C39.8149 38.7928 39.821 38.7849 39.821 38.6938C39.821 38.5996 39.8253 38.5949 39.9104 38.5949C39.9927 38.5949 39.9998 38.5881 39.9998 38.5101C39.9998 38.4347 40.0083 38.4252 40.0764 38.4252C40.1445 38.4252 40.153 38.4158 40.153 38.3404C40.153 38.265 40.1615 38.2556 40.2296 38.2556C40.3001 38.2556 40.3062 38.2477 40.3062 38.1567C40.3062 38.0624 40.3105 38.0577 40.3956 38.0577C40.4779 38.0577 40.485 38.051 40.485 37.9729C40.485 37.8975 40.4935 37.8881 40.5616 37.8881C40.6321 37.8881 40.6382 37.8802 40.6382 37.7891C40.6382 37.698 40.6443 37.6902 40.7148 37.6902C40.7829 37.6902 40.7914 37.6807 40.7914 37.6053C40.7914 37.5273 40.7985 37.5205 40.8808 37.5205C40.9659 37.5205 40.9702 37.5158 40.9702 37.4216C40.9702 37.3305 40.9763 37.3226 41.0468 37.3226C41.1149 37.3226 41.1234 37.3132 41.1234 37.2378C41.1234 37.1597 41.1305 37.153 41.2128 37.153C41.2979 37.153 41.3022 37.1483 41.3022 37.054C41.3022 36.963 41.3082 36.9551 41.3788 36.9551C41.4469 36.9551 41.4554 36.9457 41.4554 36.8703C41.4554 36.7949 41.4639 36.7855 41.532 36.7855C41.6001 36.7855 41.6086 36.776 41.6086 36.7006C41.6086 36.6226 41.6157 36.6158 41.698 36.6158C41.7831 36.6158 41.7874 36.6111 41.7874 36.5169C41.7874 36.4258 41.7934 36.4179 41.864 36.4179C41.9321 36.4179 41.9406 36.4085 41.9406 36.3331C41.9406 36.2581 41.9493 36.2483 42.0156 36.2483C42.0815 36.2483 42.0915 36.2372 42.0986 36.1564C42.1056 36.0756 42.1166 36.0634 42.1896 36.0557C42.2626 36.0479 42.2726 36.0368 42.2726 35.9638C42.2726 35.8908 42.2816 35.8808 42.3476 35.8808C42.4135 35.8808 42.4235 35.8697 42.4306 35.7889C42.4376 35.7081 42.4486 35.6959 42.5215 35.6881C42.5945 35.6803 42.6045 35.6693 42.6045 35.5963C42.6045 35.5232 42.6136 35.5132 42.6795 35.5132C42.7455 35.5132 42.7555 35.5021 42.7625 35.4213C42.7692 35.3454 42.7824 35.3279 42.8391 35.3207C42.9016 35.3127 42.9092 35.2983 42.9251 35.1581C42.9416 35.0119 42.946 35.0043 43.0161 35.0043C43.0832 35.0043 43.0897 34.9956 43.0897 34.9054C43.0897 34.8111 43.094 34.8064 43.1791 34.8064C43.261 34.8064 43.2685 34.7994 43.2685 34.7235C43.2685 34.654 43.2799 34.6391 43.3387 34.6316C43.3972 34.6241 43.4103 34.6073 43.417 34.5308C43.424 34.45 43.434 34.4389 43.4999 34.4389C43.5659 34.4389 43.575 34.4289 43.575 34.3558C43.575 34.2828 43.585 34.2718 43.6579 34.264C43.7309 34.2562 43.7419 34.244 43.7489 34.1632C43.756 34.0824 43.766 34.0713 43.8319 34.0713C43.8979 34.0713 43.9069 34.0613 43.9069 33.9883C43.9069 33.9153 43.9169 33.9042 43.9899 33.8964C44.0629 33.8886 44.0739 33.8765 44.0809 33.7957C44.088 33.7149 44.098 33.7038 44.1639 33.7038C44.2302 33.7038 44.2389 33.694 44.2389 33.619C44.2389 33.5436 44.2474 33.5342 44.3155 33.5342C44.3832 33.5342 44.3921 33.5246 44.3921 33.4511C44.3921 33.3781 44.4021 33.3671 44.4751 33.3593C44.5481 33.3515 44.5591 33.3393 44.5661 33.2585C44.5732 33.1777 44.5832 33.1666 44.6491 33.1666C44.7154 33.1666 44.7241 33.1568 44.7241 33.0818C44.7241 33.0068 44.7328 32.997 44.7991 32.997C44.8651 32.997 44.8751 32.9859 44.8821 32.9051C44.8891 32.8243 44.9001 32.8122 44.9731 32.8044C45.0461 32.7966 45.0561 32.7855 45.0561 32.7125C45.0561 32.6391 45.065 32.6295 45.1327 32.6295C45.2032 32.6295 45.2093 32.6216 45.2093 32.5305C45.2093 32.4363 45.2136 32.4316 45.2987 32.4316C45.381 32.4316 45.3881 32.4248 45.3881 32.3467C45.3881 32.2718 45.3968 32.2619 45.4631 32.2619C45.529 32.2619 45.539 32.2508 45.5461 32.17C45.5527 32.0935 45.5658 32.0767 45.6243 32.0692C45.6831 32.0617 45.6945 32.0468 45.6945 31.9773C45.6945 31.9014 45.7021 31.8944 45.7839 31.8944C45.8662 31.8944 45.8733 31.8877 45.8733 31.8096C45.8733 31.7342 45.8818 31.7248 45.9499 31.7248C46.0204 31.7248 46.0265 31.7169 46.0265 31.6258C46.0265 31.5347 46.0326 31.5269 46.1031 31.5269C46.1712 31.5269 46.1797 31.5174 46.1797 31.442C46.1797 31.3646 46.1872 31.3572 46.2658 31.3572H46.3519L46.369 31.1893C46.385 31.0335 46.3911 31.0208 46.4553 31.0126C46.5126 31.0053 46.5259 30.9881 46.5325 30.9119C46.5395 30.8311 46.5495 30.8201 46.6155 30.8201C46.6814 30.8201 46.6905 30.81 46.6905 30.737C46.6905 30.664 46.7005 30.6529 46.7735 30.6451C46.8464 30.6374 46.8574 30.6252 46.8644 30.5444C46.8715 30.4636 46.8815 30.4525 46.9474 30.4525C47.0138 30.4525 47.0224 30.4427 47.0224 30.3677C47.0224 30.2927 47.0311 30.2829 47.0974 30.2829C47.1634 30.2829 47.1734 30.2718 47.1804 30.191C47.1875 30.1102 47.1984 30.098 47.2714 30.0903C47.3444 30.0825 47.3544 30.0714 47.3544 29.9984C47.3544 29.925 47.3633 29.9154 47.431 29.9154C47.5016 29.9154 47.5076 29.9075 47.5076 29.8164C47.5076 29.7253 47.5137 29.7174 47.5843 29.7174C47.6524 29.7174 47.6609 29.708 47.6609 29.6326C47.6609 29.5545 47.668 29.5478 47.7503 29.5478C47.8325 29.5478 47.8396 29.5411 47.8396 29.463C47.8396 29.3876 47.8481 29.3782 47.9162 29.3782C47.9868 29.3782 47.9929 29.3703 47.9929 29.2792C47.9929 29.185 47.9971 29.1803 48.0822 29.1803C48.1645 29.1803 48.1716 29.1735 48.1716 29.0955C48.1716 29.0201 48.1801 29.0106 48.2482 29.0106C48.3188 29.0106 48.3248 29.0028 48.3248 28.9117C48.3248 28.8206 48.3309 28.8127 48.4014 28.8127C48.4696 28.8127 48.4781 28.8033 48.4781 28.7279C48.4781 28.6498 48.4852 28.6431 48.5674 28.6431C48.6525 28.6431 48.6568 28.6384 48.6568 28.5442C48.6568 28.4531 48.6629 28.4452 48.7334 28.4452C48.8015 28.4452 48.81 28.4358 48.81 28.3604C48.81 28.285 48.8185 28.2756 48.8866 28.2756C48.9548 28.2756 48.9633 28.2662 48.9633 28.1908C48.9633 28.1127 48.9704 28.1059 49.0526 28.1059C49.1378 28.1059 49.142 28.1012 49.142 28.007C49.142 27.9159 49.1481 27.908 49.2186 27.908C49.2867 27.908 49.2952 27.8986 49.2952 27.8232C49.2952 27.7482 49.3039 27.7384 49.3702 27.7384C49.4362 27.7384 49.4462 27.7273 49.4532 27.6465C49.4603 27.5657 49.4712 27.5536 49.5442 27.5458C49.6172 27.538 49.6272 27.5269 49.6272 27.4539C49.6272 27.3809 49.6363 27.3709 49.7022 27.3709C49.7682 27.3709 49.7782 27.3598 49.7852 27.279C49.7922 27.1982 49.8032 27.186 49.8762 27.1782L49.9592 27.1694V27.0015V26.8337H50.0486C50.1309 26.8337 50.138 26.827 50.138 26.7489C50.138 26.6735 50.1465 26.6641 50.2146 26.6641C50.2851 26.6641 50.2912 26.6562 50.2912 26.5651C50.2912 26.474 50.2973 26.4662 50.3678 26.4662C50.4359 26.4662 50.4444 26.4567 50.4444 26.3813C50.4444 26.3033 50.4515 26.2965 50.5338 26.2965C50.6161 26.2965 50.6232 26.2898 50.6232 26.2117C50.6232 26.1363 50.6317 26.1269 50.6998 26.1269C50.7703 26.1269 50.7764 26.119 50.7764 26.0279C50.7764 25.9369 50.7825 25.929 50.853 25.929C50.9207 25.929 50.9296 25.9194 50.9296 25.846C50.9296 25.773 50.9396 25.7619 51.0126 25.7541C51.0856 25.7463 51.0966 25.7341 51.1036 25.6533C51.1106 25.5725 51.1206 25.5615 51.1866 25.5615C51.2525 25.5615 51.2616 25.5514 51.2616 25.4784C51.2616 25.4054 51.2716 25.3943 51.3446 25.3865C51.4178 25.3787 51.4285 25.3667 51.4357 25.2845L51.4438 25.1913L51.6017 25.1997C51.7514 25.2076 51.76 25.212 51.7674 25.2832C51.7747 25.3526 51.787 25.3599 51.927 25.3779C52.0734 25.3967 52.0788 25.4003 52.0788 25.4794C52.0788 25.5543 52.0865 25.5615 52.1682 25.5615C52.2504 25.5615 52.2575 25.5682 52.2575 25.6463C52.2575 25.7217 52.266 25.7311 52.3341 25.7311C52.4018 25.7311 52.4108 25.7408 52.4108 25.8136C52.4108 25.8944 52.4144 25.8966 52.5767 25.9159C52.7385 25.9351 52.7427 25.9376 52.7427 26.0171C52.7427 26.0884 52.7521 26.0986 52.8177 26.0986C52.8837 26.0986 52.8937 26.1097 52.9007 26.1905C52.9087 26.2824 52.9087 26.2824 53.0683 26.2908L53.2279 26.2992V26.1141V25.929H53.3173C53.3992 25.929 53.4067 25.922 53.4067 25.846C53.4067 25.7766 53.4181 25.7616 53.4769 25.7542C53.5354 25.7467 53.5485 25.7299 53.5551 25.6533C53.5621 25.5736 53.5726 25.5615 53.6348 25.5615C53.7034 25.5615 53.7073 25.5542 53.7237 25.3936C53.7396 25.2377 53.7458 25.2251 53.81 25.2169C53.8673 25.2096 53.8805 25.1923 53.8871 25.1162C53.8942 25.0354 53.9042 25.0243 53.9701 25.0243C54.0388 25.0243 54.0451 25.0159 54.0451 24.9253C54.0451 24.835 54.0516 24.8264 54.1192 24.8264C54.1908 24.8264 54.1939 24.8206 54.2111 24.6567C54.2283 24.4929 54.2314 24.4871 54.303 24.4871C54.3707 24.4871 54.3771 24.4785 54.3771 24.3882C54.3771 24.2977 54.3835 24.2892 54.4517 24.2892C54.5246 24.2892 54.5266 24.2852 54.544 24.1054C54.5604 23.9362 54.5666 23.9217 54.6227 23.9217C54.6702 23.9217 54.6835 23.9066 54.6835 23.8524C54.6835 23.7887 54.6712 23.7816 54.5303 23.7639C54.3836 23.7455 54.3771 23.7414 54.3771 23.6654C54.3771 23.5965 54.3661 23.5848 54.2941 23.5771C54.2211 23.5693 54.2101 23.5572 54.2031 23.4764C54.1961 23.3956 54.1861 23.3845 54.1201 23.3845C54.0541 23.3845 54.0451 23.3745 54.0451 23.301C54.0451 23.2184 54.0435 23.2175 53.8855 23.2092C53.7259 23.2007 53.7259 23.2007 53.7179 23.1089C53.7109 23.0281 53.7009 23.017 53.6349 23.017C53.5686 23.017 53.5599 23.0071 53.5599 22.9322C53.5599 22.8541 53.5528 22.8473 53.4705 22.8473C53.3889 22.8473 53.3812 22.8402 53.3812 22.7653C53.3812 22.6861 53.3759 22.6826 53.2279 22.6636C53.0799 22.6445 53.0747 22.6411 53.0747 22.5618C53.0747 22.4869 53.067 22.4798 52.9853 22.4798C52.9039 22.4798 52.896 22.4725 52.896 22.3986C52.896 22.3205 52.8903 22.3168 52.7443 22.2985C52.6035 22.2809 52.5921 22.274 52.5847 22.2029C52.5781 22.1395 52.5625 22.1249 52.4937 22.1176C52.4208 22.1097 52.4108 22.0987 52.4108 22.0257C52.4108 21.9496 52.4032 21.9426 52.3214 21.9426C52.2391 21.9426 52.232 21.9359 52.232 21.8578V21.773H52.066H51.9V21.8578V21.9426H51.5936H51.2871V22.0235C51.2871 22.1 51.2798 22.1054 51.1531 22.1222C51.0793 22.132 50.9644 22.1402 50.8977 22.1403C50.78 22.1405 50.7764 22.1431 50.7764 22.2254V22.3102H50.5338H50.2912V22.395C50.2912 22.4776 50.2879 22.4798 50.1671 22.4798C50.0988 22.4798 49.9896 22.4879 49.9245 22.4978C49.8239 22.513 49.806 22.5253 49.806 22.5787C49.806 22.6334 49.7886 22.6439 49.6719 22.6594C49.5982 22.6692 49.489 22.6773 49.4293 22.6775C49.3258 22.6777 49.3208 22.6816 49.3208 22.7625V22.8473H49.0654H48.81V22.9282C48.81 23.0047 48.8027 23.0101 48.676 23.0269C48.6022 23.0367 48.4931 23.0449 48.4334 23.045C48.3298 23.0452 48.3248 23.0492 48.3248 23.1301V23.2149H48.0822H47.8396V23.2987V23.3825L47.5906 23.3906C47.3431 23.3986 47.3416 23.3991 47.3339 23.4727C47.3271 23.5376 47.3114 23.5491 47.209 23.5646C47.1446 23.5744 47.0361 23.5824 46.9678 23.5824C46.8469 23.5824 46.8437 23.5846 46.8437 23.6672V23.752H46.6011H46.3585V23.8369C46.3585 23.9192 46.3549 23.9217 46.2372 23.9219C46.1705 23.922 46.0556 23.9302 45.9818 23.94C45.865 23.9555 45.8477 23.9659 45.8477 24.0209C45.8477 24.0975 45.7606 24.1188 45.4455 24.1193L45.2349 24.1196V24.2044C45.2349 24.2881 45.233 24.2892 45.098 24.2892C45.0227 24.2892 44.9078 24.2973 44.8426 24.3072C44.742 24.3225 44.7241 24.3346 44.7241 24.3882C44.7241 24.4417 44.7063 24.4539 44.6056 24.4691C44.5405 24.479 44.4313 24.4871 44.363 24.4871C44.2422 24.4871 44.2389 24.4893 44.2389 24.5719V24.6567H43.9963H43.7537V24.7376C43.7537 24.8141 43.7464 24.8195 43.6196 24.8363C43.5459 24.8461 43.4375 24.8543 43.3787 24.8544C43.2812 24.8546 43.2712 24.8614 43.2638 24.9324L43.2557 25.0101L43.0068 25.0182L42.7578 25.0263V25.1101V25.1939H42.5152H42.2726V25.2749C42.2726 25.3498 42.2637 25.3572 42.1541 25.3738C42.0889 25.3837 41.9798 25.3918 41.9115 25.3918C41.7909 25.3918 41.7874 25.3942 41.7874 25.4756V25.5594L41.5384 25.5675L41.2894 25.5756L41.2813 25.6533C41.2739 25.7243 41.2639 25.7311 41.1664 25.7313C41.1076 25.7315 40.9992 25.7396 40.9255 25.7494C40.8088 25.7649 40.7914 25.7754 40.7914 25.8301C40.7914 25.8835 40.7735 25.8957 40.6729 25.911C40.6078 25.9209 40.4986 25.929 40.4303 25.929C40.3095 25.929 40.3062 25.9312 40.3062 26.0138V26.0986H40.1055C39.9951 26.0986 39.8514 26.1067 39.7863 26.1166C39.6767 26.1332 39.6678 26.1407 39.6678 26.2156V26.2965H39.4252H39.1826V26.3813C39.1826 26.465 39.1808 26.4662 39.0457 26.4662C38.9704 26.4662 38.8555 26.4742 38.7903 26.4841C38.6897 26.4994 38.6718 26.5116 38.6718 26.565C38.6718 26.6198 38.6545 26.6302 38.5378 26.6457C38.464 26.6556 38.3549 26.6637 38.2952 26.6638C38.1917 26.6641 38.1866 26.668 38.1866 26.7489V26.8337H37.944H37.7014V26.9185C37.7014 27.0011 37.6982 27.0033 37.5773 27.0033C37.509 27.0033 37.3999 27.0114 37.3347 27.0213C37.2341 27.0366 37.2162 27.0488 37.2162 27.1023C37.2162 27.1558 37.1984 27.168 37.0977 27.1833C37.0326 27.1931 36.9177 27.2012 36.8424 27.2012C36.7073 27.2012 36.7055 27.2024 36.7055 27.286V27.3709H36.4629H36.2203V27.4557C36.2203 27.5366 36.2153 27.5405 36.1118 27.5408C36.0521 27.5409 35.9429 27.549 35.8692 27.5588C35.7424 27.5757 35.7351 27.5811 35.7351 27.6575V27.7384H35.4797H35.2244V27.8232C35.2244 27.9058 35.2211 27.908 35.1002 27.908C35.032 27.908 34.9228 27.9161 34.8576 27.926C34.757 27.9413 34.7391 27.9535 34.7391 28.007C34.7391 28.0605 34.7213 28.0727 34.6207 28.088C34.5555 28.0979 34.4463 28.1059 34.3781 28.1059C34.2572 28.1059 34.2539 28.1081 34.2539 28.1908C34.2539 28.2662 34.2454 28.2756 34.1773 28.2756C34.1092 28.2756 34.1007 28.2662 34.1007 28.1908C34.1007 28.1127 34.0936 28.1059 34.0113 28.1059C33.9291 28.1059 33.922 28.0992 33.922 28.0211C33.922 27.9457 33.9135 27.9363 33.8454 27.9363C33.7748 27.9363 33.7687 27.9284 33.7687 27.8374C33.7687 27.7431 33.7645 27.7384 33.6794 27.7384C33.5971 27.7384 33.59 27.7317 33.59 27.6536C33.59 27.5782 33.5815 27.5688 33.5134 27.5688C33.4428 27.5688 33.4368 27.5609 33.4368 27.4698C33.4368 27.3787 33.4307 27.3709 33.3601 27.3709C33.292 27.3709 33.2835 27.3615 33.2835 27.286C33.2835 27.208 33.2764 27.2012 33.1942 27.2012C33.1119 27.2012 33.1048 27.1945 33.1048 27.1164C33.1048 27.041 33.0963 27.0316 33.0282 27.0316C32.9579 27.0316 32.9516 27.0235 32.9516 26.9344C32.9516 26.8455 32.9445 26.8365 32.8686 26.8284C32.7999 26.8211 32.7842 26.8064 32.7776 26.7435C32.7715 26.6848 32.7541 26.6655 32.701 26.6587C32.6442 26.6515 32.631 26.634 32.6244 26.558C32.6173 26.4772 32.6073 26.4662 32.5414 26.4662C32.475 26.4662 32.4664 26.4563 32.4664 26.3813C32.4664 26.3033 32.4593 26.2965 32.377 26.2965C32.2919 26.2965 32.2876 26.2918 32.2876 26.1976C32.2876 26.1065 32.2815 26.0986 32.211 26.0986C32.1429 26.0986 32.1344 26.0892 32.1344 26.0138C32.1344 25.9388 32.1257 25.929 32.0594 25.929C31.9934 25.929 31.9834 25.9179 31.9764 25.8371C31.9694 25.7563 31.9584 25.7441 31.8854 25.7364C31.8124 25.7286 31.8024 25.7175 31.8024 25.6445V25.5615H28.7763H25.7501V24.2508C25.7501 23.5299 25.7574 22.881 25.7664 22.8089L25.7826 22.6777H27.1581H28.5337V21.3206V19.9636H24.5243H20.515V21.3206V22.6777H21.8302H23.1453V22.7625C23.1453 22.8379 23.1539 22.8473 23.222 22.8473H23.2986V24.2044V25.5615H20.4384H17.5783V24.473V23.3845H17.5017C17.4338 23.3845 17.4251 23.375 17.4251 23.3007V23.2169L17.1761 23.2088L16.9271 23.2007L16.919 23.123C16.9116 23.052 16.9016 23.0452 16.8041 23.045C16.7453 23.0449 16.6369 23.0367 16.5632 23.0269C16.4364 23.0101 16.4291 23.0047 16.4291 22.9282V22.8473H16.1865H15.9439V22.7635V22.6797L15.6949 22.6717C15.4472 22.6636 15.4459 22.6632 15.4382 22.5893C15.4288 22.5003 15.3554 22.4806 15.031 22.4801L14.8203 22.4798V22.395C14.8203 22.3113 14.8185 22.3102 14.6834 22.3102C14.6081 22.3102 14.4932 22.3021 14.428 22.2922C14.3274 22.2769 14.3095 22.2647 14.3095 22.2113C14.3095 22.1565 14.2922 22.1461 14.1755 22.1306C14.1018 22.1208 13.9926 22.1126 13.9329 22.1125C13.8293 22.1123 13.8243 22.1083 13.8243 22.0274V21.9426H13.5817H13.3391V21.8578C13.3391 21.7755 13.3355 21.773 13.2178 21.7727C13.1511 21.7726 13.0362 21.7645 12.9625 21.7547C12.8457 21.7392 12.8284 21.7287 12.8284 21.674C12.8284 21.6206 12.8105 21.6083 12.7099 21.5931C12.6448 21.5832 12.5356 21.5751 12.4673 21.5751C12.3464 21.5751 12.3432 21.5729 12.3432 21.4903V21.4055H12.1006H11.858V21.3246C11.858 21.2481 11.8507 21.2427 11.7239 21.2259C11.6502 21.2161 11.5353 21.2079 11.4686 21.2078C11.3509 21.2076 11.3473 21.205 11.3473 21.1227V21.0379H11.1047H10.8621V20.9531V20.8683L10.6769 20.868C10.5751 20.8679 10.4314 20.8598 10.3577 20.85C10.231 20.8331 10.2236 20.8277 10.2236 20.7513V20.6704H9.98103H9.73842V20.5856C9.73842 20.503 9.73518 20.5008 9.61431 20.5008C9.54603 20.5008 9.43686 20.4927 9.37171 20.4828C9.27112 20.4675 9.25322 20.4553 9.25322 20.4019C9.25322 20.3471 9.23588 20.3367 9.11915 20.3212C9.0454 20.3114 8.93048 20.3032 8.86378 20.3031C8.74608 20.3029 8.74248 20.3003 8.74248 20.218V20.1332H8.49988H8.25728V20.0484C8.25728 19.9658 8.25403 19.9636 8.13317 19.9636C8.06488 19.9636 7.95571 19.9555 7.89057 19.9456C7.78993 19.9303 7.77208 19.9182 7.77208 19.8646C7.77208 19.8111 7.75422 19.7989 7.65358 19.7837C7.58844 19.7738 7.47927 19.7657 7.41098 19.7657C7.29045 19.7657 7.28687 19.7633 7.28687 19.6819V19.5981L7.03789 19.59C6.79038 19.582 6.78885 19.5815 6.78114 19.5078C6.77434 19.443 6.75869 19.4315 6.65626 19.4159C6.59186 19.4061 6.48332 19.3981 6.41504 19.3981C6.29417 19.3981 6.29093 19.3959 6.29093 19.3133C6.29093 19.2317 6.28666 19.2285 6.17601 19.2285H6.0611V24.1196ZM8.92124 23.4655C8.92124 23.5404 8.93013 23.5478 9.03973 23.5644C9.10488 23.5743 9.21405 23.5824 9.28233 23.5824C9.4032 23.5824 9.40644 23.5846 9.40644 23.6672V23.752H9.60716C9.71759 23.752 9.86123 23.7601 9.92638 23.77C10.027 23.7853 10.0449 23.7975 10.0449 23.8509C10.0449 23.9057 10.0622 23.9161 10.1789 23.9316C10.2527 23.9414 10.3611 23.9496 10.4199 23.9497C10.5174 23.9499 10.5274 23.9567 10.5348 24.0277L10.5428 24.1054L10.7918 24.1135L11.0408 24.1216V24.2054C11.0408 24.2868 11.0444 24.2892 11.1649 24.2892C11.2332 24.2892 11.3424 24.2973 11.4075 24.3072C11.5082 24.3225 11.526 24.3346 11.526 24.3882C11.526 24.4417 11.5439 24.4539 11.6445 24.4691C11.7097 24.479 11.8188 24.4871 11.8871 24.4871C12.0076 24.4871 12.0112 24.4895 12.0112 24.5709V24.6547L12.2602 24.6628L12.5092 24.6709L12.5173 24.7486C12.5246 24.8196 12.5347 24.8264 12.6322 24.8266C12.6909 24.8267 12.7994 24.8349 12.8731 24.8447C12.9998 24.8616 13.0072 24.867 13.0072 24.9434V25.0243H13.2498H13.4924V25.1081V25.1919L13.7413 25.2C13.989 25.208 13.9904 25.2085 13.9981 25.2824C14.007 25.367 14.0824 25.391 14.3415 25.3915C14.4875 25.3918 14.4883 25.3923 14.4883 25.4766V25.5615H14.6415H14.7948V27.2719V28.9824H14.7181C14.6546 28.9824 14.6415 28.971 14.6415 28.9155C14.6415 28.8575 14.626 28.8464 14.523 28.8307C14.4579 28.8208 14.3487 28.8127 14.2804 28.8127C14.1596 28.8127 14.1563 28.8105 14.1563 28.7279V28.6431H13.9137H13.6711V28.5622C13.6711 28.4858 13.6638 28.4804 13.5371 28.4635C13.4633 28.4537 13.3484 28.4456 13.2817 28.4455C13.164 28.4452 13.1604 28.4427 13.1604 28.3604V28.2756H12.9178H12.6752V28.1908C12.6752 28.1081 12.6719 28.1059 12.5511 28.1059C12.4828 28.1059 12.3736 28.0979 12.3085 28.088C12.2078 28.0727 12.19 28.0605 12.19 28.007C12.19 27.9535 12.1721 27.9413 12.0715 27.926C12.0063 27.9161 11.8972 27.908 11.8289 27.908C11.708 27.908 11.7048 27.9058 11.7048 27.8232V27.7384H11.4494H11.194V27.6536C11.194 27.5727 11.189 27.5688 11.0855 27.5685C11.0258 27.5684 10.9166 27.5603 10.8429 27.5505C10.7162 27.5336 10.7088 27.5282 10.7088 27.4518V27.3709H10.4662H10.2236V27.286V27.2012H9.98103H9.73842V27.1203C9.73842 27.0439 9.7311 27.0385 9.60436 27.0217C9.53063 27.0118 9.41571 27.0037 9.34898 27.0036C9.23129 27.0033 9.22768 27.0008 9.22768 26.9185V26.8337H9.00132H8.77496L8.75872 26.7025C8.73704 26.5273 8.73778 23.4274 8.75951 23.4034C8.76886 23.393 8.80908 23.3845 8.84889 23.3845C8.91149 23.3845 8.92124 23.3954 8.92124 23.4655ZM45.8685 27.2931C45.8619 27.3688 45.8486 27.3865 45.7926 27.3937C45.73 27.4017 45.7234 27.4154 45.7071 27.5704C45.6901 27.7325 45.6869 27.7384 45.6154 27.7384C45.5504 27.7384 45.5413 27.7486 45.5413 27.8214C45.5413 27.8944 45.5313 27.9055 45.4583 27.9133C45.3897 27.9206 45.3739 27.9353 45.3674 27.9982C45.3612 28.057 45.3438 28.0762 45.2908 28.083C45.234 28.0903 45.2207 28.1077 45.2141 28.1837C45.207 28.2645 45.197 28.2756 45.1311 28.2756C45.0651 28.2756 45.0561 28.2856 45.0561 28.3586C45.0561 28.4316 45.0461 28.4427 44.9731 28.4505C44.9001 28.4583 44.8891 28.4704 44.8821 28.5512C44.8751 28.632 44.8651 28.6431 44.7991 28.6431C44.7332 28.6431 44.7241 28.6531 44.7241 28.7261C44.7241 28.7991 44.7141 28.8102 44.6411 28.818C44.5681 28.8258 44.5572 28.838 44.5501 28.9188C44.5431 28.9996 44.5331 29.0106 44.4671 29.0106C44.4008 29.0106 44.3921 29.0205 44.3921 29.0955C44.3921 29.1704 44.3835 29.1803 44.3171 29.1803C44.2512 29.1803 44.2412 29.1914 44.2341 29.2722C44.2271 29.353 44.2161 29.3651 44.1432 29.3729C44.0702 29.3807 44.0602 29.3918 44.0602 29.4648C44.0602 29.5382 44.0513 29.5478 43.9835 29.5478C43.9154 29.5478 43.9069 29.5572 43.9069 29.6326C43.9069 29.7076 43.8983 29.7174 43.8319 29.7174C43.766 29.7174 43.756 29.7285 43.7489 29.8093C43.7419 29.8901 43.7309 29.9023 43.6579 29.9101C43.585 29.9179 43.575 29.9289 43.575 30.0019C43.575 30.0754 43.5661 30.085 43.4983 30.085C43.4278 30.085 43.4217 30.0928 43.4217 30.1839C43.4217 30.275 43.4156 30.2829 43.3451 30.2829C43.277 30.2829 43.2685 30.2923 43.2685 30.3677C43.2685 30.4458 43.2614 30.4525 43.1791 30.4525C43.0968 30.4525 43.0897 30.4592 43.0897 30.5373C43.0897 30.6127 43.0812 30.6222 43.0131 30.6222C42.9426 30.6222 42.9365 30.63 42.9365 30.7211C42.9365 30.8153 42.9323 30.8201 42.8471 30.8201C42.7649 30.8201 42.7578 30.8268 42.7578 30.9049C42.7578 30.9803 42.7493 30.9897 42.6812 30.9897C42.6106 30.9897 42.6045 30.9975 42.6045 31.0886C42.6045 31.1797 42.5985 31.1876 42.5279 31.1876C42.4598 31.1876 42.4513 31.197 42.4513 31.2724C42.4513 31.3505 42.4442 31.3572 42.3619 31.3572C42.2768 31.3572 42.2726 31.3619 42.2726 31.4562C42.2726 31.5473 42.2665 31.5551 42.196 31.5551C42.1278 31.5551 42.1193 31.5645 42.1193 31.6399C42.1193 31.7149 42.1107 31.7248 42.0443 31.7248C41.9784 31.7248 41.9684 31.7358 41.9613 31.8166C41.9543 31.8974 41.9433 31.9096 41.8704 31.9174C41.7974 31.9252 41.7874 31.9363 41.7874 32.0093C41.7874 32.0827 41.7785 32.0923 41.7108 32.0923C41.6426 32.0923 41.6341 32.1017 41.6341 32.1771C41.6341 32.2552 41.627 32.2619 41.5448 32.2619H41.4554V32.4298V32.5976L41.3724 32.6065C41.2994 32.6143 41.2884 32.6264 41.2814 32.7072C41.2743 32.788 41.2643 32.7991 41.1984 32.7991C41.1324 32.7991 41.1234 32.8091 41.1234 32.8821C41.1234 32.9551 41.1134 32.9662 41.0404 32.974C40.9674 32.9818 40.9564 32.994 40.9494 33.0748C40.9424 33.1556 40.9324 33.1666 40.8664 33.1666C40.8001 33.1666 40.7914 33.1765 40.7914 33.2515C40.7914 33.3269 40.7829 33.3363 40.7148 33.3363C40.6443 33.3363 40.6382 33.3441 40.6382 33.4352C40.6382 33.5295 40.6339 33.5342 40.5488 33.5342C40.4665 33.5342 40.4594 33.5409 40.4594 33.619C40.4594 33.6944 40.4509 33.7038 40.3828 33.7038C40.3147 33.7038 40.3062 33.7132 40.3062 33.7886C40.3062 33.864 40.2977 33.8734 40.2296 33.8734C40.1591 33.8734 40.153 33.8813 40.153 33.9724C40.153 34.0666 40.1487 34.0713 40.0636 34.0713C39.9813 34.0713 39.9742 34.0781 39.9742 34.1562C39.9742 34.2316 39.9657 34.241 39.8976 34.241C39.8271 34.241 39.821 34.2488 39.821 34.3399C39.821 34.431 39.8149 34.4389 39.7444 34.4389C39.6763 34.4389 39.6678 34.4483 39.6678 34.5237C39.6678 34.6018 39.6607 34.6085 39.5784 34.6085C39.4933 34.6085 39.489 34.6132 39.489 34.7075C39.489 34.7986 39.483 34.8064 39.4124 34.8064C39.3443 34.8064 39.3358 34.8158 39.3358 34.8912C39.3358 34.9693 39.3287 34.976 39.2464 34.976C39.1613 34.976 39.1571 34.9808 39.1571 35.075C39.1571 35.1661 39.151 35.174 39.0804 35.174C39.0123 35.174 39.0038 35.1834 39.0038 35.2588C39.0038 35.3342 38.9953 35.3436 38.9272 35.3436C38.8591 35.3436 38.8506 35.353 38.8506 35.4284C38.8506 35.5065 38.8435 35.5132 38.7612 35.5132C38.6761 35.5132 38.6718 35.5179 38.6718 35.6122C38.6718 35.7033 38.6658 35.7111 38.5952 35.7111C38.5271 35.7111 38.5186 35.7205 38.5186 35.7959C38.5186 35.8709 38.5099 35.8808 38.4436 35.8808C38.3777 35.8808 38.3677 35.8918 38.3606 35.9726C38.3536 36.0534 38.3426 36.0656 38.2696 36.0734C38.1967 36.0812 38.1866 36.0923 38.1866 36.1653C38.1866 36.2387 38.1778 36.2483 38.11 36.2483C38.0423 36.2483 38.0334 36.2579 38.0334 36.3313C38.0334 36.4043 38.0234 36.4154 37.9504 36.4232C37.8774 36.431 37.8665 36.4431 37.8594 36.5239C37.8524 36.6047 37.8424 36.6158 37.7764 36.6158C37.7101 36.6158 37.7014 36.6257 37.7014 36.7006C37.7014 36.7756 37.6928 36.7855 37.6264 36.7855C37.5605 36.7855 37.5505 36.7965 37.5434 36.8773C37.5364 36.9581 37.5254 36.9703 37.4525 36.9781C37.3795 36.9859 37.3695 36.997 37.3695 37.07C37.3695 37.1428 37.3603 37.153 37.2954 37.153C37.2238 37.153 37.2207 37.1588 37.2035 37.3226C37.1863 37.4865 37.1831 37.4923 37.1116 37.4923C37.0439 37.4923 37.0375 37.5009 37.0375 37.5912V37.6902H27.3079H17.5783V33.1666V28.6431H24.1285H30.6788V28.7279C30.6788 28.8033 30.6873 28.8127 30.7554 28.8127C30.8259 28.8127 30.832 28.8206 30.832 28.9117C30.832 29.0028 30.8381 29.0106 30.9086 29.0106C30.9767 29.0106 30.9852 29.0201 30.9852 29.0955C30.9852 29.1735 30.9923 29.1803 31.0746 29.1803C31.1597 29.1803 31.164 29.185 31.164 29.2792C31.164 29.3703 31.17 29.3782 31.2406 29.3782C31.3087 29.3782 31.3172 29.3876 31.3172 29.463C31.3172 29.5384 31.3257 29.5478 31.3938 29.5478C31.4615 29.5478 31.4704 29.5574 31.4704 29.6308C31.4704 29.7038 31.4804 29.7149 31.5534 29.7227C31.6264 29.7305 31.6374 29.7427 31.6444 29.8235C31.6514 29.9043 31.6615 29.9154 31.7274 29.9154C31.7934 29.9154 31.8024 29.9254 31.8024 29.9984C31.8024 30.0714 31.8124 30.0825 31.8854 30.0903C31.9584 30.098 31.9694 30.1102 31.9764 30.191C31.9834 30.2718 31.9934 30.2829 32.0594 30.2829C32.1257 30.2829 32.1344 30.2927 32.1344 30.3677C32.1344 30.4427 32.1431 30.4525 32.2094 30.4525C32.2753 30.4525 32.2853 30.4636 32.2924 30.5444C32.2994 30.6252 32.3104 30.6374 32.3834 30.6451C32.4563 30.6529 32.4664 30.664 32.4664 30.737C32.4664 30.81 32.4754 30.8201 32.5414 30.8201C32.6073 30.8201 32.6173 30.8311 32.6244 30.9119C32.631 30.9879 32.6442 31.0054 32.701 31.0126C32.7541 31.0194 32.7715 31.0387 32.7776 31.0974C32.7842 31.1603 32.7999 31.175 32.8686 31.1823C32.9415 31.1901 32.9516 31.2012 32.9516 31.2742C32.9516 31.3472 32.9606 31.3572 33.0266 31.3572C33.0925 31.3572 33.1025 31.3683 33.1096 31.4491C33.1162 31.5257 33.1293 31.5425 33.1878 31.5499C33.2424 31.5569 33.258 31.5738 33.258 31.626C33.258 31.7187 33.2915 31.7337 33.4499 31.7118C33.5745 31.6946 33.5876 31.686 33.5948 31.6169C33.6027 31.5413 33.6037 31.541 33.839 31.5329L34.0752 31.5247V31.441V31.3572H34.3306H34.5859V31.2724C34.5859 31.1898 34.5892 31.1876 34.71 31.1876C34.7783 31.1876 34.8869 31.1796 34.9513 31.1698C35.0537 31.1543 35.0693 31.1428 35.0761 31.0779C35.0838 31.0046 35.0864 31.0037 35.3201 30.9957L35.5563 30.9876V30.9038C35.5563 30.8214 35.5585 30.8201 35.6932 30.8201C35.7685 30.8201 35.8834 30.812 35.9486 30.8021C36.0492 30.7868 36.0671 30.7746 36.0671 30.7211C36.0671 30.6676 36.0849 30.6554 36.1856 30.6401C36.2507 30.6302 36.3599 30.6222 36.4282 30.6222C36.549 30.6222 36.5523 30.6199 36.5523 30.5373V30.4525H36.7949H37.0375V30.3677C37.0375 30.2854 37.0411 30.2829 37.1588 30.2826C37.2255 30.2825 37.3404 30.2744 37.4141 30.2646C37.531 30.249 37.5482 30.2386 37.5482 30.1837C37.5482 30.1113 37.6358 30.0858 37.8866 30.0853C38.0327 30.085 38.0334 30.0845 38.0334 30.0002V29.9154H38.276H38.5186V29.8344C38.5186 29.7595 38.5275 29.7521 38.6371 29.7354C38.7023 29.7255 38.8114 29.7174 38.8797 29.7174C39.0006 29.7174 39.0038 29.7152 39.0038 29.6326V29.5478H39.2592H39.5146V29.463V29.3782H39.7025C39.8059 29.3782 39.9438 29.3701 40.009 29.3602C40.1186 29.3436 40.1275 29.3361 40.1275 29.2612V29.1803H40.3828H40.6382V29.0955C40.6382 29.0129 40.6414 29.0106 40.7623 29.0106C40.8306 29.0106 40.9398 29.0026 41.0049 28.9927C41.1055 28.9774 41.1234 28.9652 41.1234 28.9117C41.1234 28.8582 41.1413 28.846 41.2419 28.8307C41.307 28.8208 41.4162 28.8127 41.4845 28.8127C41.6054 28.8127 41.6086 28.8105 41.6086 28.7279V28.6431H41.8512H42.0938V28.5622C42.0938 28.4858 42.1011 28.4804 42.2279 28.4635C42.3016 28.4537 42.4165 28.4456 42.4832 28.4455C42.6009 28.4452 42.6045 28.4427 42.6045 28.3604V28.2756H42.8471H43.0897V28.1908V28.1059H43.3323H43.575V28.0251C43.575 27.9486 43.5823 27.9432 43.709 27.9264C43.7828 27.9165 43.8977 27.9084 43.9644 27.9083C44.0821 27.908 44.0857 27.9055 44.0857 27.8232V27.7384H44.3283H44.5709V27.6536C44.5709 27.5727 44.5759 27.5688 44.6794 27.5685C44.7391 27.5684 44.8483 27.5603 44.922 27.5505C45.0488 27.5336 45.0561 27.5282 45.0561 27.4518V27.3709H45.2987H45.5413V27.286V27.2012H45.7089H45.8765L45.8685 27.2931ZM53.2279 29.364V29.5478H53.1513C53.0767 29.5478 53.0747 29.5514 53.0747 29.6852C53.0747 29.7608 53.0675 29.881 53.0587 29.9523C53.0446 30.0657 53.0342 30.083 52.9757 30.0905C52.9094 30.099 52.9086 30.1019 52.9014 30.3606L52.894 30.6222H52.8193H52.7446L52.7373 30.8978C52.73 31.1718 52.7296 31.1735 52.663 31.1821C52.6045 31.1896 52.5941 31.2069 52.58 31.3203C52.5712 31.3916 52.564 31.5118 52.564 31.5874C52.564 31.7212 52.562 31.7248 52.4874 31.7248H52.4108V31.9933V32.2619H52.3341H52.2575V32.4841C52.2575 32.6064 52.2502 32.7654 52.2413 32.8376C52.2275 32.9489 52.2165 32.9687 52.1682 32.9687C52.1188 32.9687 52.1093 32.9879 52.0953 33.1172C52.0865 33.1988 52.0791 33.3642 52.079 33.4847L52.0788 33.7038H52.0029H51.9271L51.9199 34.0643L51.9128 34.4247L51.8458 34.4333C51.7873 34.4409 51.7769 34.4582 51.7629 34.5716C51.754 34.6429 51.7468 34.8012 51.7468 34.9235V35.1457H51.6702H51.5936V35.8808V36.6158H51.669C51.7436 36.6158 51.7444 36.6176 51.7519 36.7925C51.7596 36.9692 51.7596 36.9692 51.8426 36.9781L51.9255 36.987V37.1548C51.9255 37.3216 51.926 37.3226 52.0006 37.3226C52.0665 37.3226 52.0765 37.3337 52.0835 37.4145C52.0915 37.5064 52.0915 37.5064 52.2511 37.5148C52.4074 37.523 52.4108 37.5249 52.4108 37.6031C52.4108 37.6796 52.417 37.6836 52.564 37.702C52.702 37.7193 52.7172 37.7277 52.7172 37.7865C52.7172 37.8456 52.732 37.8535 52.8742 37.8699C53.0742 37.893 53.5833 37.893 53.7578 37.8697C53.8757 37.8541 53.8919 37.8441 53.8919 37.7874C53.8919 37.7289 53.9073 37.7211 54.0579 37.7033C54.2182 37.6843 54.2239 37.6809 54.2239 37.6048C54.2239 37.5296 54.2308 37.5252 54.3771 37.5064C54.5251 37.4874 54.5303 37.4839 54.5303 37.4047C54.5303 37.333 54.5397 37.3226 54.6044 37.3226C54.676 37.3226 54.6791 37.3168 54.6963 37.153C54.7135 36.9892 54.7166 36.9834 54.7882 36.9834H54.8623V36.7996C54.8623 36.6551 54.8705 36.6158 54.9006 36.6158C54.9337 36.6158 54.9389 36.5169 54.9389 35.8949C54.9389 35.2729 54.9337 35.174 54.9006 35.174C54.8685 35.174 54.8623 35.1143 54.8623 34.8064V34.4389H54.7888H54.7152L54.6969 34.0871L54.6786 33.7353L54.6108 33.7266L54.5431 33.7179L54.5359 33.3575L54.5288 32.997H54.4529H54.3771V32.7607C54.3771 32.6306 54.3698 32.4652 54.3609 32.3931C54.3471 32.2818 54.336 32.2619 54.2878 32.2619C54.2383 32.2619 54.2289 32.2427 54.2149 32.1135C54.206 32.0319 54.1987 31.911 54.1986 31.8449C54.1983 31.7303 54.1948 31.7248 54.1217 31.7248H54.0451V31.4562V31.1876H53.9685C53.8939 31.1876 53.8919 31.184 53.8919 31.0502C53.8919 30.9746 53.8847 30.8544 53.8758 30.7831C53.8618 30.6697 53.8514 30.6524 53.7928 30.6449C53.7266 30.6364 53.7258 30.6335 53.7186 30.3748L53.7112 30.1133H53.6356H53.5599V29.9154V29.7174H53.4833C53.4102 29.7174 53.4067 29.7119 53.4065 29.5973C53.4064 29.5312 53.399 29.4103 53.3901 29.3287C53.3749 29.1884 53.37 29.1803 53.301 29.1803C53.2281 29.1803 53.2279 29.1807 53.2279 29.364Z" fill="black"/>
</svg>
