<svg width="9" height="11" viewBox="0 0 9 11" fill="none" xmlns="http://www.w3.org/2000/svg">
<path d="M0 0V11H9V0H0ZM0.9 0.846154H8.1V10.1538H0.9V0.846154ZM4.2327 3.10708C4.08477 3.10613 3.94094 3.1527 3.825 3.23908C3.7107 3.33004 3.65985 3.44215 3.6279 3.55638C3.5667 3.78485 3.58425 4.02092 3.6423 4.28365C3.7107 4.59123 3.906 4.96142 4.06395 5.31512C3.98295 5.63708 3.96225 5.92308 3.83895 6.2535C3.73365 6.53781 3.5982 6.70154 3.47355 6.95454C3.19005 7.05523 2.85255 7.11446 2.6298 7.24519C2.38905 7.38565 2.178 7.54135 2.05335 7.76092C1.92825 7.98092 1.9422 8.29146 2.10915 8.51442C2.1896 8.63347 2.3076 8.72591 2.44665 8.77885C2.5929 8.83342 2.75085 8.83512 2.88315 8.79196C3.14865 8.70608 3.3363 8.51442 3.5154 8.28977C3.6828 8.08162 3.80025 7.72792 3.9519 7.44362C4.17825 7.37254 4.3416 7.28285 4.58415 7.23208C4.8375 7.17919 5.00805 7.20373 5.24565 7.17919C5.34735 7.28835 5.4333 7.4635 5.5404 7.54938C5.75505 7.72454 5.9904 7.86331 6.27165 7.87981C6.5529 7.89673 6.83415 7.73088 6.98895 7.48296H7.00335V7.47027C7.07175 7.35773 7.119 7.23546 7.11585 7.09965C7.10747 6.96148 7.04775 6.83046 6.9471 6.72946C6.7626 6.54458 6.5268 6.49677 6.2721 6.46504C6.075 6.4405 5.80095 6.5065 5.56875 6.51792C5.3649 6.26535 5.16285 6.07496 4.9779 5.75131C4.878 5.57615 4.8519 5.42723 4.7673 5.24869C4.8321 4.961 4.9608 4.64073 4.9779 4.38942C4.99905 4.08523 4.9869 3.8225 4.89375 3.58304C4.84626 3.45512 4.76386 3.34118 4.6548 3.25262C4.53976 3.16277 4.39613 3.11156 4.24665 3.10708H4.2327ZM4.5279 6.24038C4.6089 6.37408 4.70925 6.45869 4.7952 6.58435C4.66875 6.6055 4.572 6.58435 4.44375 6.61058C4.4226 6.61565 4.40865 6.63173 4.3875 6.63723C4.41405 6.57081 4.44735 6.53146 4.4721 6.46504C4.5 6.38762 4.5018 6.31823 4.5279 6.24038ZM6.1875 7.09965C6.3387 7.11785 6.39315 7.1445 6.4125 7.15254C6.4089 7.15931 6.4179 7.15762 6.4125 7.16608C6.35625 7.25365 6.35085 7.24646 6.31395 7.24519C6.28425 7.2435 6.16995 7.18596 6.06105 7.11277C6.09255 7.11446 6.15915 7.09585 6.1875 7.09965ZM3.0375 7.76092C3.01275 7.79562 2.9916 7.87642 2.9673 7.90604C2.83005 8.07823 2.7036 8.15735 2.6721 8.17046C2.6667 8.16412 2.68065 8.17046 2.6721 8.15777H2.6577C2.61225 8.09642 2.6244 8.12096 2.6577 8.06469C2.691 8.00885 2.79675 7.89462 2.98125 7.78715C2.9952 7.77869 3.02355 7.76896 3.0375 7.76092Z" fill="white" fill-opacity="0.9"/>
</svg>
