<svg width="49" height="49" viewBox="0 0 49 49" fill="none" xmlns="http://www.w3.org/2000/svg">
<path d="M17.9404 1.16387C16.8817 1.37762 15.0064 2.5048 12.9852 4.1464C11.6738 5.21515 8.59386 8.29504 7.52511 9.60652C5.80561 11.7245 4.73686 13.5219 4.53261 14.6686C4.46468 15.0377 4.44521 19.7791 4.46468 28.8535C4.48416 41.6685 4.50363 42.533 4.66893 43.0774C5.17433 44.7579 6.44686 46.2836 7.93361 46.9928C9.39091 47.6825 8.57486 47.6436 21.5842 47.6436C32.6892 47.6436 33.3789 47.6341 33.9717 47.4688C36.0607 46.876 37.8482 45.098 38.3825 43.0774C38.4699 42.7568 38.5668 41.9117 38.6058 41.2021L38.6642 39.9196H37.1095H35.5454L35.5064 41.1536C35.4774 42.2224 35.4385 42.4556 35.2442 42.8347C34.9431 43.4275 34.4087 43.9614 33.8259 44.2725L33.3399 44.5347L21.6421 44.5637L9.94428 44.5831L9.40041 44.3404C8.73018 44.0293 8.19581 43.5244 7.85571 42.8831L7.59351 42.3972L7.56406 28.7371L7.54458 15.0671L10.3818 15.0187C13.5491 14.9702 13.8602 14.9213 15.0743 14.29C15.9972 13.8141 17.1923 12.619 17.6683 11.696C18.3 10.4815 18.3485 10.1708 18.3969 7.00352L18.4454 4.16634L25.8972 4.18582L33.3395 4.21479L33.8254 4.47699C34.4666 4.81709 34.972 5.35147 35.2732 6.0122L35.5259 6.54657V14.6786V22.8201H37.0806H38.6447L38.6058 14.5327C38.5768 5.33199 38.6153 5.92479 37.8966 4.45752C37.4207 3.49564 36.2545 2.32002 35.2832 1.81462C33.8743 1.08597 34.3113 1.11494 25.9076 1.09547C21.7295 1.08597 18.1832 1.11542 17.9404 1.16387Z" fill="white"/>
<path d="M16.1041 24.5301C15.4239 24.7144 15.0258 24.9576 14.5494 25.5014C13.8208 26.337 13.8108 26.3759 13.8108 31.3696C13.8108 36.548 13.8008 36.4701 14.7242 37.403C15.725 38.3939 14.4136 38.3165 29.3072 38.3165C44.2013 38.3165 42.8898 38.3944 43.8902 37.403C44.8131 36.4701 44.8036 36.548 44.8036 31.3696C44.8036 26.1911 44.8136 26.269 43.8906 25.3366C42.8903 24.3358 44.2407 24.4232 29.5019 24.4037C18.4553 24.3842 16.5511 24.4037 16.1041 24.5301ZM23.3326 27.7558C24.275 28.1928 24.6346 28.7661 24.6441 29.8154C24.6441 30.612 24.3719 31.2048 23.8181 31.5933C23.2253 32.0013 22.5261 32.1472 21.1267 32.1472H19.8832V33.7018V35.256H19.1545H18.4259V31.3601V27.4641L20.6408 27.5031C22.7009 27.5321 22.8757 27.5515 23.3326 27.7558ZM31.0761 27.5905C31.8337 27.7458 32.7376 28.2123 33.0967 28.6203C33.2715 28.8146 33.5337 29.2226 33.6701 29.5237C33.9033 30.0097 33.9228 30.165 33.9228 31.3211C33.9228 32.4968 33.9033 32.6231 33.6506 33.167C33.1746 34.1873 32.407 34.7896 31.183 35.1102C30.7654 35.2171 30.0658 35.256 28.4142 35.256H26.1988V31.3696V27.4831H28.3847C29.5993 27.4836 30.7844 27.5321 31.0761 27.5905ZM41.7436 28.1154V28.7466H39.3145H36.8858V29.6696V30.5925H39.0718H41.2577V31.2238V31.8555H39.0718H36.8858V33.5555V35.256H36.2056H35.5254V31.3696V27.4831H38.6343H41.7432V28.1154H41.7436Z" fill="white"/>
<path d="M19.8835 29.8254V30.9036L21.1755 30.8647C22.6523 30.8257 22.9145 30.7288 23.0798 30.1455C23.2256 29.6211 23.0314 29.1352 22.6039 28.9214C22.3317 28.7856 22.0111 28.7466 21.0786 28.7466H19.8835V29.8254Z" fill="white"/>
<path d="M27.7529 31.3701V33.9935H29.0449C30.5312 33.9935 31.1725 33.8477 31.6779 33.4007C32.1153 33.0216 32.3481 32.3319 32.3481 31.38C32.3481 30.3892 32.1828 29.8548 31.7458 29.4173C31.2309 28.8925 30.6286 28.7471 29.0449 28.7471H27.7529V31.3701Z" fill="white"/>
</svg>
