<svg viewBox="0 0 196 233" fill="none" xmlns="http://www.w3.org/2000/svg" preserveAspectRatio="none">
<path d="M0 0L184.794 -1.5281e-05L196 -1.5281e-05L196 233L11.0944 233L1.93963e-05 233L0 0Z" fill="#FFEA29"/>
<path d="M196 217.942C131.478 212.246 69.2854 211.862 14.8108 216.786C14.2639 216.826 14.0448 217.556 13.4945 217.596C9.10904 217.919 4.61572 218.264 -6.04987e-06 218.631" stroke="black" stroke-opacity="0.4" stroke-width="0.329412"/>
<path d="M198.35 86.5169C141.839 85.6858 86.2408 65.4325 27.6632 98.5691C18.2245 103.908 9.10076 110.922 0.349787 119.137" stroke="black" stroke-opacity="0.02" stroke-width="5.6"/>
<path d="M-1.65015 169.729C44.8036 168.986 104.855 176.119 160.168 135.078C177.398 122.294 189.107 108.011 197.172 92.732" stroke="black" stroke-opacity="0.5" stroke-width="0.3"/>
<path d="M8.84974 231.66C11.8218 229.769 15.0139 227.53 18.4803 224.857C52.6446 198.511 86.8319 90.9178 148.586 53.6327C161.827 45.6385 178.608 41.0218 197.35 38.2226" stroke="black" stroke-opacity="0.5" stroke-width="0.3" stroke-dasharray="1.65 1.65"/>
<path d="M0 12.1835C71.1642 20.3532 113.315 20.904 181.012 13.8405C181.559 13.7834 182.108 12.7376 182.659 12.6795C187.048 12.2164 191.545 11.7216 196.165 11.1953" stroke="black" stroke-opacity="0.4" stroke-width="0.329412"/>
</svg>