<svg width="196" height="233" viewBox="0 0 196 233" fill="none" xmlns="http://www.w3.org/2000/svg">
<mask id="mask0_2635_6155" style="mask-type:alpha" maskUnits="userSpaceOnUse" x="0" y="0" width="196" height="233">
<path d="M1.74241e-05 0L184.794 -1.5281e-05L196 -1.5281e-05L196 233L11.0944 233L-3.96877e-06 233L1.74241e-05 0Z" fill="url(#paint0_linear_2635_6155)"/>
</mask>
<g mask="url(#mask0_2635_6155)">
<g filter="url(#filter0_b_2635_6155)">
<path d="M0 0L184.794 -1.5281e-05L196 -1.5281e-05L196 233L11.0944 233L1.93963e-05 233L0 0Z" fill="url(#paint1_linear_2635_6155)"/>
</g>
<path d="M22.5481 222.631L22.2069 221.017H22.5297L22.8064 222.423L23.0946 221.017H23.625L23.9132 222.423L24.1899 221.017H24.5128L24.1738 222.631H23.655L23.3598 221.224L23.067 222.631H22.5481ZM25.0672 222.631L24.726 221.017H25.0488L25.3255 222.423L25.6137 221.017H26.1441L26.4323 222.423L26.709 221.017H27.0318L26.6929 222.631H26.174L25.8789 221.224L25.586 222.631H25.0672ZM27.5863 222.631L27.245 221.017H27.5679L27.8446 222.423L28.1328 221.017H28.6632L28.9514 222.423L29.2281 221.017H29.5509L29.212 222.631H28.6931L28.398 221.224L28.1051 222.631H27.5863ZM29.8298 222.308H30.1526V222.631H29.8298V222.308ZM31.96 221.017V221.305H31.3904V222.631H31.0791V221.305H30.5073V221.017H31.96ZM32.3351 221.017H33.548V221.305H32.6464V221.655H33.4788V221.944H32.6464V222.343H33.5711V222.631H32.3351V221.017ZM35.9287 222.631H35.6174V221.183L35.1977 222.631H34.725L34.303 221.183V222.631H33.9917V221.017H34.5636L34.9602 222.4L35.3591 221.017H35.9287V222.631ZM36.714 222.008V222.631H36.4027V221.017H37.1637C37.5096 221.017 37.694 221.245 37.694 221.51C37.694 221.768 37.5096 222.008 37.1637 222.008H36.714ZM36.714 221.72H37.1406C37.2813 221.72 37.3781 221.642 37.3781 221.513C37.3781 221.381 37.2813 221.305 37.1406 221.305H36.714V221.72ZM38.0905 221.017H38.4018V221.971C38.4018 222.218 38.5448 222.366 38.7685 222.366C38.9921 222.366 39.1328 222.218 39.1328 221.971V221.017H39.4441V221.978C39.4441 222.386 39.1835 222.654 38.7685 222.654C38.3511 222.654 38.0905 222.386 38.0905 221.978V221.017ZM40.4863 221.27C40.3318 221.27 40.2327 221.344 40.2327 221.443C40.2327 221.572 40.3779 221.639 40.6085 221.683C41.0028 221.757 41.1781 221.888 41.1781 222.165C41.1781 222.446 40.9267 222.654 40.5347 222.654C40.3756 222.654 40.228 222.617 40.092 222.543C39.9559 222.467 39.8568 222.34 39.7945 222.163L40.0712 221.99C40.1358 222.239 40.3041 222.37 40.5416 222.37C40.7353 222.37 40.8622 222.294 40.8622 222.177C40.8622 222.057 40.7699 221.99 40.4932 221.946C40.1127 221.888 39.9214 221.72 39.9214 221.441C39.9214 221.194 40.1566 220.994 40.5047 220.994C40.7907 220.994 41.019 221.134 41.1089 221.39L40.8391 221.547C40.7884 221.363 40.6708 221.27 40.4863 221.27ZM41.5478 222.308H41.8706V222.631H41.5478V222.308ZM42.193 222.631L42.8433 221.017H43.2837L43.9317 222.631H43.5881L43.4474 222.267H42.6773L42.5389 222.631H42.193ZM42.7856 221.985H43.3413L43.0623 221.263L42.7856 221.985ZM44.9126 222.654C44.463 222.661 44.1033 222.306 44.1102 221.824C44.101 221.36 44.4814 220.984 44.9403 220.994C45.3669 220.994 45.6367 221.217 45.722 221.556L45.4176 221.653C45.3692 221.413 45.1916 221.282 44.9449 221.282C44.6567 221.282 44.4284 221.506 44.4284 221.824C44.4284 222.144 44.6382 222.366 44.9403 222.366C45.1986 222.366 45.3346 222.181 45.3623 222.047H44.7097V221.778H45.7566V222.631H45.4868V222.297C45.3876 222.52 45.1962 222.654 44.9126 222.654ZM46.1984 221.017H47.4113V221.305H46.5097V221.655H47.3421V221.944H46.5097V222.343H47.4344V222.631H46.1984V221.017ZM48.1663 221.231V222.631H47.8551V221.017H48.3923L49.0633 222.416V221.017H49.3746V222.631H48.8374L48.1663 221.231ZM50.1031 221.824C50.1031 222.163 50.3291 222.37 50.6196 222.37C50.924 222.37 51.1062 222.174 51.1592 221.895L51.4428 222.008C51.399 222.204 51.3045 222.361 51.1615 222.479C51.0185 222.596 50.8364 222.654 50.6173 222.654C50.1123 222.654 49.7849 222.299 49.7849 221.824C49.778 221.36 50.1492 220.984 50.6173 220.994C51.0393 220.994 51.2906 221.236 51.3644 221.533L51.0785 221.66C51.0324 221.427 50.8641 221.275 50.615 221.275C50.3291 221.275 50.1031 221.489 50.1031 221.824ZM51.9373 221.017L52.3408 221.699L52.7674 221.017H53.1133L52.4976 221.99V222.631H52.1863V221.99L51.5683 221.017H51.9373Z" fill="black"/>
<path d="M196 217.942C131.478 212.246 69.2854 211.862 14.8108 216.786C14.2639 216.826 14.0448 217.556 13.4945 217.596C9.10904 217.919 4.61572 218.264 -6.04987e-06 218.631" stroke="black" stroke-opacity="0.4" stroke-width="0.329412"/>
<path d="M198.35 86.5169C141.839 85.6858 86.2408 65.4325 27.6632 98.5691C18.2245 103.908 9.10076 110.922 0.349787 119.137" stroke="black" stroke-opacity="0.02" stroke-width="5.6"/>
<path d="M-1.65015 169.729C44.8036 168.986 104.855 176.119 160.168 135.078C177.398 122.294 189.107 108.011 197.172 92.732" stroke="black" stroke-opacity="0.5" stroke-width="0.3"/>
<path d="M8.84974 231.66C11.8218 229.769 15.0139 227.53 18.4803 224.857C52.6446 198.511 86.8319 90.9178 148.586 53.6327C161.827 45.6385 178.608 41.0218 197.35 38.2226" stroke="black" stroke-opacity="0.5" stroke-width="0.3" stroke-dasharray="1.65 1.65"/>
<path d="M0 11.184C71.1642 19.3537 113.315 19.9045 181.012 12.841C181.559 12.7839 182.108 11.7381 182.659 11.68C187.048 11.2169 191.545 10.7221 196.165 10.1958" stroke="black" stroke-opacity="0.4" stroke-width="0.329412"/>
<rect x="13.0002" y="6.63086" width="46" height="21" fill="#FFEA29"/>
<g clip-path="url(#clip0_2635_6155)">
<path fill-rule="evenodd" clip-rule="evenodd" d="M50.3256 14.6309H46.204L47.7093 16.9283L45.5894 19.8422C45.3702 20.1434 45.5988 20.5529 45.986 20.5529H51.0002L48.6388 16.9492L48.1912 16.2661L47.6012 15.3657H48.8462L48.4709 15.8816L48.9306 16.5394L50.3256 14.6309ZM48.1571 17.6114L49.6031 19.8181H46.5515L48.1571 17.6114ZM22.358 15.3886C22.3574 15.388 22.3567 15.3875 22.356 15.387C22.3521 15.3844 22.3473 15.3828 22.3421 15.3828H21.1007C21.0875 15.3828 21.0767 15.3727 21.0767 15.3603V14.7777C21.0767 14.7652 21.0875 14.7551 21.1007 14.7551H24.5259C24.5391 14.7551 24.5499 14.7652 24.5499 14.7777V15.0711C24.5499 15.2433 24.4131 15.3828 24.2445 15.3828H23.2807C23.2742 15.3828 23.2683 15.3853 23.264 15.3892C23.2595 15.3933 23.2568 15.399 23.2568 15.4054V17.4085H22.39C22.3767 17.4085 22.366 17.3984 22.366 17.3859V15.4054C22.366 15.3987 22.3629 15.3927 22.358 15.3886ZM28.7871 14.7551C28.8003 14.7551 28.8111 14.7652 28.8111 14.7777V15.3353C28.8111 15.3478 28.8003 15.3579 28.7871 15.3579H25.5372C25.524 15.3579 25.5133 15.3679 25.5133 15.3804V15.7276C25.5133 15.74 25.524 15.7502 25.5372 15.7502H28.666C28.7189 15.7502 28.7618 15.7905 28.7618 15.8403V16.2662C28.7618 16.3161 28.7189 16.3564 28.666 16.3564H25.5372C25.5295 16.3564 25.5226 16.3599 25.5182 16.3652C25.5175 16.3661 25.5168 16.3671 25.5162 16.3682C25.5151 16.37 25.5144 16.3719 25.5139 16.3739C25.5137 16.3747 25.5135 16.3756 25.5134 16.3765C25.5133 16.3773 25.5133 16.3781 25.5133 16.379V16.769C25.5133 16.7814 25.524 16.7915 25.5372 16.7915H28.8251C28.8383 16.7915 28.849 16.8016 28.849 16.814V16.9577C28.849 17.2066 28.6344 17.4085 28.3698 17.4085H25.3602C24.9632 17.4085 24.6415 17.1057 24.6415 16.7322V15.4314C24.6415 15.0579 24.9632 14.7551 25.3602 14.7551H28.7871ZM29.2152 14.7777C29.2152 14.7652 29.226 14.7551 29.2392 14.7551H30.4557C30.4644 14.7551 30.4725 14.7596 30.4767 14.7667L31.4231 16.3709C31.4322 16.3864 31.4558 16.3864 31.465 16.3709L32.4151 14.7667C32.4193 14.7596 32.4273 14.7551 32.436 14.7551H33.6071C33.6103 14.7551 33.6133 14.7557 33.6161 14.7568C33.6199 14.7582 33.6231 14.7605 33.6256 14.7633C33.629 14.7672 33.6311 14.7722 33.6311 14.7777V16.9577C33.6311 17.2066 33.4166 17.4085 33.1519 17.4085H32.7832C32.7747 17.4085 32.7673 17.4043 32.763 17.398C32.7606 17.3945 32.7593 17.3904 32.7593 17.3859V15.657C32.7593 15.6339 32.7267 15.6258 32.7145 15.6459L31.6556 17.3971C31.6513 17.4042 31.6434 17.4085 31.6347 17.4085H31.1888C31.1802 17.4085 31.1722 17.4042 31.168 17.3971L30.1091 15.6459C30.0969 15.6258 30.0643 15.6339 30.0643 15.657V17.3859C30.0643 17.3984 30.0535 17.4085 30.0403 17.4085H29.2392C29.226 17.4085 29.2152 17.3984 29.2152 17.3859V14.7777ZM34.9715 16.524C34.9583 16.524 34.9475 16.5341 34.9475 16.5466V16.9577C34.9475 17.2066 34.733 17.4085 34.4683 17.4085H34.0883C34.0751 17.4085 34.0644 17.3984 34.0644 17.3859V14.7777C34.0644 14.7652 34.0751 14.7551 34.0883 14.7551H36.1794C36.4321 14.7551 36.6431 14.7777 36.8125 14.8229C36.9818 14.8657 37.1169 14.9263 37.218 15.0048C37.3191 15.0832 37.3898 15.1748 37.4302 15.2794C37.4732 15.384 37.4947 15.4969 37.4947 15.6182V15.6539C37.4947 15.7727 37.4732 15.8857 37.4302 15.9926C37.3873 16.0973 37.3153 16.1888 37.2142 16.2673C37.1131 16.3457 36.978 16.4087 36.8086 16.4563C36.6418 16.5015 36.4321 16.524 36.1794 16.524H34.9715ZM34.9475 15.9059C34.9475 15.9184 34.9583 15.9285 34.9715 15.9285H36.1642C36.3032 15.9285 36.4056 15.9047 36.4713 15.8571C36.5395 15.8096 36.5736 15.7406 36.5736 15.6503V15.6396C36.5736 15.5492 36.5408 15.4803 36.4751 15.4328C36.4094 15.3828 36.3057 15.3579 36.1642 15.3579H34.9715C34.9684 15.3579 34.9654 15.3584 34.9628 15.3594C34.9603 15.3603 34.958 15.3616 34.956 15.3631C34.9509 15.3673 34.9475 15.3735 34.9475 15.3804V15.9059ZM43.2135 17.4548C42.9683 17.4548 42.756 17.4394 42.5767 17.4085C42.3997 17.3776 42.2506 17.3371 42.1294 17.2872C42.0081 17.2349 41.9094 17.1767 41.8336 17.1125C41.7602 17.0459 41.7034 16.9782 41.6631 16.9092C41.6226 16.8379 41.5961 16.7677 41.5835 16.6988C41.5709 16.6298 41.5645 16.5656 41.5645 16.5062V16.467H42.4857C42.488 16.5074 42.4982 16.5526 42.5159 16.6025C42.536 16.65 42.5752 16.6952 42.6335 16.738C42.6941 16.7808 42.7786 16.8165 42.8875 16.845C42.996 16.8735 43.1413 16.8878 43.3233 16.8878H43.3764C43.5606 16.8878 43.7074 16.8807 43.816 16.8664C43.9271 16.8498 44.0105 16.8284 44.0662 16.8022C44.1243 16.7737 44.1609 16.7428 44.1762 16.7095C44.1789 16.7043 44.1815 16.699 44.1838 16.6938C44.1853 16.6906 44.1866 16.6873 44.1878 16.6841C44.1893 16.6805 44.1905 16.6768 44.1918 16.6731C44.1926 16.6706 44.1934 16.6682 44.1941 16.6657C44.1961 16.6587 44.1978 16.6517 44.1991 16.6447C44.2006 16.6367 44.2016 16.6285 44.2022 16.6204C44.2025 16.6156 44.2027 16.6109 44.2027 16.6061C44.2027 16.568 44.1938 16.5336 44.1762 16.5026C44.1609 16.4717 44.1281 16.4444 44.0776 16.4206C44.027 16.3968 43.9526 16.379 43.854 16.3671C43.7555 16.3529 43.6252 16.3433 43.4636 16.3386L42.9784 16.3279C42.7154 16.3208 42.4955 16.2958 42.3188 16.253C42.1418 16.2102 42.0003 16.1543 41.8944 16.0854C41.7881 16.0141 41.7123 15.9332 41.6669 15.8429C41.6238 15.7525 41.6025 15.6551 41.6025 15.5504V15.5183C41.6025 15.4185 41.6212 15.321 41.6593 15.2259C41.6997 15.1284 41.7755 15.0416 41.8868 14.9655C42.0003 14.8895 42.1571 14.8277 42.3567 14.7801C42.5563 14.7326 42.8166 14.7088 43.1376 14.7088H43.3992C43.7327 14.7088 44.0056 14.7337 44.2178 14.7837C44.43 14.8336 44.5968 14.899 44.7183 14.9798C44.8396 15.0583 44.9229 15.1474 44.9684 15.2473C45.0138 15.3471 45.0367 15.447 45.0367 15.5469C45.0367 15.5564 45.0327 15.565 45.0262 15.5714C45.0193 15.5783 45.0095 15.5825 44.9986 15.5825H44.1193C44.1141 15.5564 44.1027 15.5255 44.0851 15.4898C44.07 15.4541 44.0346 15.4197 43.9791 15.3864C43.9259 15.3531 43.8464 15.3246 43.7402 15.3008C43.6342 15.277 43.4886 15.2651 43.3044 15.2651H43.2436C43.0718 15.2651 42.9367 15.2723 42.8382 15.2865C42.742 15.2984 42.67 15.3151 42.6221 15.3365C42.574 15.3579 42.5436 15.3828 42.5312 15.4114C42.5296 15.4145 42.5282 15.4177 42.5268 15.4208C42.5263 15.4222 42.5257 15.4235 42.5251 15.4249C42.5245 15.4264 42.524 15.4279 42.5235 15.4294C42.52 15.4388 42.5173 15.4483 42.5155 15.458C42.5133 15.4696 42.5122 15.4813 42.5122 15.4934C42.5122 15.5219 42.5183 15.5492 42.5312 15.5754C42.5463 15.6016 42.5767 15.6253 42.6221 15.6467C42.6676 15.6681 42.7332 15.6859 42.8192 15.7002C42.9051 15.7121 43.02 15.7192 43.1641 15.7216L43.6379 15.7288C43.9033 15.7335 44.1293 15.7525 44.3165 15.7858C44.5059 15.8191 44.6598 15.8678 44.7788 15.932C44.9001 15.9962 44.9886 16.0771 45.0441 16.1745C45.0997 16.272 45.1274 16.3861 45.1274 16.5169V16.5668C45.1274 16.6762 45.107 16.7844 45.0669 16.8914C45.0289 16.996 44.9506 17.0911 44.8318 17.1767C44.7156 17.2599 44.5489 17.3276 44.3315 17.38C44.1141 17.4299 43.8286 17.4548 43.475 17.4548H43.2135ZM39.4797 17.4516C39.2312 17.4516 39.0162 17.4277 38.8347 17.3797C38.6533 17.3292 38.498 17.2636 38.3687 17.1828C38.2419 17.1021 38.1376 17.01 38.0555 16.9065C37.976 16.8005 37.9126 16.6932 37.8654 16.5847C37.8206 16.4736 37.7896 16.3638 37.7722 16.2553C37.7573 16.1468 37.7498 16.0483 37.7498 15.96V14.7477H38.6222V15.907C38.6222 15.9979 38.6347 16.0912 38.6595 16.1872C38.6844 16.283 38.7303 16.3714 38.7974 16.4522C38.8645 16.5304 38.9577 16.5948 39.077 16.6452C39.1964 16.6957 39.3505 16.721 39.5394 16.721C39.7258 16.721 39.8774 16.6957 39.9942 16.6452C40.1135 16.5948 40.2067 16.5304 40.2738 16.4522C40.3409 16.3714 40.3869 16.283 40.4118 16.1872C40.4367 16.0912 40.449 15.9979 40.449 15.907V14.7477H41.3177V15.96C41.3177 16.0483 41.3078 16.1468 41.2879 16.2553C41.2705 16.3638 41.2382 16.4736 41.191 16.5847C41.1438 16.6932 41.0791 16.8005 40.9971 16.9065C40.9176 17.01 40.8144 17.1021 40.6876 17.1828C40.5609 17.2636 40.4093 17.3292 40.2328 17.3797C40.0564 17.4277 39.8501 17.4516 39.6139 17.4516H39.4797ZM26.3621 20.5685C26.1316 20.5685 25.9297 20.5483 25.7563 20.508C25.5828 20.4652 25.4334 20.4094 25.3079 20.3406C25.1824 20.2717 25.0785 20.1921 24.9964 20.1019C24.9142 20.0116 24.8481 19.9178 24.7979 19.8205C24.7499 19.7207 24.7157 19.621 24.6952 19.5212C24.6746 19.4191 24.6644 19.3241 24.6644 19.2363V19.1365C24.6644 19.051 24.6723 18.9596 24.6883 18.8623C24.7066 18.7625 24.7385 18.664 24.7842 18.5666C24.8321 18.4692 24.896 18.3766 24.9758 18.2887C25.058 18.1985 25.163 18.119 25.2908 18.0501C25.4185 17.9812 25.5726 17.9266 25.7528 17.8862C25.9331 17.8458 26.1453 17.8257 26.3895 17.8257H27.3C27.5374 17.8257 27.7439 17.8423 27.9196 17.8755C28.0953 17.9088 28.2448 17.9527 28.368 18.0073C28.4912 18.062 28.5928 18.1249 28.6726 18.1961C28.7525 18.265 28.8153 18.3362 28.8609 18.4099C28.9065 18.4835 28.9385 18.5571 28.9567 18.6307C28.975 18.7043 28.9853 18.7708 28.9876 18.8302V18.8337H28.1386C28.136 18.8254 28.1305 18.8125 28.1224 18.7952C28.1166 18.783 28.1095 18.7685 28.101 18.7518C28.0805 18.7091 28.0383 18.6663 27.9744 18.6236C27.9127 18.5785 27.8226 18.5393 27.704 18.506C27.5876 18.4728 27.4301 18.4562 27.2316 18.4562C26.2743 18.4562 26.1145 18.4764 25.989 18.5167C25.8635 18.5571 25.7642 18.6105 25.6912 18.677C25.6205 18.7435 25.5703 18.8195 25.5406 18.905C25.5132 18.9905 25.4995 19.0795 25.4995 19.1722V19.2114C25.4995 19.2968 25.5167 19.3823 25.5509 19.4678C25.5851 19.5533 25.6399 19.6305 25.7152 19.6994C25.7928 19.7658 25.892 19.8205 26.013 19.8632C26.1362 19.9036 26.2857 19.9238 27.2247 19.9238C27.4142 19.9238 27.5716 19.9083 27.6971 19.8775C27.8249 19.8442 27.9264 19.8062 28.0017 19.7635C28.077 19.7207 28.1307 19.6792 28.1626 19.6388C28.1823 19.6125 28.1959 19.5906 28.2035 19.5733C28.2082 19.5625 28.2105 19.5535 28.2105 19.5462V19.5391H27.7031C27.4313 19.5391 27.211 19.3142 27.211 19.0368H28.623C28.8338 19.0368 29.0047 19.2112 29.0047 19.4264V20.5222H28.5254C28.5232 20.4985 28.5186 20.4688 28.5117 20.4332C28.5049 20.3975 28.4969 20.3607 28.4878 20.3227C28.4827 20.3002 28.4773 20.2785 28.4715 20.2574C28.4669 20.2407 28.462 20.2245 28.457 20.2088L28.4536 20.1978L28.452 20.1925L28.4481 20.1802C28.4435 20.1659 28.439 20.1525 28.4344 20.1398C28.4305 20.1289 28.4266 20.1187 28.4227 20.109C28.3954 20.1422 28.3531 20.185 28.2961 20.2372C28.2391 20.2895 28.1615 20.3406 28.0633 20.3904C27.9675 20.4379 27.8477 20.4795 27.704 20.5151C27.5625 20.5507 27.3936 20.5685 27.1974 20.5685H26.3621ZM22.0175 20.0378H23.5612L23.7902 20.5008C23.7967 20.5139 23.8099 20.5222 23.8243 20.5222H24.5345C24.5631 20.5222 24.5816 20.4911 24.5682 20.4651L23.2977 17.872H22.2639L21.0043 20.4659C20.9917 20.4918 21.0101 20.5222 21.0385 20.5222H21.7642C21.7789 20.5222 21.7922 20.5136 21.7986 20.5002L22.0175 20.0378ZM22.774 18.4455L22.3016 19.4393H23.2669L22.774 18.4455ZM33.5454 17.8875C33.5454 17.8748 33.5345 17.8646 33.5212 17.8646H30.0491C29.6469 17.8646 29.3209 18.1714 29.3209 18.5498V19.8678C29.3209 20.2462 29.6469 20.5529 30.0491 20.5529H33.0983C33.3664 20.5529 33.5838 20.3484 33.5838 20.0962V19.9507C33.5838 19.938 33.5729 19.9278 33.5596 19.9278H30.2284C30.215 19.9278 30.2041 19.9176 30.2041 19.905V19.5098C30.2041 19.5068 30.2047 19.5038 30.206 19.5012C30.2067 19.4994 30.2077 19.4977 30.2089 19.4962C30.2104 19.4943 30.2122 19.4927 30.2141 19.4913C30.2155 19.4904 30.217 19.4896 30.2186 19.4889C30.2216 19.4877 30.2249 19.487 30.2284 19.487H33.3984C33.452 19.487 33.4955 19.4461 33.4955 19.3957V18.9641C33.4955 18.9136 33.452 18.8727 33.3984 18.8727H30.2284C30.2234 18.8727 30.2188 18.8713 30.2149 18.8689C30.2084 18.8648 30.2041 18.8578 30.2041 18.8499V18.4981C30.2041 18.4918 30.2069 18.4861 30.2112 18.482C30.2157 18.4778 30.2217 18.4753 30.2284 18.4753H33.5212C33.5345 18.4753 33.5454 18.465 33.5454 18.4524V17.8875ZM35.0478 18.0326C34.9475 17.9298 34.8112 17.872 34.6691 17.872H34.0012V20.5222H34.7885V18.844L36.6697 20.5222H37.457V17.872H37.0633H36.6697V19.4611L35.0478 18.0326ZM38.8093 20.5044C38.9896 20.5472 39.203 20.5685 39.4494 20.5685H39.9715C40.2133 20.5685 40.4233 20.5495 40.6012 20.5115C40.7815 20.4735 40.9344 20.4248 41.0599 20.3655C41.1877 20.3037 41.2915 20.2349 41.3714 20.1589C41.4513 20.0805 41.5141 20.0021 41.5596 19.9238C41.6053 19.843 41.6361 19.7647 41.6521 19.6887C41.6703 19.6127 41.6795 19.5474 41.6795 19.4928V19.4536H40.834C40.8295 19.4678 40.8169 19.5011 40.7964 19.5533C40.7781 19.6032 40.737 19.6566 40.6731 19.7136C40.6093 19.7682 40.5168 19.8169 40.3959 19.8596C40.275 19.9024 40.1118 19.9238 39.9064 19.9238C39.7215 19.9238 39.1859 19.9012 39.0626 19.8561C38.9417 19.8086 38.8447 19.7492 38.7717 19.678C38.7009 19.6067 38.6508 19.5284 38.6211 19.4429C38.5937 19.3574 38.58 19.2755 38.58 19.1971V19.1544C38.58 19.0712 38.5925 18.9893 38.6176 18.9086C38.6451 18.8255 38.693 18.7518 38.7615 18.6877C38.8322 18.6212 38.928 18.5678 39.0489 18.5274C39.1699 18.487 39.7079 18.4668 39.8996 18.4668C40.1027 18.4668 40.2635 18.487 40.3822 18.5274C40.5031 18.5654 40.5956 18.6105 40.6595 18.6628C40.7257 18.7126 40.7689 18.7625 40.7896 18.8124C40.8123 18.8599 40.826 18.8919 40.8306 18.9086H41.676V18.8694C41.676 18.8171 41.668 18.7554 41.6521 18.6841C41.6361 18.6129 41.6053 18.5393 41.5596 18.4633C41.5164 18.3849 41.4547 18.3078 41.3748 18.2317C41.2973 18.1558 41.1957 18.0881 41.0702 18.0287C40.9447 17.967 40.7918 17.9183 40.6115 17.8827C40.4312 17.8447 40.2179 17.8257 39.9715 17.8257H39.4494C39.1984 17.8257 38.9816 17.847 38.7991 17.8898C38.6188 17.9325 38.4647 17.9895 38.337 18.0608C38.2115 18.1296 38.1099 18.2104 38.0324 18.303C37.9547 18.3932 37.8943 18.487 37.8509 18.5844C37.8099 18.6794 37.7813 18.7756 37.7654 18.8729C37.7517 18.9679 37.7448 19.0558 37.7448 19.1365V19.2398C37.7448 19.3182 37.7528 19.4061 37.7688 19.5034C37.7847 19.5984 37.8144 19.6958 37.8578 19.7955C37.9035 19.8929 37.9651 19.9879 38.0426 20.0805C38.1225 20.1731 38.2252 20.2562 38.3507 20.3299C38.4785 20.4011 38.6314 20.4593 38.8093 20.5044ZM41.5383 17.872L42.9769 19.4963V20.5222H43.7744V19.4963L45.1754 17.872H44.2752L43.3944 18.848L42.5274 17.872H41.5383Z" fill="black"/>
</g>
</g>
<defs>
<filter id="filter0_b_2635_6155" x="-26.7439" y="-26.7439" width="249.488" height="286.488" filterUnits="userSpaceOnUse" color-interpolation-filters="sRGB">
<feFlood flood-opacity="0" result="BackgroundImageFix"/>
<feGaussianBlur in="BackgroundImageFix" stdDeviation="13.372"/>
<feComposite in2="SourceAlpha" operator="in" result="effect1_backgroundBlur_2635_6155"/>
<feBlend mode="normal" in="SourceGraphic" in2="effect1_backgroundBlur_2635_6155" result="shape"/>
</filter>
<linearGradient id="paint0_linear_2635_6155" x1="101" y1="66.5" x2="100.5" y2="204.5" gradientUnits="userSpaceOnUse">
<stop stop-color="#FFEA29"/>
<stop offset="1" stop-color="#FFEA29"/>
</linearGradient>
<linearGradient id="paint1_linear_2635_6155" x1="101" y1="66.5" x2="100.5" y2="204.5" gradientUnits="userSpaceOnUse">
<stop stop-color="#FFEA29"/>
<stop offset="1" stop-color="#FFEA29"/>
</linearGradient>
<clipPath id="clip0_2635_6155">
<rect width="30" height="6" fill="white" transform="translate(21.0002 14.6309)"/>
</clipPath>
</defs>
</svg>
