<svg preserveAspectRatio="none" viewBox="0 0 230 184" fill="none" xmlns="http://www.w3.org/2000/svg">
<path d="M230 169.037C154.286 162.353 81.3042 161.902 17.38 167.682C16.7382 167.728 16.4811 168.584 15.8354 168.632C10.6891 169.011 5.41636 169.415 -5.31077e-05 169.846" stroke="white" stroke-opacity="0.4" stroke-width="0.386554"/>
<path d="M-37.6715 178.82C-37.6715 178.82 16.4319 103.181 64.5457 90.5262C112.66 77.8713 143.274 114.335 188.636 108.717C233.998 103.098 251.068 2.45964 251.068 2.45964" stroke="white" stroke-opacity="0.06" stroke-width="6.57142"/>
<path d="M-34.7334 148.798C-34.7334 148.798 -10.868 125.671 16.268 120.86C43.4041 116.049 83.5158 147.097 131.92 127.957C180.324 108.818 175.174 58.5149 197.843 24.0933C220.511 -10.3282 243.291 -18.3314 243.291 -18.3314" stroke="white" stroke-opacity="0.5" stroke-width="0.35204"/>
<path d="M-26.0567 180.556C-26.0567 180.556 -21.8434 171.613 -1.21954 163.834C19.4043 156.055 21.1266 165.401 42.7672 156.376C64.4079 147.352 97.489 95.6786 135.152 84.792C172.815 73.9054 240.581 112.423 276.48 94.6931" stroke="white" stroke-opacity="0.5" stroke-width="0.35204" stroke-dasharray="1.93 1.93"/>
<path d="M0 13.1238C83.5089 22.7106 132.971 23.357 212.412 15.0682C213.054 15.0012 213.698 13.7739 214.344 13.7057C219.495 13.1623 224.772 12.5817 230.193 11.9641" stroke="white" stroke-opacity="0.4" stroke-width="0.386554"/>
</svg>
