<svg width="180" height="930" viewBox="0 0 180 930" fill="none" xmlns="http://www.w3.org/2000/svg">
<g clip-path="url(#clip0_534_9755)">
<path fill-rule="evenodd" clip-rule="evenodd" d="M-11.6374 -34L23.0785 0.715923V37.4599L69.5478 84.2894V930.5H68.8274V84.5862L22.3581 37.7567V1.01434L-12.1468 -33.4906L-11.6374 -34ZM-13.7987 -33.2795L20.9172 1.43637V37.4599L68.1069 85.0098V930.5H67.3865V85.3066L20.9172 38.4826V39.6213L66.666 85.7303V930.5H65.9455V86.0271L20.1967 39.918V1.7348L-14.3082 -32.7701L-13.7987 -33.2795ZM-7.31465 -33.2795L25.2399 -0.724987V35.2985L72.4296 82.8485V930.5H71.7092V83.1453L25.2399 36.3213V37.4599L70.9887 83.5689V930.5H70.2683V83.8657L24.5195 37.7567V-0.426563L-7.82409 -32.7701L-7.31465 -33.2795ZM-4.40421 -32.5305L26.6808 -1.44544V34.5781L73.8705 82.128V930.5H73.1501V82.4248L25.9604 34.8749V-1.14702L-4.91365 -32.021L-4.40421 -32.5305ZM-14.4906 -31.81L19.4763 2.15683V40.3417L65.2251 86.4508V930.5H64.5046V86.7475L18.7558 40.6385V2.45525L-15 -31.3006L-14.4906 -31.81ZM69.1876 25.1481L15.6176 -29.1409L16.1304 -29.6469L69.9081 24.8525V67.001L81.0751 78.5283V930.5H80.3546V78.82L69.1876 67.2928V25.1481ZM146.74 -29.6469L147.253 -29.1409L93.683 25.1481V63.7409L82.516 70.9454V930.5H81.7955V70.5529L92.9626 63.3483V24.8525L146.74 -29.6469ZM148.181 -28.9265L148.694 -28.4205L95.1239 25.8686V64.4614L83.9569 71.6659V930.5H83.2364V71.2733L94.4035 64.0688V25.573L148.181 -28.9265ZM149.622 -28.206L150.135 -27.7L96.5648 26.589V65.1818L85.3978 72.3864V930.5H84.6773V71.9938L95.8444 64.7892V26.2934L149.622 -28.206ZM151.063 -27.4856L151.576 -26.9796L98.0057 27.3095V65.9023L86.8387 73.1068V930.5H86.1183V72.7142L97.2853 65.5097V27.0139L151.063 -27.4856ZM53.8839 11.8197L16.3094 -26.2591L16.8222 -26.7651L54.6044 11.5241V20.89L68.4671 34.9389V67.7215L79.6342 79.2487V930.5H78.9137V79.5405L67.7467 68.0132V35.2345L54.6044 21.9158V23.0516L67.0262 35.6595V68.4419L78.1933 79.9692V930.5H77.4728V80.2609L66.3058 68.7337V35.9548L53.8839 23.3469V13.9812L14.8686 -25.5386L15.3813 -26.0447L53.8839 12.9557V11.8197ZM152.504 -26.7651L153.017 -26.2591L99.4466 28.03V66.6227L88.2796 73.8273V930.5H87.5592V73.4347L98.7262 66.2301V27.7344L152.504 -26.7651ZM153.945 -26.0447L154.458 -25.5386L100.888 28.7504V67.3432L89.7205 74.5477V930.5H89.0001V74.1551L100.167 66.9506V28.4548L153.945 -26.0447ZM52.443 14.7016L13.4277 -24.8181L13.9404 -25.3243L53.1635 14.4059V23.772L65.5853 36.38V69.1624L76.7524 80.6896V930.5H76.0319V80.9814L64.8649 69.4541V36.6752L53.1635 24.7985V25.9336L64.1444 37.1006V69.8828L75.3115 81.4101V930.5H74.591V81.7019L63.424 70.1746V46.0411L51.0021 33.4332V19.7448L11.9868 -19.775L12.4995 -20.2811L51.0021 18.7193V17.5834L11.9868 -21.9363L12.4995 -22.4425L51.0021 16.5579V15.4221L11.9868 -24.0976L12.4994 -24.6039L52.443 15.8378V14.7016ZM52.443 16.863L51.7225 16.1336V28.8152L63.424 40.6919V39.5569L52.443 28.3898V16.863ZM63.424 38.5293V37.3955L53.1635 26.9611V28.0949L63.424 38.5293ZM63.424 41.7184L51.7225 29.8417V30.9766L63.424 42.8533V41.7184ZM63.424 43.8798L51.7225 32.0031V33.1379L63.424 45.0146V43.8798ZM155.386 -25.3242L155.898 -24.8182L102.328 29.4709V68.0636L91.1614 75.2682V930.5H90.441V74.8756L101.608 67.6711V29.1753L155.386 -25.3242ZM156.827 -24.6038L157.339 -24.0977L103.769 30.1913V68.7841L92.6023 75.9886V930.5H91.8819V75.5961L103.049 68.3915V29.8957L156.827 -24.6038ZM158.267 -23.8833L158.78 -23.3773L105.21 30.9118V69.5045L94.0432 76.7091V930.5H93.3228V76.3165L104.49 69.112V30.6162L158.267 -23.8833ZM159.708 -23.1629L160.221 -22.6568L106.651 31.6322V70.225L95.4842 77.4295V930.5H94.7637V77.037L105.931 69.8324V31.3366L159.708 -23.1629ZM161.149 -22.4424L161.662 -21.9364L108.092 32.3527V70.9454L96.9251 78.15V930.5H96.2046V77.7574L107.372 70.5529V32.0571L161.149 -22.4424ZM162.59 -21.722L163.103 -21.2159L109.533 33.0731V71.6659L98.366 78.8704V930.5H97.6455V78.4779L108.813 71.2733V32.7775L162.59 -21.722ZM164.031 -21.0015L164.544 -20.4955L110.974 33.7936V72.3864L99.8069 79.5909V930.5H99.0864V79.1983L110.253 71.9938V33.498L164.031 -21.0015ZM165.472 -20.281L165.985 -19.775L112.415 34.514V73.1068L101.248 80.3113V930.5H100.527V79.9188L111.694 72.7142V34.2184L165.472 -20.281ZM166.913 -19.5606L167.426 -19.0546L113.856 35.2345V73.8273L102.689 81.0318V930.5H101.968V80.6392L113.135 73.4347V34.9389L166.913 -19.5606ZM168.354 -18.8401L168.867 -18.3341L115.297 35.9549V74.5477L104.13 81.7523V930.5H103.409V81.3597L114.576 74.1551V35.6593L168.354 -18.8401ZM169.795 -18.1197L170.308 -17.6137L116.738 36.6754V75.2682L105.571 82.4727V930.5H104.85V82.0801L116.017 74.8756V36.3798L169.795 -18.1197Z" fill="#3797FF"/>
</g>
<defs>
<clipPath id="clip0_534_9755">
<rect width="180" height="930" fill="white"/>
</clipPath>
</defs>
</svg>
