<svg width="419" height="420" viewBox="0 0 419 420" fill="none" xmlns="http://www.w3.org/2000/svg">
<rect x="91" y="92" width="237" height="236" rx="118" fill="#2571EF"/>
<ellipse cx="208.93" cy="210" rx="92.8088" ry="208" transform="rotate(-180 208.93 210)" stroke="url(#paint0_linear_9_669)" stroke-width="3"/>
<path fill-rule="evenodd" clip-rule="evenodd" d="M60.6513 61.0493C58.8376 62.863 57.3263 64.9284 56.1078 67.2213C55.7191 67.9529 55.997 68.8611 56.7285 69.2498C57.46 69.6386 58.3682 69.3607 58.757 68.6292C59.8418 66.5878 61.178 64.7652 62.7726 63.1706C64.3672 61.576 66.1898 60.2398 68.2311 59.155C68.9627 58.7662 69.2405 57.8581 68.8518 57.1265C68.463 56.395 67.5548 56.1171 66.8233 56.5059C64.5304 57.7244 62.465 59.2356 60.6513 61.0493ZM55.2983 81.9117C55.3528 81.085 54.7268 80.3707 53.9002 80.3162C53.0736 80.2617 52.3593 80.8877 52.3048 81.7143C52.0063 86.2413 52.3082 91.1848 53.1659 96.4793C53.2984 97.2971 54.0687 97.8526 54.8864 97.7201C55.7042 97.5877 56.2597 96.8174 56.1273 95.9996C55.298 90.8805 55.0176 86.1684 55.2983 81.9117ZM81.3163 52.7028C80.4896 52.7573 79.8637 53.4716 79.9182 54.2982C79.9727 55.1249 80.687 55.7508 81.5137 55.6963C85.7704 55.4156 90.4825 55.696 95.6016 56.5253C96.4193 56.6578 97.1897 56.1022 97.3221 55.2845C97.4546 54.4667 96.8991 53.6964 96.0813 53.5639C90.7868 52.7062 85.8433 52.4043 81.3163 52.7028ZM59.4195 109.891C59.179 109.098 58.3413 108.65 57.5486 108.891C56.7558 109.131 56.3082 109.969 56.5488 110.762C57.8879 115.175 59.5261 119.769 61.4497 124.52C61.7606 125.288 62.6351 125.659 63.403 125.348C64.1709 125.037 64.5413 124.162 64.2304 123.394C62.3366 118.717 60.7296 114.208 59.4195 109.891ZM110.364 56.9468C109.571 56.7062 108.733 57.1539 108.493 57.9466C108.252 58.7393 108.7 59.577 109.493 59.8175C113.81 61.1276 118.319 62.7347 122.996 64.6284C123.764 64.9393 124.639 64.5689 124.95 63.801C125.261 63.0331 124.89 62.1586 124.122 61.8477C119.371 59.9242 114.777 58.286 110.364 56.9468ZM70.0883 136.53C69.7271 135.785 68.8298 135.473 68.0843 135.835C67.3388 136.196 67.0274 137.093 67.3887 137.839C69.432 142.055 71.6692 146.368 74.093 150.764C74.493 151.49 75.4054 151.754 76.1308 151.354C76.8563 150.954 77.1202 150.041 76.7202 149.316C74.32 144.962 72.1071 140.696 70.0883 136.53ZM137.441 67.7867C136.695 67.4254 135.798 67.7369 135.437 68.4824C135.075 69.2278 135.387 70.1251 136.132 70.4864C140.298 72.5051 144.564 74.718 148.918 77.1182C149.643 77.5182 150.556 77.2543 150.956 76.5289C151.356 75.8034 151.092 74.891 150.366 74.4911C145.97 72.0673 141.657 69.83 137.441 67.7867ZM83.9656 161.788C83.5344 161.081 82.6114 160.857 81.904 161.288C81.1967 161.719 80.9728 162.642 81.404 163.35C83.8687 167.392 86.4762 171.491 89.2213 175.636C89.6788 176.327 90.6095 176.516 91.3002 176.058C91.9908 175.601 92.1799 174.67 91.7224 173.979C88.9971 169.865 86.4099 165.797 83.9656 161.788ZM162.952 81.8021C162.244 81.3709 161.321 81.5947 160.89 82.3021C160.459 83.0094 160.683 83.9324 161.39 84.3636C165.399 86.8079 169.467 89.3951 173.581 92.1204C174.272 92.5779 175.203 92.3889 175.66 91.6982C176.118 91.0075 175.928 90.0768 175.238 89.6193C171.093 86.8742 166.994 84.2667 162.952 81.8021ZM187.195 97.8326C186.52 97.3525 185.584 97.5106 185.103 98.1857C184.623 98.8609 184.781 99.7974 185.457 100.277C189.31 103.017 193.195 105.869 197.103 108.83C197.764 109.33 198.704 109.2 199.205 108.54C199.705 107.88 199.575 106.939 198.915 106.439C194.982 103.46 191.073 100.59 187.195 97.8326ZM99.8794 185.855C99.3994 185.18 98.4629 185.021 97.7877 185.501C97.1126 185.982 96.9545 186.918 97.4345 187.593C100.192 191.471 103.062 195.38 106.04 199.313C106.541 199.973 107.482 200.103 108.142 199.603C108.802 199.102 108.932 198.162 108.432 197.501C105.471 193.593 102.619 189.708 99.8794 185.855ZM115.62 211.573C101.65 229.162 89.7762 246.398 80.3428 262.588C107.669 269.858 140.665 274.878 176.792 276.788C175.96 276.02 175.129 275.249 174.298 274.474C173.692 273.909 173.66 272.959 174.225 272.354C174.79 271.748 175.739 271.715 176.345 272.28C178.056 273.877 179.768 275.456 181.48 277.017C190.642 277.43 199.996 277.643 209.5 277.643C218.49 277.643 227.345 277.452 236.031 277.082C242.946 270.775 249.857 264.18 256.721 257.315C272.691 241.345 287.208 225.125 300.015 209.172C297.123 205.572 294.145 201.959 291.082 198.338C290.547 197.705 290.626 196.759 291.259 196.224C291.891 195.689 292.837 195.768 293.372 196.401C296.303 199.865 299.157 203.323 301.933 206.769C315.718 189.395 327.455 172.367 336.813 156.356C309.775 149.328 277.343 144.481 241.91 142.626C242.367 143.05 242.825 143.476 243.282 143.903C243.888 144.468 243.921 145.417 243.356 146.023C242.79 146.628 241.841 146.661 241.236 146.096C239.904 144.853 238.571 143.621 237.239 142.4C228.166 141.995 218.907 141.786 209.5 141.786C199.576 141.786 189.817 142.019 180.268 142.468C173.713 148.476 167.163 154.742 160.656 161.25C144.759 177.147 130.303 193.29 117.539 209.172C120.439 212.783 123.426 216.407 126.498 220.038C127.033 220.671 126.954 221.617 126.322 222.152C125.689 222.687 124.743 222.608 124.208 221.976C121.268 218.5 118.405 215.031 115.62 211.573ZM238.461 139.452C236.487 137.649 234.512 135.87 232.538 134.114C231.919 133.563 230.971 133.619 230.42 134.238C229.87 134.857 229.925 135.805 230.544 136.356C231.622 137.314 232.7 138.28 233.779 139.253C225.813 138.945 217.711 138.786 209.5 138.786C200.779 138.786 192.182 138.965 183.739 139.312C192.116 131.755 200.493 124.624 208.798 117.956C212.401 120.85 216.017 123.831 219.64 126.896C220.273 127.431 221.219 127.352 221.754 126.72C222.289 126.087 222.21 125.141 221.578 124.606C218.111 121.673 214.65 118.817 211.201 116.039C234.893 97.2406 257.94 82.252 278.644 71.9104C296.312 63.0858 312.196 57.6841 325.275 56.143C338.374 54.5994 348.391 56.9504 354.706 63.2652C361.021 69.5799 363.372 79.597 361.828 92.6964C360.287 105.775 354.885 121.659 346.061 139.327C343.73 143.993 341.163 148.778 338.37 153.663C310.027 146.221 275.813 141.185 238.461 139.452ZM180.261 279.964C181.855 281.412 183.449 282.845 185.043 284.263C185.662 284.813 186.61 284.758 187.16 284.139C187.711 283.519 187.655 282.571 187.036 282.021C186.344 281.406 185.652 280.787 184.96 280.166C193.01 280.481 201.199 280.643 209.5 280.643C217.293 280.643 224.987 280.5 232.561 280.222C224.617 287.355 216.675 294.102 208.798 300.433C205.19 297.535 201.569 294.549 197.94 291.48C197.307 290.945 196.361 291.024 195.826 291.657C195.291 292.289 195.37 293.235 196.003 293.77C199.475 296.708 202.942 299.569 206.397 302.351C182.626 321.232 159.501 336.281 138.732 346.655C121.065 355.48 105.18 360.881 92.1019 362.422C79.0025 363.966 68.9854 361.615 62.6707 355.3C56.356 348.986 54.0049 338.968 55.5485 325.869C57.0896 312.791 62.4913 296.906 71.316 279.239C73.5868 274.692 76.0818 270.033 78.792 265.279C107.419 272.969 142.207 278.182 180.261 279.964ZM135.958 230.942C135.407 230.323 134.459 230.268 133.84 230.818C133.221 231.369 133.165 232.317 133.716 232.936C136.901 236.518 140.165 240.101 143.505 243.68C144.07 244.286 145.019 244.319 145.625 243.754C146.23 243.188 146.263 242.239 145.698 241.634C142.375 238.072 139.127 234.506 135.958 230.942ZM155.668 252.073C155.089 251.481 154.14 251.47 153.547 252.049C152.955 252.628 152.944 253.578 153.523 254.17C155.21 255.897 156.915 257.621 158.636 259.342C160.357 261.063 162.082 262.768 163.808 264.455C164.401 265.034 165.35 265.024 165.929 264.431C166.508 263.839 166.498 262.889 165.905 262.31C164.187 260.63 162.471 258.934 160.758 257.221C159.044 255.508 157.348 253.792 155.668 252.073ZM253.772 153.921C253.18 153.342 252.23 153.353 251.651 153.945C251.072 154.538 251.083 155.487 251.675 156.066C253.394 157.746 255.11 159.442 256.823 161.156C258.536 162.869 260.232 164.585 261.912 166.303C262.491 166.896 263.441 166.906 264.033 166.327C264.626 165.748 264.636 164.799 264.057 164.206C262.37 162.48 260.665 160.755 258.944 159.034C257.223 157.313 255.499 155.608 253.772 153.921ZM274.076 174.696C273.511 174.09 272.561 174.058 271.956 174.623C271.35 175.188 271.317 176.137 271.882 176.743C275.205 180.304 278.453 183.87 281.623 187.434C282.173 188.053 283.121 188.109 283.74 187.558C284.36 187.008 284.415 186.06 283.865 185.441C280.679 181.858 277.415 178.275 274.076 174.696ZM220.477 309.546C219.817 309.046 218.876 309.176 218.376 309.836C217.876 310.497 218.005 311.438 218.666 311.938C222.598 314.916 226.507 317.786 230.385 320.544C231.06 321.024 231.997 320.866 232.477 320.191C232.957 319.515 232.799 318.579 232.124 318.099C228.271 315.359 224.386 312.507 220.477 309.546ZM311.54 219.064C311.04 218.403 310.099 218.274 309.438 218.774C308.778 219.274 308.648 220.215 309.148 220.875C312.109 224.784 314.961 228.669 317.701 232.522C318.181 233.197 319.117 233.355 319.793 232.875C320.468 232.395 320.626 231.458 320.146 230.783C317.388 226.905 314.518 222.996 311.54 219.064ZM243.999 326.256C243.308 325.798 242.378 325.987 241.92 326.678C241.463 327.369 241.652 328.3 242.342 328.757C246.487 331.502 250.586 334.11 254.629 336.574C255.336 337.005 256.259 336.782 256.69 336.074C257.122 335.367 256.898 334.444 256.19 334.013C252.181 331.568 248.114 328.981 243.999 326.256ZM328.359 242.741C327.902 242.05 326.971 241.861 326.28 242.318C325.589 242.776 325.4 243.706 325.858 244.397C328.583 248.512 331.17 252.579 333.615 256.588C334.046 257.296 334.969 257.52 335.676 257.088C336.384 256.657 336.607 255.734 336.176 255.027C333.712 250.984 331.104 246.885 328.359 242.741ZM268.663 341.258C267.937 340.858 267.025 341.122 266.625 341.848C266.225 342.573 266.489 343.485 267.214 343.885C271.61 346.309 275.924 348.546 280.14 350.59C280.885 350.951 281.782 350.639 282.144 349.894C282.505 349.149 282.193 348.251 281.448 347.89C277.283 345.871 273.016 343.658 268.663 341.258ZM343.487 267.612C343.087 266.887 342.175 266.623 341.449 267.023C340.724 267.423 340.46 268.335 340.86 269.061C343.26 273.414 345.473 277.681 347.492 281.846C347.853 282.591 348.75 282.903 349.496 282.542C350.241 282.18 350.553 281.283 350.192 280.538C348.148 276.322 345.911 272.008 343.487 267.612ZM294.584 353.748C293.816 353.437 292.942 353.807 292.631 354.575C292.32 355.343 292.69 356.218 293.458 356.529C298.209 358.452 302.803 360.09 307.217 361.43C308.009 361.67 308.847 361.223 309.088 360.43C309.328 359.637 308.88 358.799 308.088 358.559C303.771 357.249 299.261 355.642 294.584 353.748ZM356.131 293.856C355.82 293.088 354.945 292.718 354.177 293.029C353.409 293.34 353.039 294.214 353.35 294.982C355.244 299.66 356.851 304.169 358.161 308.486C358.401 309.279 359.239 309.726 360.032 309.486C360.824 309.245 361.272 308.407 361.032 307.615C359.692 303.202 358.054 298.607 356.131 293.856ZM321.979 361.851C321.161 361.719 320.391 362.274 320.258 363.092C320.126 363.91 320.681 364.68 321.499 364.812C326.794 365.67 331.737 365.972 336.264 365.674C337.091 365.619 337.717 364.905 337.662 364.078C337.608 363.251 336.893 362.626 336.067 362.68C331.81 362.961 327.098 362.68 321.979 361.851ZM364.414 321.897C364.282 321.079 363.512 320.524 362.694 320.656C361.876 320.789 361.321 321.559 361.453 322.377C362.282 327.496 362.563 332.208 362.282 336.465C362.228 337.291 362.853 338.006 363.68 338.06C364.507 338.115 365.221 337.489 365.276 336.662C365.574 332.135 365.272 327.192 364.414 321.897ZM361.473 351.155C361.861 350.423 361.583 349.515 360.852 349.127C360.12 348.738 359.212 349.016 358.823 349.747C357.739 351.789 356.402 353.611 354.808 355.206C353.213 356.8 351.391 358.137 349.349 359.221C348.618 359.61 348.34 360.518 348.729 361.25C349.117 361.981 350.025 362.259 350.757 361.871C353.05 360.652 355.115 359.141 356.929 357.327C358.743 355.513 360.254 353.448 361.473 351.155ZM140.073 349.339C169.474 334.653 203.434 310.759 237.247 280.032C283.722 277.969 325.405 270.795 357.053 260.231C375.961 253.92 391.37 246.371 402.084 237.917C412.78 229.475 419 219.956 419 209.715C419 199.473 412.78 189.954 402.084 181.513C391.37 173.058 375.961 165.51 357.053 159.199C352.066 157.534 346.831 155.954 341.366 154.464C344.036 149.77 346.498 145.165 348.744 140.667C357.651 122.835 363.21 106.601 364.807 93.0475C366.402 79.5149 364.069 68.3859 356.827 61.1438C349.585 53.9018 338.456 51.569 324.923 53.1636C311.37 54.7607 295.136 60.3195 277.304 69.2266C247.587 84.0696 213.214 108.32 179.043 139.524C133.658 141.741 92.9789 148.84 61.9469 159.199C43.0391 165.51 27.6297 173.058 16.9164 181.513C6.21986 189.954 -1.90735e-06 199.473 0 209.715C0 219.956 6.21986 229.475 16.9164 237.917C27.6297 246.371 43.0391 253.92 61.9469 260.231C66.3749 261.709 70.9993 263.121 75.8058 264.461C73.2152 269.031 70.8213 273.515 68.6321 277.898C59.725 295.731 54.1663 311.964 52.5691 325.518C50.9745 339.05 53.3073 350.18 60.5494 357.422C67.7914 364.664 78.9204 366.996 92.453 365.402C106.007 363.805 122.24 358.246 140.073 349.339ZM356.103 162.044C350.941 160.321 345.506 158.688 339.82 157.153C321.295 189.031 293.433 224.846 258.842 259.437C252.825 265.454 246.77 271.268 240.705 276.865C285.514 274.609 325.584 267.572 356.103 257.385C374.836 251.132 389.888 243.72 400.225 235.562C410.579 227.391 416 218.645 416 209.715C416 200.784 410.579 192.039 400.225 183.868C389.888 175.709 374.836 168.297 356.103 162.044ZM62.8967 162.044C92.7988 152.063 131.87 145.106 175.583 142.707C169.883 147.993 164.192 153.471 158.534 159.129C123.813 193.851 95.87 229.807 77.3454 261.775C72.3228 260.387 67.5011 258.922 62.8967 257.385C44.1639 251.132 29.1124 243.72 18.7749 235.562C8.42073 227.391 3 218.645 3 209.715C3 200.784 8.42073 192.039 18.7749 183.868C29.1124 175.709 44.1639 168.297 62.8967 162.044Z" fill="url(#paint1_linear_9_669)"/>
<defs>
<linearGradient id="paint0_linear_9_669" x1="208.93" y1="2.00023" x2="208.93" y2="418" gradientUnits="userSpaceOnUse">
<stop stop-color="#154A7A"/>
<stop offset="1" stop-color="#0085FF"/>
</linearGradient>
<linearGradient id="paint1_linear_9_669" x1="222.623" y1="52.5909" x2="222.623" y2="365.88" gradientUnits="userSpaceOnUse">
<stop stop-color="#154A7A"/>
<stop offset="1" stop-color="#0085FF"/>
</linearGradient>
</defs>
</svg>
