<svg width="14" height="14" viewBox="0 0 14 14" fill="none" xmlns="http://www.w3.org/2000/svg">
<path d="M8.24335 10.2784C8.24335 10.2784 9.71527 9.32057 10.0097 9.17321C10.304 9.02585 10.6352 8.95217 10.8192 9.09953C11.1136 9.28373 13.5791 10.9047 13.7999 11.0521C14.0206 11.1994 14.0942 11.6047 13.8367 12.0099C13.5423 12.4151 12.2543 14.0361 11.7024 13.9993C11.1504 13.9993 8.61133 14.1466 4.23236 9.7995C-0.146608 5.41551 0.000584058 2.87354 0.000584058 2.32094C0.000584058 1.76834 1.5829 0.442089 1.98768 0.184208C2.39246 -0.110514 2.79724 6.86105e-06 2.94443 0.221048C3.09162 0.442089 4.71074 2.91038 4.89473 3.2051C5.00512 3.3893 4.96832 3.72087 4.82113 4.01559C4.67394 4.31031 3.71719 5.78392 3.71719 5.78392C3.71719 5.78392 3.97477 6.81544 5.55709 8.43641C7.17621 10.0205 8.24335 10.2784 8.24335 10.2784Z" fill="white"/>
<path d="M11.4062 1.10645H7.72644V2.58005H11.4062C11.811 2.58005 12.1422 2.91161 12.1422 3.31686V7.00087H13.6141V3.31686C13.6141 2.10113 12.6206 1.10645 11.4062 1.10645Z" fill="white"/>
<path d="M8.83473 3.68402L6.36926 1.84201L8.83473 0V3.68402Z" fill="white"/>
</svg>
