<svg width="17" height="17" viewBox="0 0 17 17" fill="none" xmlns="http://www.w3.org/2000/svg">
<path d="M10.0098 12.4661C10.0098 12.4661 11.7971 11.3043 12.1546 11.1256C12.5121 10.9468 12.9142 10.8575 13.1376 11.0362C13.4951 11.2596 16.4889 13.2257 16.757 13.4044C17.0251 13.5832 17.1144 14.0747 16.8017 14.5662C16.4442 15.0577 14.8803 17.0238 14.21 16.9791C13.5398 16.9791 10.4566 17.1578 5.1393 11.8852C-0.178024 6.56787 0.000709214 3.48472 0.000709214 2.81447C0.000709214 2.14422 1.92209 0.535614 2.41361 0.222831C2.90513 -0.134636 3.39664 -0.000585852 3.57538 0.267514C3.75411 0.535614 5.72018 3.5294 5.9436 3.88687C6.07765 4.11028 6.03296 4.51243 5.85423 4.8699C5.6755 5.22737 4.51373 7.0147 4.51373 7.0147C4.51373 7.0147 4.82651 8.26583 6.7479 10.2319C8.71396 12.1533 10.0098 12.4661 10.0098 12.4661V12.4661Z" fill="black"/>
<path d="M13.8511 1.3418H9.38281V3.12913H13.8511C14.3427 3.12913 14.7448 3.53128 14.7448 4.0228V8.49113H16.5321V4.0228C16.5321 2.54825 15.3257 1.3418 13.8511 1.3418Z" fill="black"/>
<path d="M10.7243 4.46834L7.73047 2.23417L10.7243 0V4.46834Z" fill="black"/>
</svg>
