<svg width="68" height="20" viewBox="0 0 68 20" fill="none" xmlns="http://www.w3.org/2000/svg">
<rect width="20" height="20" fill="white"/>
<path d="M17.4012 6.22045C17.7048 6.42975 17.7523 6.85683 17.5216 7.14469L11.3532 14.8423C10.8302 15.497 9.83652 15.497 9.31352 14.8423L3.14511 7.14469C2.91444 6.85683 2.96188 6.42959 3.26532 6.22011C4.34069 5.47773 6.88349 4 10.3334 4C13.7786 4 16.3246 5.47818 17.4012 6.22045Z" fill="#1A1C19"/>
<rect width="20" height="20" transform="translate(24)" fill="white"/>
<path d="M39.5254 4.13807C39.9453 3.7181 40.6634 4.01554 40.6634 4.60948V15C40.6634 15.7364 40.0665 16.3334 39.3301 16.3334H28.9396C28.3456 16.3334 28.0482 15.6153 28.4682 15.1953L39.5254 4.13807Z" fill="#1A1C19"/>
<rect width="20" height="20" transform="translate(48)" fill="white"/>
<path d="M62.3301 5.33334C62.3301 4.78105 61.8824 4.33334 61.3301 4.33334H60.3301V3H56.3301V4.33334H55.3301C54.7778 4.33334 54.3301 4.78105 54.3301 5.33334V15.3333C54.3301 15.8856 54.7778 16.3334 55.3301 16.3334H61.3301C61.8824 16.3334 62.3301 15.8856 62.3301 15.3333V5.33334Z" fill="#1A1C19"/>
</svg>
