<svg width="181" height="35" viewBox="0 0 181 35" fill="none" xmlns="http://www.w3.org/2000/svg">
<g clip-path="url(#clip0_33_13755)">
<path d="M155.14 0.5H169.918L172.126 -2.56348L175.434 -0.313477L166.575 11.9756L164.122 8.54004L167.034 4.5H158.023L185.787 43.0186L182.479 45.2676L174.718 34.5H150.34L142.563 45.2891L139.256 43.0391L160.063 14.1699L148.289 -2.16602L151.597 -4.41602L155.14 0.5ZM153.223 30.5H171.835L162.528 17.5889L153.223 30.5Z" fill="white"/>
</g>
<g clip-path="url(#clip1_33_13755)">
<rect x="0.5" y="0.5" width="22" height="4" fill="white"/>
<rect x="13.5" y="4.5" width="12" height="4" transform="rotate(90 13.5 4.5)" fill="white"/>
</g>
<g clip-path="url(#clip2_33_13755)">
<rect x="24.5" y="0.5" width="22" height="4" fill="white"/>
<rect x="28.5" y="0.5" width="16" height="4" transform="rotate(90 28.5 0.5)" fill="white"/>
<rect x="24.5" y="12.5" width="22" height="4" fill="white"/>
<rect x="24.5" y="6.5" width="22" height="4" fill="white"/>
</g>
<g clip-path="url(#clip3_33_13755)">
<path d="M57.5 16.5L52.5 7.99721L52.5 16.5H48.5V0.5H52.7903L59.5 12L65.945 0.5H70.5V16.5H66.5V7.53869L62.9338 13.7155L61.5 16.5H57.5Z" fill="white"/>
</g>
<g clip-path="url(#clip4_33_13755)">
<rect x="76.5" y="0.5" width="16" height="4" transform="rotate(90 76.5 0.5)" fill="white"/>
<rect x="94.5" y="0.5" width="10" height="4" transform="rotate(90 94.5 0.5)" fill="white"/>
<rect x="94.5" y="4.5" width="22" height="4" transform="rotate(-180 94.5 4.5)" fill="white"/>
<rect x="94.5" y="10.5" width="22" height="4" transform="rotate(-180 94.5 10.5)" fill="white"/>
</g>
<g clip-path="url(#clip5_33_13755)">
<rect x="100.5" y="0.5" width="16" height="4" transform="rotate(90 100.5 0.5)" fill="white"/>
<rect x="118.5" y="0.5" width="16" height="4" transform="rotate(90 118.5 0.5)" fill="white"/>
<rect x="118.5" y="16.5" width="22" height="4" transform="rotate(-180 118.5 16.5)" fill="white"/>
</g>
<g clip-path="url(#clip6_33_13755)">
<rect x="124.5" y="0.5" width="10" height="4" transform="rotate(90 124.5 0.5)" fill="white"/>
<rect x="142.5" y="6.5" width="10" height="4" transform="rotate(90 142.5 6.5)" fill="white"/>
<rect x="142.5" y="4.5" width="22" height="4" transform="rotate(-180 142.5 4.5)" fill="white"/>
<rect x="142.5" y="16.5" width="22" height="4" transform="rotate(-180 142.5 16.5)" fill="white"/>
<rect x="142.5" y="10.5" width="22" height="4" transform="rotate(-180 142.5 10.5)" fill="white"/>
</g>
<g clip-path="url(#clip7_33_13755)">
<rect x="6.5" y="27.5" width="10" height="4" fill="white"/>
<path d="M13.6768 19.3369L2.96386 37.8923L-0.500244 35.8923L9.05799 19.3369L11.3674 15.3369L13.6768 19.3369Z" fill="white"/>
<path d="M9.05799 19.3369L19.7709 37.8923L23.235 35.8923L13.6768 19.3369L11.3674 15.3369L9.05799 19.3369Z" fill="white"/>
</g>
<g clip-path="url(#clip8_33_13755)">
<rect x="28.5" y="18.5" width="16" height="4" transform="rotate(90 28.5 18.5)" fill="white"/>
<rect x="45.7" y="28.3281" width="10" height="4" transform="rotate(135 45.7 28.3281)" fill="white"/>
<rect x="46.5" y="22.5" width="22" height="4" transform="rotate(-180 46.5 22.5)" fill="white"/>
<path d="M46.5 24.5L46.5 34.5L42.5 34.5L42.5 24.5L46.5 24.5Z" fill="white"/>
<path d="M46.5 24.5L36.5 24.5L36.5 28.5L46.5 28.5L46.5 24.5Z" fill="white"/>
<rect x="38.5" y="34.5" width="14" height="4" transform="rotate(-180 38.5 34.5)" fill="white"/>
</g>
<g clip-path="url(#clip9_33_13755)">
<rect x="48.5" y="18.5" width="22" height="4" fill="white"/>
<rect x="52.5" y="18.5" width="16" height="4" transform="rotate(90 52.5 18.5)" fill="white"/>
<rect x="48.5" y="30.5" width="22" height="4" fill="white"/>
<rect x="48.5" y="24.5" width="22" height="4" fill="white"/>
</g>
<g clip-path="url(#clip10_33_13755)">
<rect x="76.5" y="18.5" width="16" height="4" transform="rotate(90 76.5 18.5)" fill="white"/>
<rect x="73.3173" y="13.4893" width="32.8011" height="4" transform="rotate(45 73.3173 13.4893)" fill="white"/>
<rect x="94.5" y="18.5" width="16" height="4" transform="rotate(90 94.5 18.5)" fill="white"/>
</g>
<g clip-path="url(#clip11_33_13755)">
<rect x="96.5" y="18.5" width="22" height="4" fill="white"/>
<rect x="100.5" y="18.5" width="16" height="4" transform="rotate(90 100.5 18.5)" fill="white"/>
<rect x="96.5" y="30.5" width="22" height="4" fill="white"/>
</g>
<g clip-path="url(#clip12_33_13755)">
<rect x="133.5" y="25.5" width="9" height="4" transform="rotate(90 133.5 25.5)" fill="white"/>
<rect x="142.692" y="18.3281" width="14.4485" height="4" transform="rotate(135 142.692 18.3281)" fill="white"/>
<rect width="14.4485" height="4" transform="matrix(0.707107 0.707107 0.707107 -0.707107 120.5 18.3281)" fill="white"/>
</g>
<defs>
<clipPath id="clip0_33_13755">
<rect width="36" height="34" fill="white" transform="translate(144.5 0.5)"/>
</clipPath>
<clipPath id="clip1_33_13755">
<rect width="22" height="16" fill="white" transform="translate(0.5 0.5)"/>
</clipPath>
<clipPath id="clip2_33_13755">
<rect width="22" height="16" fill="white" transform="translate(24.5 0.5)"/>
</clipPath>
<clipPath id="clip3_33_13755">
<rect width="22" height="16" fill="white" transform="translate(48.5 0.5)"/>
</clipPath>
<clipPath id="clip4_33_13755">
<rect width="22" height="16" fill="white" transform="translate(72.5 0.5)"/>
</clipPath>
<clipPath id="clip5_33_13755">
<rect width="22" height="16" fill="white" transform="translate(96.5 0.5)"/>
</clipPath>
<clipPath id="clip6_33_13755">
<rect width="22" height="16" fill="white" transform="translate(120.5 0.5)"/>
</clipPath>
<clipPath id="clip7_33_13755">
<rect width="22" height="16" fill="white" transform="translate(0.5 18.5)"/>
</clipPath>
<clipPath id="clip8_33_13755">
<rect width="22" height="16" fill="white" transform="translate(24.5 18.5)"/>
</clipPath>
<clipPath id="clip9_33_13755">
<rect width="22" height="16" fill="white" transform="translate(48.5 18.5)"/>
</clipPath>
<clipPath id="clip10_33_13755">
<rect width="22" height="16" fill="white" transform="translate(72.5 18.5)"/>
</clipPath>
<clipPath id="clip11_33_13755">
<rect width="22" height="16" fill="white" transform="translate(96.5 18.5)"/>
</clipPath>
<clipPath id="clip12_33_13755">
<rect width="22" height="16" fill="white" transform="translate(120.5 18.5)"/>
</clipPath>
</defs>
</svg>
