<svg width="46" height="46" viewBox="0 0 46 46" fill="none" xmlns="http://www.w3.org/2000/svg">
<path d="M44.16 0H1.84C0.82225 0 0 0.82225 0 1.84V44.16C0 45.1777 0.82225 46 1.84 46H44.16C45.1777 46 46 45.1777 46 44.16V1.84C46 0.82225 45.1777 0 44.16 0ZM35.3797 16.6578C35.397 16.928 35.397 17.2098 35.397 17.4858C35.397 25.9268 28.9685 35.65 17.2213 35.65C13.5988 35.65 10.2408 34.5978 7.41175 32.7865C7.92925 32.844 8.42375 32.867 8.95275 32.867C11.9428 32.867 14.6913 31.855 16.882 30.1415C14.076 30.084 11.7185 28.244 10.9135 25.714C11.8967 25.8578 12.7822 25.8578 13.7942 25.599C12.3494 25.3055 11.0508 24.5208 10.1189 23.3783C9.18711 22.2357 8.67955 20.8058 8.6825 19.3315V19.251C9.52775 19.7283 10.5225 20.0215 11.5633 20.0618C10.6883 19.4787 9.97083 18.6887 9.47434 17.7619C8.97785 16.8351 8.71771 15.8002 8.717 14.7488C8.717 13.5585 9.0275 12.4718 9.58525 11.5288C11.1889 13.5029 13.1901 15.1176 15.4587 16.2677C17.7272 17.4178 20.2124 18.0777 22.7528 18.2045C21.85 13.8633 25.093 10.35 28.9915 10.35C30.8315 10.35 32.4875 11.1205 33.6548 12.3625C35.098 12.0922 36.478 11.5517 37.7085 10.8272C37.2313 12.305 36.2308 13.5527 34.9025 14.3405C36.1905 14.2025 37.4325 13.846 38.5825 13.3458C37.7143 14.6223 36.6275 15.755 35.3797 16.6578Z" fill="black"/>
</svg>
