<svg width="12" height="12" viewBox="0 0 12 12" fill="none" xmlns="http://www.w3.org/2000/svg">
<g clip-path="url(#clip0_2601_8201)">
<rect width="12" height="12" fill="white"/>
<path d="M6.03147 11.1582C8.94538 11.1582 11.3076 8.79597 11.3076 5.88206C11.3076 2.96815 8.94538 0.605957 6.03147 0.605957C3.11756 0.605957 0.755371 2.96815 0.755371 5.88206C0.755371 8.79597 3.11756 11.1582 6.03147 11.1582Z" stroke="black" stroke-width="0.642122"/>
<path d="M1.20994 8.88309L0.373047 11.8486L3.44774 10.9935L3.61147 10.0475L1.61019 10.6842L2.1378 8.77393L1.20994 8.88309Z" fill="black"/>
<path d="M1.57227 10.7014C1.57227 10.6832 2.20904 8.57275 2.20904 8.57275L3.73729 10.01L1.57227 10.7014Z" fill="white"/>
<path d="M3.75083 3.26563C3.56507 3.39452 3.4067 3.55898 3.28491 3.74947C3.16312 3.93997 3.08031 4.15272 3.04128 4.37543C2.95031 5.08497 3.38696 5.81271 3.38696 5.81271C3.82987 6.47168 4.35573 7.07091 4.95159 7.59567C5.47282 8.00812 6.06461 8.3225 6.69816 8.52353C7.06772 8.67108 7.47199 8.70898 7.86254 8.63269C8.20871 8.53767 8.51496 8.33349 8.73581 8.0505C8.78757 7.92176 8.82422 7.78744 8.84499 7.65025C8.86581 7.52985 8.86581 7.40677 8.84499 7.28638C8.8268 7.15902 7.51687 6.55864 7.38952 6.59503C7.26216 6.63141 7.15298 6.86793 7.00744 7.06806C6.86189 7.26819 6.80733 7.35915 6.66178 7.35915C6.51623 7.35915 5.87944 7.10444 5.27906 6.55864C4.93613 6.2613 4.66813 5.88732 4.49675 5.46703C4.49675 5.46703 4.60592 5.33968 4.75147 5.13955C4.86472 5.01546 4.9459 4.86556 4.98797 4.70291C4.98797 4.61194 4.47855 3.32021 4.3512 3.26563C4.15205 3.23763 3.94997 3.23763 3.75083 3.26563Z" fill="black"/>
</g>
<defs>
<clipPath id="clip0_2601_8201">
<rect width="12" height="12" fill="white"/>
</clipPath>
</defs>
</svg>
