<svg width="18" height="18" viewBox="0 0 18 18" fill="none" xmlns="http://www.w3.org/2000/svg">
<path d="M7 11.75L11.5412 9.125L7 6.5V11.75ZM17.115 4.89875C17.2287 5.31 17.3075 5.86125 17.36 6.56125C17.4213 7.26125 17.4475 7.865 17.4475 8.39L17.5 9.125C17.5 11.0413 17.36 12.45 17.115 13.3512C16.8962 14.1387 16.3887 14.6462 15.6012 14.865C15.19 14.9787 14.4375 15.0575 13.2825 15.11C12.145 15.1713 11.1038 15.1975 10.1413 15.1975L8.75 15.25C5.08375 15.25 2.8 15.11 1.89875 14.865C1.11125 14.6462 0.60375 14.1387 0.385 13.3512C0.27125 12.94 0.1925 12.3888 0.14 11.6888C0.0787501 10.9888 0.0524999 10.385 0.0524999 9.86L0 9.125C0 7.20875 0.14 5.8 0.385 4.89875C0.60375 4.11125 1.11125 3.60375 1.89875 3.385C2.31 3.27125 3.0625 3.1925 4.2175 3.14C5.355 3.07875 6.39625 3.0525 7.35875 3.0525L8.75 3C12.4163 3 14.7 3.14 15.6012 3.385C16.3887 3.60375 16.8962 4.11125 17.115 4.89875Z" fill="#2572F2"/>
</svg>
