<svg preserveAspectRatio="none" width="100%" height="100%" overflow="visible" style="display: block;" viewBox="0 0 21.2501 8.7501" fill="none" xmlns="http://www.w3.org/2000/svg">
<g id="Group">
<path id="Vector" d="M3.88277 1.12819C3.63372 1.42374 3.23524 1.65685 2.83676 1.62355C2.78695 1.22393 2.98204 0.799336 3.21033 0.537085C3.45939 0.233209 3.89523 0.0167485 4.24806 9.76563e-05C4.28954 0.416368 4.12769 0.824313 3.88277 1.12819ZM4.24391 1.70264C3.66693 1.66934 3.17298 2.0315 2.89902 2.0315C2.62091 2.0315 2.20167 1.71929 1.74508 1.72762C1.15151 1.73594 0.599442 2.07312 0.296427 2.61011C-0.326202 3.68409 0.134546 5.27425 0.736417 6.14842C1.03113 6.58132 1.38396 7.05588 1.84885 7.03921C2.28884 7.02258 2.46318 6.75199 2.99449 6.75199C3.52995 6.75199 3.68354 7.03921 4.14841 7.0309C4.62991 7.02258 4.93293 6.59799 5.22767 6.16504C5.56389 5.67386 5.70088 5.19515 5.70916 5.17017C5.70088 5.16185 4.77937 4.808 4.77104 3.74237C4.76275 2.85155 5.49745 2.42695 5.53065 2.40198C5.11559 1.7859 4.46806 1.71929 4.24391 1.70264ZM7.57704 0.495457V6.98509H8.58156V4.7664H9.97208C11.2422 4.7664 12.1347 3.89222 12.1347 2.62676C12.1347 1.3613 11.2589 0.495457 10.0053 0.495457H7.57704ZM8.58156 1.34465H9.73965C10.6113 1.34465 11.1094 1.81087 11.1094 2.63092C11.1094 3.45098 10.6113 3.92136 9.7355 3.92136H8.58156V1.34465ZM13.9694 7.03505C14.6003 7.03505 15.1856 6.71454 15.4512 6.20669H15.472V6.98509H16.4018V3.75485C16.4018 2.81824 15.6546 2.21466 14.5048 2.21466C13.438 2.21466 12.6494 2.82657 12.6203 3.66744H13.5253C13.5999 3.26782 13.9694 3.00557 14.4758 3.00557C15.0901 3.00557 15.4346 3.2928 15.4346 3.82146V4.17945L14.1811 4.25438C13.0147 4.32514 12.3837 4.80385 12.3837 5.63641C12.3837 6.47724 13.0354 7.03505 13.9694 7.03505ZM14.2392 6.26497C13.7037 6.26497 13.3634 6.00688 13.3634 5.61143C13.3634 5.20346 13.6913 4.9662 14.3181 4.92875L15.4346 4.85797V5.22428C15.4346 5.83206 14.9199 6.26497 14.2392 6.26497ZM17.6429 8.7501C18.6225 8.7501 19.0832 8.37547 19.4859 7.23902L21.25 2.2771H20.2289L19.0459 6.11097H19.0251L17.8421 2.2771H16.792L18.4938 7.00176L18.4025 7.28898C18.2489 7.77605 17.9999 7.96334 17.5557 7.96334C17.4769 7.96334 17.3233 7.95503 17.261 7.94672V8.72512C17.3191 8.74178 17.5682 8.7501 17.6429 8.7501Z" fill="var(--fill-0, black)"/>
</g>
</svg>
