<svg preserveAspectRatio="none" width="100%" height="100%" overflow="visible" style="display: block;" viewBox="0 0 16.1694 15.953" fill="none" xmlns="http://www.w3.org/2000/svg">
<g id="Group 1597880468">
<path id="path3461" fill-rule="evenodd" clip-rule="evenodd" d="M12.9554 4.72343C13.0043 4.70806 13.0687 4.73881 13.133 4.82338C13.133 4.82338 13.133 4.82338 16.0417 7.65773C16.2115 7.82686 16.2115 8.08313 16.0417 8.20871C16.0417 8.20871 16.0417 8.20871 13.133 11.0866C13.0687 11.1712 13.0043 11.1917 12.9554 11.1661C12.9065 11.1404 12.8756 11.0661 12.8756 10.9585V4.90795C12.8756 4.80288 12.9065 4.73881 12.9554 4.72343Z" fill="var(--fill-0, #ED1C24)"/>
<path id="path3463" fill-rule="evenodd" clip-rule="evenodd" d="M7.98106 4.29335e-05L8.18698 4.29335e-05L8.38518 0.0820497C8.38518 0.0820497 8.38518 0.0820495 11.3787 3.04453C11.5074 3.21367 11.4637 3.3418 11.25 3.3418C11.25 3.3418 11.25 3.3418 10.0094 3.3418C9.79573 3.3418 9.62584 3.51094 9.62584 3.72365C9.62584 3.72365 9.62584 3.72365 9.62584 5.92244C9.62584 6.13515 9.45339 6.30429 9.19599 6.30429C9.19599 6.30429 9.19598 6.30429 7.01581 6.30429C6.80217 6.30429 6.62971 6.13515 6.62971 5.92244C6.62971 5.92244 6.62971 5.92244 6.62971 3.72365C6.62971 3.51094 6.45983 3.3418 6.24361 3.3418H4.918C4.70436 3.3418 4.6606 3.21367 4.7893 3.04453C4.7893 3.04453 4.7893 3.04453 7.78544 0.0820497L7.98106 4.29335e-05Z" fill="var(--fill-0, #ED1C24)"/>
<path id="path3465" fill-rule="evenodd" clip-rule="evenodd" d="M3.29343 4.65895C3.34748 4.68458 3.38095 4.7589 3.38095 4.86653L3.38095 11.0426C3.38095 11.1503 3.34748 11.2143 3.29343 11.2348C3.24195 11.2553 3.1673 11.2348 3.07979 11.1708C3.07979 11.1708 3.07979 11.1708 0.127413 8.20829C-0.042471 8.08272 -0.042471 7.82645 0.127413 7.65731C0.127413 7.65731 0.127413 7.65731 3.07979 4.73839C3.1673 4.65383 3.24195 4.63332 3.29343 4.65895Z" fill="var(--fill-0, #ED1C24)"/>
<path id="path3467" fill-rule="evenodd" clip-rule="evenodd" d="M7.01522 9.52062C7.01522 9.52062 7.01522 9.52062 9.19539 9.52062C9.45279 9.52062 9.62525 9.68976 9.62525 9.90247C9.62525 9.90247 9.62525 9.90246 9.62525 12.2294C9.62525 12.4831 9.79514 12.6522 10.0088 12.6522H11.1645C11.3781 12.6522 11.4631 12.7778 11.2932 12.9059C11.2932 12.9059 11.2932 12.9059 8.38458 15.8249C8.29707 15.9094 8.19153 15.953 8.08343 15.953C7.97789 15.953 7.86979 15.9094 7.78484 15.8249C7.78484 15.8249 7.78484 15.8249 4.87623 12.9059C4.70377 12.7778 4.78871 12.6522 5.00235 12.6522C5.00235 12.6522 5.00235 12.6522 6.24302 12.6522C6.45923 12.6522 6.62912 12.4831 6.62912 12.2294C6.62912 12.2294 6.62912 12.2294 6.62912 9.90247C6.62912 9.68976 6.80158 9.52062 7.01522 9.52062Z" fill="var(--fill-0, #ED1C24)"/>
</g>
</svg>
