<svg preserveAspectRatio="none" width="100%" height="100%" overflow="visible" style="display: block;" viewBox="0 0 16 16.0002" fill="none" xmlns="http://www.w3.org/2000/svg">
<g id="Group">
<path id="Vector" d="M12.2106 3.78944L8.42112 3.3684L3.78952 3.78944L3.3684 8L3.78944 12.2106L8 12.7369L12.2106 12.2106L12.6316 7.8948L12.2106 3.78944Z" fill="var(--fill-0, white)"/>
<path id="Vector_2" d="M5.51688 10.3221C5.20216 10.1094 4.98424 9.79896 4.86528 9.3884L5.59584 9.08736C5.66216 9.34 5.77792 9.53576 5.9432 9.67472C6.10744 9.81368 6.30744 9.88208 6.54112 9.88208C6.78008 9.88208 6.98536 9.80944 7.15688 9.66416C7.3284 9.51888 7.4148 9.3336 7.4148 9.10944C7.4148 8.88 7.32424 8.69256 7.1432 8.54736C6.96216 8.40216 6.7348 8.32944 6.4632 8.32944H6.04112V7.60632H6.42C6.65368 7.60632 6.85056 7.5432 7.01056 7.41688C7.17056 7.29056 7.25056 7.11792 7.25056 6.89792C7.25056 6.70216 7.17896 6.54632 7.03584 6.42952C6.89272 6.31272 6.7116 6.25376 6.4916 6.25376C6.27688 6.25376 6.10632 6.31064 5.98 6.42536C5.85368 6.54008 5.76208 6.68112 5.70424 6.84744L4.98112 6.5464C5.07688 6.2748 5.25272 6.0348 5.51056 5.82744C5.76848 5.62008 6.09792 5.51584 6.49792 5.51584C6.79368 5.51584 7.06 5.57272 7.29584 5.68744C7.5316 5.80216 7.71688 5.96112 7.85056 6.1632C7.98424 6.36632 8.05056 6.59376 8.05056 6.84632C8.05056 7.10424 7.98848 7.32208 7.86424 7.50104C7.74 7.68 7.58736 7.8168 7.40632 7.91264V7.95576C7.64528 8.05576 7.84 8.2084 7.99368 8.41368C8.14632 8.61896 8.22312 8.86424 8.22312 9.15056C8.22312 9.43688 8.15048 9.69264 8.0052 9.91688C7.85992 10.1411 7.65888 10.3179 7.40416 10.4463C7.1484 10.5747 6.86104 10.64 6.54208 10.64C6.17264 10.641 5.8316 10.5347 5.51688 10.3221Z" fill="var(--fill-0, #1A73E8)"/>
<path id="Vector_3" d="M10 6.69688L9.20208 7.27688L8.80104 6.66848L10.24 5.63056H10.7916V10.5263H10V6.69688Z" fill="var(--fill-0, #1A73E8)"/>
<path id="Vector_4" d="M12.2106 16L16 12.2106L14.1053 11.3685L12.2106 12.2106L11.3685 14.1053L12.2106 16Z" fill="var(--fill-0, #EA4335)"/>
<path id="Vector_5" d="M2.94736 14.1053L3.78944 16H12.2105V12.2106H3.78944L2.94736 14.1053Z" fill="var(--fill-0, #34A853)"/>
<path id="Vector_6" d="M1.26312 0C0.56528 0 0 0.56528 0 1.26312V12.2105L1.89472 13.0526L3.78944 12.2105V3.78944H12.2105L13.0526 1.89472L12.2106 0H1.26312Z" fill="var(--fill-0, #4285F4)"/>
<path id="Vector_7" d="M0 12.2106V14.7369C0 15.4348 0.56528 16 1.26312 16H3.78944V12.2106H0Z" fill="var(--fill-0, #188038)"/>
<path id="Vector_8" d="M12.2106 3.78944V12.2105H16V3.78944L14.1053 2.94736L12.2106 3.78944Z" fill="var(--fill-0, #FBBC04)"/>
<path id="Vector_9" d="M16 3.78944V1.26312C16 0.5652 15.4347 0 14.7369 0H12.2106V3.78944H16Z" fill="var(--fill-0, #1967D2)"/>
</g>
</svg>
