<svg preserveAspectRatio="none" width="100%" height="100%" overflow="visible" style="display: block;" viewBox="0 0 14 14" fill="none" xmlns="http://www.w3.org/2000/svg">
<g id="ri:key-line">
<path id="Vector" d="M7.53492 7.58333C7.38632 8.44671 6.91944 9.223 6.22645 9.75896C5.53346 10.2949 4.66472 10.5516 3.79172 10.4784C2.91872 10.4051 2.1049 10.0072 1.51092 9.36327C0.916946 8.71931 0.58597 7.87606 0.583333 7C0.582532 6.12186 0.911861 5.27549 1.50598 4.62884C2.1001 3.98219 2.91559 3.58249 3.79066 3.50906C4.66573 3.43563 5.53643 3.69383 6.23001 4.23243C6.92359 4.77103 7.38936 5.55067 7.53492 6.41667H13.4167V7.58333H12.25V9.91667H11.0833V7.58333H9.91667V9.91667H8.75V7.58333H7.53492ZM4.08333 9.33333C4.70217 9.33333 5.29566 9.0875 5.73325 8.64992C6.17083 8.21233 6.41667 7.61884 6.41667 7C6.41667 6.38116 6.17083 5.78767 5.73325 5.35008C5.29566 4.9125 4.70217 4.66667 4.08333 4.66667C3.46449 4.66667 2.871 4.9125 2.43342 5.35008C1.99583 5.78767 1.75 6.38116 1.75 7C1.75 7.61884 1.99583 8.21233 2.43342 8.64992C2.871 9.0875 3.46449 9.33333 4.08333 9.33333Z" fill="var(--fill-0, #735BFF)"/>
</g>
</svg>
