<svg preserveAspectRatio="none" width="100%" height="100%" overflow="visible" style="display: block;" viewBox="0 0 17 14" fill="none" xmlns="http://www.w3.org/2000/svg">
<g id="Google_Meet_icon_(2020) (1) 1" clip-path="url(#clip0_0_508)">
<path id="Vector" d="M9.61714 7L11.2744 8.89583L13.5029 10.3211L13.8914 7.01167L13.5029 3.77611L11.2317 5.02833L9.61714 7Z" fill="var(--fill-0, #00832D)"/>
<path id="Vector_2" d="M0 10.0139V12.8333C0 13.4779 0.521657 14 1.16571 14H3.98286L4.56571 11.8689L3.98286 10.0139L2.04971 9.43056L0 10.0139Z" fill="var(--fill-0, #0066DA)"/>
<path id="Vector_3" d="M3.98286 0L0 3.98611L2.04971 4.56944L3.98286 3.98611L4.556 2.15639L3.98286 0Z" fill="var(--fill-0, #E94235)"/>
<path id="Vector_4" d="M3.98286 3.98611H0V10.0139H3.98286V3.98611Z" fill="var(--fill-0, #2684FC)"/>
<path id="Vector_5" d="M16.048 1.68778L13.5029 3.77611V10.3211L16.0597 12.4192C16.4424 12.7186 17.0019 12.4454 17.0019 11.9583V2.13889C17.0019 1.64597 16.4298 1.37569 16.048 1.68778ZM9.61714 7V10.0139H3.98286V14H12.3371C12.9812 14 13.5029 13.4779 13.5029 12.8333V10.3211L9.61714 7Z" fill="var(--fill-0, #00AC47)"/>
<path id="Vector_6" d="M12.3371 0H3.98286V3.98611H9.61714V7L13.5029 3.77806V1.16667C13.5029 0.522083 12.9812 0 12.3371 0Z" fill="var(--fill-0, #FFBA00)"/>
</g>
<defs>
<clipPath id="clip0_0_508">
<rect width="17" height="14" fill="white"/>
</clipPath>
</defs>
</svg>
