<svg preserveAspectRatio="none" width="100%" height="100%" overflow="visible" style="display: block;" viewBox="0 0 12.4018 12.4018" fill="none" xmlns="http://www.w3.org/2000/svg">
<g id="streamline-plump:arrow-roadmap-solid" clip-path="url(#clip0_0_447)">
<path id="Vector" d="M2.18582 2.71289H1.03348C0.862172 2.71289 0.697878 2.64484 0.576744 2.5237C0.455609 2.40257 0.387556 2.23828 0.387556 2.06697C0.387556 1.89565 0.455609 1.73136 0.576744 1.61023C0.697878 1.48909 0.862172 1.42104 1.03348 1.42104H2.18582C2.31676 1.07905 2.54838 0.784851 2.85009 0.577307C3.15179 0.369763 3.50937 0.258649 3.87556 0.258649C4.24175 0.258649 4.59933 0.369763 4.90103 0.577307C5.20274 0.784851 5.43436 1.07905 5.5653 1.42104H9.04297C10.5413 1.42104 11.7559 2.63564 11.7559 4.13393C11.7559 5.49296 10.7565 6.61868 9.45249 6.81608C9.32685 7.16307 9.09812 7.46334 8.79696 7.67663C8.49581 7.88992 8.13663 8.00602 7.76761 8.00937C7.39859 8.01272 7.03737 7.90314 6.7324 7.69535C6.42743 7.48756 6.19328 7.19148 6.06138 6.84682H3.35882C3.01464 6.8464 2.68201 6.9709 2.42269 7.1972C2.16337 7.4235 1.99501 7.73623 1.94885 8.0773C1.9027 8.41837 1.9819 8.7646 2.17174 9.05168C2.36158 9.33877 2.64917 9.5472 2.98108 9.63826C3.12036 9.30453 3.35647 9.02019 3.65892 8.82196C3.96138 8.62372 4.3163 8.52068 4.67789 8.52613C5.03948 8.53158 5.39114 8.64527 5.68749 8.85254C5.98383 9.0598 6.21126 9.35112 6.34042 9.6889H9.198C9.22512 9.49383 9.26466 9.30341 9.31685 9.12229C9.34423 9.02725 9.39308 8.93977 9.45962 8.86659C9.52616 8.79341 9.60862 8.73649 9.70064 8.70022C9.79265 8.66395 9.89177 8.64929 9.99035 8.65738C10.0889 8.66547 10.1843 8.69609 10.2692 8.74688L10.2731 8.74946L10.2826 8.75515L10.2961 8.76341L10.3173 8.77633C10.4957 8.8856 10.6718 8.99854 10.8456 9.11506C11.1492 9.31891 11.553 9.607 11.8246 9.87725C11.8848 9.93726 11.9326 10.0086 11.9652 10.0871C11.9978 10.1656 12.0146 10.2498 12.0146 10.3348C12.0146 10.4198 11.9978 10.504 11.9652 10.5826C11.9326 10.6611 11.8848 10.7324 11.8246 10.7924C11.553 11.0627 11.1492 11.3507 10.8456 11.5546C10.6606 11.6787 10.4729 11.7987 10.2826 11.9145L10.2731 11.9202L10.2692 11.9228C10.1843 11.9734 10.0889 12.0039 9.99043 12.0119C9.89191 12.0199 9.79287 12.0052 9.70092 11.969C9.60897 11.9327 9.52656 11.8759 9.46002 11.8028C9.39348 11.7297 9.34459 11.6423 9.3171 11.5474C9.26387 11.3616 9.22406 11.1722 9.198 10.9808H6.34042C6.20851 11.3254 5.97436 11.6215 5.66939 11.8293C5.36442 12.0371 5.0032 12.1466 4.63418 12.1433C4.26516 12.14 3.90599 12.0238 3.60483 11.8106C3.30368 11.5973 3.07494 11.297 2.9493 10.95C1.6453 10.7526 0.645927 9.62715 0.645927 8.26786C0.645927 6.76957 1.86053 5.55497 3.35882 5.55497H6.06138C6.19063 5.21729 6.4181 4.92608 6.71443 4.71891C7.01076 4.51173 7.36237 4.39809 7.7239 4.39264C8.08544 4.38719 8.44031 4.49018 8.74275 4.68833C9.04519 4.88648 9.28133 5.1707 9.42071 5.50433C9.75262 5.41327 10.0402 5.20484 10.2301 4.91775C10.4199 4.63067 10.4991 4.28444 10.4529 3.94337C10.4068 3.6023 10.2384 3.28957 9.9791 3.06327C9.71979 2.83697 9.38715 2.71246 9.04297 2.71289H5.5653C5.43436 3.05488 5.20274 3.34908 4.90103 3.55662C4.59933 3.76417 4.24175 3.87528 3.87556 3.87528C3.50937 3.87528 3.15179 3.76417 2.85009 3.55662C2.54838 3.34908 2.31676 3.05488 2.18582 2.71289Z" fill="var(--fill-0, #00A6D4)"/>
</g>
<defs>
<clipPath id="clip0_0_447">
<rect width="12.4018" height="12.4018" fill="white"/>
</clipPath>
</defs>
</svg>
