<svg preserveAspectRatio="none" width="100%" height="100%" overflow="visible" style="display: block;" viewBox="0 0 15.5926 15.5926" fill="none" xmlns="http://www.w3.org/2000/svg">
<g id="material-symbols:rocket-launch">
<path id="Vector" d="M1.59174 6.87049L4.32045 4.14179C4.47205 3.99019 4.65071 3.88191 4.85645 3.81694C5.06218 3.75197 5.27333 3.74114 5.4899 3.78445L6.33449 3.96312C5.74977 4.65612 5.28957 5.28416 4.9539 5.84723C4.61823 6.41029 4.29338 7.09247 3.97936 7.89376L1.59174 6.87049ZM4.92141 8.34854C5.17046 7.56891 5.50895 6.83259 5.93688 6.13959C6.36481 5.44658 6.88175 4.79689 7.4877 4.19051C8.44058 3.23763 9.52881 2.52579 10.7524 2.05498C11.976 1.58417 13.1184 1.44058 14.1795 1.62423C14.3636 2.68539 14.2228 3.82777 13.7572 5.05135C13.2916 6.27494 12.5824 7.36317 11.6295 8.31606C11.0339 8.91161 10.3842 9.42876 9.68041 9.86752C8.97657 10.3063 8.23484 10.65 7.45521 10.8986L4.92141 8.34854ZM10.3223 6.77304C10.6848 6.77304 10.9906 6.64851 11.2397 6.39946C11.4887 6.15042 11.6132 5.84463 11.6132 5.4821C11.6132 5.11957 11.4887 4.81357 11.2397 4.56408C10.9906 4.3146 10.6848 4.19008 10.3223 4.19051C9.95977 4.19094 9.65377 4.31547 9.40429 4.56408C9.15481 4.8127 9.03028 5.1187 9.03072 5.4821C9.03115 5.84549 9.15567 6.15128 9.40429 6.39946C9.6529 6.64765 9.95891 6.77217 10.3223 6.77304ZM8.9495 14.212L7.91 11.8244C8.71128 11.5104 9.39628 11.1855 9.96497 10.8499C10.5337 10.5142 11.1643 10.054 11.8569 9.46926L12.0193 10.3139C12.0626 10.5304 12.0518 10.7444 11.9868 10.9558C11.9218 11.1671 11.8136 11.3484 11.662 11.4995L8.9495 14.212ZM2.63125 10.4276C3.01024 10.0486 3.47044 9.85626 4.01185 9.85063C4.55326 9.845 5.01345 10.0319 5.39244 10.4113C5.77143 10.7907 5.96092 11.2509 5.96092 11.7919C5.96092 12.3329 5.77143 12.7931 5.39244 13.1725C5.12174 13.4432 4.66955 13.676 4.03589 13.8709C3.40222 14.0658 2.52795 14.2391 1.41308 14.3907C1.56467 13.2754 1.73793 12.4037 1.93283 11.7757C2.12774 11.1476 2.36055 10.6983 2.63125 10.4276Z" fill="var(--fill-0, black)"/>
</g>
</svg>
