<svg preserveAspectRatio="none" width="100%" height="100%" overflow="visible" style="display: block;" viewBox="0 0 15.9136 15.9136" fill="none" xmlns="http://www.w3.org/2000/svg">
<g id="fa7-solid:sitemap">
<path id="Vector" d="M6.36546 3.18273C6.36546 2.74262 6.72103 2.38705 7.16114 2.38705H8.7525C9.19261 2.38705 9.54818 2.74262 9.54818 3.18273V4.77409C9.54818 5.2142 9.19261 5.56977 8.7525 5.56977H8.55358V7.16114H11.5374C12.527 7.16114 13.3277 7.96179 13.3277 8.95142V10.3439H13.5266C13.9667 10.3439 14.3223 10.6994 14.3223 11.1395V12.7309C14.3223 13.171 13.9667 13.5266 13.5266 13.5266H11.9352C11.4951 13.5266 11.1395 13.171 11.1395 12.7309V11.1395C11.1395 10.6994 11.4951 10.3439 11.9352 10.3439H12.1342V8.95142C12.1342 8.62072 11.8681 8.35466 11.5374 8.35466H8.55358V10.3439H8.7525C9.19261 10.3439 9.54818 10.6994 9.54818 11.1395V12.7309C9.54818 13.171 9.19261 13.5266 8.7525 13.5266H7.16114C6.72103 13.5266 6.36546 13.171 6.36546 12.7309V11.1395C6.36546 10.6994 6.72103 10.3439 7.16114 10.3439H7.36006V8.35466H4.37625C4.04555 8.35466 3.77949 8.62072 3.77949 8.95142V10.3439H3.97841C4.41852 10.3439 4.77409 10.6994 4.77409 11.1395V12.7309C4.77409 13.171 4.41852 13.5266 3.97841 13.5266H2.38705C1.94693 13.5266 1.59136 13.171 1.59136 12.7309V11.1395C1.59136 10.6994 1.94693 10.3439 2.38705 10.3439H2.58597V8.95142C2.58597 7.96179 3.38662 7.16114 4.37625 7.16114H7.36006V5.56977H7.16114C6.72103 5.56977 6.36546 5.2142 6.36546 4.77409V3.18273Z" fill="var(--fill-0, #FE3FB2)"/>
</g>
</svg>
