<svg preserveAspectRatio="none" width="100%" height="100%" overflow="visible" style="display: block;" viewBox="0 0 19.0011 19" fill="none" xmlns="http://www.w3.org/2000/svg">
<g id="Group">
<path id="Vector" d="M1.35041 9.49977C1.35041 12.7256 3.22513 15.5133 5.94363 16.8344L2.05601 6.18307C1.6038 7.19662 1.35041 8.31827 1.35041 9.49977Z" fill="var(--fill-0, #21759B)"/>
<path id="Vector_2" d="M15.0021 9.08851C15.0021 8.08131 14.6403 7.3838 14.33 6.84089C13.9169 6.16958 13.5297 5.60108 13.5297 4.92977C13.5297 4.18061 14.0979 3.48325 14.8982 3.48325C14.9344 3.48325 14.9686 3.48774 15.0038 3.48976C13.5539 2.16141 11.6221 1.35037 9.50031 1.35037C6.6531 1.35037 4.14815 2.81116 2.69089 5.02374C2.8821 5.02948 3.0623 5.03351 3.21536 5.03351C4.06782 5.03351 5.38737 4.93008 5.38737 4.93008C5.8267 4.90418 5.87849 5.54944 5.43963 5.60139C5.43963 5.60139 4.99812 5.65334 4.50684 5.67908L7.4747 14.5066L9.25823 9.15768L7.98847 5.67877C7.5496 5.65303 7.13384 5.60108 7.13384 5.60108C6.69466 5.57534 6.74615 4.90387 7.18532 4.92977C7.18532 4.92977 8.53123 5.0332 9.33205 5.0332C10.1844 5.0332 11.5041 4.92977 11.5041 4.92977C11.9437 4.90387 11.9953 5.54913 11.5563 5.60108C11.5563 5.60108 11.1139 5.65303 10.6235 5.67877L13.5687 14.4395L14.3817 11.723C14.734 10.5958 15.0021 9.78619 15.0021 9.08851Z" fill="var(--fill-0, #21759B)"/>
<path id="Vector_3" d="M9.64329 10.2126L7.19804 17.3179C7.92814 17.5325 8.70027 17.6499 9.50031 17.6499C10.4494 17.6499 11.3595 17.4859 12.2067 17.188C12.1848 17.1531 12.165 17.116 12.1487 17.0757L9.64329 10.2126Z" fill="var(--fill-0, #21759B)"/>
<path id="Vector_4" d="M16.6515 5.58976C16.6866 5.84935 16.7064 6.12802 16.7064 6.42777C16.7064 7.25478 16.552 8.18444 16.0867 9.34687L13.5973 16.5443C16.0202 15.1314 17.6499 12.5065 17.6499 9.49992C17.6501 8.08302 17.2881 6.75063 16.6515 5.58976Z" fill="var(--fill-0, #21759B)"/>
<path id="Vector_5" d="M9.50031 0C4.26197 0 0 4.26156 0 9.49977C0 14.7386 4.26197 19 9.50031 19C14.7385 19 19.0011 14.7386 19.0011 9.49977C19.0009 4.26156 14.7385 0 9.50031 0ZM9.50031 18.5646C4.50219 18.5646 0.435611 14.4981 0.435611 9.49977C0.435611 4.50177 4.50203 0.4356 9.50031 0.4356C14.4983 0.4356 18.5645 4.50177 18.5645 9.49977C18.5645 14.4981 14.4983 18.5646 9.50031 18.5646Z" fill="var(--fill-0, #21759B)"/>
</g>
</svg>
