<svg width="118" height="145" viewBox="0 0 118 145" fill="none" xmlns="http://www.w3.org/2000/svg">
<path d="M116.026 80.7818L115.539 80.6693L116.026 80.7818ZM1.50208 136.232C1.28143 136.398 1.23713 136.712 1.40315 136.932L4.10866 140.528C4.27468 140.749 4.58815 140.793 4.80882 140.627C5.02947 140.461 5.07377 140.148 4.90775 139.927L2.50285 136.731L5.69917 134.326C5.91983 134.16 5.96413 133.846 5.79811 133.625C5.63208 133.405 5.31861 133.361 5.09795 133.527L1.50208 136.232ZM56.0433 1.86758C55.8093 2.30946 55.8093 2.30945 55.8093 2.30945C55.8093 2.30945 55.8093 2.30945 55.8093 2.30945C55.8093 2.30945 55.8093 2.30946 55.8094 2.30947C55.8094 2.3095 55.8095 2.30954 55.8096 2.30961C55.8099 2.30974 55.8103 2.30995 55.8108 2.31025C55.812 2.31084 55.8137 2.31176 55.816 2.313C55.8207 2.31548 55.8278 2.31926 55.8373 2.32434C55.8563 2.33449 55.885 2.34981 55.923 2.37025C55.999 2.41113 56.1125 2.47247 56.2614 2.55386C56.5592 2.71663 56.9989 2.95955 57.5642 3.27919L58.0564 2.40869C57.4866 2.08657 57.0428 1.84132 56.7409 1.67635C56.59 1.59386 56.4746 1.53145 56.3966 1.48953C56.3576 1.46857 56.328 1.45274 56.3081 1.44209C56.2981 1.43676 56.2905 1.43272 56.2854 1.42999C56.2828 1.42863 56.2809 1.42759 56.2795 1.42687C56.2788 1.42651 56.2783 1.42624 56.2779 1.42605C56.2778 1.42595 56.2776 1.42587 56.2775 1.42582C56.2775 1.42579 56.2774 1.42576 56.2774 1.42575C56.2774 1.42574 56.2773 1.42573 56.2773 1.42572C56.2773 1.42571 56.2773 1.42571 56.0433 1.86758ZM61.0299 5.3001C62.0644 5.92001 63.2275 6.63101 64.496 7.42816L65.0281 6.58145C63.7532 5.78033 62.5841 5.06564 61.5439 4.44233L61.0299 5.3001ZM67.8865 9.6061C68.9652 10.3141 70.0929 11.0689 71.2596 11.8682L71.8248 11.0432C70.6523 10.24 69.5192 9.48158 68.4352 8.77011L67.8865 9.6061ZM74.579 14.1916C75.6455 14.9542 76.7343 15.7489 77.8391 16.5741L78.4376 15.773C77.327 14.9434 76.2325 14.1446 75.1607 13.3781L74.579 14.1916ZM81.0516 19.0285C82.0976 19.846 83.1518 20.6887 84.2092 21.5553L84.8431 20.7819C83.7795 19.9101 82.7192 19.0627 81.6674 18.2406L81.0516 19.0285ZM87.3054 24.157C88.3179 25.0297 89.3286 25.9234 90.333 26.8369L91.0059 26.0972C89.9946 25.1773 88.9772 24.2778 87.9582 23.3995L87.3054 24.157ZM93.2841 29.5992C94.2509 30.5312 95.2072 31.4813 96.149 32.4486L96.8655 31.751C95.916 30.7758 94.9521 29.8182 93.9782 28.8793L93.2841 29.5992ZM98.9162 35.3903C99.8216 36.3876 100.708 37.4011 101.572 38.4299L102.338 37.7868C101.465 36.7477 100.57 35.7245 99.6566 34.7181L98.9162 35.3903ZM104.1 41.5733C104.923 42.6434 105.718 43.7281 106.48 44.8264L107.302 44.2559C106.529 43.1437 105.725 42.046 104.893 40.9638L104.1 41.5733ZM108.689 48.1944C109.398 49.344 110.069 50.5067 110.697 51.6814L111.579 51.2097C110.941 50.0159 110.259 48.8355 109.54 47.6695L108.689 48.1944ZM112.471 55.2884C113.023 56.5184 113.525 57.76 113.972 59.012L114.914 58.6756C114.457 57.3977 113.946 56.1318 113.384 54.8792L112.471 55.2884ZM115.157 62.8422C115.495 64.1387 115.771 65.4449 115.98 66.7598L116.968 66.6026C116.753 65.2543 116.47 63.9164 116.124 62.5899L115.157 62.8422ZM116.403 70.7353C116.472 72.0592 116.471 73.3909 116.393 74.7293L117.391 74.7874C117.471 73.4113 117.473 72.0426 117.401 70.6827L116.403 70.7353ZM115.937 78.6955C115.824 79.352 115.691 80.0099 115.539 80.6693L116.513 80.8943C116.67 80.2167 116.806 79.5404 116.922 78.8654L115.937 78.6955ZM115.539 80.6693C115.382 81.3501 115.217 82.0229 115.044 82.6877L116.012 82.9393C116.187 82.2657 116.354 81.584 116.513 80.8943L115.539 80.6693ZM113.916 86.5813C113.492 87.9052 113.036 89.195 112.549 90.4515L113.481 90.8128C113.975 89.5375 114.438 88.229 114.868 86.8864L113.916 86.5813ZM110.964 94.1982C110.39 95.4437 109.785 96.6539 109.151 97.8297L110.031 98.3048C110.676 97.1103 111.29 95.8811 111.872 94.6163L110.964 94.1982ZM107.089 101.364C106.36 102.526 105.599 103.65 104.809 104.739L105.619 105.326C106.421 104.219 107.194 103.076 107.936 101.896L107.089 101.364ZM102.314 107.95C101.439 109.002 100.536 110.017 99.6061 110.996L100.331 111.685C101.276 110.689 102.194 109.658 103.083 108.589L102.314 107.95ZM96.7034 113.863C95.7029 114.79 94.6771 115.681 93.6284 116.539L94.2613 117.313C95.3256 116.443 96.367 115.538 97.383 114.597L96.7034 113.863ZM90.3966 119.023C89.2925 119.822 88.1674 120.586 87.0238 121.319L87.5632 122.161C88.7221 121.419 89.8628 120.643 90.9826 119.834L90.3966 119.023ZM83.5272 123.428C82.342 124.101 81.1407 124.743 79.9258 125.355L80.3755 126.248C81.6048 125.629 82.8209 124.979 84.021 124.298L83.5272 123.428ZM76.2342 127.105C74.9887 127.661 73.7321 128.187 72.4668 128.687L72.8338 129.617C74.1122 129.112 75.3823 128.58 76.6416 128.018L76.2342 127.105ZM68.6316 130.109C67.34 130.558 66.0422 130.981 64.741 131.378L65.0331 132.334C66.3461 131.933 67.6561 131.507 68.9602 131.053L68.6316 130.109ZM60.8057 132.503C59.4822 132.856 58.1579 133.184 56.8355 133.49L57.0607 134.464C58.3935 134.156 59.7287 133.825 61.0634 133.469L60.8057 132.503ZM52.8382 134.347C51.4873 134.615 50.1414 134.86 48.8035 135.084L48.9687 136.07C50.316 135.845 51.6716 135.598 53.0326 135.328L52.8382 134.347ZM44.7495 135.704C43.3803 135.894 42.0232 136.063 40.6814 136.213L40.7924 137.207C42.1427 137.056 43.5086 136.886 44.8869 136.695L44.7495 135.704ZM36.6035 136.616C35.2195 136.735 33.8565 136.835 32.5187 136.918L32.5803 137.916C33.9259 137.833 35.2969 137.732 36.6894 137.612L36.6035 136.616ZM28.4279 137.122C27.0254 137.176 25.658 137.212 24.3309 137.232L24.3464 138.232C25.6808 138.211 27.0558 138.175 28.4662 138.121L28.4279 137.122ZM20.2266 137.25C18.7921 137.24 17.4196 137.214 16.1173 137.176L16.088 138.175C17.3974 138.214 18.7774 138.24 20.2197 138.25L20.2266 137.25ZM12.0199 137.009C10.5153 136.93 9.15028 136.84 7.94412 136.747L7.86743 137.744C9.08132 137.837 10.4545 137.929 11.9677 138.008L12.0199 137.009ZM3.84501 136.372C3.20312 136.303 2.70879 136.244 2.37554 136.202C2.20892 136.181 2.08257 136.165 1.99819 136.154C1.956 136.148 1.9243 136.144 1.90331 136.141C1.89281 136.139 1.88499 136.138 1.87987 136.138C1.87731 136.137 1.87543 136.137 1.87422 136.137C1.87362 136.137 1.87319 136.137 1.87293 136.137C1.8728 136.137 1.87271 136.137 1.87266 136.137C1.87264 136.137 1.87263 136.137 1.87262 136.137L1.87263 136.137C1.87264 136.137 1.87265 136.137 1.8027 136.632C1.73274 137.127 1.73276 137.127 1.73278 137.127C1.73279 137.127 1.73281 137.127 1.73284 137.127C1.73287 137.127 1.73293 137.127 1.73299 137.127C1.73312 137.127 1.73328 137.127 1.73349 137.127C1.73391 137.127 1.7345 137.127 1.73526 137.127C1.73678 137.127 1.73898 137.128 1.74185 137.128C1.74761 137.129 1.75606 137.13 1.7672 137.131C1.78947 137.135 1.82246 137.139 1.86595 137.145C1.95295 137.156 2.08196 137.173 2.25131 137.194C2.59001 137.237 3.09005 137.297 3.73789 137.366L3.84501 136.372ZM116.026 80.7818L115.052 80.5567L116.026 80.7818ZM1.20147 135.833C0.760156 136.165 0.671572 136.792 1.00362 137.233L6.41463 144.425C6.74667 144.866 7.37361 144.954 7.81493 144.622C8.25625 144.29 8.34483 143.663 8.01279 143.222L3.203 136.829L9.59565 132.02C10.037 131.688 10.1256 131.061 9.79351 130.619C9.46147 130.178 8.83453 130.089 8.39321 130.422L1.20147 135.833ZM56.0433 1.86758C55.5754 2.75133 55.5753 2.75132 55.5753 2.75131C55.5753 2.75131 55.5753 2.7513 55.5753 2.7513C55.5753 2.75129 55.5753 2.75129 55.5753 2.7513C55.5753 2.75131 55.5754 2.75134 55.5755 2.75139C55.5757 2.75149 55.576 2.75167 55.5765 2.75194C55.5775 2.75247 55.5791 2.75332 55.5813 2.7545C55.5858 2.75686 55.5926 2.76052 55.6019 2.76547C55.6205 2.77537 55.6486 2.79043 55.6862 2.81061C55.7612 2.85097 55.8737 2.91178 56.0216 2.99261C56.3174 3.15429 56.755 3.39604 57.3181 3.71444L58.3025 1.97344C57.7305 1.65009 57.2846 1.40366 56.9807 1.23759C56.8288 1.15456 56.7123 1.09161 56.6334 1.04917C56.594 1.02795 56.5639 1.01187 56.5435 1.00096C56.5332 0.995504 56.5254 0.991346 56.5201 0.98849C56.5174 0.987062 56.5153 0.985959 56.5138 0.985183C56.5131 0.984795 56.5125 0.984488 56.5121 0.984263C56.5119 0.984151 56.5117 0.984059 56.5116 0.983988C56.5115 0.983952 56.5115 0.983921 56.5114 0.983896C56.5114 0.983883 56.5114 0.983867 56.5113 0.983861C56.5113 0.983847 56.5113 0.983834 56.0433 1.86758ZM60.7729 5.72899C61.8045 6.34719 62.9646 7.05635 64.23 7.85151L65.2941 6.1581C64.0161 5.35499 62.8439 4.63845 61.8009 4.01344L60.7729 5.72899ZM67.6121 10.0241C68.6882 10.7304 69.8131 11.4833 70.977 12.2807L72.1074 10.6308C70.9321 9.82556 69.7962 9.0653 68.7096 8.35211L67.6121 10.0241ZM74.2881 14.5983C75.3519 15.359 76.438 16.1516 77.5399 16.9747L78.7368 15.3724C77.6233 14.5406 76.526 13.7398 75.4515 12.9714L74.2881 14.5983ZM80.7437 19.4224C81.7868 20.2377 82.838 21.0779 83.8922 21.942L85.1601 20.3952C84.0933 19.5209 83.03 18.671 81.9753 17.8466L80.7437 19.4224ZM86.9789 24.5357C87.9883 25.4057 88.9957 26.2964 89.9966 27.2068L91.3424 25.7273C90.3276 24.8043 89.3069 23.9018 88.2847 23.0208L86.9789 24.5357ZM92.9371 29.9592C93.9002 30.8877 94.8528 31.8341 95.7907 32.7974L97.2238 31.4023C96.2704 30.423 95.3028 29.4617 94.3252 28.5193L92.9371 29.9592ZM98.546 35.7264C99.4473 36.7192 100.33 37.7278 101.189 38.7514L102.721 37.4653C101.844 36.421 100.945 35.393 100.027 34.3821L98.546 35.7264ZM103.704 41.878C104.522 42.9421 105.312 44.0203 106.07 45.1116L107.712 43.9707C106.935 42.8515 106.126 41.7473 105.289 40.6591L103.704 41.878ZM108.263 48.4569C108.967 49.5982 109.633 50.752 110.256 51.9172L112.02 50.9739C111.376 49.7706 110.69 48.5813 109.966 47.407L108.263 48.4569ZM112.015 55.493C112.562 56.7117 113.059 57.9412 113.501 59.1802L115.385 58.5075C114.924 57.2165 114.407 55.9385 113.84 54.6746L112.015 55.493ZM114.673 62.9684C115.007 64.2499 115.28 65.5402 115.486 66.8384L117.462 66.524C117.244 65.159 116.958 63.8052 116.608 62.4637L114.673 62.9684ZM115.903 70.7616C115.972 72.0675 115.97 73.3807 115.894 74.7002L117.89 74.8164C117.971 73.4214 117.973 72.0343 117.9 70.6564L115.903 70.7616ZM115.444 78.6105C115.333 79.2578 115.202 79.9065 115.052 80.5567L117 81.0068C117.159 80.3201 117.297 79.6346 117.415 78.9504L115.444 78.6105ZM115.052 80.5567C114.896 81.2332 114.731 81.9016 114.56 82.5619L116.495 83.0651C116.672 82.387 116.84 81.7009 117 81.0068L115.052 80.5567ZM113.44 86.4288C113.019 87.7433 112.566 89.0237 112.083 90.2709L113.948 90.9934C114.445 89.7088 114.911 88.3909 115.344 87.039L113.44 86.4288ZM110.509 93.9892C109.941 95.225 109.34 96.4257 108.711 97.5921L110.47 98.5424C111.121 97.3385 111.74 96.0997 112.326 94.8253L110.509 93.9892ZM106.666 101.098C105.942 102.25 105.188 103.366 104.404 104.446L106.023 105.62C106.832 104.504 107.612 103.352 108.359 102.162L106.666 101.098ZM101.93 107.63C101.062 108.673 100.166 109.68 99.2435 110.652L100.694 112.029C101.646 111.026 102.571 109.986 103.467 108.909L101.93 107.63ZM96.3636 113.496C95.3708 114.416 94.3528 115.301 93.312 116.152L94.5778 117.7C95.6499 116.824 96.699 115.912 97.7228 114.963L96.3636 113.496ZM90.1037 118.618C89.0073 119.411 87.89 120.17 86.7541 120.898L87.8328 122.582C88.9995 121.835 90.1479 121.054 91.2756 120.239L90.1037 118.618ZM83.2803 122.994C82.1026 123.662 80.9087 124.3 79.7009 124.908L80.6003 126.695C81.8369 126.072 83.0603 125.418 84.2679 124.733L83.2803 122.994ZM76.0305 126.649C74.792 127.201 73.5421 127.725 72.2833 128.221L73.0173 130.082C74.3022 129.575 75.5791 129.04 76.8453 128.475L76.0305 126.649ZM68.4673 129.636C67.1819 130.083 65.8902 130.504 64.5949 130.9L65.1792 132.813C66.4981 132.41 67.8141 131.981 69.1245 131.525L68.4673 129.636ZM60.6769 132.02C59.3589 132.371 58.04 132.698 56.7229 133.003L57.1733 134.952C58.5114 134.642 59.852 134.31 61.1923 133.952L60.6769 132.02ZM52.741 133.857C51.3951 134.123 50.0541 134.368 48.7209 134.591L49.0513 136.563C50.4032 136.337 51.7638 136.089 53.1298 135.819L52.741 133.857ZM44.6807 135.209C43.3162 135.398 41.9634 135.567 40.6259 135.716L40.8479 137.704C42.2025 137.552 43.5728 137.382 44.9556 137.19L44.6807 135.209ZM36.5606 136.118C35.1807 136.237 33.8218 136.336 32.4878 136.419L32.6111 138.415C33.9606 138.332 35.3357 138.231 36.7323 138.11L36.5606 136.118ZM28.4088 136.622C27.0102 136.676 25.6466 136.712 24.3231 136.732L24.3542 138.732C25.6922 138.711 27.071 138.675 28.4853 138.621L28.4088 136.622ZM20.23 136.75C18.7994 136.74 17.4306 136.714 16.1319 136.676L16.0734 138.675C17.3864 138.714 18.7701 138.74 20.2163 138.75L20.23 136.75ZM12.046 136.51C10.5456 136.431 9.18476 136.341 7.98247 136.248L7.82909 138.242C9.04683 138.336 10.4241 138.428 11.9417 138.507L12.046 136.51ZM3.89856 135.875C3.25965 135.806 2.76817 135.747 2.43765 135.706C2.27239 135.685 2.14738 135.669 2.0643 135.658C2.02277 135.652 1.99172 135.648 1.97136 135.645C1.96118 135.644 1.95368 135.643 1.94888 135.642C1.94648 135.642 1.94476 135.642 1.9437 135.642C1.94319 135.642 1.94283 135.641 1.94264 135.641C1.94255 135.641 1.94251 135.641 1.9425 135.641C1.94249 135.641 1.9425 135.641 1.94252 135.641C1.94253 135.641 1.94255 135.641 1.94255 135.641C1.94258 135.641 1.94261 135.641 1.8027 136.632C1.66279 137.622 1.66282 137.622 1.66286 137.622C1.66287 137.622 1.66291 137.622 1.66294 137.622C1.663 137.622 1.66307 137.622 1.66316 137.622C1.66332 137.622 1.66352 137.622 1.66377 137.622C1.66427 137.622 1.66494 137.622 1.66578 137.622C1.66745 137.622 1.66981 137.623 1.67285 137.623C1.67891 137.624 1.68768 137.625 1.69914 137.627C1.72206 137.63 1.75569 137.635 1.79984 137.64C1.88814 137.652 2.0185 137.669 2.1892 137.691C2.53063 137.733 3.03353 137.793 3.68434 137.864L3.89856 135.875Z" fill="#DADADA"/>
</svg>
