<svg width="46" height="60" viewBox="0 0 46 60" fill="none" xmlns="http://www.w3.org/2000/svg">
<path d="M44.6526 30.5763L44.1654 30.4638L44.6526 30.5763ZM1.54212 51.1087C1.32146 51.2747 1.27717 51.5882 1.44319 51.8089L4.14869 55.4047C4.31472 55.6254 4.62819 55.6697 4.84884 55.5037C5.06951 55.3376 5.1138 55.0242 4.94777 54.8035L2.54288 51.6072L5.73921 49.2023C5.95987 49.0363 6.00416 48.7228 5.83814 48.5021C5.67211 48.2815 5.35864 48.2372 5.13798 48.4032L1.54212 51.1087ZM22.1716 0.999999C21.9376 1.44187 21.9376 1.44186 21.9376 1.44186C21.9376 1.44186 21.9376 1.44185 21.9376 1.44185C21.9376 1.44185 21.9376 1.44185 21.9376 1.44186C21.9376 1.44188 21.9377 1.44191 21.9378 1.44197C21.938 1.44209 21.9384 1.44228 21.9389 1.44256C21.94 1.44313 21.9417 1.44402 21.9439 1.44524C21.9485 1.44769 21.9556 1.45145 21.965 1.45652C21.9839 1.46666 22.0125 1.48203 22.0502 1.50253C22.1257 1.54354 22.2379 1.60509 22.3836 1.68646C22.675 1.84921 23.1001 2.09121 23.6317 2.40668L24.142 1.54668C23.6023 1.2264 23.1696 0.980055 22.8713 0.813404C22.7221 0.730074 22.6064 0.666657 22.5277 0.623873C22.4883 0.602481 22.4582 0.586246 22.4377 0.575258C22.4274 0.569765 22.4196 0.565582 22.4142 0.562723C22.4115 0.561293 22.4095 0.560195 22.408 0.559428C22.4073 0.559044 22.4067 0.558744 22.4063 0.558527C22.4061 0.558418 22.406 0.558331 22.4058 0.558264C22.4058 0.55823 22.4057 0.558202 22.4057 0.558179C22.4057 0.558167 22.4056 0.558154 22.4056 0.558148C22.4056 0.558136 22.4056 0.558125 22.1716 0.999999ZM26.9483 4.499C27.939 5.16068 29.024 5.91868 30.1534 6.76231L30.7518 5.96116C29.6067 5.10575 28.5072 4.33761 27.5037 3.66741L26.9483 4.499ZM33.2271 9.20064C34.2043 10.0259 35.181 10.9038 36.128 11.828L36.8264 11.1123C35.8602 10.1694 34.8655 9.27541 33.8723 8.43662L33.2271 9.20064ZM38.8018 14.6749C39.653 15.6722 40.4462 16.7071 41.1542 17.7736L41.9873 17.2205C41.2541 16.116 40.4359 15.0491 39.5624 14.0257L38.8018 14.6749ZM43.035 21.1495C43.569 22.34 43.9749 23.5562 44.2226 24.7915L45.203 24.5949C44.9389 23.2772 44.5079 21.9898 43.9475 20.7403L43.035 21.1495ZM44.4576 28.582C44.4072 29.2053 44.3111 29.8328 44.1654 30.4638L45.1397 30.6888C45.2966 30.0099 45.4001 29.3341 45.4544 28.6626L44.4576 28.582ZM44.1654 30.4638C44.0238 31.0768 43.8651 31.6719 43.6902 32.2496L44.6472 32.5394C44.8287 31.94 44.9932 31.3233 45.1397 30.6888L44.1654 30.4638ZM42.3796 35.6706C41.8445 36.806 41.2377 37.8606 40.5693 38.8403L41.3954 39.4039C42.0934 38.3808 42.7265 37.2803 43.2842 36.0969L42.3796 35.6706ZM38.2718 41.6851C37.4222 42.5801 36.5123 43.3956 35.5542 44.1385L36.167 44.9288C37.1629 44.1565 38.1108 43.3072 38.9971 42.3736L38.2718 41.6851ZM32.5055 46.1805C31.441 46.7955 30.3395 47.3418 29.2142 47.8265L29.6098 48.745C30.768 48.2461 31.9047 47.6825 33.0058 47.0464L32.5055 46.1805ZM25.7552 49.1111C24.5704 49.4869 23.3755 49.8056 22.1851 50.075L22.4057 51.0503C23.6212 50.7753 24.8435 50.4494 26.0575 50.0643L25.7552 49.1111ZM18.5439 50.7572C17.2862 50.9469 16.0518 51.0882 14.8589 51.191L14.9447 52.1873C16.1568 52.0829 17.4125 51.9392 18.6931 51.746L18.5439 50.7572ZM11.1511 51.4017C9.806 51.4399 8.55704 51.4349 7.43976 51.4059L7.41377 52.4056C8.54731 52.435 9.81451 52.4401 11.1796 52.4013L11.1511 51.4017ZM3.72725 51.2041C3.14609 51.1548 2.69048 51.1068 2.3811 51.0713C2.22642 51.0535 2.10832 51.0388 2.02938 51.0287C1.98992 51.0236 1.96024 51.0197 1.94068 51.017C1.9309 51.0157 1.92365 51.0147 1.91897 51.0141C1.91663 51.0137 1.91493 51.0135 1.91388 51.0133C1.91336 51.0133 1.913 51.0132 1.9128 51.0132C1.91269 51.0132 1.91264 51.0132 1.91262 51.0132C1.91261 51.0132 1.91261 51.0132 1.91262 51.0132C1.91263 51.0132 1.91264 51.0132 1.91265 51.0132C1.91266 51.0132 1.91268 51.0132 1.84273 51.5083C1.77278 52.0033 1.7728 52.0033 1.77283 52.0034C1.77284 52.0034 1.77287 52.0034 1.7729 52.0034C1.77295 52.0034 1.77302 52.0034 1.77309 52.0034C1.77323 52.0034 1.77342 52.0034 1.77364 52.0035C1.7741 52.0035 1.77471 52.0036 1.77549 52.0037C1.77704 52.0039 1.77925 52.0042 1.78209 52.0046C1.78779 52.0054 1.79607 52.0066 1.80688 52.008C1.82851 52.0109 1.86029 52.0152 1.9019 52.0205C1.98512 52.0312 2.10766 52.0464 2.26694 52.0647C2.58547 52.1013 3.05099 52.1503 3.64274 52.2005L3.72725 51.2041ZM44.6526 30.5763L43.6782 30.3512L44.6526 30.5763ZM1.24151 50.7092C0.800184 51.0412 0.711603 51.6682 1.04365 52.1095L6.45466 59.3012C6.7867 59.7425 7.41364 59.8311 7.85496 59.4991C8.29628 59.167 8.38487 58.5401 8.05282 58.0988L3.24303 51.7061L9.63568 46.8963C10.077 46.5643 10.1656 45.9373 9.83354 45.496C9.50149 45.0547 8.87456 44.9661 8.43324 45.2982L1.24151 50.7092ZM22.1716 0.999999C21.7036 1.88375 21.7036 1.88373 21.7036 1.88371C21.7036 1.88371 21.7035 1.88369 21.7035 1.88369C21.7035 1.88367 21.7035 1.88366 21.7035 1.88366C21.7034 1.88365 21.7035 1.88366 21.7035 1.88369C21.7036 1.88376 21.7039 1.8839 21.7044 1.88413C21.7052 1.88459 21.7067 1.88538 21.7088 1.8865C21.713 1.88874 21.7197 1.8923 21.7287 1.89715C21.7468 1.90687 21.7746 1.9218 21.8115 1.94186C21.8853 1.98198 21.9959 2.0426 22.1398 2.12299C22.4277 2.28379 22.849 2.52361 23.3766 2.83668L24.3972 1.11667C23.8533 0.793997 23.4169 0.545477 23.1151 0.376875C22.9641 0.292566 22.8468 0.228215 22.7664 0.184544C22.7262 0.162707 22.6953 0.146038 22.674 0.134627C22.6633 0.128921 22.6551 0.124529 22.6494 0.121463C22.6465 0.11993 22.6442 0.118728 22.6426 0.117859C22.6418 0.117425 22.6411 0.117073 22.6406 0.116805C22.6404 0.116671 22.6401 0.116558 22.64 0.116466C22.6399 0.11642 22.6398 0.116379 22.6397 0.116343C22.6397 0.116325 22.6397 0.116302 22.6396 0.116293C22.6396 0.116272 22.6396 0.116252 22.1716 0.999999ZM26.6706 4.9148C27.6549 5.57221 28.7327 6.32515 29.8541 7.16289L31.051 5.56058C29.898 4.69929 28.7913 3.92608 27.7813 3.25161L26.6706 4.9148ZM32.9045 9.58264C33.8738 10.4012 34.8414 11.271 35.7788 12.1858L37.1756 10.7544C36.1998 9.80216 35.1961 8.90015 34.1948 8.05461L32.9045 9.58264ZM38.4215 14.9995C39.2615 15.9837 40.0422 17.0026 40.7376 18.0501L42.4039 16.944C41.6581 15.8205 40.8274 14.7376 39.9427 13.7011L38.4215 14.9995ZM42.5788 21.3541C43.0995 22.5151 43.4929 23.6957 43.7323 24.8897L45.6933 24.4966C45.4209 23.1378 44.9773 21.8147 44.4037 20.5357L42.5788 21.3541ZM43.9592 28.5417C43.9108 29.1409 43.8184 29.7442 43.6782 30.3512L45.6269 30.8013C45.7893 30.0985 45.8965 29.3985 45.9527 28.7029L43.9592 28.5417ZM43.6782 30.3512C43.5391 30.9536 43.3832 31.5379 43.2116 32.1047L45.1258 32.6843C45.3106 32.074 45.4779 31.4465 45.6269 30.8013L43.6782 30.3512ZM41.9273 35.4575C41.4035 36.5689 40.8099 37.6006 40.1563 38.5585L41.8084 39.6857C42.5213 38.6409 43.1675 37.5174 43.7365 36.3101L41.9273 35.4575ZM37.9092 41.3409C37.078 42.2165 36.187 43.0151 35.2478 43.7434L36.4733 45.3239C37.4882 44.537 38.455 43.6708 39.3597 42.7178L37.9092 41.3409ZM32.2554 45.7476C31.2092 46.352 30.1253 46.8897 29.0164 47.3673L29.8077 49.2042C30.9822 48.6982 32.1366 48.126 33.2559 47.4793L32.2554 45.7476ZM25.604 48.6345C24.4338 49.0057 23.2527 49.3208 22.0747 49.5873L22.516 51.538C23.744 51.2602 24.98 50.9306 26.2087 50.5409L25.604 48.6345ZM18.4694 50.2628C17.2231 50.4508 15.9993 50.5909 14.816 50.6928L14.9876 52.6854C16.2093 52.5802 17.4756 52.4353 18.7676 52.2404L18.4694 50.2628ZM11.1369 50.9019C9.80174 50.9398 8.5619 50.9349 7.45276 50.9061L7.40077 52.9054C8.54245 52.9351 9.81877 52.9402 11.1938 52.9011L11.1369 50.9019ZM3.7695 50.7059C3.19364 50.657 2.74298 50.6095 2.43818 50.5745C2.2858 50.557 2.16992 50.5426 2.09312 50.5328C2.05472 50.5278 2.0261 50.524 2.00758 50.5215C1.99832 50.5203 1.99158 50.5193 1.98741 50.5188C1.98533 50.5185 1.98388 50.5183 1.98308 50.5182C1.98269 50.5181 1.98245 50.5181 1.98237 50.5181C1.98234 50.5181 1.98234 50.5181 1.98238 50.5181C1.9824 50.5181 1.98243 50.5181 1.98248 50.5181C1.9825 50.5181 1.98254 50.5181 1.98255 50.5181C1.98259 50.5181 1.98264 50.5181 1.84273 51.5083C1.70282 52.4984 1.70287 52.4984 1.70292 52.4984C1.70294 52.4984 1.703 52.4984 1.70304 52.4985C1.70312 52.4985 1.70322 52.4985 1.70332 52.4985C1.70353 52.4985 1.70378 52.4986 1.70406 52.4986C1.70464 52.4987 1.70538 52.4988 1.70629 52.4989C1.70809 52.4992 1.71055 52.4995 1.71366 52.4999C1.71986 52.5008 1.72865 52.502 1.73998 52.5035C1.76265 52.5066 1.79548 52.5109 1.83816 52.5164C1.92352 52.5274 2.04828 52.5429 2.20985 52.5614C2.53296 52.5986 3.00344 52.6481 3.60049 52.6987L3.7695 50.7059Z" fill="#DADADA"/>
</svg>
