<svg width="1440" height="807" viewBox="0 0 1440 807" fill="none" xmlns="http://www.w3.org/2000/svg">
<path d="M-12.5882 779.899C-12.5882 779.899 348.819 417.042 617.578 399.164C886.337 381.286 971.36 527.214 1218.66 545.595C1465.97 563.975 1653.99 20.9724 1653.99 20.9724" stroke="#D5D5D5"/>
<path d="M-32.898 615.389C-32.898 615.389 117.244 516.357 266.391 518.015C415.539 519.674 597.694 725.066 874.337 671.874C1150.98 618.682 1174.1 345.986 1329.21 185.681C1484.33 25.3765 1613.51 5.68394 1613.51 5.68394" stroke="#4285F4" stroke-width="2"/>
<path d="M-1.17694 690.531C-1.17694 690.531 30.2092 647.199 147.703 626.535C265.197 605.871 264.973 657.304 389.125 631.035C513.278 604.766 741.092 363.167 952.325 343.082C1163.56 322.998 1485.29 595.882 1694.01 537.633" stroke="#A5A5A5" stroke-dasharray="5 5"/>
</svg>
