<svg width="71" height="51" viewBox="0 0 71 51" fill="none" xmlns="http://www.w3.org/2000/svg">
<path fill-rule="evenodd" clip-rule="evenodd" d="M0.5 18.5313V25.1152H0.682863C0.861667 25.1152 0.865726 25.1178 0.865726 25.2294V25.3436H1.21317H1.56061V25.4526C1.56061 25.5534 1.57333 25.5634 1.7303 25.5858C1.8236 25.5991 1.97995 25.61 2.07774 25.61C2.25084 25.61 2.25549 25.613 2.25549 25.7242V25.8383H2.71264H3.1698V25.9525C3.1698 26.0637 3.17445 26.0667 3.34754 26.0667C3.44534 26.0667 3.60077 26.0775 3.69301 26.0906C3.8397 26.1115 3.86212 26.127 3.87185 26.2143C3.88289 26.3135 3.88509 26.3141 4.23955 26.3249L4.59613 26.3358V26.4486C4.59613 26.5582 4.60125 26.5614 4.77388 26.5614C4.87167 26.5614 5.02802 26.5723 5.12132 26.5856C5.26545 26.6062 5.29101 26.6226 5.29101 26.6946C5.29101 26.7667 5.31658 26.7831 5.46071 26.8036C5.55401 26.817 5.71036 26.8278 5.80815 26.8278C5.98125 26.8278 5.98589 26.8308 5.98589 26.942V27.0562H6.33333H6.68077V27.1704C6.68077 27.2811 6.68593 27.2845 6.85449 27.2849C6.95006 27.285 7.11463 27.296 7.22022 27.3092C7.38739 27.3301 7.41223 27.3441 7.41223 27.4179C7.41223 27.4897 7.43786 27.5062 7.58192 27.5267C7.67522 27.5401 7.83157 27.5509 7.92936 27.5509C8.10246 27.5509 8.10711 27.5539 8.10711 27.6651V27.7793H8.45455H8.80199V27.8882C8.80199 27.9911 8.81248 27.9983 8.99399 28.021C9.09958 28.0342 9.26415 28.0452 9.35972 28.0453C9.52828 28.0457 9.53344 28.0491 9.53344 28.1599V28.274H9.88088H10.2283V28.3868V28.4995L10.5666 28.5105C10.9013 28.5213 10.905 28.5225 10.916 28.6212C10.9258 28.7084 10.9482 28.724 11.0949 28.7449C11.1871 28.758 11.3919 28.7688 11.5501 28.7688H11.8375V28.883C11.8375 28.9942 11.8422 28.9971 12.0153 28.9971C12.1131 28.9971 12.2694 29.008 12.3627 29.0213C12.5083 29.0421 12.5324 29.0579 12.5324 29.1325C12.5324 29.2114 12.5543 29.2219 12.7701 29.2459L13.0078 29.2724V35.1098V40.9473H29.7581H46.5084V40.8331C46.5084 40.7316 46.5205 40.7189 46.6181 40.7189C46.7191 40.7189 46.7278 40.7083 46.7278 40.5857C46.7278 40.4589 46.7339 40.4525 46.8558 40.4525C46.9736 40.4525 46.9838 40.4435 46.9838 40.3383C46.9838 40.2368 46.996 40.2242 47.0935 40.2242C47.1945 40.2242 47.2032 40.2136 47.2032 40.091C47.2032 39.9683 47.2119 39.9578 47.313 39.9578C47.4105 39.9578 47.4227 39.9451 47.4227 39.8436C47.4227 39.7385 47.4328 39.7294 47.5507 39.7294C47.6726 39.7294 47.6787 39.7231 47.6787 39.5962C47.6787 39.4736 47.6874 39.463 47.7884 39.463C47.8859 39.463 47.8981 39.4503 47.8981 39.3488C47.8981 39.2479 47.9106 39.2347 48.0055 39.2347C48.1 39.2347 48.1143 39.2197 48.1244 39.111C48.1344 39.003 48.1506 38.9858 48.2513 38.9756C48.3635 38.9643 48.3676 38.9573 48.3921 38.7377C48.4164 38.5195 48.4211 38.5116 48.5234 38.5116C48.617 38.5116 48.6296 38.498 48.6296 38.3974C48.6296 38.2959 48.6418 38.2832 48.7393 38.2832C48.8403 38.2832 48.849 38.2726 48.849 38.15C48.849 38.0232 48.8551 38.0168 48.977 38.0168C49.0948 38.0168 49.105 38.0078 49.105 37.9026C49.105 37.8011 49.1172 37.7885 49.2147 37.7885C49.3123 37.7885 49.3245 37.7758 49.3245 37.6743C49.3245 37.5728 49.3366 37.5601 49.4342 37.5601C49.5352 37.5601 49.5439 37.5495 49.5439 37.4269C49.5439 37.3001 49.55 37.2937 49.6719 37.2937C49.7897 37.2937 49.7999 37.2847 49.7999 37.1796C49.7999 37.0781 49.8121 37.0654 49.9096 37.0654C50.0106 37.0654 50.0193 37.0548 50.0193 36.9322C50.0193 36.8096 50.028 36.799 50.1291 36.799C50.2266 36.799 50.2388 36.7863 50.2388 36.6848C50.2388 36.5797 50.2489 36.5706 50.3668 36.5706C50.4887 36.5706 50.4948 36.5643 50.4948 36.4374C50.4948 36.3148 50.5035 36.3042 50.6045 36.3042C50.702 36.3042 50.7142 36.2915 50.7142 36.19C50.7142 36.0849 50.7244 36.0759 50.8422 36.0759C50.9641 36.0759 50.9702 36.0695 50.9702 35.9427C50.9702 35.8201 50.9789 35.8095 51.0799 35.8095C51.1775 35.8095 51.1897 35.7968 51.1897 35.6953C51.1897 35.5938 51.2018 35.5811 51.2994 35.5811C51.3969 35.5811 51.4091 35.5685 51.4091 35.467C51.4091 35.3618 51.4193 35.3528 51.5371 35.3528C51.659 35.3528 51.6651 35.3464 51.6651 35.2196C51.6651 35.097 51.6738 35.0864 51.7748 35.0864C51.8724 35.0864 51.8845 35.0737 51.8845 34.9722C51.8845 34.8713 51.897 34.858 51.992 34.858C52.0864 34.858 52.1007 34.8431 52.1108 34.7343C52.1209 34.6256 52.1366 34.6092 52.2411 34.5987C52.3456 34.5882 52.36 34.5733 52.36 34.4751C52.36 34.3768 52.3729 34.3633 52.4674 34.3633C52.5618 34.3633 52.5762 34.3484 52.5863 34.2396C52.5963 34.1308 52.612 34.1145 52.7166 34.104C52.8211 34.0935 52.8354 34.0786 52.8354 33.9803C52.8354 33.882 52.8484 33.8685 52.9428 33.8685C53.0373 33.8685 53.0516 33.8536 53.0617 33.7448C53.0712 33.6426 53.0902 33.6191 53.1714 33.6094C53.2609 33.5986 53.2718 33.5792 53.2944 33.3905C53.3181 33.1937 53.3245 33.1835 53.4248 33.1835C53.521 33.1835 53.5303 33.1717 53.5303 33.0503C53.5303 32.9234 53.5364 32.9171 53.6583 32.9171C53.7755 32.9171 53.7863 32.9076 53.7863 32.8054C53.7863 32.712 53.8027 32.6918 53.8869 32.6817C53.9707 32.6717 53.9894 32.6491 53.9989 32.546C54.009 32.4373 54.0233 32.4223 54.1178 32.4223C54.2122 32.4223 54.2252 32.4089 54.2252 32.3106C54.2252 32.2123 54.2395 32.1974 54.344 32.1869C54.4486 32.1764 54.4643 32.16 54.4744 32.0513C54.4844 31.9425 54.4988 31.9276 54.5932 31.9276C54.6877 31.9276 54.7006 31.9141 54.7006 31.8158C54.7006 31.7175 54.715 31.7026 54.8195 31.6921C54.924 31.6817 54.9397 31.6653 54.9498 31.5565C54.9599 31.4478 54.9742 31.4328 55.0687 31.4328C55.1636 31.4328 55.1761 31.4196 55.1761 31.3187C55.1761 31.2172 55.1883 31.2045 55.2858 31.2045C55.3828 31.2045 55.3955 31.1915 55.3955 31.0927C55.3955 30.9944 55.4098 30.9795 55.5144 30.969C55.6189 30.9586 55.6346 30.9422 55.6447 30.8334C55.6548 30.7247 55.6691 30.7097 55.7635 30.7097C55.8585 30.7097 55.871 30.6965 55.871 30.5956C55.871 30.4946 55.8834 30.4814 55.9784 30.4814C56.0728 30.4814 56.0871 30.4665 56.0972 30.3577C56.1073 30.2489 56.123 30.2326 56.2275 30.2221C56.3321 30.2116 56.3464 30.1967 56.3464 30.0984C56.3464 29.9996 56.3591 29.9866 56.4561 29.9866C56.5571 29.9866 56.5658 29.9761 56.5658 29.8534C56.5658 29.7266 56.5719 29.7202 56.6938 29.7202C56.8117 29.7202 56.8218 29.7112 56.8218 29.6061C56.8218 29.5051 56.8343 29.4919 56.9293 29.4919C57.0237 29.4919 57.038 29.477 57.0481 29.3682C57.0577 29.2651 57.0764 29.2425 57.1601 29.2325C57.2444 29.2224 57.2607 29.2023 57.2607 29.1088C57.2607 29.0066 57.2715 28.9971 57.3887 28.9971C57.5066 28.9971 57.5167 28.9881 57.5167 28.883C57.5167 28.7815 57.5289 28.7688 57.6264 28.7688C57.7275 28.7688 57.7362 28.7582 57.7362 28.6356C57.7362 28.513 57.7449 28.5024 57.8459 28.5024C57.9434 28.5024 57.9556 28.4897 57.9556 28.3882C57.9556 28.2839 57.9663 28.274 58.0789 28.274H58.2022L58.2267 28.0481C58.2495 27.8382 58.2583 27.8212 58.3503 27.8102C58.4324 27.8003 58.4513 27.7772 58.4608 27.6746C58.4709 27.5659 58.4852 27.5509 58.5796 27.5509C58.6741 27.5509 58.687 27.5375 58.687 27.4392C58.687 27.3409 58.7014 27.326 58.8059 27.3155C58.9104 27.305 58.9262 27.2886 58.9362 27.1799C58.9463 27.0711 58.9606 27.0562 59.0551 27.0562C59.1501 27.0562 59.1625 27.0429 59.1625 26.942C59.1625 26.8411 59.1749 26.8278 59.2699 26.8278C59.3643 26.8278 59.3787 26.8129 59.3888 26.7042C59.3988 26.5954 59.4145 26.579 59.5191 26.5686C59.6236 26.5581 59.6379 26.5431 59.6379 26.4449C59.6379 26.346 59.6507 26.3331 59.7477 26.3331C59.8487 26.3331 59.8574 26.3225 59.8574 26.1999C59.8574 26.0773 59.8661 26.0667 59.9671 26.0667C60.0646 26.0667 60.0768 26.054 60.0768 25.9525C60.0768 25.8474 60.087 25.8383 60.2048 25.8383C60.3226 25.8383 60.3328 25.8293 60.3328 25.7242C60.3328 25.6227 60.345 25.61 60.4425 25.61C60.5435 25.61 60.5522 25.5994 60.5522 25.4768C60.5522 25.3499 60.5584 25.3436 60.6803 25.3436C60.7981 25.3436 60.8083 25.3345 60.8083 25.2294C60.8083 25.1279 60.8204 25.1152 60.918 25.1152C61.019 25.1152 61.0277 25.1047 61.0277 24.982C61.0277 24.8594 61.0364 24.8488 61.1374 24.8488C61.235 24.8488 61.2471 24.8362 61.2471 24.7347C61.2471 24.6296 61.2573 24.6205 61.3751 24.6205C61.497 24.6205 61.5031 24.6141 61.5031 24.4873C61.5031 24.3647 61.5118 24.3541 61.6129 24.3541C61.7104 24.3541 61.7226 24.3414 61.7226 24.2399C61.7226 24.1384 61.7348 24.1257 61.8323 24.1257C61.9298 24.1257 61.942 24.1131 61.942 24.0116C61.942 23.9065 61.9522 23.8974 62.07 23.8974C62.1919 23.8974 62.198 23.891 62.198 23.7642C62.198 23.6416 62.2067 23.631 62.3077 23.631C62.4053 23.631 62.4175 23.6183 62.4175 23.5168C62.4175 23.4159 62.4299 23.4026 62.5249 23.4026C62.6193 23.4026 62.6336 23.3877 62.6437 23.279C62.6538 23.1702 62.6695 23.1538 62.774 23.1434C62.8786 23.1329 62.8929 23.1179 62.8929 23.0197C62.8929 22.9214 62.9058 22.9079 63.0003 22.9079C63.0947 22.9079 63.1091 22.893 63.1192 22.7842C63.1292 22.6754 63.145 22.6591 63.2495 22.6486L63.3683 22.6367V22.4107V22.1848H63.4963C63.6142 22.1848 63.6243 22.1757 63.6243 22.0706C63.6243 21.9691 63.6365 21.9565 63.7341 21.9565C63.8351 21.9565 63.8438 21.9459 63.8438 21.8233C63.8438 21.7006 63.8525 21.69 63.9535 21.69C64.051 21.69 64.0632 21.6774 64.0632 21.5759C64.0632 21.4708 64.0734 21.4617 64.1912 21.4617C64.3091 21.4617 64.3192 21.4526 64.3192 21.3475C64.3192 21.246 64.3314 21.2334 64.4289 21.2334C64.53 21.2334 64.5387 21.2228 64.5387 21.1002C64.5387 20.9775 64.5474 20.967 64.6484 20.967C64.7454 20.967 64.7581 20.954 64.7581 20.8552C64.7581 20.7569 64.7724 20.742 64.877 20.7315C64.9815 20.721 64.9972 20.7047 65.0073 20.5959C65.0174 20.4871 65.0317 20.4722 65.1261 20.4722C65.2206 20.4722 65.2335 20.4587 65.2335 20.3604C65.2335 20.2622 65.2479 20.2472 65.3524 20.2367C65.4573 20.2262 65.4726 20.2101 65.4829 20.0994L65.4945 19.9739L65.7206 19.9852C65.935 19.9959 65.9473 20.0017 65.958 20.0976C65.9683 20.191 65.986 20.2008 66.1866 20.2251C66.3962 20.2504 66.4039 20.2552 66.4039 20.3618C66.4039 20.4626 66.415 20.4722 66.5319 20.4722C66.6497 20.4722 66.6599 20.4813 66.6599 20.5864C66.6599 20.6879 66.6721 20.7005 66.7696 20.7005C66.8664 20.7005 66.8793 20.7136 66.8793 20.8117C66.8793 20.9204 66.8845 20.9234 67.117 20.9493C67.3488 20.9751 67.3548 20.9786 67.3548 21.0855C67.3548 21.1816 67.3682 21.1953 67.4622 21.1953C67.5566 21.1953 67.5709 21.2102 67.581 21.319C67.5925 21.4427 67.5925 21.4427 67.8211 21.454L68.0496 21.4653V21.2162V20.967H68.1776C68.2949 20.967 68.3056 20.9575 68.3056 20.8553C68.3056 20.7618 68.322 20.7417 68.4062 20.7316C68.49 20.7216 68.5087 20.6989 68.5182 20.5959C68.5282 20.4885 68.5433 20.4722 68.6324 20.4722C68.7306 20.4722 68.7361 20.4624 68.7596 20.2462C68.7824 20.0364 68.7913 20.0194 68.8832 20.0084C68.9653 19.9985 68.9842 19.9753 68.9937 19.8728C69.0038 19.764 69.0181 19.7491 69.1125 19.7491C69.2109 19.7491 69.22 19.7379 69.22 19.6159C69.22 19.4943 69.2292 19.4827 69.3261 19.4827C69.4286 19.4827 69.4331 19.4749 69.4577 19.2544C69.4823 19.0338 69.4868 19.026 69.5893 19.026C69.6862 19.026 69.6954 19.0144 69.6954 18.8928C69.6954 18.771 69.7045 18.7596 69.8022 18.7596C69.9067 18.7596 69.9096 18.7542 69.9345 18.5122C69.9579 18.2844 69.9668 18.2649 70.0471 18.2649C70.1152 18.2649 70.1343 18.2445 70.1343 18.1716C70.1343 18.0859 70.1166 18.0763 69.9148 18.0525C69.7047 18.0278 69.6954 18.0222 69.6954 17.9198C69.6954 17.8271 69.6797 17.8114 69.5765 17.801C69.472 17.7906 69.4563 17.7742 69.4462 17.6654C69.4361 17.5567 69.4218 17.5418 69.3274 17.5418C69.2328 17.5418 69.22 17.5283 69.22 17.4294C69.22 17.3182 69.2177 17.3169 68.9914 17.3057C68.7628 17.2944 68.7628 17.2944 68.7514 17.1707C68.7413 17.0619 68.7269 17.047 68.6325 17.047C68.5375 17.047 68.5251 17.0338 68.5251 16.9328C68.5251 16.8277 68.5149 16.8187 68.3971 16.8187C68.2802 16.8187 68.2691 16.8091 68.2691 16.7082C68.2691 16.6016 68.2616 16.5969 68.0496 16.5713C67.8377 16.5457 67.8302 16.541 67.8302 16.4344C67.8302 16.3335 67.8191 16.3239 67.7022 16.3239C67.5856 16.3239 67.5742 16.3141 67.5742 16.2146C67.5742 16.1095 67.5661 16.1044 67.357 16.0798C67.1554 16.0561 67.1391 16.0469 67.1284 15.9512C67.119 15.8658 67.0967 15.8461 66.9982 15.8363C66.8936 15.8258 66.8793 15.8108 66.8793 15.7126C66.8793 15.6102 66.8685 15.6008 66.7513 15.6008C66.6335 15.6008 66.6233 15.5918 66.6233 15.4866V15.3725H66.3856H66.1479V15.4866V15.6008H65.709H65.2701V15.7097C65.2701 15.8126 65.2596 15.8199 65.0781 15.8426C64.9725 15.8558 64.8079 15.8667 64.7124 15.8669C64.5438 15.8672 64.5387 15.8706 64.5387 15.9814V16.0956H64.1912H63.8438V16.2097C63.8438 16.3209 63.8391 16.3239 63.666 16.3239C63.5682 16.3239 63.4119 16.3348 63.3186 16.3481C63.1745 16.3687 63.1489 16.3851 63.1489 16.457C63.1489 16.5307 63.1241 16.5448 62.9569 16.5656C62.8513 16.5789 62.695 16.5898 62.6095 16.59C62.4612 16.5903 62.454 16.5956 62.454 16.7045V16.8187H62.0883H61.7226V16.9275C61.7226 17.0304 61.7121 17.0377 61.5306 17.0604C61.4249 17.0736 61.2686 17.0846 61.1831 17.0847C61.0349 17.0851 61.0277 17.0904 61.0277 17.1992V17.3134H60.6803H60.3328V17.4262V17.539L59.9762 17.5499C59.6218 17.5607 59.6196 17.5614 59.6085 17.6605C59.5988 17.7478 59.5764 17.7633 59.4297 17.7842C59.3375 17.7974 59.182 17.8082 59.0842 17.8082C58.9111 17.8082 58.9065 17.8111 58.9065 17.9223V18.0365H58.559H58.2116V18.1507C58.2116 18.2615 58.2064 18.2649 58.0379 18.2652C57.9424 18.2653 57.7778 18.2763 57.6722 18.2895C57.5048 18.3104 57.4801 18.3244 57.4801 18.3984C57.4801 18.5015 57.3553 18.5302 56.9041 18.5308L56.6024 18.5313V18.6454C56.6024 18.7581 56.5998 18.7596 56.4064 18.7596C56.2985 18.7596 56.1339 18.7705 56.0406 18.7838C55.8965 18.8044 55.871 18.8208 55.871 18.8928C55.871 18.9648 55.8454 18.9813 55.7013 19.0018C55.608 19.0151 55.4516 19.026 55.3538 19.026C55.1807 19.026 55.1761 19.029 55.1761 19.1402V19.2544H54.8286H54.4812V19.3632C54.4812 19.4661 54.4707 19.4734 54.2892 19.4961C54.1836 19.5093 54.0283 19.5203 53.9442 19.5204C53.8045 19.5207 53.7902 19.5299 53.7796 19.6254L53.768 19.7301L53.4114 19.741L53.0549 19.7518V19.8646V19.9774H52.7074H52.36V20.0864C52.36 20.1873 52.3473 20.1973 52.1903 20.2196C52.097 20.233 51.9406 20.2439 51.8428 20.2439C51.6702 20.2439 51.6651 20.2471 51.6651 20.3567V20.4695L51.3085 20.4803L50.9519 20.4912L50.9404 20.5959C50.9298 20.6914 50.9154 20.7006 50.7758 20.7009C50.6916 20.701 50.5364 20.712 50.4308 20.7252C50.2636 20.7461 50.2388 20.7601 50.2388 20.8339C50.2388 20.9058 50.2131 20.9222 50.0691 20.9427C49.9758 20.9561 49.8194 20.967 49.7216 20.967C49.5485 20.967 49.5439 20.9699 49.5439 21.0811V21.1953H49.2564C49.0983 21.1953 48.8926 21.2062 48.7993 21.2195C48.6423 21.2419 48.6296 21.2519 48.6296 21.3527V21.4617H48.2821H47.9347V21.5759C47.9347 21.6885 47.9321 21.69 47.7387 21.69C47.6308 21.69 47.4662 21.7009 47.3729 21.7143C47.2289 21.7348 47.2032 21.7512 47.2032 21.8231C47.2032 21.8969 47.1784 21.9109 47.0112 21.9318C46.9056 21.945 46.7493 21.956 46.6638 21.9561C46.5155 21.9565 46.5084 21.9617 46.5084 22.0706V22.1848H46.1609H45.8135V22.299C45.8135 22.4102 45.8088 22.4131 45.6357 22.4131C45.5379 22.4131 45.3816 22.424 45.2883 22.4373C45.1442 22.4579 45.1186 22.4743 45.1186 22.5463C45.1186 22.6184 45.093 22.6348 44.9489 22.6553C44.8556 22.6687 44.691 22.6795 44.5832 22.6795C44.3897 22.6795 44.3871 22.6811 44.3871 22.7937V22.9079H44.0397H43.6923V23.0221C43.6923 23.131 43.6851 23.1362 43.5368 23.1366C43.4513 23.1367 43.295 23.1477 43.1894 23.1609C43.0079 23.1836 42.9974 23.1909 42.9974 23.2938V23.4026H42.6317H42.2659V23.5168C42.2659 23.628 42.2613 23.631 42.0882 23.631C41.9904 23.631 41.834 23.6419 41.7408 23.6552C41.5966 23.6757 41.5711 23.6922 41.5711 23.7642C41.5711 23.8362 41.5455 23.8526 41.4014 23.8732C41.3081 23.8865 41.1517 23.8974 41.0539 23.8974C40.8808 23.8974 40.8762 23.9004 40.8762 24.0116C40.8762 24.1131 40.864 24.1257 40.7665 24.1257C40.6689 24.1257 40.6567 24.1131 40.6567 24.0116C40.6567 23.9065 40.6466 23.8974 40.5287 23.8974C40.4109 23.8974 40.4007 23.8883 40.4007 23.7832C40.4007 23.6817 40.3886 23.6691 40.291 23.6691C40.19 23.6691 40.1813 23.6585 40.1813 23.5358C40.1813 23.409 40.1752 23.4026 40.0533 23.4026C39.9355 23.4026 39.9253 23.3936 39.9253 23.2885C39.9253 23.187 39.9131 23.1743 39.8156 23.1743C39.7146 23.1743 39.7059 23.1637 39.7059 23.0411C39.7059 22.9185 39.6971 22.9079 39.5961 22.9079C39.4986 22.9079 39.4864 22.8952 39.4864 22.7937C39.4864 22.6886 39.4762 22.6795 39.3584 22.6795C39.2406 22.6795 39.2304 22.6705 39.2304 22.5654C39.2304 22.4639 39.2182 22.4512 39.1207 22.4512C39.0201 22.4512 39.011 22.4404 39.011 22.3204C39.011 22.2007 39.0009 22.1886 38.8921 22.1777C38.7938 22.1678 38.7713 22.1481 38.7619 22.0634C38.7531 21.9843 38.7282 21.9584 38.6522 21.9493C38.5708 21.9395 38.5518 21.916 38.5424 21.8137C38.5323 21.705 38.5179 21.69 38.4235 21.69C38.3285 21.69 38.3161 21.6768 38.3161 21.5759C38.3161 21.4708 38.3059 21.4617 38.1881 21.4617C38.0662 21.4617 38.0601 21.4553 38.0601 21.3285C38.0601 21.2059 38.0514 21.1953 37.9504 21.1953C37.8528 21.1953 37.8406 21.1826 37.8406 21.0811C37.8406 20.9802 37.8282 20.967 37.7332 20.967C37.6388 20.967 37.6245 20.952 37.6144 20.8433C37.6043 20.7345 37.5886 20.7181 37.4841 20.7077C37.3795 20.6972 37.3652 20.6822 37.3652 20.584V20.4722H33.0313H28.6975V18.7078C28.6975 17.7374 28.708 16.864 28.7208 16.7669L28.744 16.5903H30.714H32.6839V14.7635V12.9368H26.942H21.2001V14.7635V16.5903H23.0836H24.9671V16.7045C24.9671 16.806 24.9793 16.8187 25.0768 16.8187H25.1865V18.6454V20.4722H21.0904H16.9943V19.007V17.5418H16.8845C16.7873 17.5418 16.7748 17.5289 16.7748 17.429V17.3161L16.4182 17.3053L16.0617 17.2944L16.0501 17.1897C16.0395 17.0942 16.0252 17.085 15.8855 17.0847C15.8014 17.0846 15.6461 17.0736 15.5405 17.0604C15.359 17.0377 15.3485 17.0304 15.3485 16.9275V16.8187H15.001H14.6536V16.7059V16.5931L14.297 16.5822C13.9423 16.5714 13.9404 16.5707 13.9293 16.4713C13.9159 16.3515 13.8108 16.325 13.3461 16.3243L13.0444 16.3239V16.2097C13.0444 16.0971 13.0418 16.0956 12.8484 16.0956C12.7405 16.0956 12.576 16.0847 12.4827 16.0714C12.3386 16.0508 12.313 16.0344 12.313 15.9625C12.313 15.8888 12.2881 15.8747 12.121 15.8538C12.0154 15.8406 11.859 15.8297 11.7735 15.8295C11.6252 15.8292 11.6181 15.8239 11.6181 15.715V15.6008H11.2706H10.9232V15.4866C10.9232 15.3758 10.918 15.3725 10.7495 15.3721C10.6539 15.372 10.4893 15.361 10.3838 15.3478C10.2166 15.3269 10.1917 15.3129 10.1917 15.2391C10.1917 15.1673 10.1661 15.1508 10.022 15.1303C9.92875 15.1169 9.7724 15.1061 9.67461 15.1061C9.50151 15.1061 9.49687 15.1031 9.49687 14.9919V14.8777H9.14943H8.80199V14.7688C8.80199 14.6659 8.79149 14.6587 8.60998 14.636C8.50439 14.6228 8.33982 14.6118 8.24425 14.6117C8.07569 14.6113 8.07053 14.6079 8.07053 14.4971V14.383H7.72309H7.37565V14.2688V14.1546L7.1105 14.1543C6.96465 14.1541 6.75893 14.1432 6.65334 14.13C6.47183 14.1073 6.46134 14.1 6.46134 13.9971V13.8882H6.1139H5.76646V13.774C5.76646 13.6628 5.76181 13.6599 5.58872 13.6599C5.49092 13.6599 5.33457 13.649 5.24127 13.6357C5.09722 13.6151 5.07158 13.5987 5.07158 13.5268C5.07158 13.4531 5.04675 13.439 4.87957 13.4181C4.77395 13.4049 4.60937 13.394 4.51385 13.3938C4.34528 13.3935 4.34013 13.3901 4.34013 13.2793V13.1651H3.99269H3.64525V13.0509C3.64525 12.9397 3.6406 12.9368 3.4675 12.9368C3.36971 12.9368 3.21336 12.9259 3.12006 12.9126C2.97593 12.892 2.95037 12.8756 2.95037 12.8036C2.95037 12.7315 2.9248 12.7151 2.78067 12.6946C2.68737 12.6812 2.53102 12.6704 2.43323 12.6704C2.26061 12.6704 2.25549 12.6671 2.25549 12.5576V12.4448L1.8989 12.4339C1.54444 12.4231 1.54225 12.4224 1.5312 12.3232C1.52147 12.236 1.49905 12.2204 1.35236 12.1996C1.26013 12.1864 1.10469 12.1756 1.0069 12.1756C0.833798 12.1756 0.829154 12.1726 0.829154 12.0614C0.829154 11.9515 0.823046 11.9473 0.664577 11.9473H0.5V18.5313ZM4.59613 17.6508C4.59613 17.7516 4.60886 17.7616 4.76583 17.784C4.85913 17.7973 5.01548 17.8082 5.11327 17.8082C5.28637 17.8082 5.29101 17.8111 5.29101 17.9223V18.0365H5.57847C5.73661 18.0365 5.94234 18.0474 6.03563 18.0607C6.17969 18.0813 6.20533 18.0977 6.20533 18.1696C6.20533 18.2433 6.23016 18.2574 6.39734 18.2782C6.50292 18.2915 6.65821 18.3024 6.74236 18.3026C6.882 18.3029 6.89637 18.312 6.90694 18.4076L6.9185 18.5122L7.27508 18.5231L7.63166 18.534V18.6468C7.63166 18.7564 7.63678 18.7596 7.8094 18.7596C7.9072 18.7596 8.06355 18.7705 8.15684 18.7838C8.30098 18.8044 8.32654 18.8208 8.32654 18.8928C8.32654 18.9648 8.35211 18.9813 8.49624 19.0018C8.58954 19.0151 8.74588 19.026 8.84368 19.026C9.0163 19.026 9.02142 19.0292 9.02142 19.1388V19.2516L9.378 19.2625L9.73459 19.2734L9.74614 19.378C9.75671 19.4736 9.77109 19.4827 9.91072 19.483C9.99487 19.4832 10.1502 19.4942 10.2557 19.5074C10.4373 19.53 10.4478 19.5373 10.4478 19.6402V19.7491H10.7952H11.1426V19.8619V19.9747L11.4992 19.9856C11.8539 19.9964 11.8559 19.997 11.867 20.0965C11.8796 20.2104 11.9877 20.2427 12.3587 20.2434C12.5679 20.2439 12.569 20.2445 12.569 20.358V20.4722H12.7884H13.0078V22.7747V25.0772H12.8981C12.8072 25.0772 12.7884 25.0618 12.7884 24.9872C12.7884 24.909 12.7662 24.8941 12.6187 24.873C12.5254 24.8597 12.3691 24.8488 12.2713 24.8488C12.0982 24.8488 12.0935 24.8459 12.0935 24.7347V24.6205H11.7461H11.3986V24.5116C11.3986 24.4087 11.3881 24.4014 11.2066 24.3788C11.1011 24.3655 10.9365 24.3546 10.8409 24.3544C10.6723 24.3541 10.6672 24.3507 10.6672 24.2399V24.1257H10.3197H9.97231V24.0116C9.97231 23.9004 9.96766 23.8974 9.79457 23.8974C9.69677 23.8974 9.54042 23.8865 9.44713 23.8732C9.30299 23.8526 9.27743 23.8362 9.27743 23.7642C9.27743 23.6922 9.25187 23.6757 9.10773 23.6552C9.01444 23.6419 8.85809 23.631 8.76029 23.631C8.58719 23.631 8.58255 23.628 8.58255 23.5168V23.4026H8.21682H7.8511V23.2885C7.8511 23.1796 7.84393 23.1743 7.69566 23.174C7.61016 23.1738 7.45381 23.1628 7.34822 23.1496C7.16671 23.127 7.15622 23.1197 7.15622 23.0168V22.9079H6.80878H6.46134V22.7937V22.6795H6.1139H5.76646V22.5707C5.76646 22.4678 5.75596 22.4605 5.57445 22.4378C5.46887 22.4246 5.30429 22.4136 5.20873 22.4135C5.04016 22.4131 5.03501 22.4098 5.03501 22.299V22.1848H4.71083H4.38665L4.36339 22.0082C4.33234 21.7724 4.3334 17.5995 4.36452 17.5671C4.37791 17.5532 4.43551 17.5418 4.49252 17.5418C4.58216 17.5418 4.59613 17.5564 4.59613 17.6508ZM57.5099 22.8032C57.5004 22.9051 57.4813 22.929 57.4012 22.9386C57.3115 22.9494 57.302 22.9678 57.2787 23.1765C57.2544 23.3947 57.2498 23.4026 57.1474 23.4026C57.0544 23.4026 57.0413 23.4164 57.0413 23.5144C57.0413 23.6127 57.0269 23.6276 56.9224 23.6381C56.8241 23.648 56.8016 23.6677 56.7922 23.7524C56.7834 23.8315 56.7585 23.8574 56.6825 23.8665C56.6011 23.8763 56.5821 23.8998 56.5727 24.0021C56.5626 24.1108 56.5482 24.1257 56.4538 24.1257C56.3593 24.1257 56.3464 24.1392 56.3464 24.2375C56.3464 24.3358 56.3321 24.3507 56.2275 24.3612C56.123 24.3717 56.1073 24.388 56.0972 24.4968C56.0871 24.6056 56.0728 24.6205 55.9784 24.6205C55.8839 24.6205 55.871 24.634 55.871 24.7323C55.871 24.8305 55.8566 24.8455 55.7521 24.856C55.6476 24.8664 55.6318 24.8828 55.6218 24.9916C55.6117 25.1003 55.5974 25.1152 55.5029 25.1152C55.4079 25.1152 55.3955 25.1285 55.3955 25.2294C55.3955 25.3303 55.3831 25.3436 55.2881 25.3436C55.1937 25.3436 55.1793 25.3585 55.1692 25.4673C55.1592 25.576 55.1435 25.5924 55.0389 25.6029C54.9344 25.6134 54.9201 25.6283 54.9201 25.7266C54.9201 25.8254 54.9073 25.8383 54.8103 25.8383C54.7128 25.8383 54.7006 25.851 54.7006 25.9525C54.7006 26.0534 54.6882 26.0667 54.5932 26.0667C54.4988 26.0667 54.4844 26.0816 54.4744 26.1904C54.4643 26.2991 54.4486 26.3155 54.344 26.326C54.2395 26.3365 54.2252 26.3514 54.2252 26.4497C54.2252 26.5485 54.2125 26.5614 54.1155 26.5614C54.0145 26.5614 54.0057 26.572 54.0057 26.6946C54.0057 26.8173 53.997 26.8278 53.896 26.8278C53.7985 26.8278 53.7863 26.8405 53.7863 26.942C53.7863 27.0471 53.7761 27.0562 53.6583 27.0562C53.5405 27.0562 53.5303 27.0652 53.5303 27.1704C53.5303 27.2719 53.5181 27.2845 53.4206 27.2845C53.3196 27.2845 53.3109 27.2951 53.3109 27.4177C53.3109 27.5446 53.3048 27.5509 53.1829 27.5509C53.065 27.5509 53.0549 27.56 53.0549 27.6651C53.0549 27.7666 53.0427 27.7793 52.9451 27.7793C52.8441 27.7793 52.8354 27.7899 52.8354 27.9125C52.8354 28.0351 52.8267 28.0457 52.7257 28.0457C52.6282 28.0457 52.616 28.0584 52.616 28.1599C52.616 28.265 52.6058 28.274 52.488 28.274C52.3661 28.274 52.36 28.2804 52.36 28.4072C52.36 28.5299 52.3513 28.5404 52.2503 28.5404C52.1527 28.5404 52.1405 28.5531 52.1405 28.6546C52.1405 28.7555 52.1281 28.7688 52.0331 28.7688C51.9387 28.7688 51.9244 28.7837 51.9143 28.8925C51.9042 29.0012 51.8885 29.0176 51.784 29.0281C51.6794 29.0386 51.6651 29.0535 51.6651 29.1518C51.6651 29.2506 51.6524 29.2635 51.5554 29.2635C51.4578 29.2635 51.4457 29.2762 51.4457 29.3777C51.4457 29.4828 51.4355 29.4919 51.3177 29.4919H51.1897V29.7178V29.9437L51.0708 29.9557C50.9663 29.9662 50.9505 29.9825 50.9405 30.0913C50.9304 30.2001 50.9161 30.215 50.8216 30.215C50.7272 30.215 50.7142 30.2285 50.7142 30.3268C50.7142 30.425 50.6999 30.4399 50.5954 30.4504C50.4908 30.4609 50.4751 30.4773 50.465 30.586C50.4549 30.6948 50.4406 30.7097 50.3462 30.7097C50.2512 30.7097 50.2388 30.723 50.2388 30.8239C50.2388 30.9254 50.2266 30.9381 50.1291 30.9381C50.028 30.9381 50.0193 30.9487 50.0193 31.0713C50.0193 31.1981 50.0132 31.2045 49.8913 31.2045C49.7735 31.2045 49.7633 31.2135 49.7633 31.3187C49.7633 31.4202 49.7511 31.4328 49.6536 31.4328C49.5561 31.4328 49.5439 31.4455 49.5439 31.547C49.5439 31.6485 49.5317 31.6612 49.4342 31.6612C49.3332 31.6612 49.3245 31.6718 49.3245 31.7944C49.3245 31.9212 49.3183 31.9276 49.1964 31.9276C49.0786 31.9276 49.0684 31.9366 49.0684 32.0418C49.0684 32.1433 49.0563 32.1559 48.9587 32.1559C48.8577 32.1559 48.849 32.1665 48.849 32.2891C48.849 32.4118 48.8403 32.4223 48.7393 32.4223C48.6418 32.4223 48.6296 32.435 48.6296 32.5365C48.6296 32.6416 48.6194 32.6507 48.5016 32.6507C48.3797 32.6507 48.3736 32.657 48.3736 32.7839C48.3736 32.9065 48.3649 32.9171 48.2638 32.9171C48.1663 32.9171 48.1541 32.9298 48.1541 33.0313C48.1541 33.1364 48.144 33.1454 48.0261 33.1454C47.9042 33.1454 47.8981 33.1518 47.8981 33.2786C47.8981 33.4013 47.8894 33.4118 47.7884 33.4118C47.6909 33.4118 47.6787 33.4245 47.6787 33.526C47.6787 33.6275 47.6665 33.6402 47.569 33.6402C47.4714 33.6402 47.4592 33.6529 47.4592 33.7544C47.4592 33.8595 47.4491 33.8685 47.3312 33.8685C47.2093 33.8685 47.2032 33.8749 47.2032 34.0017C47.2032 34.1244 47.1945 34.1349 47.0935 34.1349C46.996 34.1349 46.9838 34.1476 46.9838 34.2491C46.9838 34.35 46.9714 34.3633 46.8764 34.3633C46.782 34.3633 46.7676 34.3782 46.7575 34.487C46.7475 34.5957 46.7317 34.6121 46.6272 34.6226C46.5227 34.6331 46.5084 34.648 46.5084 34.7463C46.5084 34.8451 46.4956 34.858 46.3986 34.858C46.3017 34.858 46.2889 34.871 46.2889 34.9698C46.2889 35.0681 46.2746 35.083 46.1701 35.0935C46.0655 35.104 46.0498 35.1203 46.0398 35.2291C46.0297 35.3379 46.0153 35.3528 45.9209 35.3528C45.8259 35.3528 45.8135 35.366 45.8135 35.467C45.8135 35.5679 45.801 35.5811 45.7061 35.5811C45.6116 35.5811 45.5973 35.596 45.5872 35.7048C45.5771 35.8136 45.5614 35.8299 45.4569 35.8404C45.3524 35.8509 45.338 35.8658 45.338 35.9641C45.338 36.0621 45.3249 36.0759 45.2319 36.0759C45.1294 36.0759 45.1249 36.0837 45.1003 36.3042C45.0757 36.5248 45.0712 36.5326 44.9687 36.5326C44.8718 36.5326 44.8626 36.5441 44.8626 36.6658V36.799H30.9284H16.9943V30.7097V24.6205H26.3751H35.756V24.7347C35.756 24.8362 35.7682 24.8488 35.8657 24.8488C35.9667 24.8488 35.9754 24.8594 35.9754 24.982C35.9754 25.1047 35.9841 25.1152 36.0852 25.1152C36.1827 25.1152 36.1949 25.1279 36.1949 25.2294C36.1949 25.3345 36.205 25.3436 36.3229 25.3436C36.4448 25.3436 36.4509 25.3499 36.4509 25.4768C36.4509 25.5994 36.4596 25.61 36.5606 25.61C36.6581 25.61 36.6703 25.6227 36.6703 25.7242C36.6703 25.8257 36.6825 25.8383 36.78 25.8383C36.877 25.8383 36.8898 25.8513 36.8898 25.9501C36.8898 26.0484 36.9041 26.0633 37.0086 26.0738C37.1131 26.0843 37.1289 26.1006 37.1389 26.2094C37.149 26.3182 37.1634 26.3331 37.2578 26.3331C37.3523 26.3331 37.3652 26.3466 37.3652 26.4449C37.3652 26.5431 37.3795 26.5581 37.4841 26.5686C37.5886 26.579 37.6043 26.5954 37.6144 26.7042C37.6245 26.8129 37.6388 26.8278 37.7332 26.8278C37.8282 26.8278 37.8406 26.8411 37.8406 26.942C37.8406 27.0429 37.8531 27.0562 37.9481 27.0562C38.0425 27.0562 38.0568 27.0711 38.0669 27.1799C38.077 27.2886 38.0927 27.305 38.1972 27.3155C38.3018 27.326 38.3161 27.3409 38.3161 27.4392C38.3161 27.5375 38.329 27.5509 38.4235 27.5509C38.5179 27.5509 38.5323 27.5659 38.5424 27.6746C38.5518 27.7769 38.5708 27.8004 38.6522 27.8102C38.7282 27.8193 38.7531 27.8452 38.7619 27.9243C38.7713 28.009 38.7938 28.0287 38.8921 28.0386C38.9966 28.0491 39.011 28.064 39.011 28.1623C39.011 28.2606 39.0239 28.274 39.1184 28.274C39.2128 28.274 39.2272 28.289 39.2372 28.3977C39.2468 28.5008 39.2655 28.5234 39.3493 28.5334C39.4275 28.5428 39.4498 28.5656 39.4498 28.6359C39.4498 28.7607 39.4978 28.7808 39.7247 28.7513C39.9031 28.7281 39.9219 28.7166 39.9322 28.6236C39.9435 28.5218 39.945 28.5214 40.2819 28.5105L40.6202 28.4995V28.3868V28.274H40.9859H41.3516V28.1599C41.3516 28.0487 41.3563 28.0457 41.5294 28.0457C41.6272 28.0457 41.7826 28.0349 41.8748 28.0218C42.0215 28.0009 42.0439 27.9853 42.0537 27.8981C42.0647 27.7994 42.0684 27.7982 42.4031 27.7874L42.7414 27.7764V27.6637C42.7414 27.5528 42.7445 27.5509 42.9374 27.5509C43.0453 27.5509 43.2098 27.5401 43.3031 27.5267C43.4473 27.5062 43.4728 27.4898 43.4728 27.4177C43.4728 27.3457 43.4984 27.3293 43.6425 27.3087C43.7358 27.2954 43.8922 27.2845 43.99 27.2845C44.1631 27.2845 44.1677 27.2816 44.1677 27.1704V27.0562H44.5152H44.8626V26.942C44.8626 26.8312 44.8677 26.8278 45.0363 26.8275C45.1318 26.8273 45.2964 26.8164 45.402 26.8032C45.5694 26.7823 45.594 26.7683 45.594 26.6943C45.594 26.5968 45.7194 26.5626 46.0786 26.5619C46.2878 26.5614 46.2889 26.5608 46.2889 26.4473V26.3331H46.6364H46.9838V26.2241C46.9838 26.1233 46.9965 26.1133 47.1535 26.0909C47.2468 26.0776 47.4031 26.0667 47.5009 26.0667C47.674 26.0667 47.6787 26.0637 47.6787 25.9525V25.8383H48.0444H48.4101V25.7242V25.61H48.6793C48.8274 25.61 49.0249 25.5991 49.1182 25.5858C49.2752 25.5634 49.2879 25.5534 49.2879 25.4526V25.3436H49.6536H50.0193V25.2294C50.0193 25.1182 50.024 25.1152 50.1971 25.1152C50.2949 25.1152 50.4512 25.1044 50.5445 25.091C50.6886 25.0705 50.7142 25.0541 50.7142 24.982C50.7142 24.91 50.7398 24.8936 50.8839 24.873C50.9772 24.8597 51.1336 24.8488 51.2313 24.8488C51.4044 24.8488 51.4091 24.8459 51.4091 24.7347V24.6205H51.7565H52.104V24.5116C52.104 24.4087 52.1145 24.4014 52.296 24.3788C52.4016 24.3655 52.5662 24.3546 52.6617 24.3544C52.8303 24.3541 52.8354 24.3507 52.8354 24.2399V24.1257H53.1829H53.5303V24.0116V23.8974H53.8777H54.2252V23.7885C54.2252 23.6856 54.2357 23.6783 54.4172 23.6557C54.5228 23.6424 54.6874 23.6315 54.7829 23.6313C54.9515 23.631 54.9566 23.6276 54.9566 23.5168V23.4026H55.3041H55.6515V23.2885C55.6515 23.1796 55.6587 23.1743 55.8069 23.174C55.8925 23.1738 56.0488 23.1628 56.1544 23.1496C56.3359 23.127 56.3464 23.1197 56.3464 23.0168V22.9079H56.6938H57.0413V22.7937V22.6795H57.2813H57.5214L57.5099 22.8032ZM68.0496 25.591V25.8383H67.9399C67.8331 25.8383 67.8302 25.8432 67.8302 26.0233C67.8302 26.1251 67.8198 26.2868 67.8072 26.3828C67.7871 26.5354 67.7722 26.5588 67.6883 26.5689C67.5935 26.5804 67.5924 26.5842 67.5819 26.9325L67.5714 27.2845H67.4644H67.3574L67.3469 27.6556C67.3365 28.0245 67.3359 28.0267 67.2406 28.0382C67.1568 28.0484 67.1418 28.0717 67.1217 28.2243C67.1091 28.3203 67.0987 28.4821 67.0987 28.5838C67.0987 28.764 67.0959 28.7688 66.989 28.7688H66.8793V29.1303V29.4919H66.7696H66.6599V29.791C66.6599 29.9556 66.6494 30.1697 66.6366 30.2667C66.6169 30.4167 66.6011 30.4433 66.532 30.4433C66.4611 30.4433 66.4476 30.4692 66.4276 30.6431C66.4149 30.753 66.4043 30.9757 66.4042 31.1379L66.4039 31.4328H66.2952H66.1866L66.1764 31.9181L66.1661 32.4033L66.0703 32.4149C65.9864 32.425 65.9715 32.4483 65.9514 32.601C65.9388 32.697 65.9284 32.9101 65.9284 33.0746V33.3738H65.8187H65.709V34.3633V35.3528H65.817C65.9239 35.3528 65.9251 35.3551 65.9358 35.5906C65.9467 35.8285 65.9467 35.8285 66.0656 35.8404L66.1844 35.8524V36.0783C66.1844 36.3029 66.1851 36.3042 66.2918 36.3042C66.3863 36.3042 66.4006 36.3191 66.4107 36.4279C66.4222 36.5516 66.4222 36.5516 66.6507 36.5629C66.8746 36.574 66.8793 36.5765 66.8793 36.6817C66.8793 36.7848 66.8882 36.7902 67.0987 36.815C67.2964 36.8382 67.3182 36.8496 67.3182 36.9286C67.3182 37.0082 67.3394 37.0188 67.543 37.0409C67.8295 37.0721 68.5585 37.072 68.8085 37.0407C68.9773 37.0196 69.0005 37.0062 69.0005 36.9299C69.0005 36.8512 69.0226 36.8406 69.2382 36.8166C69.4678 36.791 69.476 36.7865 69.476 36.6841C69.476 36.5828 69.4858 36.5769 69.6954 36.5516C69.9073 36.526 69.9148 36.5213 69.9148 36.4147C69.9148 36.3181 69.9282 36.3042 70.021 36.3042C70.1235 36.3042 70.128 36.2964 70.1526 36.0759C70.1772 35.8553 70.1817 35.8475 70.2841 35.8475H70.3903V35.6002C70.3903 35.4056 70.402 35.3528 70.4451 35.3528C70.4925 35.3528 70.5 35.2196 70.5 34.3823C70.5 33.545 70.4925 33.4118 70.4451 33.4118C70.3992 33.4118 70.3903 33.3315 70.3903 32.9171V32.4223H70.285H70.1797L70.1534 31.9488L70.1271 31.4752L70.0302 31.4635L69.9331 31.4519L69.9229 30.9666L69.9126 30.4814H69.804H69.6954V30.1632C69.6954 29.9882 69.6849 29.7656 69.6721 29.6685C69.6524 29.5186 69.6366 29.4919 69.5675 29.4919C69.4967 29.4919 69.4832 29.466 69.4631 29.2921C69.4504 29.1822 69.4399 29.0195 69.4397 28.9305C69.4394 28.7762 69.4343 28.7688 69.3297 28.7688H69.22V28.4072V28.0457H69.1102C69.0034 28.0457 69.0005 28.0409 69.0005 27.8607C69.0005 27.759 68.9902 27.5972 68.9775 27.5012C68.9574 27.3486 68.9425 27.3253 68.8587 27.3151C68.7638 27.3037 68.7627 27.2998 68.7523 26.9515L68.7418 26.5995H68.6334H68.5251V26.3331V26.0667H68.4154C68.3107 26.0667 68.3056 26.0592 68.3053 25.9049C68.3052 25.816 68.2946 25.6533 68.2819 25.5434C68.2601 25.3545 68.2532 25.3436 68.1543 25.3436C68.0499 25.3436 68.0496 25.3442 68.0496 25.591Z" fill="#FACC1A"/>
</svg>
