<svg width="70" height="18" viewBox="0 0 70 18" fill="none" xmlns="http://www.w3.org/2000/svg">
<path d="M2.96712 2.50148H0V0.869563H8.12251V2.50148H5.14612V7.76813H2.96712V2.50148ZM16.1768 0.869563V2.43658H11.04V3.45653H16.0563V5.03281H11.04V6.16403H16.2695V7.76813H8.90734V0.869563H16.1768ZM17.1654 0.869563H20.2345L22.6175 5.16262L25.0097 0.869563H27.9676V7.76813H25.835V2.99291L23.1182 7.76813H21.9592L19.2424 2.99291V7.76813H17.1654V0.869563ZM31.1879 5.46861V7.76813H29.0274V0.869563H34.2013C34.8195 0.869563 35.3356 0.928287 35.7498 1.04574C36.164 1.157 36.4947 1.31463 36.7419 1.51862C36.9892 1.72261 37.1623 1.9606 37.2612 2.23259C37.3663 2.50457 37.4188 2.79819 37.4188 3.11345V3.20617C37.4188 3.51525 37.3663 3.80887 37.2612 4.08704C37.1561 4.35902 36.9799 4.59701 36.7327 4.801C36.4854 5.00499 36.1547 5.16881 35.7405 5.29243C35.3326 5.4099 34.8195 5.46861 34.2013 5.46861H31.1879ZM31.1879 3.92014H34.1642C34.5042 3.92014 34.7546 3.85832 34.9153 3.73469C35.0822 3.61106 35.1657 3.4318 35.1657 3.1969V3.16909C35.1657 2.93419 35.0853 2.75492 34.9246 2.63129C34.7639 2.50148 34.5104 2.43658 34.1642 2.43658H31.1879V3.92014ZM43.1159 0.749023C43.8391 0.749023 44.4604 0.804657 44.9796 0.915925C45.4989 1.02719 45.9377 1.17555 46.2963 1.36099C46.661 1.54644 46.9515 1.7597 47.1679 2.00078C47.3842 2.23568 47.5511 2.47985 47.6686 2.73329C47.7922 2.98055 47.8726 3.2309 47.9096 3.48434C47.9467 3.7316 47.9653 3.95723 47.9653 4.16122V4.43939C47.9653 4.64337 47.9467 4.869 47.9096 5.11626C47.8726 5.36354 47.7953 5.61696 47.6778 5.87659C47.5604 6.13001 47.3904 6.37729 47.1679 6.61837C46.9515 6.85945 46.6641 7.07578 46.3055 7.26743C45.947 7.45287 45.5051 7.6043 44.9796 7.72177C44.4604 7.83303 43.8391 7.88867 43.1159 7.88867H42.7172C41.9877 7.88867 41.3604 7.83303 40.8349 7.72177C40.3157 7.6043 39.8768 7.45287 39.5182 7.26743C39.1597 7.07578 38.8692 6.85945 38.6467 6.61837C38.4303 6.37729 38.2634 6.13001 38.146 5.87659C38.0285 5.61696 37.9512 5.36354 37.9141 5.11626C37.8771 4.869 37.8585 4.64337 37.8585 4.43939V4.16122C37.8585 3.95723 37.8771 3.7316 37.9141 3.48434C37.9512 3.2309 38.0285 2.98055 38.146 2.73329C38.2634 2.47985 38.4303 2.23568 38.6467 2.00078C38.8692 1.7597 39.1597 1.54644 39.5182 1.36099C39.8768 1.17555 40.3157 1.02719 40.8349 0.915925C41.3604 0.804657 41.9877 0.749023 42.7172 0.749023H43.1159ZM45.7028 4.22612C45.7028 4.02832 45.6658 3.82433 45.5916 3.61415C45.5236 3.3978 45.3876 3.20308 45.1836 3.03C44.9796 2.85074 44.6952 2.70547 44.3306 2.59421C43.9659 2.47675 43.493 2.41803 42.9119 2.41803C42.3185 2.41803 41.8394 2.47675 41.4747 2.59421C41.11 2.70547 40.8256 2.85074 40.6216 3.03C40.4239 3.20308 40.2909 3.3978 40.2229 3.61415C40.155 3.82433 40.1209 4.02832 40.1209 4.22612V4.33739C40.1209 4.5352 40.155 4.74537 40.2229 4.9679C40.2971 5.18426 40.4362 5.38516 40.6402 5.5706C40.8442 5.75605 41.1285 5.9106 41.4932 6.03421C41.8579 6.15168 42.3308 6.21039 42.9119 6.21039C43.493 6.21039 43.9627 6.15168 44.3213 6.03421C44.686 5.91675 44.9703 5.76839 45.1743 5.58915C45.3783 5.4037 45.5174 5.2028 45.5916 4.98645C45.6658 4.76391 45.7028 4.55374 45.7028 4.35594V4.22612ZM52.4213 7.88867C51.8216 7.88867 51.3023 7.8485 50.8636 7.76813C50.4307 7.68775 50.0662 7.58268 49.7695 7.45287C49.4728 7.31686 49.2317 7.16543 49.0462 6.99853C48.8666 6.82543 48.7276 6.64926 48.629 6.47001C48.5299 6.28457 48.465 6.10219 48.434 5.92295C48.4031 5.7437 48.3877 5.5768 48.3877 5.42225V5.32025H50.6411C50.6469 5.42532 50.6718 5.54278 50.7152 5.6726C50.7645 5.79621 50.8602 5.91368 51.0027 6.02494C51.151 6.13621 51.358 6.22893 51.6239 6.30311C51.8894 6.37729 52.2452 6.41438 52.6902 6.41438H52.82C53.271 6.41438 53.6297 6.39583 53.8956 6.35874C54.1674 6.31546 54.3714 6.25982 54.5076 6.19184C54.6496 6.11767 54.7394 6.03729 54.7765 5.95076C54.8194 5.86424 54.8414 5.77459 54.8414 5.68187C54.8414 5.58295 54.8194 5.49335 54.7765 5.41297C54.7394 5.3326 54.6589 5.26153 54.5354 5.19971C54.4115 5.13789 54.2294 5.09153 53.9883 5.06063C53.7473 5.02354 53.4286 4.99881 53.0333 4.98645L51.8465 4.95863C51.2033 4.94009 50.6655 4.87518 50.2331 4.76391C49.8002 4.65265 49.4542 4.50738 49.1946 4.32812C48.935 4.14267 48.7495 3.9325 48.6382 3.6976C48.5328 3.46271 48.4804 3.20926 48.4804 2.93728V2.85383C48.4804 2.5942 48.5267 2.34076 48.6197 2.0935C48.7183 1.84006 48.9037 1.61443 49.176 1.41663C49.4542 1.21882 49.8373 1.0581 50.3258 0.934469C50.8138 0.810839 51.4507 0.749023 52.2359 0.749023H52.8757C53.6916 0.749023 54.3592 0.813929 54.8785 0.943742C55.3977 1.07355 55.8057 1.24354 56.1024 1.45372C56.3991 1.65771 56.6031 1.88951 56.7144 2.14914C56.8257 2.40876 56.8813 2.66838 56.8813 2.92801V3.02073H54.6374C54.6247 2.95273 54.5969 2.87237 54.554 2.77965C54.5169 2.68693 54.43 2.59729 54.2943 2.51075C54.1645 2.42422 53.9698 2.35004 53.7102 2.28822C53.4506 2.2264 53.0948 2.1955 52.6439 2.1955H52.4955C52.0748 2.1955 51.7445 2.21404 51.5034 2.25113C51.2682 2.28204 51.092 2.32531 50.9749 2.38094C50.8572 2.43658 50.7831 2.50148 50.7523 2.57566C50.7211 2.64366 50.706 2.71474 50.706 2.78892C50.706 2.8631 50.7211 2.93419 50.7523 3.00218C50.7894 3.07018 50.8636 3.132 50.9749 3.18763C51.0861 3.24326 51.2467 3.28962 51.457 3.32671C51.6669 3.35762 51.9484 3.37616 52.3008 3.38235L53.4598 3.40089C54.1089 3.41325 54.6618 3.46271 55.1196 3.54925C55.5832 3.63579 55.9599 3.76251 56.2508 3.92941C56.5475 4.09631 56.7637 4.30648 56.8998 4.55992C57.0355 4.81336 57.1038 5.11008 57.1038 5.45006V5.57987C57.1038 5.86424 57.054 6.14548 56.9555 6.42365C56.8627 6.69562 56.671 6.9429 56.3806 7.16543C56.0961 7.38177 55.6881 7.55794 55.1567 7.69395C54.6247 7.82376 53.9264 7.88867 53.0611 7.88867H52.4213ZM24.8544 17.0404L22.0171 10.1418H24.3723L26.1525 14.8892L27.6917 10.1418H29.9913L31.5676 14.7501L33.3107 10.1418H35.4341L32.6431 17.0404H30.4642L28.8044 12.4228L27.2374 17.0404H24.8544ZM47.3439 10.1418V11.7088H37.9826V12.7288H47.2234V14.3051H37.9826V15.4363H47.4366V17.0404H38.85C37.1931 17.0404 35.85 15.6972 35.85 14.0404V13.1418C35.85 11.485 37.1931 10.1418 38.85 10.1418H47.3439ZM48.3326 10.1418H54.2392C54.7335 10.1418 55.1415 10.1851 55.4631 10.2716C55.7906 10.3582 56.0502 10.4756 56.242 10.624C56.4333 10.7723 56.5665 10.9423 56.6407 11.134C56.7207 11.3194 56.7612 11.5141 56.7612 11.7181V11.8479C56.7612 12.0705 56.7178 12.2621 56.6314 12.4228C56.5509 12.5835 56.4518 12.7164 56.3347 12.8215C56.2234 12.9266 56.1029 13.01 55.9731 13.0719C55.8491 13.1275 55.7472 13.1677 55.6671 13.1924C55.7842 13.2233 55.9267 13.2759 56.0936 13.35C56.2664 13.418 56.4304 13.52 56.5851 13.656C56.7393 13.7858 56.8725 13.9558 56.9838 14.166C57.095 14.37 57.1507 14.6234 57.1507 14.9263V15.0561C57.1507 15.3281 57.1072 15.5846 57.0209 15.8257C56.934 16.0668 56.7798 16.277 56.5573 16.4562C56.3406 16.6355 56.0473 16.7777 55.6764 16.8828C55.3114 16.9878 54.8512 17.0404 54.2948 17.0404H48.3326V10.1418ZM50.4932 11.5976V12.7195H53.8683C54.0166 12.7195 54.1401 12.704 54.2392 12.6732C54.3378 12.6423 54.4154 12.6021 54.471 12.5526C54.5266 12.497 54.5637 12.4352 54.5823 12.3672C54.6067 12.2992 54.6194 12.2312 54.6194 12.1632V12.1446C54.6194 12.0705 54.6067 12.0025 54.5823 11.9406C54.5637 11.8727 54.5266 11.8139 54.471 11.7645C54.4154 11.715 54.3378 11.6748 54.2392 11.6439C54.1401 11.613 54.0166 11.5976 53.8683 11.5976H50.4932ZM50.4932 14.1845V15.5383H54.0537C54.2328 15.5383 54.3783 15.5167 54.4895 15.4734C54.6008 15.4301 54.6872 15.3745 54.7492 15.3065C54.8106 15.2385 54.8512 15.1643 54.8697 15.0839C54.8941 15.0036 54.9068 14.9294 54.9068 14.8614V14.8243C54.9068 14.7501 54.8941 14.676 54.8697 14.6018C54.8512 14.5214 54.8106 14.4534 54.7492 14.3978C54.6872 14.336 54.6008 14.2865 54.4895 14.2494C54.3783 14.2062 54.2328 14.1845 54.0537 14.1845H50.4932Z" fill="black"/>
<path d="M60.7278 9.5327L65.1199 10.2647L65.4776 9.10815L62.1918 8.55667V4.16455H61.2143L60.7278 9.5327Z" fill="black"/>
<path d="M62.1907 8.80189C62.1907 8.66713 62.0814 8.55788 61.9466 8.55788C61.8119 8.55788 61.7026 8.66713 61.7026 8.80189C61.7026 8.93665 61.8119 9.0459 61.9466 9.0459C62.0814 9.0459 62.1907 8.93665 62.1907 8.80189Z" fill="black"/>
<path d="M70 8.80125C70 13.2484 66.3949 16.8535 61.9478 16.8535C61.1865 16.8535 60.4498 16.7478 59.7517 16.5504V14.4942C60.4331 14.7572 61.1736 14.9014 61.9478 14.9014C65.3168 14.9014 68.0479 12.1703 68.0479 8.80125C68.0479 5.43222 65.3168 2.70108 61.9478 2.70108C61.1736 2.70108 60.4331 2.84529 59.7517 3.10832V1.05213C60.4498 0.854679 61.1865 0.749023 61.9478 0.749023C66.3949 0.749023 70 4.35413 70 8.80125Z" fill="black"/>
</svg>
