<svg width="115" height="15" viewBox="0 0 115 15" fill="none" xmlns="http://www.w3.org/2000/svg">
<path d="M5.97208 0.637695H4.13452V4.80233H0V6.65328H5.97208V0.637695Z" fill="black"/>
<path d="M7.35026 0.637695H9.18782V4.80233H13.3223V6.65328H7.35026V0.637695Z" fill="black"/>
<path d="M5.97208 14.0571H4.13452V9.89245H0V8.04149H5.97208V14.0571Z" fill="black"/>
<path d="M7.31964 14.0572H9.15721V11.8908C9.15721 11.8908 9.04574 10.8462 9.6166 10.2712C10.1875 9.69619 11.2245 9.80847 11.2245 9.80847H13.2917V7.95752H10.3057C10.3057 7.95752 9.1639 7.95752 8.23843 8.88299C7.31295 9.80846 7.31964 10.9653 7.31964 10.9653V14.0572Z" fill="black"/>
<path d="M28.5522 10.928H26.993V5.2823H26.9466L24.6744 10.8468H23.5731L21.3009 5.2823H21.2545V10.928H19.6953V2.5638H21.7241L24.1006 8.4935H24.1469L26.5235 2.5638H28.5522V10.928ZM32.5865 5.83296C32.2194 5.83296 31.9122 5.95854 31.6649 6.20972C31.4214 6.4609 31.2842 6.78163 31.2533 7.17192H33.8907C33.8713 6.7739 33.7419 6.45124 33.5023 6.20393C33.2666 5.95661 32.9613 5.83296 32.5865 5.83296ZM33.9139 9.02676H35.4673C35.3745 9.63732 35.0693 10.13 34.5515 10.5048C34.0375 10.8758 33.398 11.0613 32.6329 11.0613C31.6784 11.0613 30.9287 10.7753 30.3839 10.2034C29.8429 9.63152 29.5724 8.84708 29.5724 7.8501C29.5724 6.85698 29.8429 6.06481 30.3839 5.47358C30.9249 4.87849 31.6533 4.58094 32.5691 4.58094C33.4695 4.58094 34.1863 4.86303 34.7196 5.42721C35.2528 5.99139 35.5195 6.74685 35.5195 7.6936V8.20947H31.2359V8.31381C31.2359 8.7582 31.3654 9.11951 31.6243 9.39773C31.8871 9.6721 32.2329 9.80928 32.6618 9.80928C32.971 9.80928 33.2376 9.73972 33.4617 9.60061C33.6859 9.45763 33.8366 9.26635 33.9139 9.02676ZM38.7017 11.0265C37.925 11.0265 37.3086 10.7386 36.8526 10.1629C36.3966 9.58708 36.1686 8.80264 36.1686 7.80952C36.1686 6.82414 36.3966 6.04549 36.8526 5.47358C37.3125 4.90167 37.9327 4.61572 38.7133 4.61572C39.1538 4.61572 39.5402 4.72198 39.8725 4.93452C40.2087 5.14705 40.4541 5.42914 40.6087 5.78079H40.6435V2.5638H42.336V10.928H40.6666V9.86144H40.6377C40.4831 10.2131 40.2338 10.4952 39.8899 10.7077C39.546 10.9203 39.1499 11.0265 38.7017 11.0265ZM39.2755 5.97207C38.8504 5.97207 38.5143 6.13823 38.2669 6.47056C38.0235 6.80288 37.9018 7.25307 37.9018 7.82112C37.9018 8.39303 38.0235 8.84321 38.2669 9.17167C38.5143 9.50014 38.8504 9.66437 39.2755 9.66437C39.6967 9.66437 40.031 9.50014 40.2783 9.17167C40.5295 8.83935 40.655 8.38916 40.655 7.82112C40.655 7.25693 40.5295 6.80868 40.2783 6.47636C40.031 6.14016 39.6967 5.97207 39.2755 5.97207ZM47.3093 11.0729C46.0882 11.0729 45.1221 10.6884 44.4111 9.91941C43.7039 9.14656 43.3504 8.08775 43.3504 6.74299C43.3504 5.40209 43.7059 4.34715 44.4169 3.57816C45.1279 2.80531 46.0921 2.41889 47.3093 2.41889C47.9739 2.41889 48.5768 2.55027 49.1178 2.81304C49.6626 3.07581 50.0993 3.44678 50.4278 3.92595C50.7562 4.40511 50.9417 4.95191 50.9842 5.56632H49.2801C49.1989 5.05238 48.9767 4.64083 48.6135 4.33169C48.2541 4.02255 47.8194 3.86798 47.3093 3.86798C46.6485 3.86798 46.121 4.12689 45.7269 4.6447C45.3327 5.16251 45.1357 5.86001 45.1357 6.73719C45.1357 7.62984 45.3308 8.33506 45.7211 8.85287C46.1114 9.36682 46.6427 9.62379 47.3151 9.62379C47.8329 9.62379 48.2676 9.48081 48.6193 9.19486C48.9709 8.9089 49.1931 8.51861 49.2859 8.02399H50.99C50.8934 8.95528 50.5128 9.69721 49.8481 10.2498C49.1835 10.7985 48.3372 11.0729 47.3093 11.0729ZM54.2939 9.80348C54.6688 9.80348 54.9856 9.69528 55.2445 9.47888C55.5073 9.25862 55.6387 8.98233 55.6387 8.65V8.19788L54.3287 8.27903C54.0119 8.30222 53.7665 8.38143 53.5926 8.51668C53.4226 8.65193 53.3375 8.82969 53.3375 9.04995C53.3375 9.28181 53.4245 9.46536 53.5984 9.60061C53.7723 9.73586 54.0041 9.80348 54.2939 9.80348ZM53.7375 11.0265C53.1385 11.0265 52.642 10.8507 52.2478 10.499C51.8537 10.1474 51.6566 9.69528 51.6566 9.14269C51.6566 8.57851 51.8653 8.13605 52.2826 7.81532C52.6999 7.49459 53.297 7.31103 54.0737 7.26466L55.6387 7.17192V6.76038C55.6387 6.47442 55.544 6.2503 55.3547 6.088C55.1692 5.9257 54.9161 5.84455 54.5954 5.84455C54.2862 5.84455 54.0331 5.91411 53.836 6.05322C53.6428 6.19233 53.525 6.37975 53.4824 6.61547H51.9348C51.9657 6.00492 52.2266 5.51416 52.7173 5.14319C53.2081 4.76835 53.8592 4.58094 54.6707 4.58094C55.4667 4.58094 56.1043 4.77029 56.5835 5.14898C57.0627 5.52768 57.3023 6.03003 57.3023 6.65604V10.928H55.6677V9.97737H55.6329C55.4629 10.302 55.204 10.5589 54.8562 10.7483C54.5084 10.9338 54.1355 11.0265 53.7375 11.0265ZM62.0263 4.61572C62.8146 4.61572 63.4348 4.89974 63.887 5.46778C64.3429 6.03583 64.5709 6.82027 64.5709 7.82112C64.5709 8.81809 64.3468 9.60254 63.8986 10.1744C63.4503 10.7425 62.8359 11.0265 62.0553 11.0265C61.6109 11.0265 61.2187 10.926 60.8786 10.7251C60.5424 10.5203 60.2913 10.2401 60.1251 9.88463H60.0903V12.9567H58.3978V4.71425H60.0671V5.79818H60.1019C60.2719 5.42721 60.5231 5.13739 60.8554 4.92872C61.1916 4.72005 61.5819 4.61572 62.0263 4.61572ZM61.4583 9.66437C61.8795 9.66437 62.2137 9.4982 62.461 9.16588C62.7122 8.83355 62.8378 8.3853 62.8378 7.82112C62.8378 7.25693 62.7122 6.80868 62.461 6.47636C62.2137 6.14016 61.8795 5.97207 61.4583 5.97207C61.0448 5.97207 60.7125 6.1421 60.4613 6.48215C60.2101 6.81834 60.0845 7.26466 60.0845 7.82112C60.0845 8.38143 60.2082 8.82969 60.4555 9.16588C60.7067 9.4982 61.0409 9.66437 61.4583 9.66437ZM65.4752 10.928V4.71425H67.1677V10.928H65.4752ZM66.9648 3.77524C66.7909 3.94527 66.5765 4.03028 66.3214 4.03028C66.0664 4.03028 65.8519 3.94527 65.678 3.77524C65.5042 3.60521 65.4172 3.39848 65.4172 3.15503C65.4172 2.90771 65.5042 2.70098 65.678 2.53481C65.8519 2.36479 66.0664 2.27977 66.3214 2.27977C66.5765 2.27977 66.7909 2.36479 66.9648 2.53481C67.1387 2.70098 67.2257 2.90771 67.2257 3.15503C67.2257 3.39848 67.1387 3.60521 66.9648 3.77524ZM68.7501 3.28255H70.4427V4.71425H71.5904V5.98946H70.4427V8.963C70.4427 9.43058 70.6861 9.66437 71.173 9.66437C71.3314 9.66437 71.4686 9.65471 71.5846 9.63538V10.8816C71.3875 10.928 71.1189 10.9512 70.7789 10.9512C70.0485 10.9512 69.5268 10.8198 69.2138 10.557C68.9047 10.2942 68.7501 9.85951 68.7501 9.25282V5.98946H67.8749V4.71425H68.7501V3.28255ZM74.8595 9.80348C75.2343 9.80348 75.5512 9.69528 75.8101 9.47888C76.0729 9.25862 76.2043 8.98233 76.2043 8.65V8.19788L74.8943 8.27903C74.5774 8.30222 74.332 8.38143 74.1582 8.51668C73.9881 8.65193 73.9031 8.82969 73.9031 9.04995C73.9031 9.28181 73.9901 9.46536 74.1639 9.60061C74.3378 9.73586 74.5697 9.80348 74.8595 9.80348ZM74.3031 11.0265C73.7041 11.0265 73.2075 10.8507 72.8134 10.499C72.4192 10.1474 72.2222 9.69528 72.2222 9.14269C72.2222 8.57851 72.4308 8.13605 72.8482 7.81532C73.2655 7.49459 73.8625 7.31103 74.6393 7.26466L76.2043 7.17192V6.76038C76.2043 6.47442 76.1096 6.2503 75.9203 6.088C75.7348 5.9257 75.4817 5.84455 75.1609 5.84455C74.8518 5.84455 74.5987 5.91411 74.4016 6.05322C74.2084 6.19233 74.0905 6.37975 74.048 6.61547H72.5004C72.5313 6.00492 72.7921 5.51416 73.2829 5.14319C73.7737 4.76835 74.4248 4.58094 75.2363 4.58094C76.0323 4.58094 76.6699 4.77029 77.1491 5.14898C77.6283 5.52768 77.8678 6.03003 77.8678 6.65604V10.928H76.2333V9.97737H76.1985C76.0285 10.302 75.7695 10.5589 75.4218 10.7483C75.074 10.9338 74.7011 11.0265 74.3031 11.0265ZM79.0039 10.928V2.5638H80.6965V10.928H79.0039ZM89.4606 7.41537C89.4606 8.55533 89.1321 9.4499 88.4752 10.0991C87.8222 10.7483 86.9141 11.0729 85.7509 11.0729C84.4989 11.0729 83.5135 10.6865 82.7948 9.91361C82.0799 9.14076 81.7224 8.07616 81.7224 6.7198C81.7224 5.38277 82.0779 4.33169 82.789 3.56657C83.5039 2.80145 84.4776 2.41889 85.7103 2.41889C86.6841 2.41889 87.5092 2.68166 88.1854 3.20719C88.8616 3.73273 89.2616 4.41864 89.3853 5.26491H87.6289C87.5014 4.82825 87.2676 4.48626 86.9276 4.23895C86.5914 3.99164 86.1876 3.86798 85.7161 3.86798C85.0244 3.86798 84.4834 4.11723 84.0932 4.61572C83.7029 5.1142 83.5077 5.80784 83.5077 6.69662C83.5077 7.60085 83.7106 8.31381 84.1163 8.83548C84.526 9.35716 85.0805 9.618 85.7799 9.618C86.3518 9.618 86.8175 9.45763 87.1768 9.1369C87.5401 8.81616 87.7314 8.39689 87.7507 7.87908L87.7565 7.74576H85.9364V6.47056H89.4606V7.41537ZM90.475 10.928V4.71425H92.1096V5.83296H92.1443C92.2525 5.4388 92.4342 5.13739 92.6892 4.92872C92.9442 4.72005 93.2553 4.61572 93.6224 4.61572C93.8002 4.61572 93.9605 4.63697 94.1035 4.67948V6.16915C93.9451 6.10345 93.7403 6.07061 93.4891 6.07061C93.0718 6.07061 92.7472 6.19233 92.5153 6.43578C92.2834 6.67923 92.1675 7.01928 92.1675 7.45594V10.928H90.475ZM99.6912 10.2034C99.1386 10.7753 98.389 11.0613 97.4422 11.0613C96.4955 11.0613 95.7458 10.7734 95.1932 10.1976C94.6406 9.62186 94.3643 8.82776 94.3643 7.81532C94.3643 6.81448 94.6426 6.02617 95.199 5.4504C95.7593 4.87076 96.5071 4.58094 97.4422 4.58094C98.3812 4.58094 99.129 4.87076 99.6854 5.4504C100.242 6.02617 100.52 6.81448 100.52 7.81532C100.52 8.83162 100.244 9.62766 99.6912 10.2034ZM97.4422 9.7687C97.8596 9.7687 98.19 9.59867 98.4334 9.25862C98.6769 8.91857 98.7986 8.4394 98.7986 7.82112C98.7986 7.21056 98.6769 6.73333 98.4334 6.38941C98.19 6.04549 97.8596 5.87353 97.4422 5.87353C97.0249 5.87353 96.6926 6.04549 96.4452 6.38941C96.2018 6.73333 96.0801 7.21056 96.0801 7.82112C96.0801 8.4394 96.2018 8.91857 96.4452 9.25862C96.6887 9.59867 97.021 9.7687 97.4422 9.7687ZM107.134 4.71425V10.928H105.499V9.80928H105.464C105.14 10.6324 104.52 11.0439 103.604 11.0439C102.924 11.0439 102.381 10.8372 101.975 10.4237C101.569 10.0064 101.366 9.43831 101.366 8.71956V4.71425H103.059V8.36598C103.059 8.77945 103.157 9.09439 103.355 9.31079C103.555 9.52719 103.843 9.63538 104.218 9.63538C104.593 9.63538 104.891 9.51173 105.111 9.26442C105.331 9.0171 105.441 8.68671 105.441 8.27323V4.71425H107.134ZM111.864 4.61572C112.652 4.61572 113.272 4.89974 113.724 5.46778C114.18 6.03583 114.408 6.82027 114.408 7.82112C114.408 8.81809 114.184 9.60254 113.736 10.1744C113.288 10.7425 112.673 11.0265 111.893 11.0265C111.448 11.0265 111.056 10.926 110.716 10.7251C110.38 10.5203 110.129 10.2401 109.962 9.88463H109.928V12.9567H108.235V4.71425H109.904V5.79818H109.939C110.109 5.42721 110.36 5.13739 110.693 4.92872C111.029 4.72005 111.419 4.61572 111.864 4.61572ZM111.296 9.66437C111.717 9.66437 112.051 9.4982 112.298 9.16588C112.55 8.83355 112.675 8.3853 112.675 7.82112C112.675 7.25693 112.55 6.80868 112.298 6.47636C112.051 6.14016 111.717 5.97207 111.296 5.97207C110.882 5.97207 110.55 6.1421 110.299 6.48215C110.047 6.81834 109.922 7.26466 109.922 7.82112C109.922 8.38143 110.046 8.82969 110.293 9.16588C110.544 9.4982 110.878 9.66437 111.296 9.66437Z" fill="black"/>
</svg>
