<svg width="1440" height="1097" viewBox="0 0 1440 1097" fill="none" xmlns="http://www.w3.org/2000/svg">
<g clip-path="url(#clip0)">
<path d="M-463.672 1215.19C-329.019 1082.97 -192.278 1245.47 -38.9985 1133.26C85.6622 1042.01 36.0961 872.81 157.058 774.47C338.402 627.05 475.192 950.31 661.586 812.47C802.938 707.94 741.27 493.51 889.902 407.21C995.672 345.81 1072.84 460.92 1171.1 382.06C1296.48 281.43 1269.95 146.98 1389.28 38.0598C1563.14 -120.64 1815.29 35.8997 1937.4 -169.98C2048.32 -357 1882.99 -652.403 1882.99 -652.403" stroke="#66E3FF"/>
<path d="M-386.066 1274.65C-264.614 1194.08 -198.142 1302.99 -121.664 1212.55C-31.0042 1105.34 -132.627 1051.25 -65.4196 928.11C115.099 597.34 483.151 962.29 790.282 632.42C1060.97 341.68 915.858 328.43 1058.35 187.21C1310.42 -62.6001 1604.58 221.35 1832.48 -14.85C2052.14 -242.52 1854.22 -765.391 2342.26 -832.163" stroke="#0153FF"/>
</g>
<defs>
<clipPath id="clip0">
<rect width="1440" height="1097" fill="white"/>
</clipPath>
</defs>
</svg>
