<svg width="70" height="87" viewBox="0 0 70 87" fill="none" xmlns="http://www.w3.org/2000/svg">
<g clip-path="url(#clip0_613_2462)">
<path d="M64.783 63.0388C64.783 73.6177 56.1747 82.2224 45.5958 82.2224C39.3141 82.2224 33.4125 79.7773 28.9759 75.3338L6.41956 52.7809C5.81969 52.1844 5.48828 51.3857 5.48828 50.5172C5.48828 48.7663 6.91136 47.3433 8.66225 47.3433C9.74002 47.3433 10.8143 47.5978 11.7804 48.0792L23.8941 54.1343C24.4348 54.4029 25.0799 54.3749 25.5892 54.0576C26.1019 53.7403 26.4159 53.1786 26.4159 52.5752V8.97593C26.4159 7.05402 27.9784 5.48804 29.9037 5.48804C31.8291 5.48804 33.3916 7.05418 33.3916 8.97593V42.1114C33.3916 43.074 34.173 43.8554 35.1356 43.8554C36.0983 43.8554 36.8797 43.074 36.8797 42.1114V26.4157C36.8797 24.4937 38.4422 22.9278 40.3675 22.9278C42.2929 22.9278 43.8554 24.4939 43.8554 26.4157V42.1114C43.8554 43.074 44.6368 43.8554 45.5994 43.8554C46.5621 43.8554 47.3435 43.074 47.3435 42.1114V29.9035C47.3435 27.9816 48.906 26.4157 50.8313 26.4157C52.7567 26.4157 54.3192 27.9818 54.3192 29.9035V42.1114C54.3192 43.074 55.1006 43.8554 56.0632 43.8554C57.0259 43.8554 57.8073 43.074 57.8073 42.1114V33.3914C57.8073 31.4695 59.3698 29.9035 61.2951 29.9035C63.2205 29.9035 64.783 31.4697 64.783 33.3914V63.0388Z" fill="white"/>
<path fill-rule="evenodd" clip-rule="evenodd" d="M35.8914 22.3988L35.9708 22.3526C35.9441 22.3815 35.9176 22.4107 35.8914 22.4402V22.3988ZM13.8985 43.8396L21.6776 47.7305V8.97593C21.6776 4.43832 25.3659 0.75 29.9035 0.75C34.4411 0.75 38.1295 4.43832 38.1295 8.97593V18.4997C38.8418 18.2978 39.5928 18.1897 40.3673 18.1897C43.4369 18.1897 46.1152 19.8785 47.5292 22.3695C48.5405 21.9254 49.6584 21.6776 50.8311 21.6776C53.9007 21.6776 56.579 23.3663 57.993 25.8574C59.0043 25.4133 60.1222 25.1655 61.2949 25.1655C65.8326 25.1655 69.5209 28.8538 69.5209 33.3914V63.0388C69.5209 76.23 58.7904 86.9604 45.5992 86.9604C38.0553 86.9604 30.953 84.0214 25.6223 78.6871M25.6223 78.6871L3.06947 56.1343C1.57635 54.6413 0.75 52.6527 0.75 50.5382C0.75 46.1571 4.29246 42.6052 8.66201 42.6052C10.4699 42.6052 12.28 43.0301 13.8985 43.8396M45.5956 82.2224C56.1745 82.2224 64.7828 73.6177 64.7828 63.0388V33.3914C64.7828 31.4697 63.2203 29.9035 61.2949 29.9035C59.3696 29.9035 57.8071 31.4695 57.8071 33.3914V42.1114C57.8071 43.074 57.0257 43.8554 56.063 43.8554C55.1004 43.8554 54.319 43.074 54.319 42.1114V29.9035C54.319 27.9818 52.7565 26.4157 50.8311 26.4157C48.9058 26.4157 47.3433 27.9816 47.3433 29.9035V42.1114C47.3433 43.074 46.5619 43.8554 45.5992 43.8554C44.6366 43.8554 43.8552 43.074 43.8552 42.1114V26.4157C43.8552 24.4939 42.2927 22.9278 40.3673 22.9278C38.442 22.9278 36.8795 24.4937 36.8795 26.4157V42.1114C36.8795 43.074 36.0981 43.8554 35.1354 43.8554C34.1728 43.8554 33.3914 43.074 33.3914 42.1114V8.97593C33.3914 7.05418 31.8289 5.48804 29.9035 5.48804C27.9782 5.48804 26.4157 7.05402 26.4157 8.97593V52.5752C26.4157 53.1786 26.1017 53.7403 25.589 54.0576C25.0797 54.375 24.4346 54.4029 23.8939 54.1343L11.7802 48.0792C10.8141 47.5978 9.73978 47.3433 8.66201 47.3433C6.91112 47.3433 5.48804 48.7663 5.48804 50.5172C5.48804 51.3857 5.81945 52.1844 6.41932 52.7809L28.9757 75.3338C33.4123 79.7773 39.3139 82.2224 45.5956 82.2224Z" fill="black"/>
</g>
<defs>
<clipPath id="clip0_613_2462">
<rect width="70" height="87" fill="white"/>
</clipPath>
</defs>
</svg>
