<svg width="42" height="14" viewBox="0 0 42 14" fill="none" xmlns="http://www.w3.org/2000/svg">
<g clip-path="url(#clip0_613_2460)">
<path d="M0.559156 8.03131L5.33189 12.804C5.87789 13.3501 6.69918 13.5132 7.41241 13.2179C8.12578 12.9224 8.59096 12.2262 8.59096 11.4541V8.59042H40.0909C41.1452 8.59042 42 7.73565 42 6.68133C42 5.627 41.1452 4.77223 40.0909 4.77223H8.59096V1.9086C8.59096 1.13643 8.1259 0.440257 7.41241 0.144857C7.17632 0.0471115 6.92814 -0.000488281 6.68225 -0.000488281C6.1855 -0.000488281 5.69716 0.193475 5.33202 0.558748L0.559285 5.33147C-0.186406 6.07703 -0.186407 7.28574 0.559156 8.03131Z" fill="black"/>
</g>
<defs>
<clipPath id="clip0_613_2460">
<rect width="42" height="14" fill="white"/>
</clipPath>
</defs>
</svg>
