<svg width="32" height="31" viewBox="0 0 32 31" fill="none" xmlns="http://www.w3.org/2000/svg">
<path d="M29.5431 12.0153C29.0214 11.47 28.4817 10.9081 28.2782 10.4141C28.09 9.96152 28.0789 9.21143 28.0679 8.48487C28.0471 7.13415 28.025 5.60353 26.9607 4.53929C25.8965 3.47504 24.3658 3.4529 23.0151 3.43214C22.2886 3.42107 21.5385 3.41 21.0859 3.22179C20.5933 3.01835 20.03 2.47862 19.4847 1.95687C18.5298 1.03933 17.4448 0 16 0C14.5552 0 13.4716 1.03933 12.5153 1.95687C11.97 2.47862 11.4081 3.01835 10.9141 3.22179C10.4643 3.41 9.71143 3.42107 8.98487 3.43214C7.63415 3.4529 6.10353 3.47504 5.03929 4.53929C3.97504 5.60353 3.95982 7.13415 3.93214 8.48487C3.92107 9.21143 3.91 9.96152 3.72179 10.4141C3.51835 10.9067 2.97862 11.47 2.45687 12.0153C1.53933 12.9702 0.5 14.0552 0.5 15.5C0.5 16.9448 1.53933 18.0284 2.45687 18.9847C2.97862 19.53 3.51835 20.0919 3.72179 20.5859C3.91 21.0385 3.92107 21.7886 3.93214 22.5151C3.9529 23.8658 3.97504 25.3965 5.03929 26.4607C6.10353 27.525 7.63415 27.5471 8.98487 27.5679C9.71143 27.5789 10.4615 27.59 10.9141 27.7782C11.4067 27.9817 11.97 28.5214 12.5153 29.0431C13.4702 29.9607 14.5552 31 16 31C17.4448 31 18.5284 29.9607 19.4847 29.0431C20.03 28.5214 20.5919 27.9817 21.0859 27.7782C21.5385 27.59 22.2886 27.5789 23.0151 27.5679C24.3658 27.5471 25.8965 27.525 26.9607 26.4607C28.025 25.3965 28.0471 23.8658 28.0679 22.5151C28.0789 21.7886 28.09 21.0385 28.2782 20.5859C28.4817 20.0933 29.0214 19.53 29.5431 18.9847C30.4607 18.0298 31.5 16.9448 31.5 15.5C31.5 14.0552 30.4607 12.9716 29.5431 12.0153ZM27.9447 17.4527C27.2818 18.1447 26.5954 18.8602 26.2314 19.739C25.8826 20.5832 25.8674 21.5478 25.8536 22.4819C25.8397 23.4507 25.8245 24.4651 25.3941 24.8941C24.9637 25.3231 23.9562 25.3397 22.9819 25.3536C22.0478 25.3674 21.0832 25.3826 20.239 25.7314C19.3602 26.0954 18.6447 26.7818 17.9527 27.4447C17.2608 28.1076 16.5536 28.7857 16 28.7857C15.4464 28.7857 14.7337 28.1048 14.0473 27.4447C13.3608 26.7846 12.6398 26.0954 11.761 25.7314C10.9168 25.3826 9.95223 25.3674 9.01808 25.3536C8.04933 25.3397 7.03491 25.3245 6.60589 24.8941C6.17687 24.4637 6.16027 23.4562 6.14643 22.4819C6.13259 21.5478 6.11737 20.5832 5.76862 19.739C5.40464 18.8602 4.71821 18.1447 4.05531 17.4527C3.39241 16.7608 2.71429 16.0536 2.71429 15.5C2.71429 14.9464 3.39518 14.2337 4.05531 13.5473C4.71545 12.8608 5.40464 12.1398 5.76862 11.261C6.11737 10.4168 6.13259 9.45223 6.14643 8.51808C6.16027 7.54933 6.17549 6.53491 6.60589 6.10589C7.03629 5.67687 8.04379 5.66027 9.01808 5.64643C9.95223 5.63259 10.9168 5.61737 11.761 5.26862C12.6398 4.90464 13.3553 4.21821 14.0473 3.55531C14.7392 2.89241 15.4464 2.21429 16 2.21429C16.5536 2.21429 17.2663 2.89518 17.9527 3.55531C18.6392 4.21545 19.3602 4.90464 20.239 5.26862C21.0832 5.61737 22.0478 5.63259 22.9819 5.64643C23.9507 5.66027 24.9651 5.67549 25.3941 6.10589C25.8231 6.53629 25.8397 7.54379 25.8536 8.51808C25.8674 9.45223 25.8826 10.4168 26.2314 11.261C26.5954 12.1398 27.2818 12.8553 27.9447 13.5473C28.6076 14.2392 29.2857 14.9464 29.2857 15.5C29.2857 16.0536 28.6048 16.7663 27.9447 17.4527ZM22.319 11.3953C22.422 11.4981 22.5036 11.6202 22.5593 11.7546C22.615 11.889 22.6437 12.0331 22.6437 12.1786C22.6437 12.3241 22.615 12.4681 22.5593 12.6025C22.5036 12.7369 22.422 12.8591 22.319 12.9619L14.569 20.7119C14.4662 20.8148 14.3441 20.8965 14.2097 20.9522C14.0753 21.0079 13.9312 21.0366 13.7857 21.0366C13.6402 21.0366 13.4961 21.0079 13.3617 20.9522C13.2273 20.8965 13.1052 20.8148 13.0024 20.7119L9.68098 17.3904C9.57812 17.2876 9.49652 17.1655 9.44085 17.0311C9.38518 16.8967 9.35653 16.7526 9.35653 16.6071C9.35653 16.4617 9.38518 16.3176 9.44085 16.1832C9.49652 16.0488 9.57812 15.9267 9.68098 15.8238C9.88873 15.6161 10.1705 15.4994 10.4643 15.4994C10.6098 15.4994 10.7538 15.528 10.8882 15.5837C11.0226 15.6394 11.1447 15.721 11.2476 15.8238L13.7857 18.3633L20.7524 11.3953C20.8552 11.2923 20.9773 11.2107 21.1117 11.155C21.2461 11.0992 21.3902 11.0706 21.5357 11.0706C21.6812 11.0706 21.8253 11.0992 21.9597 11.155C22.0941 11.2107 22.2162 11.2923 22.319 11.3953Z" fill="#4285F4"/>
</svg>
