<svg width="32" height="31" viewBox="0 0 32 31" fill="none" xmlns="http://www.w3.org/2000/svg">
<path d="M9.16062 0.42625C9.29537 0.29119 9.45542 0.184023 9.63162 0.110883C9.80782 0.037742 9.99672 6.24724e-05 10.1875 0L21.8125 0C22.1981 0 22.5662 0.153062 22.8394 0.42625L31.0737 8.66062C31.3469 8.93187 31.5 9.30194 31.5 9.6875V21.3125C31.4999 21.5033 31.4623 21.6922 31.3891 21.8684C31.316 22.0446 31.2088 22.2046 31.0737 22.3394L22.8394 30.5737C22.7046 30.7088 22.5446 30.816 22.3684 30.8891C22.1922 30.9623 22.0033 30.9999 21.8125 31H10.1875C9.99672 30.9999 9.80782 30.9623 9.63162 30.8891C9.45542 30.816 9.29537 30.7088 9.16062 30.5737L0.92625 22.3394C0.79119 22.2046 0.684023 22.0446 0.610883 21.8684C0.537742 21.6922 0.500062 21.5033 0.5 21.3125L0.5 9.6875C0.5 9.30194 0.653062 8.93381 0.92625 8.66062L9.16062 0.42625ZM10.7881 2.90625L3.40625 10.2881V20.7119L10.7881 28.0938H21.2119L28.5938 20.7119V10.2881L21.2119 2.90625H10.7881ZM16 7.75C16.3854 7.75 16.755 7.9031 17.0275 8.17561C17.3 8.44812 17.4531 8.81773 17.4531 9.20312V15.9844C17.4531 16.3698 17.3 16.7394 17.0275 17.0119C16.755 17.2844 16.3854 17.4375 16 17.4375C15.6146 17.4375 15.245 17.2844 14.9725 17.0119C14.7 16.7394 14.5469 16.3698 14.5469 15.9844V9.20312C14.5469 8.81773 14.7 8.44812 14.9725 8.17561C15.245 7.9031 15.6146 7.75 16 7.75ZM16 23.25C15.4861 23.25 14.9933 23.0459 14.63 22.6825C14.2666 22.3192 14.0625 21.8264 14.0625 21.3125C14.0625 20.7986 14.2666 20.3058 14.63 19.9425C14.9933 19.5791 15.4861 19.375 16 19.375C16.5139 19.375 17.0067 19.5791 17.37 19.9425C17.7334 20.3058 17.9375 20.7986 17.9375 21.3125C17.9375 21.8264 17.7334 22.3192 17.37 22.6825C17.0067 23.0459 16.5139 23.25 16 23.25Z" fill="#EE6565"/>
</svg>
