<svg width="22" height="22" viewBox="0 0 22 22" fill="none" xmlns="http://www.w3.org/2000/svg">
<rect x="1.41421" y="10.6067" width="13" height="13" rx="3" transform="rotate(-45 1.41421 10.6067)" fill="#EE6565"/>
<rect x="1.41421" y="10.6067" width="13" height="13" rx="3" transform="rotate(-45 1.41421 10.6067)" stroke="#EE6565" stroke-width="2"/>
<path d="M10.6055 5.60669C10.9038 5.60669 11.19 5.70546 11.401 5.88128C11.6119 6.05709 11.7305 6.29555 11.7305 6.54419V10.9192C11.7305 11.1678 11.6119 11.4063 11.401 11.5821C11.19 11.7579 10.9038 11.8567 10.6055 11.8567C10.3071 11.8567 10.021 11.7579 9.80997 11.5821C9.599 11.4063 9.48047 11.1678 9.48047 10.9192V6.54419C9.48047 6.29555 9.599 6.05709 9.80997 5.88128C10.021 5.70546 10.3071 5.60669 10.6055 5.60669ZM10.6055 15.6067C10.2076 15.6067 9.82611 15.475 9.54481 15.2406C9.2635 15.0062 9.10547 14.6882 9.10547 14.3567C9.10547 14.0252 9.2635 13.7072 9.54481 13.4728C9.82611 13.2384 10.2076 13.1067 10.6055 13.1067C11.0033 13.1067 11.3848 13.2384 11.6661 13.4728C11.9474 13.7072 12.1055 14.0252 12.1055 14.3567C12.1055 14.6882 11.9474 15.0062 11.6661 15.2406C11.3848 15.475 11.0033 15.6067 10.6055 15.6067Z" fill="white"/>
</svg>
