<svg width="22" height="22" viewBox="0 0 22 22" fill="none" xmlns="http://www.w3.org/2000/svg">
<rect x="1.41421" y="11.0332" width="13" height="13" rx="3" transform="rotate(-45 1.41421 11.0332)" fill="#4285F4"/>
<rect x="1.41421" y="11.0332" width="13" height="13" rx="3" transform="rotate(-45 1.41421 11.0332)" stroke="#4285F4" stroke-width="2"/>
<path d="M13.9364 8.22869C13.9906 8.2906 14.0336 8.36411 14.063 8.44503C14.0923 8.52595 14.1074 8.61268 14.1074 8.70028C14.1074 8.78787 14.0923 8.87461 14.063 8.95553C14.0336 9.03644 13.9906 9.10996 13.9364 9.17186L9.85348 13.8377C9.79931 13.8997 9.73498 13.9489 9.66418 13.9824C9.59337 14.0159 9.51747 14.0332 9.44082 14.0332C9.36417 14.0332 9.28827 14.0159 9.21746 13.9824C9.14665 13.9489 9.08233 13.8997 9.02816 13.8377L7.27835 11.8381C7.22416 11.7761 7.18117 11.7026 7.15184 11.6217C7.12252 11.5408 7.10742 11.4541 7.10742 11.3665C7.10742 11.2789 7.12252 11.1922 7.15184 11.1113C7.18117 11.0303 7.22416 10.9568 7.27835 10.8949C7.3878 10.7698 7.53624 10.6996 7.69101 10.6996C7.76765 10.6996 7.84354 10.7168 7.91435 10.7503C7.98515 10.7838 8.04949 10.833 8.10368 10.8949L9.44082 12.4238L13.111 8.22869C13.1652 8.16672 13.2295 8.11756 13.3003 8.08401C13.3711 8.05047 13.447 8.0332 13.5237 8.0332C13.6003 8.0332 13.6762 8.05047 13.7471 8.08401C13.8179 8.11756 13.8822 8.16672 13.9364 8.22869Z" fill="white"/>
</svg>
