<svg xmlns="http://www.w3.org/2000/svg">
  <symbol id="ico-telegram" viewBox="0 0 29 28" fill="none" xmlns="http://www.w3.org/2000/svg">
    <path d="M14.5 0C6.49181 0 0 6.26795 0 14C0 21.732 6.49181 28 14.5 28C22.5082 28 29 21.732 29 14C29 6.26795 22.5082 0 14.5 0Z" fill="#4285F4" />
    <path d="M21.5572 8.0532L18.9672 20.6607C18.9672 20.6607 18.6051 21.5351 17.609 21.1154L11.6325 16.6914L9.45929 15.6773L5.80099 14.4882C5.80099 14.4882 5.23956 14.2959 5.18519 13.8762C5.13081 13.4565 5.81911 13.2293 5.81911 13.2293L20.3617 7.72114C20.3617 7.72114 21.557 7.21407 21.557 8.05342" fill="white" />
    <path d="M11.1727 20.5189C11.1727 20.5189 10.9982 20.5031 10.7807 19.8385C10.5636 19.1741 9.45874 15.6769 9.45874 15.6769L18.2423 10.2913C18.2423 10.2913 18.7495 9.99402 18.7314 10.2913C18.7314 10.2913 18.8219 10.3438 18.5501 10.5886C18.2786 10.8335 11.6502 16.5863 11.6502 16.5863" fill="#4285F4" />
    <path d="M13.9227 18.3876L11.5588 20.4686C11.5588 20.4686 11.374 20.604 11.1719 20.5191L11.6245 16.6538" fill="#4285F4" />
  </symbol>
  <symbol id='ico-viber' viewBox="0 0 29 28" fill="none" xmlns="http://www.w3.org/2000/svg">
    <path d="M17.4013 0H11.6005C6.00301 0 1.44922 4.39677 1.44922 9.80126V14.0018C1.44922 17.7961 3.71564 21.2394 7.24995 22.859V27.5369C7.24995 27.943 7.7762 28.1554 8.07515 27.8669L12.2841 23.8031H17.4012C22.9986 23.8031 27.5525 19.4063 27.5525 14.0018V9.80126C27.5525 4.39677 22.9986 0 17.4013 0Z" fill="#4285F4" />
    <path d="M8.70013 22.859C5.16581 21.2393 2.89939 17.796 2.89939 14.0018V9.8012C2.89939 4.39677 7.45324 0 13.0507 0H11.6005C6.00301 0 1.44922 4.39677 1.44922 9.80126V14.0018C1.44922 17.7961 3.71564 21.2394 7.24996 22.859V27.5369C7.24996 27.943 7.7762 28.1554 8.07515 27.8669L8.70013 27.2635V22.859Z" fill="#4285F4" />
    <path d="M21.7991 17.396L21.3645 15.1229C21.3285 14.9351 21.1779 14.7873 20.9839 14.7499L17.5658 14.0899C17.4071 14.0593 17.2435 14.1072 17.1291 14.2175L15.7405 15.5583C13.4008 14.5461 12.1022 13.2896 10.9597 10.9336L12.3439 9.59723C12.4581 9.48687 12.5077 9.32861 12.4761 9.17559L11.7925 5.87531C11.7537 5.68811 11.6007 5.54254 11.4062 5.50786L9.05185 5.0883C8.98739 5.07687 8.92101 5.07808 8.85701 5.09213C8.23537 5.22847 7.66818 5.53089 7.21669 5.96691C6.43494 6.72171 6.13616 7.82311 6.35275 9.15208C6.71633 11.3837 7.84869 14.4892 9.93788 16.5145L9.96643 16.5418C12.0624 18.5576 15.2789 19.651 17.5903 20.0021C17.8815 20.0464 18.1619 20.0683 18.4309 20.0683C19.4331 20.0683 20.2728 19.763 20.8893 19.1679C21.3408 18.7319 21.6542 18.1843 21.7953 17.5842C21.8096 17.5223 21.811 17.4583 21.7991 17.396Z" fill="white" />
    <path d="M11.8702 10.0535L12.3428 9.59717L12.3433 9.59668L11.8701 10.0535L11.8702 10.0535Z" fill="#4285F4" />
    <path d="M17.1296 14.2174L16.6523 14.6782L16.6524 14.6783L17.1297 14.2175L17.1296 14.2174Z" fill="#4285F4" />
    <path d="M19.3419 19.1883C19.073 19.1883 18.7926 19.1664 18.5014 19.1221C16.1901 18.771 12.9735 17.6776 10.8775 15.6619L10.849 15.6345C8.75977 13.6093 7.62742 10.5037 7.26384 8.27212C7.08888 7.19844 7.25064 6.27341 7.73146 5.55957C7.54733 5.67819 7.37452 5.81425 7.2162 5.9671C6.43445 6.7219 6.13567 7.8233 6.35227 9.15227C6.71584 11.3838 7.8482 14.4894 9.93739 16.5147L9.96594 16.542C12.0619 18.5577 15.2784 19.6512 17.5898 20.0023C17.881 20.0466 18.1614 20.0685 18.4304 20.0685C19.4326 20.0685 20.2723 19.7633 20.8889 19.1681C21.0471 19.0152 21.188 18.8484 21.3109 18.6706C20.765 19.0134 20.1001 19.1883 19.3419 19.1883Z" fill="#4285F4" />
    <path d="M15.4665 7.93457C15.1996 7.93457 14.9832 8.14353 14.9832 8.40127C14.9832 8.65902 15.1996 8.86798 15.4665 8.86798C16.5327 8.86798 17.4001 9.70546 17.4001 10.7349C17.4001 10.9892 17.6201 11.2016 17.8835 11.2016C18.1469 11.2016 18.3669 10.9892 18.3669 10.7349C18.3669 9.19074 17.0658 7.93457 15.4665 7.93457Z" fill="white" />
    <path d="M15.4659 6.06738C15.2871 6.06738 15.1066 6.07695 14.9294 6.09582C14.6641 6.12409 14.4727 6.35471 14.502 6.61098C14.5313 6.86724 14.7706 7.05154 15.0355 7.0237C15.1776 7.00856 15.3224 7.00084 15.4659 7.00084C17.5982 7.00084 19.333 8.67581 19.333 10.7346C19.333 10.8733 19.325 11.013 19.3094 11.1502C19.2805 11.4029 19.475 11.6375 19.7368 11.6654C19.9986 11.6932 20.2414 11.5055 20.2704 11.2526C20.2899 11.0816 20.2998 10.9073 20.2998 10.7346C20.2998 8.16115 18.1313 6.06738 15.4659 6.06738Z" fill="white" />
    <path d="M15.4664 4.20068C15.2936 4.20068 15.1186 4.20703 14.9465 4.21966C14.6802 4.23913 14.4808 4.46335 14.5009 4.72032C14.521 4.97736 14.754 5.16997 15.0195 5.1505C15.1675 5.13961 15.3178 5.13414 15.4664 5.13414C18.6649 5.13414 21.2671 7.6466 21.2671 10.7349C21.2671 11.1718 21.2149 11.6068 21.1119 12.0277C21.0528 12.2688 21.2067 12.5195 21.4543 12.585C21.715 12.654 21.9907 12.4962 22.0528 12.2424C22.1729 11.7512 22.2339 11.2441 22.2339 10.7349C22.2339 7.13188 19.198 4.20068 15.4664 4.20068Z" fill="white" />
  </symbol>
  <symbol id="ico-arrow" viewBox="0 0 38 38" fill="none" xmlns="http://www.w3.org/2000/svg">
    <path d="M18.987 0.834589L19.0229 37.2089" stroke="currentColor" stroke-width="1.5" stroke-linecap="round" stroke-linejoin="round" />
    <path d="M1.51764 20.2195L19.0183 37.2083L36.4886 20.2476" stroke="currentColor" stroke-width="1.5" stroke-linecap="round" stroke-linejoin="round" />
  </symbol>
</svg>